<svg xmlns="http://www.w3.org/2000/svg" viewBox="0 0 1000 1113" role="img" aria-labelledby="title desc" shape-rendering="geometricPrecision">
<title id="title">EP2 C4 区域 25</title>
<desc id="desc">同色机关对应屏障 限时机关 照明机关 回复点 障壁 / 陷阱 箱子（数字为物资数量） 配对传送（A → A′） 3号房先向南解除毒，再走东侧外圈；走廊 Sinow 是必须处理的挡路敌人。 4号房跳过不活动的 Recobox；向西到5号房击倒 Delbiter，再南下 A。 8号房南侧隐藏支路尽头有回复区屏障解除机关；回复装置在西北支路，属于可选回收。 6号房清 Sinow，7号房清活动箱，8号房两只 Sinow 后向西；出口走廊还有挡路 Sinow。</desc>
<defs><filter id="shadow" x="-30%" y="-30%" width="160%" height="160%"><feDropShadow dx="0" dy="2" stdDeviation="2.5" flood-color="#000" flood-opacity=".35"/></filter><pattern id="dark-hatch" width="21.728" height="21.728" patternUnits="userSpaceOnUse" patternTransform="rotate(45)"><rect width="21.728" height="21.728" fill="#000" fill-opacity=".25"/><path d="M0 0V21.728" stroke="#4fe3ff" stroke-opacity=".25" stroke-width="6.5184"/></pattern><marker id="arrow-main" viewBox="0 0 10 10" refX="6" refY="5" markerWidth="3.2" markerHeight="3.2" orient="auto-start-reverse"><path d="M0 0 10 5 0 10Z" fill="#ffd23f" stroke="#061329" stroke-width="1"/></marker><marker id="arrow-split" viewBox="0 0 10 10" refX="6" refY="5" markerWidth="3.2" markerHeight="3.2" orient="auto-start-reverse"><path d="M0 0 10 5 0 10Z" fill="#f5f7ff" stroke="#061329" stroke-width="1"/></marker><marker id="arrow-solo" viewBox="0 0 10 10" refX="6" refY="5" markerWidth="3.2" markerHeight="3.2" orient="auto-start-reverse"><path d="M0 0 10 5 0 10Z" fill="#b48cff" stroke="#061329" stroke-width="1"/></marker></defs>
<rect width="1000" height="1113" rx="18" fill="#071a31"/>
<text x="26" y="30" text-anchor="start" fill="#a9d8ed" font-family="system-ui,-apple-system,sans-serif" font-size="16" font-weight="900">EP2 C4 区域 25</text>
<g transform="translate(7.26068 65.2725) scale(0.460236)">
  <g filter="url(#shadow)"><g id="ep2-25-floor"><path d="M869 77L868 98L730 98L730 65L725 59L640 59L635 65L634 98L555 98L554 322L484 322L484 304L466 294L414 294L414 334L376 334L376 294L326 294L326 280L375 280L375 271L364 270L364 178L315 178L306 175L290 175L290 210L172 211L160 208L160 192L106 192L106 204L129 204L129 231L125 234L106 234L106 246L160 246L160 230L168 229L170 227L307 227L307 190L312 188L352 188L352 270L308 271L306 322L225 323L224 548L172 548L172 564L234 564L234 340L306 340L306 416L310 420L480 420L484 415L484 340L564 340L564 116L634 116L635 148L640 154L725 154L730 148L730 116L868 116L869 159L972 159L972 138L1010 138L1011 159L1095 159L1096 116L1148 115L1160 118L1160 134L1214 134L1214 105L1188 104L1187 80L1160 80L1160 96L1148 99L1096 98L1096 56L1001 56L1001 87L1022 88L1022 106L994 106L993 76L962 76L961 56L869 56Z M920 108L920 116L912 116L912 98L920 98Z M1052 122L1052 126L1044 126L1045 118L1052 118Z M382 366L382 374L366 374L365 358L382 358Z M422 366L422 374L406 374L405 358L422 358Z M342 393L342 402L324 402L325 384L342 384Z M466 393L466 402L450 402L449 385L466 384Z M386 494L386 553L384 554L384 562L368 563L368 617L422 617L422 563L406 562L405 554L403 553L403 435L386 435Z M1020 612L1020 644L1037 644L1038 598L1266 598L1267 661L1284 661L1284 581L1020 581Z M697 671L697 717L732 717L733 720L828 720L829 717L980 718L980 751L986 756L1018 756L1019 824L1016 836L1000 837L1000 890L1055 890L1055 837L1038 836L1038 828L1036 824L1037 725L1041 721L1041 756L1071 756L1076 750L1076 718L1226 718L1227 751L1232 757L1260 757L1260 724L1264 724L1264 756L1267 758L1267 783L1271 781L1271 790L1280 790L1280 784L1284 784L1284 758L1287 756L1288 724L1290 724L1291 757L1318 757L1323 751L1324 718L1398 718L1398 944L1328 944L1327 839L1307 810L1225 810L1224 820L1138 821L1138 1020L1096 1021L1096 1245L1138 1246L1138 1314L1136 1318L1136 1326L1119 1326L1119 1355L1142 1356L1142 1379L1174 1379L1174 1326L1158 1326L1155 1314L1156 1246L1198 1245L1198 1021L1156 1020L1156 838L1223 838L1225 840L1225 1004L1327 1004L1328 962L1416 961L1416 700L1324 700L1323 667L1318 661L1291 661L1290 694L1260 694L1260 661L1232 661L1227 667L1226 700L1076 700L1076 666L1071 660L985 660L980 666L980 700L829 700L828 697L787 697L785 694L828 693L785 692L785 661L788 661L788 625L697 625Z M771 647L771 661L777 661L777 692L733 692L734 694L777 694L775 697L733 697L732 700L706 700L706 632L770 632Z M783 676L783 692L778 692L778 661L783 661Z M1035 690L1041 697L1032 697L1032 693L1036 693L1033 689L1030 691L1028 688L1004 688L1003 686L1004 684L1029 684Z M783 695L783 697L778 697L778 693L783 693Z M783 703L778 704L778 702Z M1041 710L1041 716L1037 713L1037 709L1040 704Z M1033 718L1033 720L1025 720L1027 717Z M1041 718L1041 720L1037 720L1037 717Z" fill="#173d60" fill-rule="evenodd"/></g><path d="" fill="#102b42" fill-rule="evenodd"/><path d="" fill="url(#dark-hatch)" fill-rule="evenodd"/><path d="M1268 776L1268 782L1270 782L1271 780L1280 780L1281 782L1283 782L1283 771L1268 771Z M1272 785L1271 790L1280 790L1279 783L1272 783Z M1226 816L1226 822L1211 822L1211 837L1226 837L1226 938L1262 938L1270 958L1282 958L1290 938L1301 938L1301 901L1304 901L1304 941L1293 941L1286 962L1266 962L1259 941L1226 941L1226 1003L1326 1003L1326 960L1341 960L1341 945L1326 945L1326 840L1306 811L1251 811L1251 878L1248 878L1248 811L1226 811Z M1279 899L1279 908L1283 908L1283 911L1279 911L1279 917L1275 917L1275 911L1263 911L1263 908L1275 890L1279 890Z M1271 903L1268 908L1275 908L1275 898Z" fill="#542c76" fill-rule="evenodd"/></g>
  <path d="M869 77L868 98L730 98L730 65L725 59L640 59L635 65L634 98L555 98L554 322L484 322L484 304L466 294L414 294L414 334L376 334L376 294L326 294L326 280L375 280L375 271L364 270L364 178L315 178L306 175L290 175L290 210L172 211L160 208L160 192L106 192L106 204L129 204L129 231L125 234L106 234L106 246L160 246L160 230L168 229L170 227L307 227L307 190L312 188L352 188L352 270L308 271L306 322L225 323L224 548L172 548L172 564L234 564L234 340L306 340L306 416L310 420L480 420L484 415L484 340L564 340L564 116L634 116L635 148L640 154L725 154L730 148L730 116L868 116L869 159L972 159L972 138L1010 138L1011 159L1095 159L1096 116L1148 115L1160 118L1160 134L1214 134L1214 105L1188 104L1187 80L1160 80L1160 96L1148 99L1096 98L1096 56L1001 56L1001 87L1022 88L1022 106L994 106L993 76L962 76L961 56L869 56Z M920 108L920 116L912 116L912 98L920 98Z M1052 122L1052 126L1044 126L1045 118L1052 118Z M382 366L382 374L366 374L365 358L382 358Z M422 366L422 374L406 374L405 358L422 358Z M342 393L342 402L324 402L325 384L342 384Z M466 393L466 402L450 402L449 385L466 384Z M386 494L386 553L384 554L384 562L368 563L368 617L422 617L422 563L406 562L405 554L403 553L403 435L386 435Z M1020 612L1020 644L1037 644L1038 598L1266 598L1267 661L1284 661L1284 581L1020 581Z M697 671L697 717L732 717L733 720L828 720L829 717L980 718L980 751L986 756L1018 756L1019 824L1016 836L1000 837L1000 890L1055 890L1055 837L1038 836L1038 828L1036 824L1037 725L1041 721L1041 756L1071 756L1076 750L1076 718L1226 718L1227 751L1232 757L1260 757L1260 724L1264 724L1264 756L1267 758L1267 783L1271 781L1271 790L1280 790L1280 784L1284 784L1284 758L1287 756L1288 724L1290 724L1291 757L1318 757L1323 751L1324 718L1398 718L1398 944L1328 944L1327 839L1307 810L1225 810L1224 820L1138 821L1138 1020L1096 1021L1096 1245L1138 1246L1138 1314L1136 1318L1136 1326L1119 1326L1119 1355L1142 1356L1142 1379L1174 1379L1174 1326L1158 1326L1155 1314L1156 1246L1198 1245L1198 1021L1156 1020L1156 838L1223 838L1225 840L1225 1004L1327 1004L1328 962L1416 961L1416 700L1324 700L1323 667L1318 661L1291 661L1290 694L1260 694L1260 661L1232 661L1227 667L1226 700L1076 700L1076 666L1071 660L985 660L980 666L980 700L829 700L828 697L787 697L785 694L828 693L785 692L785 661L788 661L788 625L697 625Z M771 647L771 661L777 661L777 692L733 692L734 694L777 694L775 697L733 697L732 700L706 700L706 632L770 632Z M783 676L783 692L778 692L778 661L783 661Z M1035 690L1041 697L1032 697L1032 693L1036 693L1033 689L1030 691L1028 688L1004 688L1003 686L1004 684L1029 684Z M783 695L783 697L778 697L778 693L783 693Z M783 703L778 704L778 702Z M1041 710L1041 716L1037 713L1037 709L1040 704Z M1033 718L1033 720L1025 720L1027 717Z M1041 718L1041 720L1037 720L1037 717Z" fill="none" stroke="#8edfff" stroke-width="1.5" stroke-linejoin="round"/>

  <path d="M780 708 L1028 708 L1034 702 L1036 702 L1038 700 L1054 700 L1062 708 L1276 708 L1276 784 L1276 708 L1408 708 L1408 952 L1290 952 L1276 938 L1276 934 L1250 908 L1250 830 L1146 830 L1146 1136 L1146 1338 L1148 1340 L1148 1346" fill="none" stroke="#071a31" stroke-opacity=".85" stroke-width="14.3405" stroke-linecap="round" stroke-linejoin="round"/><path data-role="main" d="M780 708 L1028 708 L1034 702 L1036 702 L1038 700 L1054 700 L1062 708 L1276 708 L1276 784 L1276 708 L1408 708 L1408 952 L1290 952 L1276 938 L1276 934 L1250 908 L1250 830 L1146 830 L1146 1136 L1146 1338 L1148 1340 L1148 1346" fill="none" stroke="#ffd23f" stroke-width="8.36528" stroke-linecap="round" stroke-linejoin="round"/><path d="M1188 108 L1036 108 L1032 112 L988 112 L984 108 L960 108 L946 122 L896 122 L882 108 L680 108 L560 108 L560 332 L452 332 L450 334 L444 334 L442 336 L438 336 L436 338 L400 338 L396 334 L392 338 L356 338 L354 336 L352 336 L350 334 L346 334 L344 332 L230 332 L230 556 L180 556" fill="none" stroke="#071a31" stroke-opacity=".85" stroke-width="14.3405" stroke-linecap="round" stroke-linejoin="round"/><path data-role="main" d="M1188 108 L1036 108 L1032 112 L988 112 L984 108 L960 108 L946 122 L896 122 L882 108 L680 108 L560 108 L560 332 L452 332 L450 334 L444 334 L442 336 L438 336 L436 338 L400 338 L396 334 L392 338 L356 338 L354 336 L352 336 L350 334 L346 334 L344 332 L230 332 L230 556 L180 556" fill="none" stroke="#ffd23f" stroke-width="8.36528" stroke-linecap="round" stroke-linejoin="round" marker-end="url(#arrow-main)"/>
  <g transform="translate(0.000000,1450.000000) scale(0.100000,-0.100000)"
fill="#ffffff" stroke="none">
<path d="M6740 13545 c0 -12 14 -15 65 -15 l65 0 -31 -47 c-50 -79 -76 -193
-44 -193 9 0 15 9 15 25 0 39 35 128 69 178 17 25 31 50 31 56 0 7 -31 11 -85
11 -69 0 -85 -3 -85 -15z M9787 13549 c-30 -18 -47 -65 -47 -134 0 -60 3 -69
29 -96 65 -64 154 -8 137 86 -11 58 -67 82 -114 49 -21 -14 -22 -14 -22 8 0
58 65 91 92 48 15 -23 38 -27 38 -5 0 42 -70 69 -113 44z m75 -126 c37 -33 11
-103 -38 -103 -13 0 -30 10 -38 22 -43 61 22 130 76 81z M1127 12294 c-14 -14
-7 -26 8 -14 12 10 19 10 27 2 9 -9 5 -19 -15 -40 -36 -38 -34 -52 6 -51 31 2
31 2 3 6 l-28 5 27 28 c15 15 25 36 23 47 -3 18 -38 30 -51 17z M3900 10983
c-38 -14 -54 -79 -26 -102 13 -11 12 -15 -5 -32 -27 -27 -24 -74 6 -104 70
-71 187 19 126 96 -17 22 -17 27 -5 44 40 55 -26 123 -96 98z m74 -45 c14 -23
-3 -52 -33 -56 -42 -6 -67 38 -39 66 17 17 58 11 72 -10z m1 -108 c40 -44 -13
-98 -71 -71 -17 8 -24 19 -24 40 0 49 61 69 95 31z M3922 8578 c-17 -17 -15
-73 3 -88 31 -26 82 13 56 44 -8 9 -22 16 -32 16 -21 0 -25 15 -8 26 6 3 16 1
22 -5 17 -17 31 -13 17 4 -15 18 -42 19 -58 3z m45 -54 c8 -21 -13 -42 -28
-27 -13 13 -5 43 11 43 6 0 13 -7 17 -16z M10235 7558 c-23 -13 -35 -28 -35
-45 0 -20 24 -15 38 7 14 22 61 27 80 8 27 -27 13 -64 -40 -114 -51 -47 -88
-91 -88 -106 0 -5 41 -8 90 -8 73 0 90 3 90 15 0 12 -14 15 -65 15 -36 0 -65
2 -65 5 0 2 27 31 60 63 52 50 60 63 60 94 0 61 -69 98 -125 66z M7763 7502
c-53 -47 -58 -73 -8 -42 l35 22 0 -106 c0 -88 3 -106 15 -106 13 0 15 22 15
135 0 74 -3 135 -7 135 -5 -1 -27 -18 -50 -38z M12705 7515 c-14 -13 -25 -29
-25 -35 0 -17 24 -11 43 10 22 26 63 26 77 1 13 -26 3 -50 -25 -57 -36 -9 -40
-34 -7 -34 51 0 71 -50 34 -83 -25 -23 -58 -21 -82 3 -22 22 -40 26 -40 10 0
-21 49 -60 75 -60 77 0 124 81 75 130 -19 19 -19 22 -5 44 44 67 -62 130 -120
71z M10224 5828 c-12 -12 -27 -33 -33 -45 -11 -21 -9 -23 14 -23 14 0 25 -4
25 -10 0 -14 17 -12 23 3 2 6 1 32 -2 55 l-6 44 -21 -24z m2 -45 c-10 -10 -19
5 -10 18 6 11 8 11 12 0 2 -7 1 -15 -2 -18z M12701 5513 c-78 -112 -78 -123
-6 -123 54 0 55 0 55 -30 0 -20 5 -30 15 -30 10 0 15 10 15 30 0 23 4 30 20
30 11 0 20 7 20 15 0 8 -9 15 -20 15 -19 0 -20 7 -20 90 0 50 -4 90 -9 90 -5
0 -37 -39 -70 -87z m49 -38 l0 -55 -40 0 -40 0 36 55 c20 30 38 55 40 55 2 0
4 -25 4 -55z M11400 3193 c-6 -32 -13 -64 -15 -70 -5 -15 31 -18 40 -3 10 17
61 11 78 -8 22 -24 21 -65 -1 -85 -26 -23 -69 -22 -84 3 -15 23 -38 27 -38 6
0 -22 49 -56 82 -56 19 0 40 10 59 29 38 38 39 87 3 126 -22 24 -31 27 -65 22
-41 -5 -44 -2 -33 41 6 19 13 22 60 22 41 0 54 4 54 15 0 12 -14 15 -64 15
l-65 0 -11 -57z"/>
</g><g transform="translate(0.000000,1450.000000) scale(0.100000,-0.100000)"
fill="#ffff00" stroke="none">
<path d="M11890 13605 l0 -135 150 0 150 0 0 135 0 135 -150 0 -150 0 0 -135z
m176 10 c40 -118 40 -125 14 -125 -15 0 -22 9 -26 30 -6 27 -10 30 -44 30 -33
0 -39 -4 -49 -30 -10 -30 -41 -42 -41 -17 0 11 42 144 65 205 3 7 15 12 27 10
17 -2 27 -21 54 -103z m94 44 c0 -66 -24 -62 -28 4 -2 37 0 47 12 47 12 0 16
-12 16 -51z M11997 13643 c-4 -15 -9 -38 -13 -50 -6 -20 -3 -23 24 -23 l30 0
-14 47 c-18 58 -20 60 -27 26z M12642 7703 l3 -78 50 -3 c40 -3 48 -1 38 9 -7
7 -13 28 -13 45 0 18 6 36 13 41 8 5 2 9 -18 13 -18 3 -30 11 -30 20 0 12 15
15 70 15 56 0 70 -3 70 -15 0 -8 -10 -16 -23 -18 -19 -3 -21 -6 -11 -18 14
-16 -2 -19 -18 -3 -6 6 -16 8 -22 5 -17 -11 -13 -26 8 -26 30 0 47 -28 32 -51
-11 -19 -10 -20 31 -17 l43 3 3 78 3 77 -116 0 -116 0 3 -77z M12743 7664 c-8
-21 13 -42 28 -27 13 13 5 43 -11 43 -6 0 -13 -7 -17 -16z M10310 5891 c24 -4
35 -11 35 -23 0 -9 4 -20 8 -24 14 -14 7 -41 -19 -65 l-26 -24 34 -7 c18 -3
36 -4 40 -2 5 3 8 39 8 80 l0 74 -57 -1 c-49 -1 -52 -3 -23 -8z M10280 5795
c0 -30 5 -55 10 -55 6 0 10 5 10 12 0 7 12 25 27 40 20 21 24 31 15 40 -8 8
-15 8 -28 -3 -16 -12 -17 -12 -11 4 4 11 2 17 -8 17 -11 0 -15 -13 -15 -55z
M11180 795 l0 -135 110 0 110 0 0 135 0 135 -110 0 -110 0 0 -135z m166 10
c40 -118 40 -125 14 -125 -15 0 -22 9 -26 30 -6 27 -10 30 -44 30 -33 0 -39
-4 -49 -30 -10 -30 -41 -42 -41 -17 0 11 42 144 65 205 3 7 15 12 27 10 17 -2
27 -21 54 -103z M11277 833 c-4 -15 -9 -38 -13 -50 -6 -20 -3 -23 24 -23 l30
0 -14 47 c-18 58 -20 60 -27 26z"/>
</g><g transform="translate(0.000000,1450.000000) scale(0.100000,-0.100000)"
fill="#00ff00" stroke="none">
<path d="M1274 12401 c-46 -21 -54 -35 -54 -91 0 -63 52 -100 140 -100 89 0
140 37 140 102 0 54 -12 73 -60 92 -53 21 -115 20 -166 -3z m166 -19 c43 -21
50 -59 10 -54 -14 2 -54 3 -90 3 -36 0 -76 -1 -90 -3 -19 -2 -25 2 -25 17 0
27 58 55 115 55 25 0 61 -8 80 -18z m1 -68 c21 -13 -15 -24 -81 -24 -65 0
-111 14 -80 24 8 2 22 7 30 10 19 7 116 0 131 -10z"/>
</g><g transform="translate(0.000000,1450.000000) scale(0.100000,-0.100000)"
fill="#00ae00" stroke="none">
<path d="M1010 12415 c0 -22 205 -22 246 0 27 14 20 15 -108 15 -116 0 -138
-2 -138 -15z M1032 12273 l3 -78 43 -3 c29 -2 42 1 42 9 0 7 12 26 27 41 20
21 24 31 15 40 -8 8 -15 8 -28 -3 -16 -12 -17 -12 -11 3 4 13 0 18 -21 20 -16
2 -27 9 -27 18 0 11 16 16 65 21 l65 6 -88 1 -88 2 3 -77z M1177 12279 c4 -13
-3 -30 -22 -49 l-27 -28 55 -7 c75 -10 84 -1 47 41 -16 19 -30 41 -30 49 0 8
-6 15 -14 15 -9 0 -12 -7 -9 -21z M3810 8705 c0 -13 22 -15 135 -15 113 0 135
2 135 15 0 13 -22 15 -135 15 -113 0 -135 -2 -135 -15z M3832 8563 l3 -78 50
-3 c40 -3 48 -1 38 9 -7 7 -13 28 -13 45 0 18 6 36 13 41 8 5 2 9 -18 13 -18
3 -30 11 -30 20 0 12 15 15 70 15 56 0 70 -3 70 -15 0 -8 -10 -16 -23 -18 -19
-3 -21 -6 -11 -18 14 -16 -2 -19 -18 -3 -6 6 -16 8 -22 5 -17 -11 -13 -26 8
-26 30 0 47 -28 32 -51 -11 -19 -10 -20 31 -17 l43 3 3 78 3 77 -116 0 -116 0
3 -77z M3933 8524 c-8 -21 13 -42 28 -27 13 13 5 43 -11 43 -6 0 -13 -7 -17
-16z M10140 5965 c0 -12 14 -15 65 -15 51 0 65 3 65 15 0 12 -14 15 -65 15
-51 0 -65 -3 -65 -15z M10162 5823 l3 -78 33 -3 c18 -2 32 1 32 7 0 6 -11 11
-25 11 -23 0 -25 2 -14 23 6 12 20 32 31 43 19 21 19 21 -3 27 -31 8 -18 31
22 38 28 5 23 7 -24 8 l-58 1 3 -77z M10252 5795 c1 -30 6 -55 10 -55 4 0 8
25 8 55 0 31 -5 55 -10 55 -6 0 -9 -23 -8 -55z M10216 5801 c-4 -7 -5 -15 -2
-18 9 -9 19 4 14 18 -4 11 -6 11 -12 0z"/>
</g><g transform="translate(0.000000,1450.000000) scale(0.100000,-0.100000)"
fill="#008800" stroke="none">
<path d="M1073 12353 c26 -2 67 -2 90 0 23 2 2 3 -48 3 -49 0 -68 -1 -42 -3z
M3888 8643 c34 -2 88 -2 120 0 31 2 3 3 -63 3 -66 0 -92 -1 -57 -3z M12698
7783 c34 -2 88 -2 120 0 31 2 3 3 -63 3 -66 0 -92 -1 -57 -3z M10254 7348
l-19 -23 23 19 c21 18 27 26 19 26 -2 0 -12 -10 -23 -22z M10188 5903 c18 -2
45 -2 60 0 15 2 0 4 -33 4 -33 0 -45 -2 -27 -4z M10308 5903 c18 -2 45 -2 60
0 15 2 0 4 -33 4 -33 0 -45 -2 -27 -4z"/>
</g><g transform="translate(0.000000,1450.000000) scale(0.100000,-0.100000)"
fill="#ff0000" stroke="none">
<path d="M12732 7718 c-17 -17 -15 -73 3 -88 31 -26 82 13 56 44 -8 9 -22 16
-32 16 -21 0 -25 15 -8 26 6 3 16 1 22 -5 17 -17 31 -13 17 4 -15 18 -42 19
-58 3z m45 -54 c8 -21 -13 -42 -28 -27 -13 13 -5 43 11 43 6 0 13 -7 17 -16z
M7822 7290 c0 -14 2 -19 5 -12 2 6 2 18 0 25 -3 6 -5 1 -5 -13z M12724 6690
c-42 -17 -71 -88 -44 -105 6 -3 10 -11 10 -17 0 -6 -8 -4 -18 5 -25 23 -32 21
-32 -7 0 -19 5 -23 25 -23 14 0 29 -3 32 -7 11 -11 -7 -20 -42 -20 -19 0 -35
-5 -35 -10 1 -15 30 -53 30 -39 0 6 14 16 30 22 18 6 30 6 30 0 0 -5 7 -9 16
-9 8 0 13 4 10 8 -2 4 4 8 14 8 14 0 16 -3 8 -13 -8 -11 -7 -12 8 -7 10 4 24
10 29 14 12 9 50 -4 60 -20 5 -8 11 -5 21 7 22 29 16 39 -21 39 -35 0 -53 9
-42 20 3 4 18 7 32 7 20 0 25 4 25 23 0 27 -12 31 -30 9 -18 -22 -23 -12 -9
17 14 32 -11 85 -47 98 -29 12 -32 12 -60 0z m82 -45 c23 -55 -7 -125 -54
-125 -22 0 -52 34 -52 60 0 11 -4 20 -10 20 -11 0 4 46 22 67 6 7 26 13 45 13
29 0 36 -5 49 -35z M12715 6580 c-15 -24 26 -42 63 -29 27 10 29 29 3 29 -11
0 -22 -8 -24 -17 -4 -16 -5 -16 -6 -2 -1 20 -28 33 -36 19z M10307 5844 c-14
-14 -7 -26 8 -14 12 10 19 10 27 2 9 -9 5 -19 -15 -40 -36 -38 -34 -52 6 -51
31 2 31 2 3 6 l-28 5 27 28 c15 15 25 36 23 47 -3 18 -38 30 -51 17z"/>
</g><g transform="translate(0.000000,1450.000000) scale(0.100000,-0.100000)"
fill="#ff7f27" stroke="none">
<path d="M6902 13532 c-11 -25 -11 -25 4 -10 9 9 15 21 13 27 -2 6 -10 -2 -17
-17z M9891 13535 c1 -19 18 -51 18 -35 0 8 -4 22 -9 30 -5 8 -9 11 -9 5z
M6850 13449 c-7 -11 -10 -23 -7 -25 2 -2 9 7 15 21 14 30 7 33 -8 4z M9906
13400 c8 -43 14 -51 14 -19 0 13 -5 31 -10 39 -7 11 -8 5 -4 -20z M6826 13395
c-3 -9 -6 -22 -5 -28 0 -7 5 -1 10 12 5 13 8 26 5 28 -2 2 -6 -3 -10 -12z
M6812 13320 c0 -19 2 -27 5 -17 2 9 2 25 0 35 -3 9 -5 1 -5 -18z M3410 12675
c0 -51 3 -65 15 -65 12 0 15 14 15 65 0 51 -3 65 -15 65 -12 0 -15 -14 -15
-65z M3997 10953 c17 -31 17 -35 1 -62 -14 -26 -14 -32 -2 -42 8 -6 18 -26 23
-43 7 -22 9 -25 10 -10 1 12 -8 32 -18 45 -17 22 -17 27 -5 44 19 26 18 49 -6
76 l-20 24 17 -32z M3902 10948 c-17 -17 -15 -43 5 -59 15 -13 15 -12 2 9 -11
18 -11 26 -1 42 14 23 12 26 -6 8z M3887 10833 c-9 -9 -9 -61 1 -66 4 -3 7 12
7 34 0 21 0 39 -1 39 0 0 -4 -3 -7 -7z M3907 8412 c-33 -36 -8 -92 40 -92 25
0 53 30 53 57 0 46 -62 69 -93 35z M12610 7845 c0 -8 9 -15 20 -15 11 0 20 7
20 15 0 8 -9 15 -20 15 -11 0 -20 -7 -20 -15z M12660 7845 c0 -8 9 -15 20 -15
11 0 20 7 20 15 0 8 -9 15 -20 15 -11 0 -20 -7 -20 -15z M12710 7845 c0 -8 9
-15 20 -15 11 0 20 7 20 15 0 8 -9 15 -20 15 -11 0 -20 -7 -20 -15z M12760
7845 c0 -8 9 -15 20 -15 11 0 20 7 20 15 0 8 -9 15 -20 15 -11 0 -20 -7 -20
-15z M7824 7415 c0 -60 1 -84 3 -52 2 32 2 81 0 110 -2 29 -3 3 -3 -58z
M10362 7495 c0 -16 2 -22 5 -12 2 9 2 23 0 30 -3 6 -5 -1 -5 -18z M10316 7411
l-40 -46 44 42 c24 23 42 44 40 46 -3 2 -23 -17 -44 -42z M12822 7440 c-18
-29 -15 -38 4 -12 9 13 14 25 12 27 -2 2 -9 -5 -16 -15z M12836 7401 c4 -8 11
-28 15 -45 6 -29 7 -29 8 -5 1 14 -6 34 -15 45 -8 10 -12 13 -8 5z M12784
5510 c0 -52 1 -74 3 -47 2 26 2 68 0 95 -2 26 -3 4 -3 -48z M12782 5360 c0
-19 2 -27 5 -17 2 9 2 25 0 35 -3 9 -5 1 -5 -18z M11425 3190 c-4 -17 -5 -34
-2 -36 2 -3 7 10 11 27 8 42 0 50 -9 9z M11552 3075 c0 -16 2 -22 5 -12 2 9 2
23 0 30 -3 6 -5 -1 -5 -18z M11410 3043 c0 -6 8 -17 18 -24 16 -13 16 -13 2 6
-8 11 -16 22 -17 24 -2 2 -3 0 -3 -6z M11526 3012 l-19 -27 24 22 c12 12 21
24 18 27 -2 2 -13 -8 -23 -22z"/>
</g><g transform="translate(0.000000,1450.000000) scale(0.100000,-0.100000)"
fill="#0080ff" stroke="none">
<path d="M9733 13420 c0 -30 2 -43 4 -27 2 15 2 39 0 55 -2 15 -4 2 -4 -28z
M9869 13378 c-3 -22 -1 -34 4 -29 5 5 7 21 5 37 -3 27 -4 26 -9 -8z M6772
13315 c0 -16 2 -22 5 -12 2 9 2 23 0 30 -3 6 -5 -1 -5 -18z M3961 10943 c12
-20 12 -26 0 -45 -13 -21 -13 -22 2 -9 10 7 17 21 17 31 0 10 -7 24 -17 31
-15 13 -15 12 -2 -8z M3852 10920 c0 -14 2 -19 5 -12 2 6 2 18 0 25 -3 6 -5 1
-5 -13z M3842 10800 c0 -14 2 -19 5 -12 2 6 2 18 0 25 -3 6 -5 1 -5 -13z
M3982 10800 c0 -14 2 -19 5 -12 2 6 2 18 0 25 -3 6 -5 1 -5 -13z M12810 7845
c0 -8 9 -15 20 -15 11 0 20 7 20 15 0 8 -9 15 -20 15 -11 0 -20 -7 -20 -15z
M12860 7845 c0 -8 9 -15 20 -15 11 0 20 7 20 15 0 8 -9 15 -20 15 -11 0 -20
-7 -20 -15z M7769 7513 l-24 -28 28 24 c15 14 27 26 27 28 0 8 -8 1 -31 -24z
M7713 7465 c-3 -9 -3 -18 -1 -21 3 -3 8 4 11 16 6 23 -1 27 -10 5z M10311
7457 c-13 -21 -12 -21 5 -5 10 10 16 20 13 22 -3 3 -11 -5 -18 -17z M7784
7370 c0 -58 1 -81 3 -52 2 28 2 76 0 105 -2 28 -3 5 -3 -53z M10254 7398 l-19
-23 23 19 c21 18 27 26 19 26 -2 0 -12 -10 -23 -22z M12797 7390 c6 -8 13 -26
16 -40 l4 -25 2 26 c0 15 -7 33 -16 40 -16 12 -17 12 -6 -1z M10200 7345 c-7
-9 -11 -17 -9 -20 3 -2 10 5 17 15 14 24 10 26 -8 5z M12670 7333 c0 -6 9 -21
21 -34 l20 -24 -17 30 c-24 39 -24 40 -24 28z M10280 5965 c0 -10 10 -15 30
-15 20 0 30 5 30 15 0 10 -10 15 -30 15 -20 0 -30 -5 -30 -15z M10350 5965 c0
-10 10 -15 30 -15 20 0 30 5 30 15 0 10 -10 15 -30 15 -20 0 -30 -5 -30 -15z
M12634 5425 c-3 -8 -4 -20 -2 -27 3 -7 7 -1 10 15 6 29 1 36 -8 12z M11392
3190 c0 -14 2 -19 5 -12 2 6 2 18 0 25 -3 6 -5 1 -5 -13z M11382 3140 c0 -14
2 -19 5 -12 2 6 2 18 0 25 -3 6 -5 1 -5 -13z M11511 3076 c0 -16 -9 -39 -18
-50 -17 -21 -17 -21 6 0 16 15 21 29 18 50 l-4 29 -2 -29z"/>
</g><g transform="translate(0.000000,1450.000000) scale(0.100000,-0.100000)"
fill="#fff200" stroke="none">
<path d=""/>
</g><text x="965" y="906" text-anchor="start" fill="#dff8ff" font-family="system-ui,-apple-system,sans-serif" font-size="18" font-weight="500">将军级/防御 ×2</text>
</g>

<g transform="translate(365.784 391.58)" filter="url(#shadow)"><circle r="12" fill="#39d6ff" stroke="#061329" stroke-width="4"/><rect x="-27" y="-46" width="54" height="26" rx="13" fill="#061329" fill-opacity=".9" stroke="#39d6ff" stroke-width="2"/><text x="0" y="-27.5" text-anchor="middle" fill="#39d6ff" font-family="system-ui,-apple-system,sans-serif" font-size="16" font-weight="900">起点</text></g><g transform="translate(90.5633 320.703)" filter="url(#shadow)"><circle r="12" fill="#ff5ca8" stroke="#061329" stroke-width="4"/><rect x="-51" y="-46" width="102" height="26" rx="13" fill="#061329" fill-opacity=".9" stroke="#ff5ca8" stroke-width="2"/><text x="0" y="-27.5" text-anchor="middle" fill="#ff5ca8" font-family="system-ui,-apple-system,sans-serif" font-size="16" font-weight="900">前往下一区</text></g>
<path d="M594.521 426.097L705 120" fill="none" stroke="#ffbe99" stroke-opacity=".7" stroke-width="1" stroke-dasharray="2 3"/><circle cx="594.521" cy="426.097" r="2.5" fill="#ffbe99"/><path d="M594.521 481.786L705 208" fill="none" stroke="#a9d8ed" stroke-opacity=".7" stroke-width="1" stroke-dasharray="2 3"/><circle cx="594.521" cy="481.786" r="2.5" fill="#a9d8ed"/><path d="M189.054 346.016L705 296" fill="none" stroke="#a0e5b6" stroke-opacity=".7" stroke-width="1" stroke-dasharray="2 3"/><circle cx="189.054" cy="346.016" r="2.5" fill="#a0e5b6"/><path d="M189.054 233.258L705 352" fill="none" stroke="#a9d8ed" stroke-opacity=".7" stroke-width="1" stroke-dasharray="2 3"/><circle cx="189.054" cy="233.258" r="2.5" fill="#a9d8ed"/><g data-callout="poison-before-loop"><title>Ephinea Wiki Stage 4/Guide; Sakura EP2 C4</title><rect data-callout-box="" x="705" y="70" width="275" height="50" rx="5" fill="#10263a" stroke="#ffbe99" stroke-opacity=".35"/><text x="713" y="90" text-anchor="start" fill="#ffbe99" font-family="system-ui,-apple-system,sans-serif" font-size="13" font-weight="650">3号房先向南解除毒，再走东侧外圈；走廊</text><text x="713" y="108" text-anchor="start" fill="#ffbe99" font-family="system-ui,-apple-system,sans-serif" font-size="13" font-weight="650">Sinow 是必须处理的挡路敌人。</text></g><g data-callout="active-boxes-delbiter"><title>Ephinea Wiki Stage 4/Guide; Sakura EP2 C4</title><rect data-callout-box="" x="705" y="158" width="275" height="50" rx="5" fill="#10263a" stroke="#a9d8ed" stroke-opacity=".35"/><text x="713" y="178" text-anchor="start" fill="#a9d8ed" font-family="system-ui,-apple-system,sans-serif" font-size="13" font-weight="650">4号房跳过不活动的 Recobox；向西到5号房</text><text x="713" y="196" text-anchor="start" fill="#a9d8ed" font-family="system-ui,-apple-system,sans-serif" font-size="13" font-weight="650">击倒 Delbiter，再南下 A。</text></g><g data-callout="hidden-heal-switch"><title>Ephinea Wiki Stage 4/Guide; Sakura EP2 C4</title><rect data-callout-box="" x="705" y="246" width="275" height="50" rx="5" fill="#10263a" stroke="#a0e5b6" stroke-opacity=".35"/><text x="713" y="266" text-anchor="start" fill="#a0e5b6" font-family="system-ui,-apple-system,sans-serif" font-size="13" font-weight="650">8号房南侧隐藏支路尽头有回复区屏障解除机</text><text x="713" y="284" text-anchor="start" fill="#a0e5b6" font-family="system-ui,-apple-system,sans-serif" font-size="13" font-weight="650">关；回复装置在西北支路，属于可选回收。</text></g><g data-callout="exit-sinows"><title>Ephinea Wiki Stage 4/Guide; Sakura EP2 C4</title><rect data-callout-box="" x="705" y="352" width="275" height="68" rx="5" fill="#10263a" stroke="#a9d8ed" stroke-opacity=".35"/><text x="713" y="372" text-anchor="start" fill="#a9d8ed" font-family="system-ui,-apple-system,sans-serif" font-size="13" font-weight="650">6号房清 Sinow，7号房清活动箱，8号房两</text><text x="713" y="390" text-anchor="start" fill="#a9d8ed" font-family="system-ui,-apple-system,sans-serif" font-size="13" font-weight="650">只 Sinow 后向西；出口走廊还有挡路</text><text x="713" y="408" text-anchor="start" fill="#a9d8ed" font-family="system-ui,-apple-system,sans-serif" font-size="13" font-weight="650">Sinow。</text></g>


<g transform="translate(18 771)">
  <rect width="964" height="324" rx="14" fill="#0b2745" stroke="#2c648b" stroke-width="2"/>
  <text x="24" y="34" text-anchor="start" fill="#e7f9ff" font-family="system-ui,-apple-system,sans-serif" font-size="19" font-weight="900">图例与读图</text>
  <svg x="26" y="47" width="28" height="28" viewBox="784 392 30 36"><g transform="translate(0.000000,1250.000000) scale(0.100000,-0.100000)" fill="#ffffff" stroke="none"><path d="M8017 8332 c-33 -36 -8 -92 40 -92 25 0 53 30 53 57 0 46 -62 69 -93 35z m71 -4 c7 -7 12 -21 12 -33 0 -12 -5 -26 -12 -33 -7 -7 -21 -12 -33 -12 -12 0 -26 5 -33 12 -7 7 -12 21 -12 33 0 12 5 26 12 33 7 7 21 12 33 12 12 0 26 -5 33 -12z M8034 8305 c-4 -9 -2 -21 4 -27 15 -15 44 -1 40 19 -4 23 -36 29 -44 8z m36 -10 c0 -8 -7 -15 -15 -15 -8 0 -15 7 -15 15 0 8 7 15 15 15 8 0 15 -7 15 -15z M7930 8295 c0 -8 7 -15 15 -15 8 0 15 7 15 15 0 8 -7 15 -15 15 -8 0 -15 -7 -15 -15z"/></g><g transform="translate(0.000000,1250.000000) scale(0.100000,-0.100000)" fill="#0080ff" stroke="none"><path d="M7910 8460 l0 -90 90 0 90 0 0 90 0 90 -90 0 -90 0 0 -90z M7912 8328 c-7 -7 -12 -21 -12 -33 0 -12 5 -26 12 -33 7 -7 21 -12 33 -12 12 0 26 5 33 12 7 7 12 21 12 33 0 12 -5 26 -12 33 -7 7 -21 12 -33 12 -12 0 -26 -5 -33 -12z m56 -31 c4 -20 -25 -34 -40 -19 -15 15 -1 44 19 40 10 -2 19 -11 21 -21z"/></g></svg><text x="68" y="66" fill="#bcd7ea" font-family="system-ui,-apple-system,sans-serif" font-size="15" font-weight="650"><tspan x="68" dy="0">同色机关对应屏障</tspan></text><svg x="490" y="47" width="28" height="28" viewBox="982 210 40 40"><g transform="translate(0.000000,1100.000000) scale(0.100000,-0.100000)" fill="#ffffff" stroke="none"><path d="M10010 8736 c0 -40 4 -48 35 -72 20 -15 38 -24 41 -21 3 2 -9 15 -25 27 -27 18 -31 28 -31 66 0 24 -4 44 -10 44 -5 0 -10 -20 -10 -44z"/></g><g transform="translate(0.000000,1100.000000) scale(0.100000,-0.100000)" fill="#ff7f27" stroke="none"><path d="M9975 8825 c-102 -36 -131 -160 -56 -236 78 -77 210 -41 239 64 30 110 -76 209 -183 172z m69 -41 c3 -9 6 -31 6 -49 0 -24 7 -37 25 -49 27 -18 33 -51 11 -59 -8 -3 -33 7 -55 24 -37 26 -41 33 -41 73 0 57 8 76 30 76 10 0 21 -7 24 -16z"/></g></svg><text x="532" y="66" fill="#bcd7ea" font-family="system-ui,-apple-system,sans-serif" font-size="15" font-weight="650"><tspan x="532" dy="0">限时机关</tspan></text><svg x="26" y="103" width="28" height="28" viewBox="597 781 26 28"><g transform="translate(0.000000,1100.000000) scale(0.100000,-0.100000)" fill="#ffffff" stroke="none"><path d="M5980 3050 c0 -91 3 -110 15 -110 12 0 15 19 15 110 0 91 -3 110 -15 110 -12 0 -15 -19 -15 -110z M6190 3050 c0 -91 3 -110 15 -110 12 0 15 19 15 110 0 91 -3 110 -15 110 -12 0 -15 -19 -15 -110z"/></g><g transform="translate(0.000000,1100.000000) scale(0.100000,-0.100000)" fill="#ffff00" stroke="none"><path d="M6045 3145 c-31 -30 -32 -69 -2 -112 18 -27 29 -33 57 -33 29 0 39 6 58 35 12 19 22 46 22 60 0 36 -42 75 -80 75 -19 0 -40 -9 -55 -25z m73 -3 c2 -8 -6 -16 -18 -19 -12 -3 -26 -17 -31 -30 -5 -14 -15 -23 -22 -20 -22 7 -19 36 8 62 26 27 55 30 63 7z M6072 2948 c7 -19 45 -21 51 -4 5 12 -1 16 -24 16 -20 0 -29 -4 -27 -12z"/></g><g transform="translate(0.000000,1100.000000) scale(0.100000,-0.100000)" fill="#ff7f27" stroke="none"><path d="M6078 2993 c12 -2 30 -2 40 0 9 3 -1 5 -23 4 -22 0 -30 -2 -17 -4z"/></g></svg><text x="68" y="122" fill="#bcd7ea" font-family="system-ui,-apple-system,sans-serif" font-size="15" font-weight="650"><tspan x="68" dy="0">照明机关</tspan></text><svg x="490" y="103" width="28" height="28" viewBox="1153 840 42 38"><g transform="translate(0.000000,1100.000000) scale(0.100000,-0.100000)" fill="#00ff00" stroke="none"><path d="M11654 2491 c-46 -21 -54 -35 -54 -91 0 -63 52 -100 140 -100 89 0 140 37 140 102 0 54 -12 73 -60 92 -53 21 -115 20 -166 -3z m166 -19 c43 -21 50 -59 10 -54 -14 2 -54 3 -90 3 -36 0 -76 -1 -90 -3 -19 -2 -25 2 -25 17 0 27 58 55 115 55 25 0 61 -8 80 -18z m1 -68 c21 -13 -15 -24 -81 -24 -65 0 -111 14 -80 24 8 2 22 7 30 10 19 7 116 0 131 -10z"/></g></svg><text x="532" y="122" fill="#bcd7ea" font-family="system-ui,-apple-system,sans-serif" font-size="15" font-weight="650"><tspan x="532" dy="0">回复点</tspan></text><svg x="26" y="159" width="28" height="28" viewBox="531 330 22 22"><g transform="translate(0.000000,1100.000000) scale(0.100000,-0.100000)" fill="#ffffff" stroke="none"><path d="M5407 7600 c10 -11 10 -17 0 -29 -11 -14 -10 -14 6 -2 14 11 20 11 35 0 15 -12 16 -12 5 2 -10 12 -10 18 0 29 10 12 9 12 -5 1 -15 -11 -21 -11 -35 0 -15 11 -16 11 -6 -1z"/></g><g transform="translate(0.000000,1100.000000) scale(0.100000,-0.100000)" fill="#ff0000" stroke="none"><path d="M5364 7667 c-3 -8 -4 -49 -2 -93 l3 -79 65 0 65 0 0 90 0 90 -63 3 c-46 2 -64 -1 -68 -11z m85 -33 c33 30 56 -1 26 -34 -14 -15 -14 -18 0 -30 8 -7 15 -18 15 -25 0 -20 -23 -24 -42 -7 -16 14 -20 14 -35 0 -20 -17 -43 -13 -43 7 0 7 7 18 15 25 14 12 14 15 0 30 -30 33 -6 61 28 32 15 -14 19 -13 36 2z"/></g></svg><text x="68" y="178" fill="#bcd7ea" font-family="system-ui,-apple-system,sans-serif" font-size="15" font-weight="650"><tspan x="68" dy="0">障壁 / 陷阱</tspan></text><svg x="490" y="159" width="28" height="28" viewBox="1145 583 36 34"><g transform="translate(0.000000,1100.000000) scale(0.100000,-0.100000)" fill="#ffffff" stroke="none"><path d="M11600 4965 c0 -18 7 -26 25 -31 14 -3 25 -13 25 -21 0 -11 -7 -13 -26 -9 -19 5 -25 3 -22 -6 3 -7 18 -13 34 -13 26 0 29 4 29 30 0 23 -5 31 -22 33 -31 5 -29 22 2 22 14 0 25 5 25 10 0 6 -16 10 -35 10 -31 0 -35 -3 -35 -25z"/></g><g transform="translate(0.000000,1100.000000) scale(0.100000,-0.100000)" fill="#00ae00" stroke="none"><path d="M11500 5105 c0 -13 22 -15 135 -15 113 0 135 2 135 15 0 13 -22 15 -135 15 -113 0 -135 -2 -135 -15z M11522 4963 l3 -78 42 -3 c36 -3 42 -1 37 13 -5 13 -2 15 20 9 19 -4 26 -2 26 9 0 8 -11 18 -25 21 -18 5 -25 13 -25 30 0 16 -7 26 -21 29 -12 3 -19 12 -17 19 3 9 25 13 73 13 48 0 70 -4 73 -13 2 -7 -5 -16 -17 -19 -12 -3 -21 -9 -21 -14 0 -5 -11 -9 -25 -9 -31 0 -33 -17 -2 -22 18 -2 22 -9 22 -36 0 -32 1 -33 40 -30 l40 3 3 78 3 77 -116 0 -116 0 3 -77z"/></g><g transform="translate(0.000000,1100.000000) scale(0.100000,-0.100000)" fill="#008800" stroke="none"><path d="M11578 5043 c34 -2 88 -2 120 0 31 2 3 3 -63 3 -66 0 -92 -1 -57 -3z"/></g></svg><text x="532" y="178" fill="#bcd7ea" font-family="system-ui,-apple-system,sans-serif" font-size="15" font-weight="650"><tspan x="532" dy="0">箱子（数字为物资数量）</tspan></text><svg x="26" y="215" width="28" height="28" viewBox="1111 215 38 34"><g transform="translate(0.000000,1100.000000) scale(0.100000,-0.100000)" fill="#ffff00" stroke="none"><path d="M11150 8685 l0 -135 150 0 150 0 0 135 0 135 -150 0 -150 0 0 -135z m176 10 c40 -118 40 -125 14 -125 -15 0 -22 9 -26 30 -6 27 -10 30 -44 30 -33 0 -39 -4 -49 -30 -10 -30 -41 -42 -41 -17 0 11 42 144 65 205 3 7 15 12 27 10 17 -2 27 -21 54 -103z m94 44 c0 -66 -24 -62 -28 4 -2 37 0 47 12 47 12 0 16 -12 16 -51z M11257 8723 c-4 -15 -9 -38 -13 -50 -6 -20 -3 -23 24 -23 l30 0 -14 47 c-18 58 -20 60 -27 26z"/></g></svg><text x="68" y="234" fill="#bcd7ea" font-family="system-ui,-apple-system,sans-serif" font-size="15" font-weight="650"><tspan x="68" dy="0">配对传送（A → A′）</tspan></text>
  <text x="940" y="310" text-anchor="end" fill="#7698b1" font-family="system-ui,-apple-system,sans-serif" font-size="13" font-weight="650">Ephinea Wiki · Sakura / PSOびより · EP2</text>
</g>
</svg>
