<svg xmlns="http://www.w3.org/2000/svg" viewBox="0 0 1000 789" role="img" aria-labelledby="title desc" shape-rendering="geometricPrecision">
<title id="title">区域 36</title>
<desc id="desc">前两房报告武器总数；凑齐 4 把可走武器机关捷径，否则通常走 2→2′。 并排的 3/4 传送选左侧 3→3′，落地后跑过炮台；盾牌 4 件机关和小房传送都无视。 暗房机关在毒罐下；大广间箱子由 Force 注意毒罐回收，出口箱房炮台无视。</desc>
<defs><filter id="shadow" x="-30%" y="-30%" width="160%" height="160%"><feDropShadow dx="0" dy="2" stdDeviation="2.5" flood-color="#000" flood-opacity=".35"/></filter><pattern id="dark-hatch" width="13.9583" height="13.9583" patternUnits="userSpaceOnUse" patternTransform="rotate(45)"><rect width="13.9583" height="13.9583" fill="#000" fill-opacity=".25"/><path d="M0 0V13.9583" stroke="#4fe3ff" stroke-opacity=".25" stroke-width="4.1875"/></pattern><marker id="arrow-main" viewBox="0 0 10 10" refX="6" refY="5" markerWidth="3.2" markerHeight="3.2" orient="auto-start-reverse"><path d="M0 0 10 5 0 10Z" fill="#ffd23f" stroke="#061329" stroke-width="1"/></marker><marker id="arrow-split" viewBox="0 0 10 10" refX="6" refY="5" markerWidth="3.2" markerHeight="3.2" orient="auto-start-reverse"><path d="M0 0 10 5 0 10Z" fill="#f5f7ff" stroke="#061329" stroke-width="1"/></marker><marker id="arrow-solo" viewBox="0 0 10 10" refX="6" refY="5" markerWidth="3.2" markerHeight="3.2" orient="auto-start-reverse"><path d="M0 0 10 5 0 10Z" fill="#b48cff" stroke="#061329" stroke-width="1"/></marker></defs>
<rect width="1000" height="789" rx="18" fill="#071a31"/>
<g transform="translate(-11.5224 24) scale(0.716418)">
  <g filter="url(#shadow)"><g transform="translate(0.000000,630.000000) scale(0.100000,-0.100000)"
fill="#1f5a8c" stroke="none">
<path d="M7235 6165 c-5 -2 -22 -6 -37 -9 -37 -8 -98 -63 -114 -103 -35 -82
-5 -192 63 -234 l33 -21 -2 -216 -3 -217 -135 -5 -135 -5 -177 -87 -178 -87 0
-81 0 -80 -190 0 -190 0 0 120 0 120 -130 0 -131 0 3 123 3 122 73 3 c69 3 72
4 72 28 0 13 -12 48 -26 76 -24 48 -33 105 -20 126 3 6 -4 32 -17 59 l-22 48
-85 -3 -85 -3 -17 -39 c-12 -29 -14 -49 -8 -70 10 -34 4 -60 -34 -144 -14 -32
-26 -62 -26 -67 0 -4 24 -9 53 -11 l52 -3 3 -122 3 -123 -135 0 -135 0 -3
-117 -3 -118 -317 -3 -318 -2 0 -195 0 -195 -120 0 -120 0 0 -110 0 -110 195
0 195 0 0 -80 0 -80 -280 0 -280 0 0 190 0 190 -80 0 -79 0 -3 -122 -3 -123
-32 -3 c-31 -3 -33 -6 -33 -42 0 -36 2 -39 33 -42 l32 -3 3 -307 2 -308 80 0
80 0 0 205 0 205 165 0 165 0 0 50 c0 28 5 50 10 50 6 0 10 -4 10 -10 0 -5 9
-10 20 -10 11 0 20 -5 20 -11 0 -5 5 -7 10 -4 13 8 13 -1 0 -26 -6 -10 -20
-19 -30 -19 -11 0 -20 -4 -20 -10 0 -6 42 -10 105 -10 l105 0 0 -80 0 -80
-175 0 -175 0 0 -115 0 -114 98 -3 97 -3 0 -155 0 -155 -57 -3 -58 -3 0 -144
0 -145 40 0 c41 0 49 7 29 27 -7 7 -12 30 -12 53 0 47 29 83 76 94 23 5 27 3
27 -14 0 -11 4 -20 10 -20 5 0 7 7 4 15 -9 24 20 18 45 -9 27 -29 31 -88 7
-115 -22 -24 -11 -31 46 -31 l48 0 0 145 0 145 -55 0 -55 0 0 160 0 160 115 0
115 0 0 465 0 465 -125 0 -125 0 0 145 0 145 283 -2 282 -3 3 -122 3 -123 304
0 305 0 0 125 0 125 190 0 189 0 3 -77 3 -77 185 -73 185 -72 553 -1 552 0 0
-242 0 -243 -35 -24 c-87 -59 -100 -201 -26 -285 57 -65 189 -76 257 -20 51
41 74 88 74 152 0 65 -26 119 -75 156 l-35 27 2 237 3 237 47 3 c34 2 47 -1
50 -12 2 -8 66 -100 143 -205 l140 -190 268 0 267 -1 0 355 0 355 175 0 175 0
0 -325 0 -325 45 0 45 0 0 -165 0 -165 -60 0 -60 0 0 -210 0 -210 68 0 69 0
156 -167 156 -168 1 -77 0 -77 138 -3 137 -3 3 -252 2 -253 235 0 c217 0 235
1 236 18 0 9 3 12 5 7 2 -6 23 -9 45 -7 28 3 37 7 28 13 -10 6 -5 9 16 9 23 0
27 -3 15 -10 -11 -7 1 -10 40 -10 39 0 51 3 40 10 -12 7 -8 10 15 10 23 0 27
-3 15 -10 -12 -8 -9 -10 13 -10 15 0 27 -6 27 -12 0 -9 4 -8 10 2 7 10 9 -29
8 -120 l-3 -135 -105 -5 -105 -4 130 -6 130 -5 3 -102 3 -103 29 0 29 0 3 103
3 102 130 5 130 6 -105 4 -105 5 0 140 0 140 140 0 140 0 3 -27 c2 -16 8 -28
13 -28 5 0 9 36 9 80 0 47 -4 80 -10 80 -5 0 -11 -12 -12 -27 -1 -19 -3 -13
-8 17 -6 37 -7 39 -9 15 -2 -26 -4 -27 -10 -10 -8 19 -8 19 -15 -2 -6 -18 -15
-23 -41 -23 -19 0 -37 4 -40 10 -10 16 -35 12 -29 -5 5 -12 -2 -15 -32 -15
-20 0 -34 3 -31 7 8 7 -21 43 -35 43 -4 0 -8 -10 -9 -22 0 -22 -1 -22 -9 -3
-7 18 -8 17 -13 -10 -2 -16 -4 34 -3 113 l1 142 -190 -2 c-121 -1 -151 -3 -82
-5 l107 -4 0 -139 0 -140 -140 0 c-118 0 -140 2 -140 15 0 13 -29 15 -205 15
l-205 0 0 200 0 200 60 0 60 0 0 215 0 215 -78 0 -78 0 -152 163 -151 162 -1
77 0 77 -122 3 -123 3 0 160 0 160 275 0 275 0 3 -117 3 -118 39 0 40 0 0 120
0 120 35 0 c35 0 35 0 35 45 l0 45 75 0 75 0 0 40 0 39 -72 3 -73 3 -3 353 -2
352 -440 0 -440 0 0 -65 0 -65 -175 0 -175 0 0 370 0 370 -261 0 -261 0 -185
-177 c-101 -98 -189 -188 -194 -201 l-9 -22 -427 2 -428 3 -3 214 -2 214 41
35 c49 42 69 85 69 147 0 69 -42 140 -100 170 -27 13 -98 26 -115 20z M2940
5975 l0 -165 360 0 360 0 0 40 0 40 284 0 285 0 3 23 3 22 220 0 220 0 3 -52
3 -53 160 0 159 0 0 155 c0 143 -1 155 -18 155 -13 0 -23 -15 -36 -49 -23 -64
-54 -93 -101 -93 -45 0 -86 36 -112 98 -26 64 -51 60 -55 -8 l-3 -53 -222 -3
-223 -2 0 25 0 25 -285 0 -285 0 0 30 0 30 -92 0 -92 0 -60 -57 c-33 -32 -53
-49 -43 -37 16 20 16 20 -19 21 -27 1 -45 10 -73 37 l-37 36 -152 0 -152 0 0
-165z M3618 5683 c-3 -26 -7 -28 -56 -31 -29 -2 -50 -7 -48 -11 3 -4 -17 -29
-43 -55 -39 -38 -56 -48 -85 -49 -35 -1 -35 -1 -19 -21 10 -12 -15 10 -54 48
-40 38 -70 73 -67 78 3 4 -63 8 -145 8 -144 0 -151 -1 -151 -20 0 -19 -7 -20
-225 -20 l-225 0 0 -120 0 -120 -130 0 -130 0 0 -290 0 -289 128 -3 127 -3 3
-102 3 -103 -61 0 -60 0 0 -160 0 -160 38 0 c48 0 57 8 36 31 -9 10 -16 34
-16 55 0 52 36 87 92 87 58 0 93 -35 93 -93 0 -23 -5 -46 -12 -53 -20 -20 -12
-27 34 -27 l45 0 0 160 0 160 -60 0 -60 0 0 105 0 105 140 0 140 0 0 290 0
290 -140 0 -140 0 0 85 0 85 190 0 190 0 0 -30 0 -30 335 0 335 0 0 -30 0 -30
305 0 305 0 0 145 0 145 -304 0 -305 0 -3 -27z M3881 4643 l-1 -122 86 -3 c47
-2 88 0 91 5 2 4 -1 7 -8 7 -7 0 -4 7 7 15 11 8 14 15 7 15 -7 0 -13 7 -13 15
0 9 -9 15 -22 15 -20 0 -16 7 30 51 40 39 52 57 52 81 0 29 -2 30 -32 24 -29
-6 -108 -77 -108 -98 0 -4 -4 -8 -10 -8 -5 0 -7 6 -4 14 7 19 -13 56 -30 56
-25 0 -30 -54 -10 -104 6 -15 4 -17 -6 -11 -8 5 -11 4 -7 -2 3 -5 2 -23 -3
-39 -6 -22 -9 -4 -9 67 -1 63 3 99 12 108 8 9 8 12 0 7 -6 -3 -13 1 -16 11 -3
10 -5 -37 -6 -104z M3407 4702 c-21 -23 -24 -51 -4 -30 13 13 30 48 23 48 -1
0 -10 -8 -19 -18z M3550 4570 l0 -60 -65 0 -65 0 0 -135 0 -135 70 0 70 0 0
-115 0 -115 60 0 c53 0 60 -2 60 -20 0 -11 -3 -19 -7 -19 -21 3 -25 -3 -11
-18 8 -10 18 -30 22 -45 7 -30 7 -30 -54 -31 -35 0 -35 0 -3 -4 24 -3 33 -10
38 -30 15 -63 -90 -102 -143 -53 -20 19 -35 20 -267 20 l-245 0 0 -454 0 -455
53 -3 52 -3 0 -140 0 -140 -202 -3 -203 -2 0 -120 0 -120 -267 2 -268 3 -3
363 -2 362 -60 0 -60 0 0 155 0 155 130 0 130 0 0 300 0 300 -130 0 -131 0 3
123 3 122 58 3 57 3 0 164 0 165 -38 0 c-36 0 -38 -2 -54 -48 -24 -66 -57 -95
-108 -95 -46 0 -75 21 -96 68 -12 27 -13 14 -14 -112 l0 -142 58 -3 57 -3 3
-122 3 -123 -121 0 -120 0 0 -300 0 -299 118 -3 117 -3 0 -150 0 -150 -342 -3
-343 -2 0 -60 0 -60 -155 0 -155 0 0 60 0 60 -150 0 -150 0 0 -25 c0 -24 3
-25 63 -26 34 -1 49 -4 33 -6 l-28 -5 22 -23 c31 -33 31 -97 0 -130 l-22 -23
28 -5 c16 -2 1 -5 -33 -6 -60 -1 -63 -2 -63 -26 l0 -25 150 0 150 0 0 50 0 51
153 -3 152 -3 3 -355 3 -355 34 -22 c20 -12 43 -19 54 -16 13 3 21 1 21 -6 0
-7 -5 -9 -12 -5 -7 4 -4 -2 6 -14 27 -31 23 -79 -10 -113 -15 -16 -36 -29 -46
-29 -12 0 -18 -8 -18 -24 0 -23 4 -25 53 -28 l52 -3 0 -40 0 -40 -67 -3 -68
-3 0 -154 0 -155 145 0 145 0 -20 40 c-47 91 -14 250 52 250 10 0 18 5 18 10
0 6 -27 10 -60 10 l-60 0 0 45 0 45 50 0 c47 0 50 2 50 25 0 19 -5 25 -22 25
-55 1 -80 100 -36 147 l23 25 -22 -6 c-14 -5 -23 -3 -23 3 0 6 17 11 38 11 63
0 79 8 77 38 -2 20 -1 21 2 5 l4 -23 259 0 259 0 3 53 3 52 268 3 267 2 0
-135 0 -135 450 0 450 0 0 135 0 135 150 0 150 0 0 -69 0 -69 155 0 155 0 0
169 0 169 -155 0 -155 0 0 -60 0 -60 -150 0 -150 0 0 120 0 120 -195 0 -195 0
0 145 0 145 340 0 340 0 0 398 0 397 -37 2 c-24 1 -45 10 -62 27 -22 22 -25
34 -24 86 2 55 0 60 -20 61 -15 1 -17 3 -5 6 11 3 16 15 16 38 0 18 4 40 8 47
5 7 7 21 6 31 -3 14 4 17 42 17 l46 0 0 115 0 115 79 0 c79 0 80 0 83 28 3 26
5 27 76 30 71 3 72 3 73 30 1 21 3 23 6 6 3 -17 11 -21 44 -21 36 0 39 2 39
28 0 24 -4 28 -27 28 -16 0 -68 3 -118 8 l-90 8 -3 62 -3 62 -77 3 -77 3 -3
58 -3 57 -159 0 -160 0 0 -60z m-1997 -2317 c-40 -2 -106 -2 -145 0 -40 1 -8
3 72 3 80 0 112 -2 73 -3z m-236 -60 c-3 -10 -5 -4 -5 12 0 17 2 24 5 18 2 -7
2 -21 0 -30z M3520 4581 c-7 -14 -6 -21 3 -24 9 -4 9 -6 -1 -6 -7 -1 -20 -8
-28 -16 -14 -13 -12 -15 15 -15 29 0 31 2 31 40 0 45 -4 49 -20 21z M3882
4143 c1 -60 2 -62 5 -18 3 27 8 52 13 55 4 3 2 11 -6 18 -12 11 -14 2 -12 -55z
M4062 4195 c-34 -18 -92 -77 -92 -92 0 -7 -4 -13 -9 -13 -5 0 -7 8 -5 18 7 23
-19 57 -38 50 -14 -6 -16 -22 -9 -83 l2 -20 9 20 c6 14 9 16 10 5 2 -8 2 -18
2 -21 -1 -4 7 -5 18 -2 14 4 19 -1 22 -24 l3 -28 14 24 c7 13 8 21 2 17 -6 -4
-11 0 -11 9 0 9 4 14 9 10 5 -3 27 11 48 30 21 19 45 35 54 35 11 0 16 12 17
40 3 43 -5 48 -46 25z M3370 4104 c0 -10 -6 -14 -14 -11 -10 4 -13 1 -9 -9 3
-7 9 -14 14 -14 5 0 9 -13 9 -30 0 -31 13 -40 26 -18 4 6 3 13 -3 15 -6 2 -7
19 -3 43 6 31 4 40 -6 40 -8 0 -14 -7 -14 -16z M3880 4035 c0 -8 4 -15 10 -15
5 0 7 7 4 15 -4 8 -8 15 -10 15 -2 0 -4 -7 -4 -15z M3539 4030 c-1 -8 -1 -19
0 -24 1 -5 -5 -6 -14 -3 -9 4 -15 1 -15 -7 0 -8 -6 -17 -12 -19 -7 -3 1 -6 18
-6 36 -1 48 17 34 51 -5 15 -9 18 -11 8z M3990 4000 c0 -5 12 -10 28 -9 24 0
25 1 7 9 -27 12 -35 12 -35 0z M3388 3973 c17 -2 47 -2 65 0 17 2 3 4 -33 4
-36 0 -50 -2 -32 -4z M11082 2758 l2 -93 6 80 c7 94 12 95 14 6 2 -60 15 -87
31 -62 4 7 -1 8 -12 4 -14 -5 -16 -3 -6 7 9 10 15 10 26 2 8 -7 17 -9 20 -5 4
3 7 -3 7 -15 0 -19 5 -22 38 -21 28 2 31 3 10 6 -24 4 -45 29 -33 41 3 3 5 -1
5 -8 0 -8 13 1 28 18 16 18 31 29 34 26 3 -3 18 7 32 21 31 31 38 91 9 82 -10
-2 -24 -6 -32 -8 -20 -6 -91 -81 -91 -96 0 -7 -5 -13 -11 -13 -6 0 -9 7 -5 15
6 18 -2 45 -15 45 -5 0 -9 -12 -9 -27 0 -37 -10 -23 -13 19 -2 20 -11 43 -20
53 -16 15 -17 11 -15 -77z M10683 2787 c-2 -23 0 -61 3 -84 4 -35 10 -44 40
-58 44 -21 87 -12 114 22 16 20 20 41 20 94 l0 69 -87 0 -88 0 -2 -43z M11590
2690 c0 -30 -1 -30 -55 -30 l-55 0 0 -80 0 -80 55 0 55 0 0 -50 0 -50 155 0
155 0 0 160 0 160 -155 0 -155 0 0 -30z m300 -180 c0 -19 -7 -20 -125 -20
-118 0 -125 1 -125 20 0 19 7 20 125 20 118 0 125 -1 125 -20z M11708 2513
c34 -2 88 -2 120 0 31 2 3 3 -63 3 -66 0 -92 -1 -57 -3z M11390 2580 l0 -67
40 0 40 0 0 67 0 67 -40 0 -40 0 0 -67z M11082 2453 c1 -60 2 -62 5 -18 3 27
8 52 13 55 4 3 2 11 -6 18 -12 11 -14 2 -12 -55z M11263 2506 c-32 -18 -93
-79 -93 -93 0 -7 -4 -13 -9 -13 -5 0 -7 8 -5 18 7 23 -19 57 -38 50 -14 -6
-16 -22 -9 -83 l2 -20 9 20 c6 14 9 16 10 5 2 -8 2 -18 2 -21 -1 -4 8 -5 18
-2 15 4 20 0 20 -16 0 -18 6 -21 37 -21 34 0 35 1 18 14 -18 13 -17 16 24 55
23 22 46 41 50 41 4 0 8 18 9 40 3 43 -5 48 -45 26z M3988 2503 c39 -2 105 -2
145 0 39 1 7 3 -73 3 -80 0 -112 -2 -72 -3z M10685 2500 c-9 -15 2 -149 14
-164 7 -8 26 -18 42 -21 81 -18 123 28 117 130 l-3 60 -82 2 c-46 0 -85 -2
-88 -7z M11106 2344 c-3 -9 -6 -25 -7 -37 -1 -20 -2 -20 -9 3 l-8 25 -1 -27
-1 -28 93 2 c60 1 73 3 39 5 -53 4 -100 32 -87 53 3 5 1 11 -4 14 -5 3 -12 -1
-15 -10z M11200 2310 c8 -5 22 -9 30 -9 10 0 8 3 -5 9 -27 12 -43 12 -25 0z
M4620 2150 c11 -7 5 -10 -22 -10 l-38 0 0 -165 0 -164 68 -3 67 -3 0 -155 0
-155 -127 -3 -128 -3 0 -194 0 -195 -145 0 -145 0 0 -40 0 -40 145 0 145 0 0
-210 0 -210 300 0 300 0 0 445 0 444 -127 3 -128 3 0 155 0 155 68 3 67 3 0
164 0 165 -27 0 c-22 0 -25 2 -13 10 10 7 -33 10 -130 10 -97 0 -140 -3 -130
-10z M12060 2040 l0 -120 -135 0 -135 0 0 -50 0 -50 135 0 135 0 0 -135 0
-135 465 0 465 0 0 135 0 135 140 0 140 0 0 -65 0 -65 170 0 170 0 0 35 0 35
-127 1 c-71 1 -115 4 -99 6 l28 5 -22 23 c-31 33 -31 97 0 130 l22 23 -28 5
c-16 2 28 5 99 6 l127 1 0 25 0 25 -170 0 -170 0 0 -45 0 -45 -140 0 -140 0 0
120 0 120 -465 0 -465 0 0 -120z M10968 2033 c6 -2 12 -16 12 -29 0 -15 6 -24
15 -24 9 0 15 9 15 24 0 13 6 27 13 29 6 3 -6 5 -28 5 -22 0 -34 -2 -27 -5z
M10987 1933 c-14 -13 -7 -63 8 -63 10 0 15 11 15 35 0 33 -8 43 -23 28z
M11773 1865 c0 -22 2 -30 4 -17 2 12 2 30 0 40 -3 9 -5 -1 -4 -23z M11037
1874 c-15 -16 -5 -24 29 -24 24 0 34 4 32 13 -5 13 -50 22 -61 11z M11140
1866 c0 -12 10 -16 36 -16 45 0 42 24 -4 28 -24 2 -32 -1 -32 -12z M11250
1865 c0 -10 10 -15 30 -15 20 0 30 5 30 15 0 10 -10 15 -30 15 -20 0 -30 -5
-30 -15z M11360 1865 c0 -10 10 -15 30 -15 20 0 30 5 30 15 0 10 -10 15 -30
15 -20 0 -30 -5 -30 -15z M11470 1865 c0 -10 10 -15 30 -15 20 0 30 5 30 15 0
10 -10 15 -30 15 -20 0 -30 -5 -30 -15z M11577 1874 c-15 -16 -5 -24 29 -24
24 0 34 4 32 13 -5 13 -50 22 -61 11z M11680 1866 c0 -12 10 -16 36 -16 45 0
42 24 -4 28 -24 2 -32 -1 -32 -12z M1985 1700 c-3 -5 -3 -15 0 -21 14 -22 6
-76 -19 -133 -14 -32 -26 -71 -26 -87 0 -27 2 -28 53 -31 l52 -3 3 -137 3
-138 -56 0 -55 0 0 -445 0 -445 454 0 455 0 3 53 3 52 173 3 c170 2 172 3 172
25 0 18 2 19 10 7 6 -10 10 -11 10 -2 0 6 7 12 15 12 8 0 15 5 15 10 0 6 -7
10 -15 10 -8 0 -15 6 -15 13 0 8 -4 7 -10 -3 -6 -10 -10 -11 -10 -3 0 9 -45
13 -172 15 l-173 3 -3 39 c-2 22 -11 45 -20 53 -13 9 -89 12 -314 13 l-298 0
0 295 0 295 -50 0 -50 0 0 140 0 140 69 0 70 0 3 33 c2 18 -5 50 -16 72 -28
59 -35 92 -27 123 14 49 8 52 -114 52 -65 0 -116 -4 -120 -10z M11420 1630
c-8 -11 -22 -20 -31 -20 -9 0 -30 -12 -47 -27 -17 -16 -43 -37 -58 -48 -23
-18 -27 -30 -30 -85 -4 -57 -8 -68 -34 -90 -28 -23 -30 -28 -24 -72 5 -36 11
-48 24 -48 13 0 16 -6 12 -25 -15 -80 76 -128 134 -69 20 20 25 33 22 60 -3
28 -1 34 15 34 13 0 17 5 13 16 -3 9 -6 31 -6 50 0 29 -6 38 -35 55 -33 20
-48 49 -25 49 19 0 50 40 50 65 0 14 5 25 11 25 13 0 89 65 102 87 5 9 2 24
-7 39 -20 30 -65 32 -86 4z M2490 1083 l0 -98 100 3 c55 2 100 0 100 -5 0 -4
-40 -7 -90 -5 -68 3 -91 0 -94 -10 -3 -7 -6 -52 -8 -101 l-3 -87 101 0 c113 0
147 11 152 50 5 34 50 80 79 80 13 0 23 6 23 13 0 6 -25 67 -57 135 l-56 122
-124 0 -123 0 0 -97z m158 -290 c-26 -2 -71 -2 -100 0 -29 2 -8 3 47 3 55 0
79 -1 53 -3z M4130 1090 c0 -5 -11 -10 -25 -10 -16 0 -25 -6 -25 -15 0 -9 9
-15 24 -15 13 0 27 -6 29 -12 3 -7 6 4 6 25 1 20 -1 37 -4 37 -3 0 -5 -4 -5
-10z M3885 1060 c-10 -11 -16 -23 -12 -26 9 -9 47 16 47 31 0 21 -14 19 -35
-5z M3970 1065 c0 -10 10 -15 30 -15 20 0 30 5 30 15 0 10 -10 15 -30 15 -20
0 -30 -5 -30 -15z M11480 940 l0 -100 -60 0 -60 0 0 -34 c0 -32 2 -34 42 -40
60 -10 88 -39 88 -91 0 -52 -28 -81 -88 -91 -40 -6 -42 -8 -42 -40 l0 -34 165
0 165 0 0 165 0 164 -62 3 -63 3 -3 98 -3 97 -39 0 -40 0 0 -100z M3800 1000
c-17 -13 -22 -22 -15 -29 7 -6 18 -3 34 10 32 27 14 44 -19 19z M3706 931
c-10 -10 -13 -22 -8 -25 10 -6 52 21 52 35 0 16 -26 10 -44 -10z M3621 871
c-15 -11 -20 -21 -13 -25 14 -8 52 15 52 31 0 18 -11 16 -39 -6z M3540 812
c-13 -10 -21 -24 -18 -32 3 -9 12 -6 33 12 33 29 19 48 -15 20z M3350 768
c-11 -18 -20 -38 -20 -45 0 -25 23 -61 46 -74 13 -7 24 -16 24 -21 0 -14 28
-9 34 7 3 8 11 15 19 15 17 0 44 49 41 78 -3 39 -42 72 -86 72 -32 0 -41 -5
-58 -32z M3400 546 c0 -26 4 -36 16 -36 11 0 14 8 12 32 -4 46 -28 49 -28 4z
M3400 440 c0 -20 5 -30 15 -30 10 0 15 10 15 30 0 20 -5 30 -15 30 -10 0 -15
-10 -15 -30z M3290 420 c0 -5 16 -10 35 -10 19 0 35 5 35 10 0 6 -16 10 -35
10 -19 0 -35 -4 -35 -10z"/>
</g></g>
  <g transform="translate(0.000000,630.000000) scale(0.100000,-0.100000)"
fill="#4fe3ff" stroke="none">
<path d="M7235 6185 c-5 -2 -23 -6 -38 -9 -36 -8 -116 -82 -133 -123 -8 -18
-14 -56 -14 -84 0 -61 32 -125 80 -159 l30 -21 0 -205 0 -204 -119 0 -118 0
-179 -86 c-98 -47 -187 -93 -196 -101 -14 -12 -18 -32 -18 -85 l0 -68 -170 0
-170 0 0 108 c0 71 -4 112 -12 120 -8 8 -52 12 -130 12 l-118 0 0 105 0 105
64 0 c71 0 96 15 77 47 -10 16 -10 16 -11 -4 0 -20 -5 -22 -72 -25 l-73 -3 -3
-122 -3 -123 131 0 130 0 0 -120 0 -120 190 0 190 0 0 80 0 81 178 87 177 87
135 5 135 5 3 217 2 216 -33 21 c-66 40 -97 147 -66 228 13 35 55 80 94 101
39 20 131 20 170 0 63 -33 105 -102 105 -173 0 -62 -20 -105 -69 -147 l-41
-35 2 -214 3 -214 428 -3 427 -2 9 22 c5 13 93 103 194 201 l185 177 261 0
261 0 0 -370 0 -370 175 0 175 0 0 65 0 65 440 0 440 0 2 -352 3 -353 73 -3
72 -3 0 -39 0 -40 -75 0 -75 0 0 -45 c0 -45 0 -45 -35 -45 l-35 0 0 -120 0
-120 -40 0 -39 0 -3 118 -3 117 -275 0 -275 0 0 -160 0 -160 123 -3 122 -3 0
-77 1 -77 151 -162 152 -163 78 0 78 0 0 -215 0 -215 -60 0 -60 0 0 -200 0
-200 205 0 c176 0 205 -2 205 -15 0 -13 22 -15 140 -15 l140 0 0 140 0 139
-107 4 c-69 2 -39 4 82 5 l190 2 -1 -142 c-1 -79 1 -129 3 -113 5 27 6 28 13
10 8 -19 9 -19 9 3 1 12 5 22 9 22 14 0 43 -36 35 -43 -3 -4 11 -6 33 -6 37 1
37 2 9 8 -42 9 -17 21 33 16 39 -4 41 -3 33 18 -5 12 -13 23 -20 23 -6 1 -14
2 -18 3 -4 0 3 10 15 21 12 12 22 26 22 32 0 6 -13 -4 -30 -22 -16 -18 -30
-28 -30 -20 0 7 -2 11 -5 8 -12 -12 9 -37 33 -41 21 -3 18 -4 -10 -6 -33 -1
-38 2 -39 22 0 21 -1 21 -8 2 -5 -11 -6 -24 -3 -29 3 -5 0 -6 -7 -2 -7 4 -11
17 -9 28 2 12 -3 23 -11 26 -10 3 -12 0 -8 -12 5 -12 3 -16 -5 -14 -8 3 -13
29 -14 69 -2 89 -7 88 -14 -6 l-6 -80 -2 95 c-1 62 2 90 8 80 5 -8 12 -11 16
-7 4 3 1 13 -6 22 -7 9 -10 18 -7 22 4 3 2 12 -4 20 -16 19 -382 19 -398 0
-21 -26 9 -37 106 -37 l93 0 0 -120 0 -120 -119 0 c-93 0 -121 3 -131 15 -10
12 -46 15 -206 15 l-194 0 0 180 0 180 48 0 c26 0 53 5 60 12 9 9 12 72 12
223 0 151 -3 214 -12 223 -7 7 -42 12 -88 12 l-75 0 -142 153 -142 152 -1 76
c0 44 -5 80 -12 87 -8 8 -50 12 -125 12 l-113 0 0 145 0 145 260 0 260 0 0
-108 c0 -121 5 -132 60 -132 55 0 60 11 60 132 0 106 0 108 23 108 32 0 47 18
47 57 l0 33 63 0 c73 0 87 10 87 60 0 50 -14 60 -87 60 l-63 0 0 343 c0 253
-3 346 -12 355 -9 9 -122 12 -448 12 -326 0 -439 -3 -448 -12 -7 -7 -12 -36
-12 -65 l0 -53 -155 0 -155 0 0 358 c0 265 -3 361 -12 370 -9 9 -83 12 -272
12 l-261 -1 -205 -199 -205 -200 -407 0 -408 0 0 203 0 203 41 39 c23 22 48
54 55 72 19 43 18 117 -2 156 -20 40 -71 95 -104 112 -27 13 -98 26 -115 20z
M2932 6148 c-17 -17 -17 -329 0 -346 9 -9 104 -12 368 -12 264 0 359 3 368 12
7 7 12 25 12 40 l0 28 278 2 c277 3 277 3 287 26 10 22 12 22 212 22 l203 0 0
-43 c0 -24 5 -48 12 -55 18 -18 322 -17 337 2 8 9 11 62 9 166 -3 128 -6 155
-19 163 -10 6 -24 7 -35 2 -17 -8 -16 -9 9 -13 l27 -3 0 -155 0 -154 -159 0
-160 0 -3 53 -3 52 -220 0 -220 0 -3 -22 -3 -23 -285 0 -284 0 0 -40 0 -40
-360 0 -360 0 0 165 0 165 153 0 153 0 34 -35 c19 -19 38 -35 44 -35 6 0 -10
20 -34 45 l-44 45 -151 0 c-104 0 -155 -4 -163 -12z M3434 6118 c-70 -75 -80
-95 -18 -35 l60 57 92 0 92 0 0 -30 0 -30 285 0 285 0 0 -25 0 -25 223 2 222
3 3 52 c3 48 5 52 30 55 24 4 25 5 8 13 -31 14 -51 -7 -54 -59 l-3 -46 -202 0
c-200 0 -202 0 -212 23 -10 22 -10 22 -287 25 -259 2 -278 4 -278 20 0 34 -21
42 -115 42 l-91 0 -40 -42z M5893 5862 c-46 -2 -83 -7 -83 -12 0 -12 150 -13
169 -1 21 13 2 16 -86 13z M3612 5718 c-7 -7 -12 -20 -12 -30 0 -15 -8 -18
-44 -18 -26 0 -48 -6 -56 -15 -7 -8 -9 -15 -4 -15 4 0 -14 -22 -41 -50 -27
-27 -45 -50 -39 -50 14 0 111 100 99 102 -6 1 15 4 45 7 51 6 55 8 58 34 l3
27 305 0 304 0 0 -145 0 -145 -305 0 -305 0 0 30 0 30 -335 0 -335 0 0 30 0
30 -190 0 -190 0 0 -85 0 -85 140 0 140 0 0 -290 0 -290 -140 0 -140 0 0 -105
0 -105 60 0 60 0 0 -160 0 -160 -45 0 c-25 0 -45 -4 -45 -10 0 -14 84 -12 98
2 8 8 12 60 12 168 0 108 -4 160 -12 168 -7 7 -34 12 -60 12 l-48 0 0 85 0 85
128 0 c86 0 132 4 140 12 17 17 17 579 0 596 -8 8 -54 12 -140 12 l-128 0 0
65 0 65 170 0 c157 0 170 -1 170 -18 0 -41 11 -42 347 -42 304 0 323 -1 323
-18 0 -40 12 -42 325 -42 221 0 304 3 313 12 17 17 17 289 0 306 -9 9 -92 12
-313 12 -221 0 -304 -3 -313 -12z M2938 5650 c-12 -19 -24 -20 -223 -20 -151
0 -214 -3 -223 -12 -8 -8 -12 -49 -12 -120 l0 -108 -118 0 c-78 0 -122 -4
-130 -12 -17 -17 -17 -579 0 -596 8 -8 52 -12 130 -12 l118 0 0 -85 0 -85 -48
0 c-26 0 -53 -5 -60 -12 -17 -17 -17 -319 0 -336 14 -14 88 -16 88 -2 0 6 -18
10 -40 10 l-40 0 0 160 0 160 60 0 61 0 -3 103 -3 102 -127 3 -128 3 0 289 0
290 130 0 130 0 0 120 0 120 225 0 c218 0 225 1 225 20 0 19 7 20 151 20 82 0
148 -4 145 -8 -3 -5 27 -40 67 -78 74 -71 67 -55 -12 29 -25 26 -41 47 -37 47
5 0 3 7 -4 15 -10 12 -41 15 -161 15 -138 0 -150 -1 -161 -20z M5715 5501 c3
-6 26 -11 51 -11 l44 0 0 -105 0 -105 -123 0 c-82 0 -127 -4 -135 -12 -8 -8
-12 -49 -12 -120 l0 -108 -308 0 c-226 0 -311 -3 -320 -12 -8 -8 -12 -66 -12
-195 l0 -183 -108 0 c-71 0 -112 -4 -120 -12 -16 -16 -16 -220 0 -236 8 -8 66
-12 195 -12 l183 0 0 -60 0 -60 -260 0 -260 0 0 178 c0 125 -4 182 -12 190 -7
7 -42 12 -88 12 -46 0 -81 -5 -88 -12 -8 -8 -12 -50 -12 -125 0 -110 -1 -113
-22 -113 -35 0 -43 -11 -43 -60 0 -49 8 -60 43 -60 l22 0 0 -298 c0 -218 3
-301 12 -310 16 -16 160 -16 176 0 9 9 12 68 12 205 l0 192 158 3 c86 2 203 2
260 0 l102 -3 0 -60 0 -59 -163 0 c-113 0 -167 -4 -175 -12 -17 -17 -17 -229
0 -246 8 -8 45 -12 100 -12 l88 0 0 -140 0 -140 -48 0 c-26 0 -53 -5 -60 -12
-8 -8 -12 -57 -12 -153 0 -96 4 -145 12 -153 14 -14 88 -16 88 -2 0 6 -18 10
-40 10 l-40 0 0 145 0 144 58 3 57 3 0 155 0 155 -97 3 -98 3 0 114 0 115 175
0 175 0 0 80 0 80 -105 0 c-63 0 -105 4 -105 10 0 6 9 10 20 10 10 0 24 9 30
21 14 26 7 35 -10 14 -21 -25 -40 -18 -40 15 0 17 -4 30 -10 30 -5 0 -10 -22
-10 -50 l0 -50 -165 0 -165 0 0 -205 0 -205 -80 0 -80 0 -2 308 -3 307 -32 3
c-31 3 -33 6 -33 42 0 36 2 39 33 42 l32 3 3 123 3 122 79 0 80 0 0 -190 0
-190 280 0 280 0 0 80 0 80 -195 0 -195 0 0 110 0 110 120 0 120 0 0 195 0
195 318 2 317 3 3 118 3 117 135 0 135 0 -3 123 -3 122 -58 3 c-39 2 -57 0
-52 -7z M4990 4775 l0 -145 125 0 125 0 0 -465 0 -465 -115 0 -115 0 0 -160 0
-160 55 0 55 0 0 -145 0 -145 -56 0 c-34 0 -53 -4 -49 -10 9 -14 99 -12 113 2
17 17 17 289 0 306 -7 7 -31 12 -55 12 l-43 0 0 140 0 140 103 0 c67 0 107 4
115 12 17 17 17 929 0 946 -8 8 -50 12 -125 12 l-113 0 0 125 0 125 265 0 265
0 0 -113 c0 -75 4 -117 12 -125 17 -17 609 -17 626 0 8 8 12 50 12 125 l0 113
170 0 170 0 0 -63 c0 -48 4 -68 18 -80 9 -8 99 -47 199 -86 l182 -71 540 0
541 0 0 -229 0 -229 -34 -26 c-68 -51 -97 -166 -60 -239 23 -46 63 -86 108
-109 57 -29 150 -22 200 15 65 50 90 92 94 162 5 74 -18 128 -73 172 l-35 28
0 228 0 228 31 -3 c29 -3 48 -24 182 -205 l150 -203 267 0 c193 0 269 3 278
12 9 9 12 102 12 355 l0 343 155 0 155 0 0 -313 c0 -230 3 -316 12 -325 7 -7
27 -12 45 -12 l33 0 0 -145 0 -145 -48 0 c-26 0 -53 -5 -60 -12 -9 -9 -12 -71
-12 -218 0 -147 3 -209 12 -218 7 -7 40 -12 78 -12 l66 0 146 -157 147 -158 1
-76 c0 -44 5 -80 12 -87 8 -8 54 -12 140 -12 l128 0 0 -243 c0 -176 3 -246 12
-255 9 -9 77 -12 244 -12 193 0 235 3 248 15 22 22 231 22 240 -1 3 -9 6 -62
6 -120 l0 -104 -88 3 c-96 2 -134 -11 -111 -39 9 -10 42 -14 130 -14 l119 0 1
-95 c2 -111 2 -111 12 -121 4 -4 7 -15 7 -24 0 -10 7 -23 15 -30 14 -12 14
-15 0 -31 -20 -21 -16 -69 5 -79 8 -4 25 -12 37 -18 29 -15 76 -15 91 0 9 9
15 9 24 0 16 -16 70 -16 86 0 9 9 15 9 24 0 17 -17 63 -15 79 4 30 37 -43 73
-80 39 -16 -14 -19 -14 -31 0 -16 19 -64 19 -80 0 -12 -14 -15 -14 -31 1 -11
10 -28 15 -44 12 -20 -4 -25 -1 -25 16 0 12 -5 27 -11 33 -7 7 -7 17 -1 29 21
38 24 61 22 162 l-1 102 118 0 c129 0 156 9 126 42 -12 13 -31 18 -72 19 -39
0 -50 3 -36 9 11 4 32 5 48 3 22 -5 27 -2 27 16 0 13 -6 21 -17 21 -16 0 -16
-2 -3 -11 11 -8 3 -9 -32 -6 -31 3 -45 1 -41 -6 3 -6 1 -7 -5 -3 -17 10 -15
26 3 26 8 0 15 5 15 11 0 6 -9 9 -20 6 -11 -3 -18 -2 -16 2 3 4 0 13 -5 21 -6
11 -9 3 -7 -25 3 -54 26 -73 90 -78 34 -2 21 -4 -39 -5 l-93 -2 1 28 1 27 8
-25 c8 -25 8 -25 11 5 6 66 5 175 -2 175 -5 0 -10 -24 -12 -52 -3 -47 -3 -46
-5 17 -1 46 1 65 8 55 5 -8 12 -11 16 -7 4 3 1 14 -6 22 -12 15 -1 16 113 14
112 -2 127 -5 127 -20 0 -21 23 -41 41 -34 11 4 14 28 14 95 0 50 -3 90 -7 90
-4 0 -16 9 -26 20 -16 17 -21 18 -31 7 -8 -10 -8 -22 -2 -38 10 -24 10 -23 12
6 2 24 3 21 9 -15 5 -30 7 -36 8 -17 1 15 7 27 12 27 6 0 10 -33 10 -80 0 -44
-4 -80 -9 -80 -5 0 -11 12 -13 28 l-3 27 -140 0 -140 0 0 -140 0 -140 105 -5
105 -4 -130 -6 -130 -5 -3 -102 -3 -103 -29 0 -29 0 -3 103 -3 102 -130 5
-130 6 105 4 105 5 3 135 c1 91 -1 130 -8 120 -6 -10 -10 -11 -10 -2 0 6 -12
12 -27 12 -22 0 -25 2 -13 10 12 7 8 10 -15 10 -23 0 -27 -3 -15 -10 11 -7 -1
-10 -40 -10 -39 0 -51 3 -40 10 12 7 8 10 -15 10 -21 0 -26 -3 -16 -9 9 -6 0
-10 -28 -13 -22 -2 -43 1 -45 7 -2 5 -5 2 -5 -7 -1 -17 -19 -18 -236 -18
l-235 0 -2 253 -3 252 -137 3 -138 3 0 77 -1 77 -156 168 -156 167 -69 0 -68
0 0 210 0 210 60 0 60 0 0 165 0 165 -45 0 -45 0 0 325 0 325 -175 0 -175 0 0
-355 0 -355 -267 1 -268 0 -140 190 c-77 105 -141 197 -143 205 -3 11 -16 14
-50 12 l-47 -3 -3 -237 -2 -237 35 -27 c56 -42 78 -95 73 -170 -3 -52 -9 -70
-34 -100 -41 -51 -88 -74 -152 -74 -80 0 -139 34 -173 102 -40 78 -13 192 56
239 l35 24 0 243 0 242 -552 0 -553 1 -185 72 -185 73 -3 77 -3 77 -189 0
-190 0 0 -125 0 -125 -305 0 -304 0 -3 123 -3 122 -282 3 -283 2 0 -145z
m6033 -2742 c-7 -2 -13 -16 -13 -29 0 -15 -6 -24 -15 -24 -9 0 -15 9 -15 24 0
13 -6 27 -12 29 -7 3 5 5 27 5 22 0 34 -2 28 -5z m-13 -128 c0 -24 -5 -35 -15
-35 -15 0 -22 50 -8 63 15 15 23 5 23 -28z m88 -42 c2 -9 -8 -13 -32 -13 -34
0 -44 8 -29 24 11 11 56 2 61 -11z m110 0 c2 -9 -8 -13 -32 -13 -26 0 -36 4
-36 16 0 19 61 16 68 -3z m102 2 c0 -10 -10 -15 -30 -15 -20 0 -30 5 -30 15 0
10 10 15 30 15 20 0 30 -5 30 -15z M3877 4774 c-4 -4 -7 -34 -7 -66 l0 -58
-158 0 c-103 0 -162 -4 -169 -11 -7 -7 -9 -32 -6 -67 l6 -55 -57 7 c-84 11
-86 8 -86 -148 0 -89 4 -136 12 -144 7 -7 38 -12 71 -12 l59 0 -4 -99 c-1 -55
0 -95 3 -89 8 13 19 -30 12 -48 -3 -8 -19 -14 -37 -14 -24 0 -27 3 -16 10 11
7 6 10 -20 10 -26 0 -31 3 -20 10 14 9 7 15 -14 11 -5 -1 -6 5 -2 14 4 11 1
15 -11 13 -11 -2 -19 6 -23 22 l-6 25 -12 -22 c-9 -17 -9 -22 1 -26 9 -3 9 -8
1 -17 -9 -9 -17 -9 -32 -1 -31 16 -37 13 -18 -8 12 -13 14 -21 6 -26 -26 -16
9 -25 101 -25 79 0 101 3 105 15 7 19 94 21 112 3 9 -9 12 -7 12 10 0 20 -5
22 -60 22 l-60 0 0 115 0 115 -70 0 -70 0 0 135 0 135 65 0 65 0 0 60 0 60
160 0 159 0 3 -57 3 -58 77 -3 77 -3 3 -62 3 -62 80 -5 c44 -3 82 -4 85 -2 14
10 -33 22 -87 22 l-63 0 0 47 c0 29 6 53 17 65 9 10 11 18 5 18 -6 0 -13 -3
-15 -7 -3 -5 -44 -7 -91 -5 l-86 3 0 121 c0 67 3 119 6 115 3 -3 6 -57 5 -119
-1 -61 1 -109 5 -105 13 12 13 215 0 232 -6 9 -15 13 -19 9z m-467 -774 c0 -5
-8 -10 -17 -10 -15 0 -16 2 -3 10 19 12 20 12 20 0z m43 -27 c-18 -2 -48 -2
-65 0 -18 2 -4 4 32 4 36 0 50 -2 33 -4z M3418 4686 c-34 -43 -36 -57 -4 -27
19 18 42 61 33 61 -1 0 -14 -16 -29 -34z M2085 4600 c-4 -6 12 -10 39 -10 l46
0 0 -165 0 -164 -57 -3 -58 -3 -3 -122 -3 -123 131 0 130 0 0 -300 0 -300
-130 0 -130 0 0 -155 0 -155 60 0 60 0 2 -362 3 -363 268 -3 267 -2 0 120 0
120 203 2 202 3 0 140 0 140 -52 3 -53 3 0 455 0 454 249 0 c190 0 250 -3 254
-12 2 -7 8 -10 12 -6 4 4 2 14 -5 23 -11 13 -50 15 -259 15 -179 0 -250 -3
-259 -12 -17 -17 -17 -909 0 -926 7 -7 31 -12 55 -12 l43 0 0 -125 0 -125
-193 0 c-137 0 -196 -3 -205 -12 -8 -8 -12 -49 -12 -120 l0 -108 -250 0 -250
0 0 353 c0 261 -3 356 -12 365 -7 7 -34 12 -60 12 l-48 0 0 135 0 135 118 0
c78 0 122 4 130 12 17 17 17 599 0 616 -8 8 -52 12 -130 12 l-118 0 0 105 0
105 48 0 c26 0 53 5 60 12 8 8 12 61 12 173 0 112 -4 165 -12 173 -15 15 -84
16 -93 2z M1848 4544 c-14 -13 -9 -279 4 -292 7 -7 34 -12 60 -12 l48 0 0
-105 0 -105 -108 0 c-71 0 -112 -4 -120 -12 -17 -17 -17 -599 0 -616 8 -8 49
-12 120 -12 l108 0 0 -135 0 -135 -333 0 c-246 0 -336 -3 -345 -12 -7 -7 -12
-34 -12 -60 l0 -48 -135 0 -135 0 0 48 c0 26 -5 53 -12 60 -8 8 -58 12 -159
12 -157 0 -174 -5 -167 -51 5 -35 28 -44 89 -32 l54 10 -62 2 c-60 1 -63 2
-63 26 l0 25 150 0 150 0 0 -60 0 -60 155 0 155 0 0 60 0 60 343 2 342 3 0
150 0 150 -117 3 -118 3 0 299 0 300 120 0 121 0 -3 123 -3 122 -57 3 -57 3
-3 145 c-2 80 -6 142 -10 138z M4181 4328 c-1 -27 -2 -27 -73 -30 -71 -3 -73
-4 -76 -30 -3 -28 -4 -28 -83 -28 l-79 0 0 -115 0 -115 -45 0 c-42 0 -45 -2
-43 -25 2 -26 18 -36 18 -11 0 27 150 38 178 13 36 -33 93 -9 63 27 -6 7 -7
17 -3 21 4 5 -1 5 -10 2 -31 -11 -20 16 19 50 20 18 35 35 32 37 -3 3 -22 -11
-43 -30 -20 -19 -42 -32 -47 -29 -5 4 -9 -1 -9 -10 0 -9 5 -13 11 -9 7 4 6 -3
-2 -17 -8 -15 -14 -19 -17 -11 -3 10 -7 10 -18 1 -11 -9 -14 -8 -14 5 0 9 7
16 15 16 8 0 15 5 15 11 0 6 -9 9 -20 6 -11 -3 -18 -2 -16 2 3 4 0 13 -5 21
-8 11 -9 4 -5 -24 4 -27 2 -36 -5 -29 -6 6 -11 43 -12 82 -2 83 -14 95 -20 19
-3 -46 -3 -43 -4 17 -1 39 1 64 4 58 2 -7 9 -13 15 -13 6 0 8 7 4 15 -4 12 6
15 57 15 65 0 87 11 87 42 0 15 9 18 63 18 78 0 89 7 78 45 l-9 30 -1 -27z
m-287 -293 c3 -8 1 -15 -4 -15 -6 0 -10 7 -10 15 0 8 2 15 4 15 2 0 6 -7 10
-15z m131 -35 c17 -7 14 -9 -13 -9 -20 -1 -31 3 -27 9 7 12 13 12 40 0z M3333
4104 c-6 -16 15 -64 29 -64 4 0 8 7 8 15 0 8 -4 15 -9 15 -15 0 -22 33 -9 42
11 6 11 8 0 8 -7 0 -15 -7 -19 -16z M3400 4105 c0 -8 2 -15 4 -15 2 0 6 7 10
15 3 8 1 15 -4 15 -6 0 -10 -7 -10 -15z M4123 4025 c0 -9 4 -14 9 -13 5 2 10
8 10 13 0 5 -5 11 -10 13 -5 1 -9 -4 -9 -13z M3581 3886 c8 -8 98 -10 105 -3
4 4 -19 7 -51 7 -32 0 -56 -2 -54 -4z M3755 3880 c-19 -8 -18 -9 4 -9 22 -1
23 -3 18 -48 l-7 -48 16 32 c10 20 14 43 10 58 -7 27 -10 28 -41 15z M3657
3834 c-4 -4 -7 -14 -7 -23 0 -11 3 -12 11 -4 6 6 10 16 7 23 -2 6 -7 8 -11 4z
M3878 3712 c-10 -2 -18 -8 -18 -14 0 -6 9 -8 20 -5 20 5 20 0 20 -394 l0 -399
-340 0 -340 0 0 -145 0 -145 195 0 195 0 0 -120 0 -120 150 0 150 0 0 60 0 60
155 0 155 0 0 -170 0 -170 -65 0 c-37 0 -65 -4 -65 -10 0 -14 123 -13 138 2 8
8 12 62 12 178 0 149 -2 169 -18 183 -16 14 -43 17 -165 17 -167 0 -167 0
-167 -84 l0 -46 -130 0 -130 0 0 108 c0 71 -4 112 -12 120 -8 8 -66 12 -195
12 l-183 0 0 125 0 125 328 0 c242 0 331 3 340 12 9 9 12 114 12 409 0 414 -1
421 -42 411z m255 -1209 c-40 -2 -106 -2 -145 0 -40 1 -8 3 72 3 80 0 112 -2
73 -3z M980 2850 l0 -50 -150 0 -150 0 0 25 c0 24 3 25 63 26 l62 2 -54 10
c-61 12 -84 3 -89 -32 -7 -46 10 -51 167 -51 101 0 151 4 159 12 7 7 12 29 12
50 l0 38 135 0 135 0 0 -348 c0 -365 1 -373 45 -371 11 0 15 3 9 5 -6 2 -10
17 -9 32 2 19 1 20 -2 5 -2 -13 -8 -23 -14 -23 -5 0 -10 148 -11 358 l-3 357
-152 3 -153 3 0 -51z M11122 2793 c-5 -10 -6 -27 -2 -38 6 -16 8 -14 12 15 7
41 3 49 -10 23z M11582 2728 c-7 -7 -12 -20 -12 -30 0 -14 -8 -18 -42 -18 -24
0 -47 -4 -53 -8 -5 -4 -10 -45 -10 -92 0 -47 5 -88 10 -92 6 -4 29 -8 53 -8
l42 0 0 -38 c0 -21 5 -43 12 -50 17 -17 309 -17 326 0 8 8 12 60 12 168 0 108
-4 160 -12 168 -17 17 -309 17 -326 0z m318 -168 l0 -160 -155 0 -155 0 0 50
0 50 -55 0 -55 0 0 80 0 80 55 0 c54 0 55 0 55 30 l0 30 155 0 155 0 0 -160z
M11640 2510 c0 -19 7 -20 125 -20 118 0 125 1 125 20 0 19 -7 20 -125 20 -118
0 -125 -1 -125 -20z m188 3 c-32 -2 -86 -2 -120 0 -35 2 -9 3 57 3 66 0 94 -1
63 -3z M2177 2283 c-4 -3 -7 -28 -7 -55 l0 -48 -259 0 -260 0 -4 23 c-3 15 -4
14 -2 -5 1 -17 -4 -29 -14 -31 -9 -3 108 -5 260 -6 202 -1 278 2 287 11 7 7
12 31 12 55 l0 43 250 0 250 0 0 -123 c0 -82 4 -127 12 -135 17 -17 899 -17
916 0 8 8 12 53 12 135 l0 123 130 0 130 0 0 -58 c0 -32 5 -63 12 -70 15 -15
138 -16 138 -2 0 6 -28 10 -65 10 l-65 0 0 70 0 70 -150 0 -150 0 0 -135 0
-135 -450 0 -450 0 0 135 0 135 -263 0 c-145 0 -267 -3 -270 -7z M1408 2253
c39 -2 105 -2 145 0 39 1 7 3 -73 3 -80 0 -112 -2 -72 -3z M12052 2168 c-8 -8
-12 -49 -12 -120 l0 -108 -123 0 c-116 0 -125 -1 -145 -23 -17 -18 -30 -22
-52 -19 -20 3 -37 -2 -49 -12 -16 -15 -19 -15 -31 -1 -7 8 -23 15 -35 15 -12
0 -28 -7 -35 -15 -12 -14 -15 -14 -31 0 -37 34 -110 -2 -80 -39 16 -19 62 -21
79 -4 9 9 15 9 24 0 16 -16 70 -16 86 0 9 9 15 9 24 0 7 -7 28 -12 48 -12 19
0 44 -7 54 -15 15 -11 50 -15 143 -15 l123 0 0 -123 c0 -82 4 -127 12 -135 17
-17 929 -17 946 0 8 8 12 53 12 135 l0 123 120 0 120 0 0 -53 c0 -29 5 -58 12
-65 17 -17 339 -17 356 0 7 7 12 26 12 43 0 49 -14 55 -120 54 -151 -2 -174
-16 -27 -18 l127 -1 0 -35 0 -35 -170 0 -170 0 0 65 0 65 -140 0 -140 0 0
-135 0 -135 -465 0 -465 0 0 135 0 135 -135 0 -135 0 0 50 0 50 135 0 135 0 0
120 0 120 465 0 465 0 0 -120 0 -120 140 0 140 0 0 45 0 45 170 0 170 0 0 -25
0 -25 -127 -1 c-147 -2 -124 -16 27 -18 101 -1 120 6 120 44 0 41 -16 45 -190
45 -182 0 -190 -2 -190 -57 l0 -33 -120 0 -120 0 0 108 c0 71 -4 112 -12 120
-17 17 -929 17 -946 0z m-275 -320 c-2 -13 -4 -5 -4 17 -1 22 1 32 4 23 2 -10
2 -28 0 -40z m-247 17 c0 -10 -10 -15 -30 -15 -20 0 -30 5 -30 15 0 10 10 15
30 15 20 0 30 -5 30 -15z m108 -2 c2 -9 -8 -13 -32 -13 -34 0 -44 8 -29 24 11
11 56 2 61 -11z m110 0 c2 -9 -8 -13 -32 -13 -26 0 -36 4 -36 16 0 19 61 16
68 -3z M4585 2163 c-43 -11 -45 -19 -45 -187 0 -113 4 -166 12 -174 7 -7 38
-12 70 -12 l58 0 0 -140 0 -140 -118 0 c-78 0 -122 -4 -130 -12 -8 -8 -12 -66
-12 -195 l0 -183 -135 -1 c-74 -1 -138 -2 -142 -4 -54 -15 -78 -30 -78 -50 0
-10 7 -21 15 -25 8 -4 29 -15 47 -24 24 -12 60 -16 162 -16 l131 0 0 -198 c0
-141 3 -201 12 -210 17 -17 599 -17 616 0 17 17 17 889 0 906 -8 8 -52 12
-130 12 l-118 0 0 128 c0 86 4 132 12 140 7 7 33 12 58 12 25 0 51 5 58 12 8
8 12 61 12 174 0 206 12 194 -190 193 -80 -1 -154 -4 -165 -6z m295 -13 c-12
-8 -9 -10 13 -10 l27 0 0 -165 0 -164 -67 -3 -68 -3 0 -155 0 -155 128 -3 127
-3 0 -444 0 -445 -300 0 -300 0 0 210 0 210 -145 0 -145 0 0 40 0 40 145 0
145 0 0 195 0 194 128 3 127 3 0 155 0 155 -67 3 -68 3 0 164 0 165 38 0 c27
0 33 3 22 10 -10 7 33 10 130 10 97 0 140 -3 130 -10z m-741 -1087 c0 -21 -3
-32 -6 -25 -2 6 -16 12 -29 12 -15 0 -24 6 -24 15 0 9 9 15 25 15 14 0 25 5
25 10 0 6 2 10 5 10 3 0 5 -17 4 -37z M1360 2128 c56 -38 51 -110 -8 -124 -37
-9 -52 -23 -52 -48 0 -33 19 -46 67 -46 39 0 43 -2 43 -25 0 -24 -3 -25 -58
-25 -32 0 -63 -5 -70 -12 -17 -17 -17 -309 0 -326 15 -15 298 -17 298 -2 0 6
-55 10 -145 10 l-145 0 0 155 0 154 68 3 67 3 0 40 0 40 -52 3 c-49 3 -53 5
-53 28 0 16 6 24 18 24 10 0 31 13 46 29 49 51 32 117 -34 136 -20 6 -19 3 10
-17z M1566 2142 c-3 -5 8 -6 25 -4 16 2 29 6 29 8 0 8 -49 4 -54 -4z M1557
1993 c3 -7 16 -13 29 -13 19 0 24 -5 24 -25 0 -23 -3 -25 -50 -25 l-50 0 0
-45 0 -45 59 0 c38 0 61 -4 64 -12 2 -7 8 -10 12 -6 18 17 -19 38 -66 38 -46
0 -49 2 -49 25 0 22 4 25 38 25 43 0 62 14 62 46 0 26 -15 40 -52 46 -19 4
-25 1 -21 -9z M11349 1884 c-20 -24 1 -49 41 -49 40 0 61 25 41 49 -8 9 -26
16 -41 16 -15 0 -33 -7 -41 -16z m71 -19 c0 -10 -10 -15 -30 -15 -20 0 -30 5
-30 15 0 10 10 15 30 15 20 0 30 -5 30 -15z M1990 1720 c0 -6 43 -10 110 -10
67 0 110 4 110 10 0 6 -43 10 -110 10 -67 0 -110 -4 -110 -10z M11415 1650
c-10 -11 -24 -20 -31 -20 -8 0 -26 -11 -41 -24 -113 -99 -105 -87 -110 -155
-3 -55 -7 -66 -34 -88 -28 -24 -29 -29 -23 -72 3 -25 13 -53 20 -62 8 -8 14
-23 14 -33 0 -52 49 -96 107 -96 33 0 93 60 93 93 0 13 6 30 14 36 9 8 12 26
9 59 -4 38 -11 53 -38 77 -33 30 -33 31 -14 44 11 6 26 26 34 44 7 18 38 55
69 83 31 28 56 55 56 62 0 6 -12 24 -26 41 -30 37 -72 41 -99 11z m91 -24 c9
-15 12 -30 7 -39 -13 -22 -89 -87 -102 -87 -6 0 -11 -11 -11 -25 0 -25 -31
-65 -50 -65 -23 0 -8 -29 25 -49 29 -17 35 -26 35 -55 0 -19 3 -41 6 -50 4
-11 0 -16 -13 -16 -16 0 -18 -6 -15 -34 3 -27 -2 -40 -22 -60 -58 -59 -149
-11 -134 69 4 19 1 25 -12 25 -13 0 -19 12 -24 48 -6 44 -4 49 24 72 26 22 30
33 34 90 3 55 7 67 30 85 15 11 41 32 58 48 17 15 38 27 47 27 9 0 23 9 31 20
21 28 66 26 86 -4z M2260 1461 l0 -31 -70 0 -70 0 0 -140 0 -140 50 0 50 0 0
-295 0 -295 295 0 c190 0 295 4 295 10 0 6 -102 10 -285 10 l-285 0 0 283 c0
207 -3 286 -12 295 -7 7 -29 12 -50 12 l-38 0 0 120 0 120 58 0 c32 0 63 5 70
12 15 15 16 54 2 63 -6 4 -10 -7 -10 -24z M1927 1456 c-11 -29 10 -46 59 -46
l44 0 0 -120 0 -120 -43 0 c-24 0 -48 -5 -55 -12 -17 -17 -17 -889 0 -906 17
-17 909 -17 926 0 7 7 12 31 12 55 l0 43 161 0 160 0 40 32 c30 24 42 29 51
20 15 -15 70 -16 85 -1 8 8 16 7 31 -2 17 -10 23 -10 36 0 19 16 21 62 4 79
-9 9 -9 15 0 24 17 17 15 58 -4 79 -14 16 -13 19 15 40 73 54 83 105 34 160
-57 63 -121 52 -163 -29 -17 -35 -4 -71 43 -113 33 -30 39 -41 29 -51 -15 -15
-16 -70 0 -86 9 -9 9 -15 0 -24 -7 -7 -12 -21 -12 -32 0 -16 -3 -17 -12 -8
-15 15 -70 16 -85 1 -9 -9 -20 -5 -45 12 -18 13 -34 23 -35 21 -2 -1 -77 -2
-168 -2 l-165 0 0 34 c0 19 -5 38 -11 41 -7 5 -9 -9 -7 -42 l3 -48 173 -3
c127 -2 172 -6 172 -15 0 -8 4 -7 10 3 6 10 10 11 10 3 0 -7 7 -13 15 -13 8 0
15 -4 15 -10 0 -5 -7 -10 -15 -10 -8 0 -15 -6 -15 -12 0 -9 -4 -8 -10 2 -8 12
-10 11 -10 -7 0 -22 -2 -23 -172 -25 l-173 -3 -3 -52 -3 -53 -455 0 -454 0 0
445 0 445 55 0 56 0 -3 138 -3 137 -52 3 c-45 3 -52 6 -55 25 -3 20 -4 21 -11
3z m1543 -681 c12 -13 24 -34 24 -47 3 -29 -24 -78 -41 -78 -8 0 -16 -7 -19
-15 -6 -16 -34 -21 -34 -7 0 5 -11 14 -24 21 -23 13 -46 49 -46 74 0 7 9 27
20 45 17 27 26 32 58 32 28 0 45 -7 62 -25z m-42 -233 c2 -24 -1 -32 -12 -32
-12 0 -16 10 -16 36 0 45 24 42 28 -4z m2 -102 c0 -20 -5 -30 -15 -30 -10 0
-15 10 -15 30 0 20 5 30 15 30 10 0 15 -10 15 -30z m-70 -20 c0 -5 -16 -10
-35 -10 -19 0 -35 5 -35 10 0 6 16 10 35 10 19 0 35 -4 35 -10z M2481 1186
c-9 -10 -10 -68 -7 -211 3 -108 8 -201 11 -206 8 -13 225 -12 225 1 0 6 -43
10 -110 10 -60 0 -110 3 -110 8 0 4 44 7 97 6 l98 0 -93 3 -93 4 3 87 3 87 93
0 c50 0 92 4 92 8 0 5 -45 7 -100 5 l-100 -3 0 98 0 97 120 0 c73 0 120 4 120
10 0 17 -235 13 -249 -4z M3875 1070 c-27 -28 -28 -31 -13 -47 16 -15 19 -15
43 1 33 21 41 42 25 61 -17 21 -22 19 -55 -15z m45 -5 c0 -15 -38 -40 -47 -31
-7 7 26 46 39 46 4 0 8 -7 8 -15z M3959 1084 c-20 -24 1 -49 41 -49 40 0 61
25 41 49 -8 9 -26 16 -41 16 -15 0 -33 -7 -41 -16z m71 -19 c0 -10 -10 -15
-30 -15 -20 0 -30 5 -30 15 0 10 10 15 30 15 20 0 30 -5 30 -15z M11472 1048
c-8 -8 -12 -45 -12 -100 l0 -88 -49 0 c-57 0 -74 -15 -69 -62 3 -30 6 -33 38
-34 26 -1 28 -1 8 3 -24 4 -28 9 -28 39 l0 34 60 0 60 0 0 100 0 100 40 0 39
0 3 -97 3 -98 63 -3 62 -3 0 -164 0 -165 -165 0 -165 0 0 34 c0 30 4 35 28 39
20 4 18 4 -8 3 -32 -1 -35 -4 -38 -34 -6 -59 3 -62 182 -62 113 0 166 4 174
12 17 17 17 329 0 346 -7 7 -36 12 -65 12 l-53 0 0 88 c0 55 -4 92 -12 100
-16 16 -80 16 -96 0z M3790 1011 l-35 -30 20 -20 20 -20 35 29 35 29 -20 21
-21 20 -34 -29z m29 -30 c-16 -13 -27 -16 -34 -10 -7 7 -2 16 15 29 33 25 51
8 19 -19z M3697 942 c-27 -28 -27 -29 -8 -46 18 -17 20 -16 52 12 29 26 31 32
20 46 -19 23 -33 20 -64 -12z m53 -1 c0 -14 -42 -41 -52 -35 -12 8 21 44 39
44 7 0 13 -4 13 -9z M2852 930 c0 -14 2 -19 5 -12 2 6 2 18 0 25 -3 6 -5 1 -5
-13z M3611 882 c-33 -27 -33 -27 -12 -46 19 -18 21 -18 50 4 33 23 38 39 19
58 -17 17 -19 16 -57 -16z m49 -5 c0 -16 -38 -39 -52 -31 -7 4 -2 14 13 25 28
22 39 24 39 6z M3531 825 c-34 -29 -39 -46 -17 -64 12 -10 22 -6 51 21 36 33
36 34 17 51 -19 17 -21 17 -51 -8z m24 -33 c-21 -18 -30 -21 -33 -12 -6 17 36
52 51 43 6 -4 -1 -16 -18 -31z M11483 675 c0 -27 2 -38 4 -22 2 15 2 37 0 50
-2 12 -4 0 -4 -28z"/>
</g>

  <path d="M92 335 L148 335 L210 395 L316 395 L396 395" fill="none" stroke="#071a31" stroke-opacity=".85" stroke-width="16.75" stroke-linecap="round" stroke-linejoin="round"/><path data-role="main" d="M92 335 L148 335 L210 395 L316 395 L396 395" fill="none" stroke="#ffd23f" stroke-width="9.77083" stroke-linecap="round" stroke-linejoin="round"/><path d="M475 440 L474 522 L390 522 L353 548 L341 560 L341 588 L208 588 L208 478 L198 470" fill="none" stroke="#071a31" stroke-opacity=".85" stroke-width="16.75" stroke-linecap="round" stroke-linejoin="round"/><path data-role="main" d="M475 440 L474 522 L390 522 L353 548 L341 560 L341 588 L208 588 L208 478 L198 470" fill="none" stroke="#ffd23f" stroke-width="9.77083" stroke-linecap="round" stroke-linejoin="round"/><path d="M495 302 L495 248 L515 248 L515 178 L494 178 L494 133 L959 133 L959 247 L1017 318 L1018 375 L1100 375 L1100 443 L1322 443" fill="none" stroke="#071a31" stroke-opacity=".85" stroke-width="16.75" stroke-linecap="round" stroke-linejoin="round"/><path data-role="main" d="M495 302 L495 248 L515 248 L515 178 L494 178 L494 133 L959 133 L959 247 L1017 318 L1018 375 L1100 375 L1100 443 L1322 443" fill="none" stroke="#ffd23f" stroke-width="9.77083" stroke-linecap="round" stroke-linejoin="round" marker-end="url(#arrow-main)"/><path d="M316 395 L316 340 L368 270 L373 250 L373 195 L444 195 L444 212 L512 212" fill="none" stroke="#071a31" stroke-opacity=".85" stroke-width="13.9583" stroke-linecap="round" stroke-linejoin="round"/><path data-role="split" d="M316 395 L316 340 L368 270 L373 250 L373 195 L444 195 L444 212 L512 212" fill="none" stroke="#f5f7ff" stroke-width="6.97917" stroke-linecap="round" stroke-linejoin="round" marker-end="url(#arrow-split)"/><path d="M200 386 L200 300 L200 200 L198 186" fill="none" stroke="#071a31" stroke-opacity=".85" stroke-width="12.5625" stroke-linecap="round" stroke-linejoin="round"/><path data-role="optional" d="M200 386 L200 300 L200 200 L198 186" fill="none" stroke="#c9d6e8" stroke-width="5.58333" stroke-linecap="round" stroke-linejoin="round" stroke-dasharray="19.5417 13.9583"/><path d="M160 466 L146 455 L146 405 L146 340" fill="none" stroke="#071a31" stroke-opacity=".85" stroke-width="12.5625" stroke-linecap="round" stroke-linejoin="round"/><path data-role="optional" d="M160 466 L146 455 L146 405 L146 340" fill="none" stroke="#c9d6e8" stroke-width="5.58333" stroke-linecap="round" stroke-linejoin="round" stroke-dasharray="19.5417 13.9583"/>
  <g transform="translate(335 13) scale(1.39583)" stroke="#061329" stroke-width="3" stroke-linejoin="round" filter="url(#shadow)"><path d="M0-13 13 11H-13Z" fill="#fce82b"/><path d="M0-4V3M0 7v1" stroke-linecap="round"/></g><g transform="translate(308 31) scale(1.39583)" stroke="#061329" stroke-width="3" stroke-linejoin="round" filter="url(#shadow)"><rect x="-10" y="-9" width="20" height="18" rx="4" fill="#00a74f"/><path d="M-10-2H10" fill="none"/></g><g transform="translate(484 19) scale(1.39583)" stroke="#061329" stroke-width="3" stroke-linejoin="round" filter="url(#shadow)"><path d="M-14-11H14L0 14Z" fill="#f7a1b5"/><text y="4" text-anchor="middle" font-family="system-ui,-apple-system,sans-serif" font-size="13" font-weight="950" fill="#061329" stroke="none">6′</text></g><g transform="translate(337 66) scale(1.39583)" stroke="#061329" stroke-width="3" stroke-linejoin="round" filter="url(#shadow)"><path d="M0-13 13 11H-13Z" fill="#fce82b"/><path d="M0-4V3M0 7v1" stroke-linecap="round"/></g><g transform="translate(407 75) scale(1.39583)" stroke="#061329" stroke-width="3" stroke-linejoin="round" filter="url(#shadow)"><rect x="-10" y="-9" width="20" height="18" rx="4" fill="#00a74f"/><path d="M-10-2H10" fill="none"/></g><g transform="translate(569 59) scale(1.39583)" stroke="#061329" stroke-width="3" stroke-linejoin="round" filter="url(#shadow)"><path d="M-14-11H14L0 14Z" fill="#f7a1b5"/><text y="4" text-anchor="middle" font-family="system-ui,-apple-system,sans-serif" font-size="13" font-weight="950" fill="#061329" stroke="none">7</text></g><g transform="translate(610 59) scale(1.39583)" stroke="#061329" stroke-width="3" stroke-linejoin="round" filter="url(#shadow)"><path d="M-14-11H14L0 14Z" fill="#f7a1b5"/><text y="4" text-anchor="middle" font-family="system-ui,-apple-system,sans-serif" font-size="13" font-weight="950" fill="#061329" stroke="none">6</text></g><g transform="translate(725 34) scale(1.39583)" stroke="#061329" stroke-width="3" stroke-linejoin="round" filter="url(#shadow)"><rect x="-10" y="-9" width="20" height="18" rx="4" fill="#00a74f"/><path d="M-10-2H10" fill="none"/></g><g transform="translate(197 175) scale(1.39583)" stroke="#061329" stroke-width="3" stroke-linejoin="round" filter="url(#shadow)"><path d="M-14-11H14L0 14Z" fill="#f7a1b5"/><text y="4" text-anchor="middle" font-family="system-ui,-apple-system,sans-serif" font-size="13" font-weight="950" fill="#061329" stroke="none">1</text></g><g transform="translate(253 194) scale(1.39583)" stroke="#061329" stroke-width="3" stroke-linejoin="round" filter="url(#shadow)"><path d="M-14-11H14L0 14Z" fill="#f7a1b5"/><text y="4" text-anchor="middle" font-family="system-ui,-apple-system,sans-serif" font-size="13" font-weight="950" fill="#061329" stroke="none">7′</text></g><g transform="translate(340 165) scale(1.39583)" stroke="#061329" stroke-width="3" stroke-linejoin="round" filter="url(#shadow)"><circle r="10" fill="#e6e8ea"/></g><g transform="translate(402 165) scale(1.39583)" stroke="#061329" stroke-width="3" stroke-linejoin="round" filter="url(#shadow)"><circle r="10" fill="#e6e8ea"/></g><g transform="translate(342 220) scale(1.39583)" stroke="#061329" stroke-width="3" stroke-linejoin="round" filter="url(#shadow)"><circle r="10" fill="#e6e8ea"/></g><g transform="translate(402 220) scale(1.39583)" stroke="#061329" stroke-width="3" stroke-linejoin="round" filter="url(#shadow)"><circle r="10" fill="#e6e8ea"/></g><g transform="translate(422 193) scale(1.39583)" stroke="#061329" stroke-width="3" stroke-linejoin="round" filter="url(#shadow)"><rect x="-4" y="-19" width="8" height="38" rx="3" fill="#8f8fc6"/></g><g transform="translate(372 237) scale(1.39583) rotate(90)" stroke="#061329" stroke-width="3" stroke-linejoin="round" filter="url(#shadow)"><rect x="-4" y="-19" width="8" height="38" rx="3" fill="#52b84e"/></g><g transform="translate(358 252) scale(1.39583)" stroke="#061329" stroke-width="3" stroke-linejoin="round" filter="url(#shadow)"><circle r="10" fill="#52b84e"/></g><g transform="translate(384 252) scale(1.39583)" stroke="#061329" stroke-width="3" stroke-linejoin="round" filter="url(#shadow)"><circle r="10" fill="#52b84e"/></g><g transform="translate(495 311) scale(1.39583)" stroke="#061329" stroke-width="3" stroke-linejoin="round" filter="url(#shadow)"><path d="M-14-11H14L0 14Z" fill="#f7a1b5"/><text y="4" text-anchor="middle" font-family="system-ui,-apple-system,sans-serif" font-size="13" font-weight="950" fill="#061329" stroke="none">3′</text></g><g transform="translate(406 395) scale(1.39583)" stroke="#061329" stroke-width="3" stroke-linejoin="round" filter="url(#shadow)"><path d="M-14-11H14L0 14Z" fill="#f7a1b5"/><text y="4" text-anchor="middle" font-family="system-ui,-apple-system,sans-serif" font-size="13" font-weight="950" fill="#061329" stroke="none">2</text></g><g transform="translate(475 429) scale(1.39583)" stroke="#061329" stroke-width="3" stroke-linejoin="round" filter="url(#shadow)"><path d="M-14-11H14L0 14Z" fill="#f7a1b5"/><text y="4" text-anchor="middle" font-family="system-ui,-apple-system,sans-serif" font-size="13" font-weight="950" fill="#061329" stroke="none">2′</text></g><g transform="translate(146 408) scale(1.39583) rotate(90)" stroke="#061329" stroke-width="3" stroke-linejoin="round" filter="url(#shadow)"><rect x="-4" y="-19" width="8" height="38" rx="3" fill="#00b0d4"/></g><g transform="translate(132 422) scale(1.39583)" stroke="#061329" stroke-width="3" stroke-linejoin="round" filter="url(#shadow)"><circle r="10" fill="#00b0d4"/></g><g transform="translate(158 422) scale(1.39583)" stroke="#061329" stroke-width="3" stroke-linejoin="round" filter="url(#shadow)"><circle r="10" fill="#00b0d4"/></g><g transform="translate(139 467) scale(1.39583)" stroke="#061329" stroke-width="3" stroke-linejoin="round" filter="url(#shadow)"><rect x="-10" y="-9" width="20" height="18" rx="4" fill="#00a74f"/><path d="M-10-2H10" fill="none"/></g><g transform="translate(162 463) scale(1.39583)" stroke="#061329" stroke-width="3" stroke-linejoin="round" filter="url(#shadow)"><path d="M-14-11H14L0 14Z" fill="#f7a1b5"/><text y="4" text-anchor="middle" font-family="system-ui,-apple-system,sans-serif" font-size="13" font-weight="950" fill="#061329" stroke="none">1′</text></g><g transform="translate(189 465) scale(1.39583)" stroke="#061329" stroke-width="3" stroke-linejoin="round" filter="url(#shadow)"><path d="M-14-11H14L0 14Z" fill="#f7a1b5"/><text y="4" text-anchor="middle" font-family="system-ui,-apple-system,sans-serif" font-size="13" font-weight="950" fill="#061329" stroke="none">3</text></g><g transform="translate(231 465) scale(1.39583)" stroke="#061329" stroke-width="3" stroke-linejoin="round" filter="url(#shadow)"><path d="M-14-11H14L0 14Z" fill="#f7a1b5"/><text y="4" text-anchor="middle" font-family="system-ui,-apple-system,sans-serif" font-size="13" font-weight="950" fill="#061329" stroke="none">4</text></g><g transform="translate(284 511) scale(1.39583)" stroke="#061329" stroke-width="3" stroke-linejoin="round" filter="url(#shadow)"><path d="M-14-11H14L0 14Z" fill="#f7a1b5"/><text y="4" text-anchor="middle" font-family="system-ui,-apple-system,sans-serif" font-size="13" font-weight="950" fill="#061329" stroke="none">4′</text></g><g transform="translate(283 553) scale(1.39583)" stroke="#061329" stroke-width="3" stroke-linejoin="round" filter="url(#shadow)"><path d="M-14-11H14L0 14Z" fill="#f7a1b5"/><text y="4" text-anchor="middle" font-family="system-ui,-apple-system,sans-serif" font-size="13" font-weight="950" fill="#061329" stroke="none">5</text></g><g transform="translate(148 488) scale(1.39583)" stroke="#061329" stroke-width="3" stroke-linejoin="round" filter="url(#shadow)"><path d="M-14-11H14L0 14Z" fill="#f7a1b5"/><text y="4" text-anchor="middle" font-family="system-ui,-apple-system,sans-serif" font-size="13" font-weight="950" fill="#061329" stroke="none">5′</text></g><g transform="translate(258 540) scale(1.39583)" stroke="#061329" stroke-width="3" stroke-linejoin="round" filter="url(#shadow)"><rect x="-10" y="-9" width="20" height="18" rx="4" fill="#00a74f"/><path d="M-10-2H10" fill="none"/></g><g transform="translate(340 557) scale(1.39583)" stroke="#061329" stroke-width="3" stroke-linejoin="round" filter="url(#shadow)"><circle r="10" fill="#ffef1b"/></g><g transform="translate(1031 346) scale(1.39583)" stroke="#061329" stroke-width="3" stroke-linejoin="round" filter="url(#shadow)"><path d="M0-13 13 11H-13Z" fill="#fce82b"/><path d="M0-4V3M0 7v1" stroke-linecap="round"/></g><g transform="translate(1077 357) scale(1.39583)" stroke="#061329" stroke-width="3" stroke-linejoin="round" filter="url(#shadow)"><circle r="10" fill="#e6e8ea"/></g><g transform="translate(1077 388) scale(1.39583)" stroke="#061329" stroke-width="3" stroke-linejoin="round" filter="url(#shadow)"><circle r="10" fill="#e6e8ea"/></g><g transform="translate(1122 357) scale(1.39583)" stroke="#061329" stroke-width="3" stroke-linejoin="round" filter="url(#shadow)"><circle r="10" fill="#e6e8ea"/></g><g transform="translate(1122 388) scale(1.39583)" stroke="#061329" stroke-width="3" stroke-linejoin="round" filter="url(#shadow)"><circle r="10" fill="#e6e8ea"/></g><g transform="translate(1142 369) scale(1.39583)" stroke="#061329" stroke-width="3" stroke-linejoin="round" filter="url(#shadow)"><rect x="-4" y="-19" width="8" height="38" rx="3" fill="#f3a12d"/></g><g transform="translate(1163 372) scale(1.39583)" stroke="#061329" stroke-width="3" stroke-linejoin="round" filter="url(#shadow)"><rect x="-10" y="-9" width="20" height="18" rx="4" fill="#00a74f"/><path d="M-10-2H10" fill="none"/></g><g transform="translate(1136 478) scale(1.39583)" stroke="#061329" stroke-width="3" stroke-linejoin="round" filter="url(#shadow)"><path d="M0-13 13 11H-13Z" fill="#8f8fc6"/><path d="M0-4V3M0 7v1" stroke-linecap="round"/></g><g transform="translate(1131 511) scale(1.39583)" stroke="#061329" stroke-width="3" stroke-linejoin="round" filter="url(#shadow)"><circle r="10" fill="#ea3143"/></g><g transform="translate(1139 564) scale(1.39583)" stroke="#061329" stroke-width="3" stroke-linejoin="round" filter="url(#shadow)"><rect x="-10" y="-9" width="20" height="18" rx="4" fill="#00a74f"/><path d="M-10-2H10" fill="none"/></g><g transform="translate(1160 563) scale(1.39583)" stroke="#061329" stroke-width="3" stroke-linejoin="round" filter="url(#shadow)"><circle r="9" fill="#fde647"/><path d="M0 0 14-8" stroke-width="5" stroke-linecap="round" stroke="#fde647"/></g>
</g>
<g transform="translate(237.791 323.463)" filter="url(#shadow)"><rect x="-15" y="-15" width="30" height="30" rx="7" fill="#ff9f43" stroke="#061329" stroke-width="3"/><text x="0" y="6" text-anchor="middle" fill="#061329" font-family="system-ui,-apple-system,sans-serif" font-size="18" font-weight="950">1</text></g><g transform="translate(103.104 410.866)" filter="url(#shadow)"><rect x="-15" y="-15" width="30" height="30" rx="7" fill="#ff9f43" stroke="#061329" stroke-width="3"/><text x="0" y="6" text-anchor="middle" fill="#061329" font-family="system-ui,-apple-system,sans-serif" font-size="18" font-weight="950">2</text></g><g transform="translate(848.179 382.209)" filter="url(#shadow)"><rect x="-15" y="-15" width="30" height="30" rx="7" fill="#ff9f43" stroke="#061329" stroke-width="3"/><text x="0" y="6" text-anchor="middle" fill="#061329" font-family="system-ui,-apple-system,sans-serif" font-size="18" font-weight="950">3</text></g>
<g transform="translate(45.0746 263.284)" filter="url(#shadow)"><circle r="12" fill="#39d6ff" stroke="#061329" stroke-width="4"/><rect x="-27" y="-46" width="54" height="26" rx="13" fill="#061329" fill-opacity=".9" stroke="#39d6ff" stroke-width="2"/><text x="0" y="-27.5" text-anchor="middle" fill="#39d6ff" font-family="system-ui,-apple-system,sans-serif" font-size="16" font-weight="900">起点</text></g><g transform="translate(945.612 342.09)" filter="url(#shadow)"><circle r="12" fill="#ff5ca8" stroke="#061329" stroke-width="4"/><rect x="-51" y="-46" width="102" height="26" rx="13" fill="#061329" fill-opacity=".9" stroke="#ff5ca8" stroke-width="2"/><text x="0" y="-27.5" text-anchor="middle" fill="#ff5ca8" font-family="system-ui,-apple-system,sans-serif" font-size="16" font-weight="900">前往下一区</text></g>
<path d="M30 505h34" stroke="#ffd23f" stroke-width="7" stroke-linecap="round"/><text x="74" y="511" text-anchor="start" fill="#dff8ff" font-family="system-ui,-apple-system,sans-serif" font-size="15" font-weight="800">主路线</text><path d="M155 505h34" stroke="#f5f7ff" stroke-width="5" stroke-linecap="round"/><text x="199" y="511" text-anchor="start" fill="#dff8ff" font-family="system-ui,-apple-system,sans-serif" font-size="15" font-weight="800">分队路线</text><path d="M295 505h34" stroke="#c9d6e8" stroke-width="4" stroke-linecap="round" stroke-dasharray="14 10"/><text x="339" y="511" text-anchor="start" fill="#dff8ff" font-family="system-ui,-apple-system,sans-serif" font-size="15" font-weight="800">可选回收</text>
<g transform="translate(18 531)">
  <rect width="964" height="240" rx="14" fill="#0b2745" stroke="#2c648b" stroke-width="2"/>
  <text x="24" y="34" text-anchor="start" fill="#e7f9ff" font-family="system-ui,-apple-system,sans-serif" font-size="19" font-weight="900">关键提醒</text>
  <g transform="translate(40 61)" filter="url(#shadow)"><rect x="-14" y="-14" width="28" height="28" rx="7" fill="#ff9f43" stroke="#061329" stroke-width="3"/><text x="0" y="5.6" text-anchor="middle" fill="#061329" font-family="system-ui,-apple-system,sans-serif" font-size="16" font-weight="950">1</text></g><text x="68" y="66" fill="#bcd7ea" font-family="system-ui,-apple-system,sans-serif" font-size="15" font-weight="650"><tspan x="68" dy="0">前两房报告武器总数；凑齐 4 把可走武器机关捷径，否则通常</tspan><tspan x="68" dy="24">走 2→2′。</tspan></text><g transform="translate(504 61)" filter="url(#shadow)"><rect x="-14" y="-14" width="28" height="28" rx="7" fill="#ff9f43" stroke="#061329" stroke-width="3"/><text x="0" y="5.6" text-anchor="middle" fill="#061329" font-family="system-ui,-apple-system,sans-serif" font-size="16" font-weight="950">2</text></g><text x="532" y="66" fill="#bcd7ea" font-family="system-ui,-apple-system,sans-serif" font-size="15" font-weight="650"><tspan x="532" dy="0">并排的 3/4 传送选左侧 3→3′，落地后跑过炮台；盾牌 4 件</tspan><tspan x="532" dy="24">机关和小房传送都无视。</tspan></text><g transform="translate(40 131)" filter="url(#shadow)"><rect x="-14" y="-14" width="28" height="28" rx="7" fill="#ff9f43" stroke="#061329" stroke-width="3"/><text x="0" y="5.6" text-anchor="middle" fill="#061329" font-family="system-ui,-apple-system,sans-serif" font-size="16" font-weight="950">3</text></g><text x="68" y="136" fill="#bcd7ea" font-family="system-ui,-apple-system,sans-serif" font-size="15" font-weight="650"><tspan x="68" dy="0">暗房机关在毒罐下；大广间箱子由 Force 注意毒罐回收，出</tspan><tspan x="68" dy="24">口箱房炮台无视。</tspan></text>
  <text x="940" y="226" text-anchor="end" fill="#7698b1" font-family="system-ui,-apple-system,sans-serif" font-size="13" font-weight="650">提示依据：PSO World · Sakura 攻略</text>
</g>
</svg>
