<svg xmlns="http://www.w3.org/2000/svg" viewBox="0 0 1000 816" role="img" aria-labelledby="title desc" shape-rendering="geometricPrecision">
<title id="title">区域 07</title>
<desc id="desc">黑暗房北侧高处岩石需用枪打破；Force 可取隐藏箱，其余队员向东。 击碎岩石露出机关，解除出口屏障。 出口后穿假墙回收盾牌；下一图区需要 4 面盾牌，铠甲不算。 首个圆房北侧有假墙，箱子为可选补给。 暗房北侧高处岩石需射击；补给可选，其余人向东推进。 从入口看，打破左侧岩石露出机关；注意房内陷阱。 出口后穿假墙取盾牌；下一图区必须投放 4 面盾牌，铠甲不算。</desc>
<defs><filter id="shadow" x="-30%" y="-30%" width="160%" height="160%"><feDropShadow dx="0" dy="2" stdDeviation="2.5" flood-color="#000" flood-opacity=".35"/></filter><pattern id="dark-hatch" width="8.93548" height="8.93548" patternUnits="userSpaceOnUse" patternTransform="rotate(45)"><rect width="8.93548" height="8.93548" fill="#000" fill-opacity=".25"/><path d="M0 0V8.93548" stroke="#4fe3ff" stroke-opacity=".25" stroke-width="2.68065"/></pattern><marker id="arrow-main" viewBox="0 0 10 10" refX="6" refY="5" markerWidth="3.2" markerHeight="3.2" orient="auto-start-reverse"><path d="M0 0 10 5 0 10Z" fill="#ffd23f" stroke="#061329" stroke-width="1"/></marker><marker id="arrow-split" viewBox="0 0 10 10" refX="6" refY="5" markerWidth="3.2" markerHeight="3.2" orient="auto-start-reverse"><path d="M0 0 10 5 0 10Z" fill="#f5f7ff" stroke="#061329" stroke-width="1"/></marker><marker id="arrow-solo" viewBox="0 0 10 10" refX="6" refY="5" markerWidth="3.2" markerHeight="3.2" orient="auto-start-reverse"><path d="M0 0 10 5 0 10Z" fill="#b48cff" stroke="#061329" stroke-width="1"/></marker></defs>
<rect width="1000" height="816" rx="18" fill="#071a31"/>
<text x="26" y="30" text-anchor="start" fill="#a9d8ed" font-family="system-ui,-apple-system,sans-serif" font-size="16" font-weight="900">C2 · 区域 07</text>
<g transform="translate(19.2599 75) scale(1.11913)">
  <g filter="url(#shadow)"><g id="c2-floor" data-source="PSO World area_07.png">
  <defs>
    <clipPath id="c2-floor-clip"><path d="M132 3L129 5L126 11L126 16L130 23L136 26L136 69L127 70L116 75L107 84L102 94L100 103L71 103L68 98L61 94L54 95L49 99L47 106L50 115L56 118L64 118L71 111L100 112L104 124L111 133L120 140L134 144L140 144L147 143L160 137L172 123L175 111L201 111L200 116L204 119L228 113L230 115L228 120L234 127L240 130L249 131L265 142L276 138L281 134L280 131L283 126L286 128L286 132L296 139L313 139L326 126L327 111L374 111L374 135L381 141L428 142L438 158L461 159L472 141L523 141L531 132L531 111L553 110L556 116L562 119L567 119L573 116L576 110L576 105L573 99L567 96L562 96L556 99L553 105L550 105L550 103L531 103L531 80L522 71L473 71L465 62L439 62L427 75L381 75L374 82L374 103L329 103L330 96L327 94L327 90L324 88L306 82L301 85L296 92L289 93L285 91L275 73L264 71L255 73L251 79L242 79L230 71L228 68L216 75L209 76L206 82L202 103L175 103L174 95L169 84L160 75L149 70L141 69L141 26L147 23L149 20L151 16L151 10L144 2L136 1Z M454 96L458 98L462 104L462 113L459 119L453 122L444 122L438 118L435 111L435 108L437 108L436 103L443 96Z M218 146L215 148L212 154L212 160L216 166L222 169L222 211L212 213L196 223L186 238L184 250L161 250L158 244L152 240L146 240L140 243L138 246L136 250L136 256L143 264L152 265L158 261L161 255L184 255L186 266L196 282L212 292L223 294L223 330L217 333L213 340L214 348L222 354L228 354L232 353L235 351L238 345L238 340L234 333L228 330L228 294L240 292L255 282L265 266L267 255L289 255L290 263L296 275L305 284L318 290L336 290L350 284L359 275L365 262L366 252L412 252L415 258L422 262L427 262L433 259L437 252L437 246L433 240L427 237L422 237L415 241L412 247L366 246L359 230L350 221L336 214L318 214L305 221L296 230L290 242L289 250L267 250L265 238L255 223L239 213L228 211L228 169L236 162L237 154L233 147L227 144Z" clip-rule="evenodd"/></clipPath>
    <pattern id="c2-dark-hatch" width="8" height="8" patternUnits="userSpaceOnUse">
      <path d="M-2 2L2-2M0 8L8 0M6 10L10 6" fill="none" stroke="#4fe3ff" stroke-opacity=".18" stroke-width="1"/>
    </pattern>
  </defs>
  <path d="M132 3L129 5L126 11L126 16L130 23L136 26L136 69L127 70L116 75L107 84L102 94L100 103L71 103L68 98L61 94L54 95L49 99L47 106L50 115L56 118L64 118L71 111L100 112L104 124L111 133L120 140L134 144L140 144L147 143L160 137L172 123L175 111L201 111L200 116L204 119L228 113L230 115L228 120L234 127L240 130L249 131L265 142L276 138L281 134L280 131L283 126L286 128L286 132L296 139L313 139L326 126L327 111L374 111L374 135L381 141L428 142L438 158L461 159L472 141L523 141L531 132L531 111L553 110L556 116L562 119L567 119L573 116L576 110L576 105L573 99L567 96L562 96L556 99L553 105L550 105L550 103L531 103L531 80L522 71L473 71L465 62L439 62L427 75L381 75L374 82L374 103L329 103L330 96L327 94L327 90L324 88L306 82L301 85L296 92L289 93L285 91L275 73L264 71L255 73L251 79L242 79L230 71L228 68L216 75L209 76L206 82L202 103L175 103L174 95L169 84L160 75L149 70L141 69L141 26L147 23L149 20L151 16L151 10L144 2L136 1Z M454 96L458 98L462 104L462 113L459 119L453 122L444 122L438 118L435 111L435 108L437 108L436 103L443 96Z M218 146L215 148L212 154L212 160L216 166L222 169L222 211L212 213L196 223L186 238L184 250L161 250L158 244L152 240L146 240L140 243L138 246L136 250L136 256L143 264L152 265L158 261L161 255L184 255L186 266L196 282L212 292L223 294L223 330L217 333L213 340L214 348L222 354L228 354L232 353L235 351L238 345L238 340L234 333L228 330L228 294L240 292L255 282L265 266L267 255L289 255L290 263L296 275L305 284L318 290L336 290L350 284L359 275L365 262L366 252L412 252L415 258L422 262L427 262L433 259L437 252L437 246L433 240L427 237L422 237L415 241L412 247L366 246L359 230L350 221L336 214L318 214L305 221L296 230L290 242L289 250L267 250L265 238L255 223L239 213L228 211L228 169L236 162L237 154L233 147L227 144Z" fill="#173d60" fill-rule="evenodd"/>
  <g id="c2-dark-rooms" clip-path="url(#c2-floor-clip)">
    <path d="M265 252L265 256L264 261L263 265L261 269L259 273L256 277L253 280L250 283L246 286L242 288L238 290L234 291L229 292L225 292L221 292L216 291L212 290L208 288L204 286L200 283L197 280L194 277L191 273L189 269L187 265L186 261L185 256L185 252L185 248L186 243L187 239L189 235L191 231L194 227L197 224L200 221L204 218L208 216L212 214L216 213L221 212L225 212L229 212L234 213L238 214L242 216L246 218L250 221L253 224L256 227L259 231L261 235L263 239L264 243L265 248Z" fill="#102b42"/>
    <path d="M265 252L265 256L264 261L263 265L261 269L259 273L256 277L253 280L250 283L246 286L242 288L238 290L234 291L229 292L225 292L221 292L216 291L212 290L208 288L204 286L200 283L197 280L194 277L191 273L189 269L187 265L186 261L185 256L185 252L185 248L186 243L187 239L189 235L191 231L194 227L197 224L200 221L204 218L208 216L212 214L216 213L221 212L225 212L229 212L234 213L238 214L242 216L246 218L250 221L253 224L256 227L259 231L261 235L263 239L264 243L265 248Z" fill="url(#c2-dark-hatch)"/>
  </g>
</g></g>
  <g id="c2-walls" fill="none" stroke="#8edfff" stroke-width="1.5" stroke-linejoin="miter">
  <path d="M132 3L129 5L126 11L126 16L130 23L136 26L136 69L127 70L116 75L107 84L102 94L100 103L71 103L68 98L61 94L54 95L49 99L47 106L50 115L56 118L64 118L71 111L100 112L104 124L111 133L120 140L134 144L140 144L147 143L160 137L172 123L175 111L201 111L200 116L204 119L228 113L230 115L228 120L234 127L240 130L249 131L265 142L276 138L281 134L280 131L283 126L286 128L286 132L296 139L313 139L326 126L327 111L374 111L374 135L381 141L428 142L438 158L461 159L472 141L523 141L531 132L531 111L553 110L556 116L562 119L567 119L573 116L576 110L576 105L573 99L567 96L562 96L556 99L553 105L550 105L550 103L531 103L531 80L522 71L473 71L465 62L439 62L427 75L381 75L374 82L374 103L329 103L330 96L327 94L327 90L324 88L306 82L301 85L296 92L289 93L285 91L275 73L264 71L255 73L251 79L242 79L230 71L228 68L216 75L209 76L206 82L202 103L175 103L174 95L169 84L160 75L149 70L141 69L141 26L147 23L149 20L151 16L151 10L144 2L136 1Z M454 96L458 98L462 104L462 113L459 119L453 122L444 122L438 118L435 111L435 108L437 108L436 103L443 96Z M218 146L215 148L212 154L212 160L216 166L222 169L222 211L212 213L196 223L186 238L184 250L161 250L158 244L152 240L146 240L140 243L138 246L136 250L136 256L143 264L152 265L158 261L161 255L184 255L186 266L196 282L212 292L223 294L223 330L217 333L213 340L214 348L222 354L228 354L232 353L235 351L238 345L238 340L234 333L228 330L228 294L240 292L255 282L265 266L267 255L289 255L290 263L296 275L305 284L318 290L336 290L350 284L359 275L365 262L366 252L412 252L415 258L422 262L427 262L433 259L437 252L437 246L433 240L427 237L422 237L415 241L412 247L366 246L359 230L350 221L336 214L318 214L305 221L296 230L290 242L289 250L267 250L265 238L255 223L239 213L228 211L228 169L236 162L237 154L233 147L227 144Z"/>
  <path d="M265 252L265 256L264 261L263 265L261 269L259 273L256 277L253 280L250 283L246 286L242 288L238 290L234 291L229 292L225 292L221 292L216 291L212 290L208 288L204 286L200 283L197 280L194 277L191 273L189 269L187 265L186 261L185 256L185 252L185 248L186 243L187 239L189 235L191 231L194 227L197 224L200 221L204 218L208 216L212 214L216 213L221 212L225 212L229 212L234 213L238 214L242 216L246 218L250 221L253 224L256 227L259 231L261 235L263 239L264 243L265 248Z"/>
  <path d=""/>
</g>

  <path d="M58 107 L419 107 L430 88 L468 88 L484 107 L564 107" fill="none" stroke="#071a31" stroke-opacity=".85" stroke-width="5.89742" stroke-linecap="round" stroke-linejoin="round"/><path data-role="main" d="M58 107 L419 107 L430 88 L468 88 L484 107 L564 107" fill="none" stroke="#ffd23f" stroke-width="3.44016" stroke-linecap="round" stroke-linejoin="round"/><path d="M148 252 L326 252 L329 278" fill="none" stroke="#071a31" stroke-opacity=".85" stroke-width="5.89742" stroke-linecap="round" stroke-linejoin="round"/><path data-role="main" d="M148 252 L326 252 L329 278" fill="none" stroke="#ffd23f" stroke-width="3.44016" stroke-linecap="round" stroke-linejoin="round" marker-end="url(#arrow-main)"/><path d="M138 107 L138 13" fill="none" stroke="#071a31" stroke-opacity=".85" stroke-width="4.42306" stroke-linecap="round" stroke-linejoin="round"/><path data-role="optional" d="M138 107 L138 13" fill="none" stroke="#c9d6e8" stroke-width="1.96581" stroke-linecap="round" stroke-linejoin="round" stroke-dasharray="6.88032 4.91452"/><path d="M224 252 L224 156" fill="none" stroke="#071a31" stroke-opacity=".85" stroke-width="4.42306" stroke-linecap="round" stroke-linejoin="round"/><path data-role="optional" d="M224 252 L224 156" fill="none" stroke="#c9d6e8" stroke-width="1.96581" stroke-linecap="round" stroke-linejoin="round" stroke-dasharray="6.88032 4.91452"/><path d="M225 252 L225 342" fill="none" stroke="#071a31" stroke-opacity=".85" stroke-width="4.42306" stroke-linecap="round" stroke-linejoin="round"/><path data-role="optional" d="M225 252 L225 342" fill="none" stroke="#c9d6e8" stroke-width="1.96581" stroke-linecap="round" stroke-linejoin="round" stroke-dasharray="6.88032 4.91452"/><path d="M329 278 L356 250 L424 249" fill="none" stroke="#071a31" stroke-opacity=".85" stroke-width="4.42306" stroke-linecap="round" stroke-linejoin="round"/><path data-role="optional" d="M329 278 L356 250 L424 249" fill="none" stroke="#c9d6e8" stroke-width="1.96581" stroke-linecap="round" stroke-linejoin="round" stroke-dasharray="6.88032 4.91452"/>
  <g transform="translate(564 107) scale(0.643355)" stroke="#061329" stroke-width="3" stroke-linejoin="round" filter="url(#shadow)"><path d="M-14-11H14L0 14Z" fill="#ed64b2"/><text y="4" text-anchor="middle" font-family="system-ui,-apple-system,sans-serif" font-size="13" font-weight="950" fill="#061329" stroke="none">1</text></g><g transform="translate(148 252) scale(0.643355)" stroke="#061329" stroke-width="3" stroke-linejoin="round" filter="url(#shadow)"><path d="M-14-11H14L0 14Z" fill="#ed64b2"/><text y="4" text-anchor="middle" font-family="system-ui,-apple-system,sans-serif" font-size="13" font-weight="950" fill="#061329" stroke="none">1′</text></g><g transform="translate(138 66) scale(0.643355) rotate(90)" stroke="#061329" stroke-width="3" stroke-linejoin="round" filter="url(#shadow)"><rect x="-2.5" y="-18" width="5" height="8" rx="1" fill="#8ee26b" stroke="none"/><rect x="-2.5" y="-5" width="5" height="8" rx="1" fill="#8ee26b" stroke="none"/><rect x="-2.5" y="8" width="5" height="8" rx="1" fill="#8ee26b" stroke="none"/></g><g transform="translate(138 13) scale(0.643355)" stroke="#061329" stroke-width="3" stroke-linejoin="round" filter="url(#shadow)"><rect x="-10" y="-9" width="20" height="18" rx="4" fill="#8ee26b"/><path d="M-10-2H10" fill="none"/></g><g transform="translate(224 224) scale(0.643355)" stroke="#061329" stroke-width="3" stroke-linejoin="round" filter="url(#shadow)"><path d="M-15 6-11-6-4-3 1-11 8-3 15-7 17 6 8 10 0 6-6 11Z" fill="#ffe45c"/></g><g transform="translate(201 246) scale(0.643355)" stroke="#061329" stroke-width="3" stroke-linejoin="round" filter="url(#shadow)"><path d="M-15 6-11-6-4-3 1-11 8-3 15-7 17 6 8 10 0 6-6 11Z" fill="#ffe45c"/></g><g transform="translate(238 270) scale(0.643355)" stroke="#061329" stroke-width="3" stroke-linejoin="round" filter="url(#shadow)"><path d="M-15 6-11-6-4-3 1-11 8-3 15-7 17 6 8 10 0 6-6 11Z" fill="#ffe45c"/></g><g transform="translate(224 156) scale(0.643355)" stroke="#061329" stroke-width="3" stroke-linejoin="round" filter="url(#shadow)"><rect x="-10" y="-9" width="20" height="18" rx="4" fill="#8ee26b"/><path d="M-10-2H10" fill="none"/></g><g transform="translate(225 342) scale(0.643355)" stroke="#061329" stroke-width="3" stroke-linejoin="round" filter="url(#shadow)"><rect x="-10" y="-9" width="20" height="18" rx="4" fill="#8ee26b"/><path d="M-10-2H10" fill="none"/></g><g transform="translate(225 303) scale(0.643355) rotate(90)" stroke="#061329" stroke-width="3" stroke-linejoin="round" filter="url(#shadow)"><rect x="-4" y="-19" width="8" height="38" rx="3" fill="#8ee26b"/></g><g transform="translate(338 213) scale(0.643355)" stroke="#061329" stroke-width="3" stroke-linejoin="round" filter="url(#shadow)"><path d="M-15 6-11-6-4-3 1-11 8-3 15-7 17 6 8 10 0 6-6 11Z" fill="#ffe45c"/></g><g transform="translate(338 276) scale(0.643355)" stroke="#061329" stroke-width="3" stroke-linejoin="round" filter="url(#shadow)"><path d="M-15 6-11-6-4-3 1-11 8-3 15-7 17 6 8 10 0 6-6 11Z" fill="#ffe45c"/></g><g transform="translate(336 226) scale(0.643355)" stroke="#061329" stroke-width="3" stroke-linejoin="round" filter="url(#shadow)"><circle r="10" fill="#ed64b2"/></g><g transform="translate(343 253) scale(0.643355)" stroke="#061329" stroke-width="3" stroke-linejoin="round" filter="url(#shadow)"><rect x="-4" y="-19" width="8" height="38" rx="3" fill="#ed64b2"/></g><g transform="translate(329 278) scale(0.643355)" stroke="#061329" stroke-width="3" stroke-linejoin="round" filter="url(#shadow)"><circle r="10" fill="#8ee26b"/></g><g transform="translate(357 227) scale(0.643355)" stroke="#061329" stroke-width="3" stroke-linejoin="round" filter="url(#shadow)"><circle r="10" fill="#8ee26b"/><path d="M-5 0h10M0-5v10" stroke-width="3"/></g><g transform="translate(374 249) scale(0.643355)" stroke="#061329" stroke-width="3" stroke-linejoin="round" filter="url(#shadow)"><rect x="-2.5" y="-18" width="5" height="8" rx="1" fill="#8ee26b" stroke="none"/><rect x="-2.5" y="-5" width="5" height="8" rx="1" fill="#8ee26b" stroke="none"/><rect x="-2.5" y="8" width="5" height="8" rx="1" fill="#8ee26b" stroke="none"/></g><g transform="translate(424 249) scale(0.643355)" stroke="#061329" stroke-width="3" stroke-linejoin="round" filter="url(#shadow)"><rect x="-10" y="-9" width="20" height="18" rx="4" fill="#43c8df"/><path d="M-10-2H10" fill="none"/></g>
</g>
<g transform="translate(224.061 426.408)" filter="url(#shadow)"><rect x="-15" y="-15" width="30" height="30" rx="7" fill="#ff9f43" stroke="#061329" stroke-width="3"/><text x="0" y="6" text-anchor="middle" fill="#061329" font-family="system-ui,-apple-system,sans-serif" font-size="18" font-weight="950">1</text></g><g transform="translate(442.292 299.946)" filter="url(#shadow)"><rect x="-15" y="-15" width="30" height="30" rx="7" fill="#ff9f43" stroke="#061329" stroke-width="3"/><text x="0" y="6" text-anchor="middle" fill="#061329" font-family="system-ui,-apple-system,sans-serif" font-size="18" font-weight="950">2</text></g><g transform="translate(530.704 386.119)" filter="url(#shadow)"><rect x="-15" y="-15" width="30" height="30" rx="7" fill="#ff9f43" stroke="#061329" stroke-width="3"/><text x="0" y="6" text-anchor="middle" fill="#061329" font-family="system-ui,-apple-system,sans-serif" font-size="18" font-weight="950">3</text></g>
<g transform="translate(84.1697 194.747)" filter="url(#shadow)"><circle r="12" fill="#39d6ff" stroke="#061329" stroke-width="4"/><rect x="-27" y="-46" width="54" height="26" rx="13" fill="#061329" fill-opacity=".9" stroke="#39d6ff" stroke-width="2"/><text x="0" y="-27.5" text-anchor="middle" fill="#39d6ff" font-family="system-ui,-apple-system,sans-serif" font-size="16" font-weight="900">起点</text></g><g transform="translate(387.455 386.119)" filter="url(#shadow)"><circle r="12" fill="#ff5ca8" stroke="#061329" stroke-width="4"/><rect x="-51" y="25" width="102" height="26" rx="13" fill="#061329" fill-opacity=".9" stroke="#ff5ca8" stroke-width="2"/><text x="0" y="43.5" text-anchor="middle" fill="#ff5ca8" font-family="system-ui,-apple-system,sans-serif" font-size="16" font-weight="900">前往下一区</text></g>
<path d="M173.7 148.863L705 102" fill="none" stroke="#a0e5b6" stroke-opacity=".7" stroke-width="1" stroke-dasharray="2 3"/><circle cx="173.7" cy="148.863" r="2.5" fill="#a0e5b6"/><path d="M269.946 325.686L705 230" fill="none" stroke="#a0e5b6" stroke-opacity=".7" stroke-width="1" stroke-dasharray="2 3"/><circle cx="269.946" cy="325.686" r="2.5" fill="#a0e5b6"/><path d="M397.527 313.375L705 313.375" fill="none" stroke="#ffbe99" stroke-opacity=".7" stroke-width="1" stroke-dasharray="2 3"/><circle cx="397.527" cy="313.375" r="2.5" fill="#ffbe99"/><path d="M493.773 353.664L705 400" fill="none" stroke="#a0e5b6" stroke-opacity=".7" stroke-width="1" stroke-dasharray="2 3"/><circle cx="493.773" cy="353.664" r="2.5" fill="#a0e5b6"/><g data-callout="first-room-false-wall"><title>PSO Palace C2 Area 07 optional false wall; PSO World / Sakura boxes</title><rect data-callout-box="" x="705" y="70" width="275" height="32" rx="5" fill="#10263a" stroke="#a0e5b6" stroke-opacity=".35"/><text x="713" y="90" text-anchor="start" fill="#a0e5b6" font-family="system-ui,-apple-system,sans-serif" font-size="13" font-weight="650">首个圆房北侧有假墙，箱子为可选补给。</text></g><g data-callout="high-rock-dark-room"><title>PSO World source map; Sakura; PSO Palace C2</title><rect data-callout-box="" x="705" y="180" width="275" height="50" rx="5" fill="#10263a" stroke="#a0e5b6" stroke-opacity=".35"/><text x="713" y="200" text-anchor="start" fill="#a0e5b6" font-family="system-ui,-apple-system,sans-serif" font-size="13" font-weight="650">暗房北侧高处岩石需射击；补给可选，其余</text><text x="713" y="218" text-anchor="start" fill="#a0e5b6" font-family="system-ui,-apple-system,sans-serif" font-size="13" font-weight="650">人向东推进。</text></g><g data-callout="left-rock-switch"><title>Sakura Area 7: 入口から見て左の岩; PSO Palace</title><rect data-callout-box="" x="705" y="290" width="275" height="50" rx="5" fill="#10263a" stroke="#ffbe99" stroke-opacity=".35"/><text x="713" y="310" text-anchor="start" fill="#ffbe99" font-family="system-ui,-apple-system,sans-serif" font-size="13" font-weight="650">从入口看，打破左侧岩石露出机关；注意房</text><text x="713" y="328" text-anchor="start" fill="#ffbe99" font-family="system-ui,-apple-system,sans-serif" font-size="13" font-weight="650">内陷阱。</text></g><g data-callout="four-shields-next-area"><title>PSO World source map; Sakura; PSO Palace C2</title><rect data-callout-box="" x="705" y="400" width="275" height="50" rx="5" fill="#10263a" stroke="#a0e5b6" stroke-opacity=".35"/><text x="713" y="420" text-anchor="start" fill="#a0e5b6" font-family="system-ui,-apple-system,sans-serif" font-size="13" font-weight="650">出口后穿假墙取盾牌；下一图区必须投放 4</text><text x="713" y="438" text-anchor="start" fill="#a0e5b6" font-family="system-ui,-apple-system,sans-serif" font-size="13" font-weight="650">面盾牌，铠甲不算。</text></g>
<path d="M30 504h34" stroke="#ffd23f" stroke-width="7" stroke-linecap="round"/><text x="74" y="510" text-anchor="start" fill="#dff8ff" font-family="system-ui,-apple-system,sans-serif" font-size="15" font-weight="800">主路线</text><path d="M155 504h34" stroke="#c9d6e8" stroke-width="4" stroke-linecap="round" stroke-dasharray="14 10"/><text x="199" y="510" text-anchor="start" fill="#dff8ff" font-family="system-ui,-apple-system,sans-serif" font-size="15" font-weight="800">可选路线</text>
<g transform="translate(34 542) scale(0.769231)" stroke="#061329" stroke-width="3" stroke-linejoin="round" filter="url(#shadow)"><path d="M-14-11H14L0 14Z" fill="#a9d8ed"/><text y="4" text-anchor="middle" font-family="system-ui,-apple-system,sans-serif" font-size="13" font-weight="950" fill="#061329" stroke="none">1</text></g><text x="54" y="547" text-anchor="start" fill="#a9d8ed" font-family="system-ui,-apple-system,sans-serif" font-size="13" font-weight="650">传送 1→1′</text><g transform="translate(160.3 542) scale(0.769231) rotate(90)" stroke="#061329" stroke-width="3" stroke-linejoin="round" filter="url(#shadow)"><rect x="-2.5" y="-18" width="5" height="8" rx="1" fill="#a9d8ed" stroke="none"/><rect x="-2.5" y="-5" width="5" height="8" rx="1" fill="#a9d8ed" stroke="none"/><rect x="-2.5" y="8" width="5" height="8" rx="1" fill="#a9d8ed" stroke="none"/></g><text x="180.3" y="547" text-anchor="start" fill="#a9d8ed" font-family="system-ui,-apple-system,sans-serif" font-size="13" font-weight="650">假墙</text><g transform="translate(246.3 542) scale(0.769231)" stroke="#061329" stroke-width="3" stroke-linejoin="round" filter="url(#shadow)"><rect x="-10" y="-9" width="20" height="18" rx="4" fill="#a9d8ed"/><path d="M-10-2H10" fill="none"/></g><text x="266.3" y="547" text-anchor="start" fill="#a9d8ed" font-family="system-ui,-apple-system,sans-serif" font-size="13" font-weight="650">箱子</text><g transform="translate(332.3 542) scale(0.769231)" stroke="#061329" stroke-width="3" stroke-linejoin="round" filter="url(#shadow)"><path d="M-15 6-11-6-4-3 1-11 8-3 15-7 17 6 8 10 0 6-6 11Z" fill="#a9d8ed"/></g><text x="352.3" y="547" text-anchor="start" fill="#a9d8ed" font-family="system-ui,-apple-system,sans-serif" font-size="13" font-weight="650">岩石</text><g transform="translate(418.3 542) scale(0.769231) rotate(90)" stroke="#061329" stroke-width="3" stroke-linejoin="round" filter="url(#shadow)"><rect x="-4" y="-19" width="8" height="38" rx="3" fill="#a9d8ed"/></g><text x="438.3" y="547" text-anchor="start" fill="#a9d8ed" font-family="system-ui,-apple-system,sans-serif" font-size="13" font-weight="650">门／屏障</text><g transform="translate(530.3 542) scale(0.769231)" stroke="#061329" stroke-width="3" stroke-linejoin="round" filter="url(#shadow)"><circle r="10" fill="#a9d8ed"/></g><text x="550.3" y="547" text-anchor="start" fill="#a9d8ed" font-family="system-ui,-apple-system,sans-serif" font-size="13" font-weight="650">地板机关</text><g transform="translate(642.3 542) scale(0.769231)" stroke="#061329" stroke-width="3" stroke-linejoin="round" filter="url(#shadow)"><circle r="10" fill="#a9d8ed"/><path d="M-5 0h10M0-5v10" stroke-width="3"/></g><text x="662.3" y="547" text-anchor="start" fill="#a9d8ed" font-family="system-ui,-apple-system,sans-serif" font-size="13" font-weight="650">治疗点</text>
<g transform="translate(18 572)">
  <rect width="964" height="226" rx="14" fill="#0b2745" stroke="#2c648b" stroke-width="2"/>
  <text x="24" y="34" text-anchor="start" fill="#e7f9ff" font-family="system-ui,-apple-system,sans-serif" font-size="19" font-weight="900">关键提醒</text>
  <g transform="translate(40 61)" filter="url(#shadow)"><rect x="-14" y="-14" width="28" height="28" rx="7" fill="#ff9f43" stroke="#061329" stroke-width="3"/><text x="0" y="5.6" text-anchor="middle" fill="#061329" font-family="system-ui,-apple-system,sans-serif" font-size="16" font-weight="950">1</text></g><text x="68" y="66" fill="#bcd7ea" font-family="system-ui,-apple-system,sans-serif" font-size="15" font-weight="650"><tspan x="68" dy="0">黑暗房北侧高处岩石需用枪打破；Force 可取隐藏箱，其余</tspan><tspan x="68" dy="24">队员向东。</tspan></text><g transform="translate(504 61)" filter="url(#shadow)"><rect x="-14" y="-14" width="28" height="28" rx="7" fill="#ff9f43" stroke="#061329" stroke-width="3"/><text x="0" y="5.6" text-anchor="middle" fill="#061329" font-family="system-ui,-apple-system,sans-serif" font-size="16" font-weight="950">2</text></g><text x="532" y="66" fill="#bcd7ea" font-family="system-ui,-apple-system,sans-serif" font-size="15" font-weight="650"><tspan x="532" dy="0">击碎岩石露出机关，解除出口屏障。</tspan></text><g transform="translate(40 131)" filter="url(#shadow)"><rect x="-14" y="-14" width="28" height="28" rx="7" fill="#ff9f43" stroke="#061329" stroke-width="3"/><text x="0" y="5.6" text-anchor="middle" fill="#061329" font-family="system-ui,-apple-system,sans-serif" font-size="16" font-weight="950">3</text></g><text x="68" y="136" fill="#bcd7ea" font-family="system-ui,-apple-system,sans-serif" font-size="15" font-weight="650"><tspan x="68" dy="0">出口后穿假墙回收盾牌；下一图区需要 4 面盾牌，铠甲不算。</tspan></text>
  <text x="940" y="212" text-anchor="end" fill="#7698b1" font-family="system-ui,-apple-system,sans-serif" font-size="13" font-weight="650">提示依据：PSO World · Sakura 攻略</text>
</g>
</svg>
