<svg xmlns="http://www.w3.org/2000/svg" viewBox="0 0 1000 1200" role="img" aria-labelledby="title desc" shape-rendering="geometricPrecision">
<title id="title">区域 11</title>
<desc id="desc"> 一人开笼，笼中队员踩住压机机关；同伴安全离开压机下方后才可松开。 按图只踩右中、左下两个安全机关，其余四个会引发爆炸。 清场后，由回收者走左侧通道踩蓝色机关，给主队开门。 四处射击机关：入口右侧水下、同侧天花板、出口左上岩石、出口旁草丛。枪或火球术／闪电术均可。 两人走传送支路：一人踩住绿色机关显出光路；另一人沿光路通过后，留守者再原路传送返回。 严格沿白色光路走，偏离会触发爆炸。 主队等光路队员到对侧机关，再同时踩两边机关开门；本房敌人可忽略，经 3 会合。</desc>
<defs><filter id="shadow" x="-30%" y="-30%" width="160%" height="160%"><feDropShadow dx="0" dy="2" stdDeviation="2.5" flood-color="#000" flood-opacity=".35"/></filter><pattern id="dark-hatch" width="8.19672" height="8.19672" patternUnits="userSpaceOnUse" patternTransform="rotate(45)"><rect width="8.19672" height="8.19672" fill="#000" fill-opacity=".25"/><path d="M0 0V8.19672" stroke="#4fe3ff" stroke-opacity=".25" stroke-width="2.45902"/></pattern><marker id="arrow-main" viewBox="0 0 10 10" refX="6" refY="5" markerWidth="3.2" markerHeight="3.2" orient="auto-start-reverse"><path d="M0 0 10 5 0 10Z" fill="#ffd23f" stroke="#061329" stroke-width="1"/></marker><marker id="arrow-split" viewBox="0 0 10 10" refX="6" refY="5" markerWidth="3.2" markerHeight="3.2" orient="auto-start-reverse"><path d="M0 0 10 5 0 10Z" fill="#f5f7ff" stroke="#061329" stroke-width="1"/></marker><marker id="arrow-solo" viewBox="0 0 10 10" refX="6" refY="5" markerWidth="3.2" markerHeight="3.2" orient="auto-start-reverse"><path d="M0 0 10 5 0 10Z" fill="#b48cff" stroke="#061329" stroke-width="1"/></marker></defs>
<rect width="1000" height="1200" rx="18" fill="#071a31"/>
<text x="26" y="30" text-anchor="start" fill="#a9d8ed" font-family="system-ui,-apple-system,sans-serif" font-size="16" font-weight="900">C3 · 区域 11</text>
<g transform="translate(55 75) scale(1.22)">
  <g filter="url(#shadow)"><g id="c3-floor" data-source="PSO World area_11.png">
  <defs>
    <clipPath id="c3-floor-clip"><path d="M298 7L289 10L282 19L286 37L295 43L294 64L282 68L283 70L280 70L262 86L260 90L260 101L265 120L177 119L178 154L149 154L149 128L162 113L166 105L166 100L163 97L158 96L143 96L140 98L129 117L136 127L141 131L144 131L144 154L137 154L138 178L127 189L127 192L122 192L122 190L117 190L117 192L111 192L111 190L100 192L100 189L87 178L77 172L72 173L69 185L70 198L81 202L81 204L89 209L93 209L105 197L124 197L125 213L130 222L137 222L146 216L150 218L157 236L161 241L164 241L164 272L45 271L45 236L40 236L40 312L36 312L28 326L14 340L13 346L16 355L29 375L40 380L40 432L20 432L9 437L2 448L2 470L9 481L13 484L21 486L68 486L78 480L82 473L84 464L117 463L118 476L122 484L124 485L124 483L141 483L141 502L124 502L123 500L114 502L105 512L103 520L103 533L105 542L115 551L122 552L118 554L141 554L141 594L126 594L121 600L118 607L118 632L120 640L127 647L159 647L165 641L168 631L168 623L194 623L196 636L206 644L219 638L225 630L224 623L222 615L213 609L202 609L192 618L187 618L187 616L168 616L168 610L165 600L159 594L146 594L146 554L170 554L167 552L173 551L183 542L185 533L185 520L183 512L174 502L165 500L162 500L162 502L146 502L146 483L164 483L167 474L168 452L165 441L159 434L126 434L122 438L118 446L117 458L84 458L82 445L77 437L66 432L46 432L46 380L64 362L68 352L68 338L64 333L61 333L46 319L46 277L169 277L170 242L178 241L181 237L170 208L169 197L172 190L186 173L198 162L194 154L183 154L183 125L267 125L272 146L284 136L296 130L310 131L320 136L332 148L336 155L345 126L397 125L398 144L401 146L414 146L414 143L420 143L420 145L418 146L423 146L423 143L426 143L426 138L437 127L452 120L458 119L461 116L469 103L476 87L476 84L452 80L452 46L465 36L465 34L461 26L446 17L434 25L436 31L433 31L433 35L442 45L447 47L447 68L445 68L447 79L444 80L444 78L422 73L419 75L416 78L416 81L418 80L422 84L422 94L416 103L407 107L398 107L398 120L345 119L344 98L336 76L331 75L322 80L300 66L300 40L307 36L318 21L320 10L308 4Z M447 137L443 139L443 142L446 144L448 156L446 162L446 193L436 193L435 209L431 214L423 215L423 232L426 241L431 246L446 246L446 272L434 278L434 282L437 298L449 306L467 283L459 273L451 273L451 246L464 246L470 240L470 236L472 235L472 204L468 196L465 194L452 192L451 162L468 158L475 150L473 144L457 134L452 134Z M321 443L308 463L309 467L319 477L319 495L303 496L299 500L295 508L294 519L270 519L271 516L260 510L252 503L238 505L237 523L242 536L254 540L269 524L294 524L295 536L299 544L303 548L319 549L319 586L306 586L301 590L297 598L296 610L296 622L299 633L305 639L319 640L319 653L306 654L301 660L297 672L296 690L297 715L302 732L306 736L319 736L319 748L322 749L320 750L313 748L308 764L306 780L316 789L326 784L340 768L330 752L326 752L326 736L335 736L339 734L345 720L347 702L345 669L341 658L336 654L326 653L326 640L338 639L344 633L346 624L346 602L344 593L338 587L326 586L327 549L336 548L340 544L344 536L345 523L367 523L381 536L392 542L397 542L400 538L400 518L380 505L374 508L366 517L366 519L345 519L344 508L340 500L336 496L327 495L327 475L340 460L345 448L344 445L338 443Z" clip-rule="evenodd"/></clipPath>
    <pattern id="c3-dark-hatch" width="8" height="8" patternUnits="userSpaceOnUse">
      <path d="M-2 2L2-2M0 8L8 0M6 10L10 6" fill="none" stroke="#4fe3ff" stroke-opacity=".18" stroke-width="1"/>
    </pattern>
  </defs>
  <path d="M298 7L289 10L282 19L286 37L295 43L294 64L282 68L283 70L280 70L262 86L260 90L260 101L265 120L177 119L178 154L149 154L149 128L162 113L166 105L166 100L163 97L158 96L143 96L140 98L129 117L136 127L141 131L144 131L144 154L137 154L138 178L127 189L127 192L122 192L122 190L117 190L117 192L111 192L111 190L100 192L100 189L87 178L77 172L72 173L69 185L70 198L81 202L81 204L89 209L93 209L105 197L124 197L125 213L130 222L137 222L146 216L150 218L157 236L161 241L164 241L164 272L45 271L45 236L40 236L40 312L36 312L28 326L14 340L13 346L16 355L29 375L40 380L40 432L20 432L9 437L2 448L2 470L9 481L13 484L21 486L68 486L78 480L82 473L84 464L117 463L118 476L122 484L124 485L124 483L141 483L141 502L124 502L123 500L114 502L105 512L103 520L103 533L105 542L115 551L122 552L118 554L141 554L141 594L126 594L121 600L118 607L118 632L120 640L127 647L159 647L165 641L168 631L168 623L194 623L196 636L206 644L219 638L225 630L224 623L222 615L213 609L202 609L192 618L187 618L187 616L168 616L168 610L165 600L159 594L146 594L146 554L170 554L167 552L173 551L183 542L185 533L185 520L183 512L174 502L165 500L162 500L162 502L146 502L146 483L164 483L167 474L168 452L165 441L159 434L126 434L122 438L118 446L117 458L84 458L82 445L77 437L66 432L46 432L46 380L64 362L68 352L68 338L64 333L61 333L46 319L46 277L169 277L170 242L178 241L181 237L170 208L169 197L172 190L186 173L198 162L194 154L183 154L183 125L267 125L272 146L284 136L296 130L310 131L320 136L332 148L336 155L345 126L397 125L398 144L401 146L414 146L414 143L420 143L420 145L418 146L423 146L423 143L426 143L426 138L437 127L452 120L458 119L461 116L469 103L476 87L476 84L452 80L452 46L465 36L465 34L461 26L446 17L434 25L436 31L433 31L433 35L442 45L447 47L447 68L445 68L447 79L444 80L444 78L422 73L419 75L416 78L416 81L418 80L422 84L422 94L416 103L407 107L398 107L398 120L345 119L344 98L336 76L331 75L322 80L300 66L300 40L307 36L318 21L320 10L308 4Z M447 137L443 139L443 142L446 144L448 156L446 162L446 193L436 193L435 209L431 214L423 215L423 232L426 241L431 246L446 246L446 272L434 278L434 282L437 298L449 306L467 283L459 273L451 273L451 246L464 246L470 240L470 236L472 235L472 204L468 196L465 194L452 192L451 162L468 158L475 150L473 144L457 134L452 134Z M321 443L308 463L309 467L319 477L319 495L303 496L299 500L295 508L294 519L270 519L271 516L260 510L252 503L238 505L237 523L242 536L254 540L269 524L294 524L295 536L299 544L303 548L319 549L319 586L306 586L301 590L297 598L296 610L296 622L299 633L305 639L319 640L319 653L306 654L301 660L297 672L296 690L297 715L302 732L306 736L319 736L319 748L322 749L320 750L313 748L308 764L306 780L316 789L326 784L340 768L330 752L326 752L326 736L335 736L339 734L345 720L347 702L345 669L341 658L336 654L326 653L326 640L338 639L344 633L346 624L346 602L344 593L338 587L326 586L327 549L336 548L340 544L344 536L345 523L367 523L381 536L392 542L397 542L400 538L400 518L380 505L374 508L366 517L366 519L345 519L344 508L340 500L336 496L327 495L327 475L340 460L345 448L344 445L338 443Z" fill="#173d60" fill-rule="evenodd"/>
  <g id="c3-dark-rooms" clip-path="url(#c3-floor-clip)">
    <path d="" fill="#102b42"/>
    <path d="" fill="url(#c3-dark-hatch)"/>
  </g>
</g></g>
  <g id="c3-walls" fill="none" stroke="#8edfff" stroke-width="1.5" stroke-linejoin="miter">
  <path d="M298 7L289 10L282 19L286 37L295 43L294 64L282 68L283 70L280 70L262 86L260 90L260 101L265 120L177 119L178 154L149 154L149 128L162 113L166 105L166 100L163 97L158 96L143 96L140 98L129 117L136 127L141 131L144 131L144 154L137 154L138 178L127 189L127 192L122 192L122 190L117 190L117 192L111 192L111 190L100 192L100 189L87 178L77 172L72 173L69 185L70 198L81 202L81 204L89 209L93 209L105 197L124 197L125 213L130 222L137 222L146 216L150 218L157 236L161 241L164 241L164 272L45 271L45 236L40 236L40 312L36 312L28 326L14 340L13 346L16 355L29 375L40 380L40 432L20 432L9 437L2 448L2 470L9 481L13 484L21 486L68 486L78 480L82 473L84 464L117 463L118 476L122 484L124 485L124 483L141 483L141 502L124 502L123 500L114 502L105 512L103 520L103 533L105 542L115 551L122 552L118 554L141 554L141 594L126 594L121 600L118 607L118 632L120 640L127 647L159 647L165 641L168 631L168 623L194 623L196 636L206 644L219 638L225 630L224 623L222 615L213 609L202 609L192 618L187 618L187 616L168 616L168 610L165 600L159 594L146 594L146 554L170 554L167 552L173 551L183 542L185 533L185 520L183 512L174 502L165 500L162 500L162 502L146 502L146 483L164 483L167 474L168 452L165 441L159 434L126 434L122 438L118 446L117 458L84 458L82 445L77 437L66 432L46 432L46 380L64 362L68 352L68 338L64 333L61 333L46 319L46 277L169 277L170 242L178 241L181 237L170 208L169 197L172 190L186 173L198 162L194 154L183 154L183 125L267 125L272 146L284 136L296 130L310 131L320 136L332 148L336 155L345 126L397 125L398 144L401 146L414 146L414 143L420 143L420 145L418 146L423 146L423 143L426 143L426 138L437 127L452 120L458 119L461 116L469 103L476 87L476 84L452 80L452 46L465 36L465 34L461 26L446 17L434 25L436 31L433 31L433 35L442 45L447 47L447 68L445 68L447 79L444 80L444 78L422 73L419 75L416 78L416 81L418 80L422 84L422 94L416 103L407 107L398 107L398 120L345 119L344 98L336 76L331 75L322 80L300 66L300 40L307 36L318 21L320 10L308 4Z M447 137L443 139L443 142L446 144L448 156L446 162L446 193L436 193L435 209L431 214L423 215L423 232L426 241L431 246L446 246L446 272L434 278L434 282L437 298L449 306L467 283L459 273L451 273L451 246L464 246L470 240L470 236L472 235L472 204L468 196L465 194L452 192L451 162L468 158L475 150L473 144L457 134L452 134Z M321 443L308 463L309 467L319 477L319 495L303 496L299 500L295 508L294 519L270 519L271 516L260 510L252 503L238 505L237 523L242 536L254 540L269 524L294 524L295 536L299 544L303 548L319 549L319 586L306 586L301 590L297 598L296 610L296 622L299 633L305 639L319 640L319 653L306 654L301 660L297 672L296 690L297 715L302 732L306 736L319 736L319 748L322 749L320 750L313 748L308 764L306 780L316 789L326 784L340 768L330 752L326 752L326 736L335 736L339 734L345 720L347 702L345 669L341 658L336 654L326 653L326 640L338 639L344 633L346 624L346 602L344 593L338 587L326 586L327 549L336 548L340 544L344 536L345 523L367 523L381 536L392 542L397 542L400 538L400 518L380 505L374 508L366 517L366 519L345 519L344 508L340 500L336 496L327 495L327 475L340 460L345 448L344 445L338 443Z"/>
  <path d=""/>
  <path d=""/>
</g>

  <path d="M323 770 L323 522 L251 522" fill="none" stroke="#071a31" stroke-opacity=".85" stroke-width="5.40984" stroke-linecap="round" stroke-linejoin="round"/><path data-role="main" d="M323 770 L323 522 L251 522" fill="none" stroke="#ffd23f" stroke-width="3.15574" stroke-linecap="round" stroke-linejoin="round"/><path d="M209 620 L143 620 L143 526 L143 460 L43 460 L43 274 L167 274 L167 231 L135 195 L180 159 L180 122 L297 122 L427 122 L449 74 L449 32" fill="none" stroke="#071a31" stroke-opacity=".85" stroke-width="5.40984" stroke-linecap="round" stroke-linejoin="round"/><path data-role="main" d="M209 620 L143 620 L143 526 L143 460 L43 460 L43 274 L167 274 L167 231 L135 195 L180 159 L180 122 L297 122 L427 122 L449 74 L449 32" fill="none" stroke="#ffd23f" stroke-width="3.15574" stroke-linecap="round" stroke-linejoin="round" marker-end="url(#arrow-main)"/><path d="M297 122 L297 20" fill="none" stroke="#071a31" stroke-opacity=".85" stroke-width="4.5082" stroke-linecap="round" stroke-linejoin="round"/><path data-role="split" d="M297 122 L297 20" fill="none" stroke="#f5f7ff" stroke-width="2.2541" stroke-linecap="round" stroke-linejoin="round"/><path d="M448 286 L448 239 L433 238 L436 205 L462 205 L462 219 L448 219 L448 152" fill="none" stroke="#071a31" stroke-opacity=".85" stroke-width="4.5082" stroke-linecap="round" stroke-linejoin="round"/><path data-role="split" d="M448 286 L448 239 L433 238 L436 205 L462 205 L462 219 L448 219 L448 152" fill="none" stroke="#f5f7ff" stroke-width="2.2541" stroke-linecap="round" stroke-linejoin="round"/><path d="M415 105 L427 112 L449 74" fill="none" stroke="#071a31" stroke-opacity=".85" stroke-width="4.5082" stroke-linecap="round" stroke-linejoin="round"/><path data-role="split" d="M415 105 L427 112 L449 74" fill="none" stroke="#f5f7ff" stroke-width="2.2541" stroke-linecap="round" stroke-linejoin="round" marker-end="url(#arrow-split)"/><path d="M448 219 L462 230 L448 219 L448 286" fill="none" stroke="#071a31" stroke-opacity=".85" stroke-width="4.05738" stroke-linecap="round" stroke-linejoin="round"/><path data-role="optional" d="M448 219 L462 230 L448 219 L448 286" fill="none" stroke="#c9d6e8" stroke-width="1.80328" stroke-linecap="round" stroke-linejoin="round" stroke-dasharray="6.31148 4.5082"/><path d="M297 20 L297 122 L427 122" fill="none" stroke="#071a31" stroke-opacity=".85" stroke-width="4.05738" stroke-linecap="round" stroke-linejoin="round"/><path data-role="optional" d="M297 20 L297 122 L427 122" fill="none" stroke="#c9d6e8" stroke-width="1.80328" stroke-linecap="round" stroke-linejoin="round" stroke-dasharray="6.31148 4.5082"/>
  <g transform="translate(251 522) scale(0.590164)" stroke="#061329" stroke-width="3" stroke-linejoin="round" filter="url(#shadow)"><path d="M-14-11H14L0 14Z" fill="#ed64b2"/><text y="4" text-anchor="middle" font-family="system-ui,-apple-system,sans-serif" font-size="13" font-weight="950" fill="#061329" stroke="none">1</text></g><g transform="translate(209 620) scale(0.590164)" stroke="#061329" stroke-width="3" stroke-linejoin="round" filter="url(#shadow)"><path d="M-14-11H14L0 14Z" fill="#ed64b2"/><text y="4" text-anchor="middle" font-family="system-ui,-apple-system,sans-serif" font-size="13" font-weight="950" fill="#061329" stroke="none">1′</text></g><g transform="translate(297 20) scale(0.590164)" stroke="#061329" stroke-width="3" stroke-linejoin="round" filter="url(#shadow)"><path d="M-14-11H14L0 14Z" fill="#ed64b2"/><text y="4" text-anchor="middle" font-family="system-ui,-apple-system,sans-serif" font-size="13" font-weight="950" fill="#061329" stroke="none">2</text></g><g transform="translate(448 286) scale(0.590164)" stroke="#061329" stroke-width="3" stroke-linejoin="round" filter="url(#shadow)"><path d="M-14-11H14L0 14Z" fill="#ed64b2"/><text y="4" text-anchor="middle" font-family="system-ui,-apple-system,sans-serif" font-size="13" font-weight="950" fill="#061329" stroke="none">2′</text></g><g transform="translate(448 152) scale(0.590164)" stroke="#061329" stroke-width="3" stroke-linejoin="round" filter="url(#shadow)"><path d="M-14-11H14L0 14Z" fill="#ed64b2"/><text y="4" text-anchor="middle" font-family="system-ui,-apple-system,sans-serif" font-size="13" font-weight="950" fill="#061329" stroke="none">3</text></g><g transform="translate(415 105) scale(0.590164)" stroke="#061329" stroke-width="3" stroke-linejoin="round" filter="url(#shadow)"><path d="M-14-11H14L0 14Z" fill="#ed64b2"/><text y="4" text-anchor="middle" font-family="system-ui,-apple-system,sans-serif" font-size="13" font-weight="950" fill="#061329" stroke="none">3′</text></g><g transform="translate(161 521) scale(0.590164)" stroke="#061329" stroke-width="3" stroke-linejoin="round" filter="url(#shadow)"><circle r="10" fill="#ffe45c"/></g><g transform="translate(142 492) scale(0.590164) rotate(90)" stroke="#061329" stroke-width="3" stroke-linejoin="round" filter="url(#shadow)"><rect x="-4" y="-19" width="8" height="38" rx="3" fill="#ffa540"/></g><g transform="translate(180 521) scale(0.590164)" stroke="#061329" stroke-width="3" stroke-linejoin="round" filter="url(#shadow)"><circle r="10" fill="#8ee26b"/></g><g transform="translate(85 194) scale(0.590164)" stroke="#061329" stroke-width="3" stroke-linejoin="round" filter="url(#shadow)"><circle r="10" fill="#698dea"/></g><g transform="translate(180 144) scale(0.590164) rotate(90)" stroke="#061329" stroke-width="3" stroke-linejoin="round" filter="url(#shadow)"><rect x="-4" y="-19" width="8" height="38" rx="3" fill="#698dea"/></g><g transform="translate(277 101) scale(0.590164)" stroke="#061329" stroke-width="3" stroke-linejoin="round" filter="url(#shadow)"><circle r="9" fill="none" stroke="#43c8df" stroke-width="3"/><circle r="3" fill="#43c8df"/></g><g transform="translate(287 80) scale(0.590164)" stroke="#061329" stroke-width="3" stroke-linejoin="round" filter="url(#shadow)"><circle r="9" fill="none" stroke="#43c8df" stroke-width="3"/><circle r="3" fill="#43c8df"/></g><g transform="translate(283 121) scale(0.590164)" stroke="#061329" stroke-width="3" stroke-linejoin="round" filter="url(#shadow)"><circle r="9" fill="none" stroke="#43c8df" stroke-width="3"/><circle r="3" fill="#43c8df"/></g><g transform="translate(323 116) scale(0.590164)" stroke="#061329" stroke-width="3" stroke-linejoin="round" filter="url(#shadow)"><circle r="9" fill="none" stroke="#43c8df" stroke-width="3"/><circle r="3" fill="#43c8df"/></g><g transform="translate(297 49) scale(0.590164) rotate(90)" stroke="#061329" stroke-width="3" stroke-linejoin="round" filter="url(#shadow)"><rect x="-4" y="-19" width="8" height="38" rx="3" fill="#43c8df"/></g><g transform="translate(462 230) scale(0.590164)" stroke="#061329" stroke-width="3" stroke-linejoin="round" filter="url(#shadow)"><circle r="10" fill="#8ee26b"/></g><g transform="translate(459 148) scale(0.590164)" stroke="#061329" stroke-width="3" stroke-linejoin="round" filter="url(#shadow)"><circle r="10" fill="#ed64b2"/></g><g transform="translate(427 112) scale(0.590164)" stroke="#061329" stroke-width="3" stroke-linejoin="round" filter="url(#shadow)"><circle r="10" fill="#ed64b2"/></g><g transform="translate(449 57) scale(0.590164) rotate(90)" stroke="#061329" stroke-width="3" stroke-linejoin="round" filter="url(#shadow)"><rect x="-4" y="-19" width="8" height="38" rx="3" fill="#ed64b2"/></g><g transform="translate(113 512) scale(0.32459)" stroke="#061329" stroke-width="3" stroke-linejoin="round" filter="url(#shadow)"><rect x="-10" y="-10" width="20" height="20" rx="3" fill="#061329" stroke="#e64c55"/><path d="M-5-5 5 5M-5 5 5-5" stroke="#e64c55" stroke-width="3"/></g><g transform="translate(127 512) scale(0.32459)" stroke="#061329" stroke-width="3" stroke-linejoin="round" filter="url(#shadow)"><rect x="-10" y="-10" width="20" height="20" rx="3" fill="#061329" stroke="#e64c55"/><path d="M-5-5 5 5M-5 5 5-5" stroke="#e64c55" stroke-width="3"/></g><g transform="translate(113 526) scale(0.32459)" stroke="#061329" stroke-width="3" stroke-linejoin="round" filter="url(#shadow)"><rect x="-10" y="-10" width="20" height="20" rx="3" fill="#061329" stroke="#e64c55"/><path d="M-5-5 5 5M-5 5 5-5" stroke="#e64c55" stroke-width="3"/></g><g transform="translate(127 526) scale(0.32459)" stroke="#061329" stroke-width="3" stroke-linejoin="round" filter="url(#shadow)"><circle r="10" fill="#8ee26b"/></g><g transform="translate(113 540) scale(0.32459)" stroke="#061329" stroke-width="3" stroke-linejoin="round" filter="url(#shadow)"><circle r="10" fill="#8ee26b"/></g><g transform="translate(127 540) scale(0.32459)" stroke="#061329" stroke-width="3" stroke-linejoin="round" filter="url(#shadow)"><rect x="-10" y="-10" width="20" height="20" rx="3" fill="#061329" stroke="#e64c55"/><path d="M-5-5 5 5M-5 5 5-5" stroke="#e64c55" stroke-width="3"/></g>
</g>

<g transform="translate(449.06 1014.4)" filter="url(#shadow)"><circle r="12" fill="#39d6ff" stroke="#061329" stroke-width="4"/><rect x="-27" y="-46" width="54" height="26" rx="13" fill="#061329" fill-opacity=".9" stroke="#39d6ff" stroke-width="2"/><text x="0" y="-27.5" text-anchor="middle" fill="#39d6ff" font-family="system-ui,-apple-system,sans-serif" font-size="16" font-weight="900">起点</text></g><g transform="translate(602.78 114.04)" filter="url(#shadow)"><circle r="12" fill="#ff5ca8" stroke="#061329" stroke-width="4"/><rect x="-51" y="-46" width="102" height="26" rx="13" fill="#061329" fill-opacity=".9" stroke="#ff5ca8" stroke-width="2"/><text x="0" y="-27.5" text-anchor="middle" fill="#ff5ca8" font-family="system-ui,-apple-system,sans-serif" font-size="16" font-weight="900">前往下一区</text></g>
<path d="M251.42 710.62L705 120" fill="none" stroke="#ffbe99" stroke-opacity=".7" stroke-width="1" stroke-dasharray="2 3"/><circle cx="251.42" cy="710.62" r="2.5" fill="#ffbe99"/><path d="M201.4 716.72L705 306" fill="none" stroke="#ffbe99" stroke-opacity=".7" stroke-width="1" stroke-dasharray="2 3"/><circle cx="201.4" cy="716.72" r="2.5" fill="#ffbe99"/><path d="M158.7 311.68L705 346" fill="none" stroke="#a9d8ed" stroke-opacity=".7" stroke-width="1" stroke-dasharray="2 3"/><circle cx="158.7" cy="311.68" r="2.5" fill="#a9d8ed"/><path d="M417.34 201.88L705 436" fill="none" stroke="#a9d8ed" stroke-opacity=".7" stroke-width="1" stroke-dasharray="2 3"/><circle cx="417.34" cy="201.88" r="2.5" fill="#a9d8ed"/><path d="M618.64 355.6L705 562" fill="none" stroke="#a9d8ed" stroke-opacity=".7" stroke-width="1" stroke-dasharray="2 3"/><circle cx="618.64" cy="355.6" r="2.5" fill="#a9d8ed"/><path d="M601.56 342.18L705 670" fill="none" stroke="#ffbe99" stroke-opacity=".7" stroke-width="1" stroke-dasharray="2 3"/><circle cx="601.56" cy="342.18" r="2.5" fill="#ffbe99"/><path d="M575.94 211.64L705 742" fill="none" stroke="#a9d8ed" stroke-opacity=".7" stroke-width="1" stroke-dasharray="2 3"/><circle cx="575.94" cy="211.64" r="2.5" fill="#a9d8ed"/><g data-callout="hold-piston-pad"><title>PSO World source map; Sakura; PSO Palace C3</title><rect data-callout-box="" x="705" y="70" width="275" height="50" rx="5" fill="#10263a" stroke="#ffbe99" stroke-opacity=".35"/><text x="713" y="90" text-anchor="start" fill="#ffbe99" font-family="system-ui,-apple-system,sans-serif" font-size="13" font-weight="650">一人开笼，笼中队员踩住压机机关；同伴安</text><text x="713" y="108" text-anchor="start" fill="#ffbe99" font-family="system-ui,-apple-system,sans-serif" font-size="13" font-weight="650">全离开压机下方后才可松开。</text></g><g data-callout="six-pad-safe-pair"><title>PSO World Area 11 six-pad layout; Sakura safe green pair; PSO Palace</title><rect data-callout-box="" x="705" y="160" width="275" height="146" rx="5" fill="#10263a" stroke="#ffbe99" stroke-opacity=".35"/><text x="713" y="180" text-anchor="start" fill="#ffbe99" font-family="system-ui,-apple-system,sans-serif" font-size="13" font-weight="650">按图只踩右中、左下两个安全机关，其余四</text><text x="713" y="198" text-anchor="start" fill="#ffbe99" font-family="system-ui,-apple-system,sans-serif" font-size="13" font-weight="650">个会引发爆炸。</text><g data-switch-grid=""><circle cx="824.5" cy="220" r="11" fill="#071a31" stroke="#ffbe99"/><text x="824.5" y="224.5" text-anchor="middle" fill="#ffbe99" font-family="system-ui,-apple-system,sans-serif" font-size="14" font-weight="900">×</text><circle cx="860.5" cy="220" r="11" fill="#071a31" stroke="#ffbe99"/><text x="860.5" y="224.5" text-anchor="middle" fill="#ffbe99" font-family="system-ui,-apple-system,sans-serif" font-size="14" font-weight="900">×</text><circle cx="824.5" cy="248" r="11" fill="#071a31" stroke="#ffbe99"/><text x="824.5" y="252.5" text-anchor="middle" fill="#ffbe99" font-family="system-ui,-apple-system,sans-serif" font-size="14" font-weight="900">×</text><circle cx="860.5" cy="248" r="11" fill="#071a31" stroke="#a0e5b6"/><text x="860.5" y="252.5" text-anchor="middle" fill="#a0e5b6" font-family="system-ui,-apple-system,sans-serif" font-size="14" font-weight="900">✓</text><circle cx="824.5" cy="276" r="11" fill="#071a31" stroke="#a0e5b6"/><text x="824.5" y="280.5" text-anchor="middle" fill="#a0e5b6" font-family="system-ui,-apple-system,sans-serif" font-size="14" font-weight="900">✓</text><circle cx="860.5" cy="276" r="11" fill="#071a31" stroke="#ffbe99"/><text x="860.5" y="280.5" text-anchor="middle" fill="#ffbe99" font-family="system-ui,-apple-system,sans-serif" font-size="14" font-weight="900">×</text></g></g><g data-callout="cyan-door-duty"><title>PSO World source map; Sakura; PSO Palace C3</title><rect data-callout-box="" x="705" y="346" width="275" height="50" rx="5" fill="#10263a" stroke="#a9d8ed" stroke-opacity=".35"/><text x="713" y="366" text-anchor="start" fill="#a9d8ed" font-family="system-ui,-apple-system,sans-serif" font-size="13" font-weight="650">清场后，由回收者走左侧通道踩蓝色机关，</text><text x="713" y="384" text-anchor="start" fill="#a9d8ed" font-family="system-ui,-apple-system,sans-serif" font-size="13" font-weight="650">给主队开门。</text></g><g data-callout="four-hidden-targets"><title>PSO World source map; Sakura; PSO Palace C3</title><rect data-callout-box="" x="705" y="436" width="275" height="68" rx="5" fill="#10263a" stroke="#a9d8ed" stroke-opacity=".35"/><text x="713" y="456" text-anchor="start" fill="#a9d8ed" font-family="system-ui,-apple-system,sans-serif" font-size="13" font-weight="650">四处射击机关：入口右侧水下、同侧天花板、</text><text x="713" y="474" text-anchor="start" fill="#a9d8ed" font-family="system-ui,-apple-system,sans-serif" font-size="13" font-weight="650">出口左上岩石、出口旁草丛。枪或火球术／</text><text x="713" y="492" text-anchor="start" fill="#a9d8ed" font-family="system-ui,-apple-system,sans-serif" font-size="13" font-weight="650">闪电术均可。</text></g><g data-callout="light-path-hold-return"><title>PSO World source map; Sakura; PSO Palace C3</title><rect data-callout-box="" x="705" y="562" width="275" height="68" rx="5" fill="#10263a" stroke="#a9d8ed" stroke-opacity=".35"/><text x="713" y="582" text-anchor="start" fill="#a9d8ed" font-family="system-ui,-apple-system,sans-serif" font-size="13" font-weight="650">两人走传送支路：一人踩住绿色机关显出光</text><text x="713" y="600" text-anchor="start" fill="#a9d8ed" font-family="system-ui,-apple-system,sans-serif" font-size="13" font-weight="650">路；另一人沿光路通过后，留守者再原路传</text><text x="713" y="618" text-anchor="start" fill="#a9d8ed" font-family="system-ui,-apple-system,sans-serif" font-size="13" font-weight="650">送返回。</text></g><g data-callout="follow-light-path"><title>PSO World source map; Sakura; PSO Palace C3</title><rect data-callout-box="" x="705" y="670" width="275" height="32" rx="5" fill="#10263a" stroke="#ffbe99" stroke-opacity=".35"/><text x="713" y="690" text-anchor="start" fill="#ffbe99" font-family="system-ui,-apple-system,sans-serif" font-size="13" font-weight="650">严格沿白色光路走，偏离会触发爆炸。</text></g><g data-callout="simultaneous-exit-pads"><title>PSO World source map; Sakura; PSO Palace C3</title><rect data-callout-box="" x="705" y="742" width="275" height="50" rx="5" fill="#10263a" stroke="#a9d8ed" stroke-opacity=".35"/><text x="713" y="762" text-anchor="start" fill="#a9d8ed" font-family="system-ui,-apple-system,sans-serif" font-size="13" font-weight="650">主队等光路队员到对侧机关，再同时踩两边</text><text x="713" y="780" text-anchor="start" fill="#a9d8ed" font-family="system-ui,-apple-system,sans-serif" font-size="13" font-weight="650">机关开门；本房敌人可忽略，经 3 会合。</text></g>
<path d="M30 1072h34" stroke="#ffd23f" stroke-width="7" stroke-linecap="round"/><text x="74" y="1078" text-anchor="start" fill="#dff8ff" font-family="system-ui,-apple-system,sans-serif" font-size="15" font-weight="800">主路线</text><path d="M155 1072h34" stroke="#f5f7ff" stroke-width="5" stroke-linecap="round"/><text x="199" y="1078" text-anchor="start" fill="#dff8ff" font-family="system-ui,-apple-system,sans-serif" font-size="15" font-weight="800">分队路线</text><path d="M295 1072h34" stroke="#c9d6e8" stroke-width="4" stroke-linecap="round" stroke-dasharray="14 10"/><text x="339" y="1078" text-anchor="start" fill="#dff8ff" font-family="system-ui,-apple-system,sans-serif" font-size="15" font-weight="800">可选路线</text>
<g transform="translate(34 1110) scale(0.769231)" stroke="#061329" stroke-width="3" stroke-linejoin="round" filter="url(#shadow)"><path d="M-14-11H14L0 14Z" fill="#a9d8ed"/><text y="4" text-anchor="middle" font-family="system-ui,-apple-system,sans-serif" font-size="13" font-weight="950" fill="#061329" stroke="none">1</text></g><text x="54" y="1115" text-anchor="start" fill="#a9d8ed" font-family="system-ui,-apple-system,sans-serif" font-size="13" font-weight="650">传送 1→1′</text><g transform="translate(160.3 1110) scale(0.769231)" stroke="#061329" stroke-width="3" stroke-linejoin="round" filter="url(#shadow)"><circle r="10" fill="#a9d8ed"/></g><text x="180.3" y="1115" text-anchor="start" fill="#a9d8ed" font-family="system-ui,-apple-system,sans-serif" font-size="13" font-weight="650">地板机关</text><g transform="translate(272.3 1110) scale(0.769231) rotate(90)" stroke="#061329" stroke-width="3" stroke-linejoin="round" filter="url(#shadow)"><rect x="-4" y="-19" width="8" height="38" rx="3" fill="#a9d8ed"/></g><text x="292.3" y="1115" text-anchor="start" fill="#a9d8ed" font-family="system-ui,-apple-system,sans-serif" font-size="13" font-weight="650">门／屏障</text><g transform="translate(384.3 1110) scale(0.769231)" stroke="#061329" stroke-width="3" stroke-linejoin="round" filter="url(#shadow)"><circle r="9" fill="none" stroke="#a9d8ed" stroke-width="3"/><circle r="3" fill="#a9d8ed"/></g><text x="404.3" y="1115" text-anchor="start" fill="#a9d8ed" font-family="system-ui,-apple-system,sans-serif" font-size="13" font-weight="650">射击机关</text><g transform="translate(496.3 1110) scale(0.769231)" stroke="#061329" stroke-width="3" stroke-linejoin="round" filter="url(#shadow)"><rect x="-10" y="-10" width="20" height="20" rx="3" fill="#061329" stroke="#a9d8ed"/><path d="M-5-5 5 5M-5 5 5-5" stroke="#a9d8ed" stroke-width="3"/></g><text x="516.3" y="1115" text-anchor="start" fill="#a9d8ed" font-family="system-ui,-apple-system,sans-serif" font-size="13" font-weight="650">不要踩</text>
<text x="958" y="1164" text-anchor="end" fill="#8aabba" font-family="system-ui,-apple-system,sans-serif" font-size="12" font-weight="900">提示依据：PSO World · Sakura 攻略</text>
</svg>
