<svg xmlns="http://www.w3.org/2000/svg" viewBox="0 0 1000 1418" role="img" aria-labelledby="title desc" shape-rendering="geometricPrecision">
<title id="title">区域 41</title>
<desc id="desc">攻击中央平台四侧的机关，打开橙色门。主队进入 1→1′；箱子可经 2→2′ 回收。 在玛古机关放下玛古，为这里的暗房开灯；清场后记得回收。 先触发并处理双机关的陷阱，再同时踩机关开门；下方长廊也有陷阱。 射击陷阱：先触发并处理，再踩双机关。 FO 放下玛古可开灯；清场后取回。 这处箱子没有陷阱。</desc>
<defs><filter id="shadow" x="-30%" y="-30%" width="160%" height="160%"><feDropShadow dx="0" dy="2" stdDeviation="2.5" flood-color="#000" flood-opacity=".35"/></filter><pattern id="dark-hatch" width="11.98" height="11.98" patternUnits="userSpaceOnUse" patternTransform="rotate(45)"><rect width="11.98" height="11.98" fill="#000" fill-opacity=".25"/><path d="M0 0V11.98" stroke="#4fe3ff" stroke-opacity=".25" stroke-width="3.594"/></pattern><marker id="arrow-main" viewBox="0 0 10 10" refX="6" refY="5" markerWidth="3.2" markerHeight="3.2" orient="auto-start-reverse"><path d="M0 0 10 5 0 10Z" fill="#ffd23f" stroke="#061329" stroke-width="1"/></marker><marker id="arrow-split" viewBox="0 0 10 10" refX="6" refY="5" markerWidth="3.2" markerHeight="3.2" orient="auto-start-reverse"><path d="M0 0 10 5 0 10Z" fill="#f5f7ff" stroke="#061329" stroke-width="1"/></marker><marker id="arrow-solo" viewBox="0 0 10 10" refX="6" refY="5" markerWidth="3.2" markerHeight="3.2" orient="auto-start-reverse"><path d="M0 0 10 5 0 10Z" fill="#b48cff" stroke="#061329" stroke-width="1"/></marker></defs>
<rect width="1000" height="1418" rx="18" fill="#071a31"/>
<text x="26" y="30" text-anchor="start" fill="#a9d8ed" font-family="system-ui,-apple-system,sans-serif" font-size="16" font-weight="900">C9 · 区域 41</text>
<g transform="translate(291.319 60) scale(0.834725)">
  <g filter="url(#shadow)"><g id="c9-floor" data-source="PSO World area_41.png">
  <defs>
    <clipPath id="c9-floor-clip"><path d="M173 0L204 0L204 36L192 36L192 61L207 61L207 154L164 154L164 184L191 184L191 227L211 227L211 238L191 238L191 277L164 277L164 305L172 305L172 322L188 322L188 328L214 328L214 312L202 312L202 279L232 279L232 312L222 312L222 335L188 335L188 346L173 346L173 382L188 382L188 391L203 391L203 382L295 382L295 391L324 391L324 320L416 320L416 331L448 331L448 320L479 320L479 355L448 355L448 344L416 344L416 413L324 413L324 402L295 402L295 457L338 457L338 493L366 493L366 556L338 556L338 602L147 602L147 563L74 563L74 554L43 554L43 579L69 579L69 672L43 672L43 702L89 702L89 678L150 678L150 702L201 702L201 665L189 665L189 619L296 619L296 665L281 665L281 704L353 704L353 777L385 777L385 765L415 765L415 795L385 795L385 785L353 785L353 796L344 796L344 904L353 904L353 968L348 977L348 995L343 1006L343 1022L400 1022L400 1096L429 1096L429 1085L459 1085L459 1119L429 1119L429 1106L400 1106L400 1174L278 1174L278 1106L247 1106L247 1120L216 1120L216 1085L247 1085L247 1096L278 1096L278 1022L333 1022L333 1006L327 995L327 977L323 968L323 904L333 904L333 796L261 796L261 704L271 704L271 665L211 665L211 712L151 712L151 740L89 740L89 712L32 712L32 672L7 672L7 636L0 636L0 625L7 625L7 579L32 579L32 542L74 542L74 528L137 528L137 466L167 466L167 562L155 562L155 591L188 591L188 580L296 580L296 590L327 590L327 556L303 556L303 493L327 493L327 474L203 474L203 403L173 403L173 423L145 423L145 405L110 405L111 424L103 424L103 432L92 432L92 424L84 424L84 406L66 406L66 382L84 382L84 347L66 347L66 322L84 322L84 305L110 305L110 322L145 322L145 305L155 305L155 277L128 277L128 184L155 184L155 154L115 154L115 61L181 61L181 36L173 36Z M74 466L93 466L93 451L99 451L99 466L114 466L114 504L74 504Z" clip-rule="evenodd"/></clipPath>
    <pattern id="c9-dark-hatch" width="8" height="8" patternUnits="userSpaceOnUse">
      <path d="M-2 2L2-2M0 8L8 0M6 10L10 6" fill="none" stroke="#4fe3ff" stroke-opacity=".18" stroke-width="1"/>
    </pattern>
  </defs>
  <path d="M173 0L204 0L204 36L192 36L192 61L207 61L207 154L164 154L164 184L191 184L191 227L211 227L211 238L191 238L191 277L164 277L164 305L172 305L172 322L188 322L188 328L214 328L214 312L202 312L202 279L232 279L232 312L222 312L222 335L188 335L188 346L173 346L173 382L188 382L188 391L203 391L203 382L295 382L295 391L324 391L324 320L416 320L416 331L448 331L448 320L479 320L479 355L448 355L448 344L416 344L416 413L324 413L324 402L295 402L295 457L338 457L338 493L366 493L366 556L338 556L338 602L147 602L147 563L74 563L74 554L43 554L43 579L69 579L69 672L43 672L43 702L89 702L89 678L150 678L150 702L201 702L201 665L189 665L189 619L296 619L296 665L281 665L281 704L353 704L353 777L385 777L385 765L415 765L415 795L385 795L385 785L353 785L353 796L344 796L344 904L353 904L353 968L348 977L348 995L343 1006L343 1022L400 1022L400 1096L429 1096L429 1085L459 1085L459 1119L429 1119L429 1106L400 1106L400 1174L278 1174L278 1106L247 1106L247 1120L216 1120L216 1085L247 1085L247 1096L278 1096L278 1022L333 1022L333 1006L327 995L327 977L323 968L323 904L333 904L333 796L261 796L261 704L271 704L271 665L211 665L211 712L151 712L151 740L89 740L89 712L32 712L32 672L7 672L7 636L0 636L0 625L7 625L7 579L32 579L32 542L74 542L74 528L137 528L137 466L167 466L167 562L155 562L155 591L188 591L188 580L296 580L296 590L327 590L327 556L303 556L303 493L327 493L327 474L203 474L203 403L173 403L173 423L145 423L145 405L110 405L111 424L103 424L103 432L92 432L92 424L84 424L84 406L66 406L66 382L84 382L84 347L66 347L66 322L84 322L84 305L110 305L110 322L145 322L145 305L155 305L155 277L128 277L128 184L155 184L155 154L115 154L115 61L181 61L181 36L173 36Z M74 466L93 466L93 451L99 451L99 466L114 466L114 504L74 504Z" fill="#173d60" fill-rule="evenodd"/>
  <g id="c9-dark-rooms" clip-path="url(#c9-floor-clip)">
    <path d="M324 320L416 320L416 413L324 413Z" fill="#102b42"/>
    <path d="M324 320L416 320L416 413L324 413Z" fill="url(#c9-dark-hatch)"/>
  </g>
</g></g>
  <g id="c9-walls" fill="none" stroke="#8edfff" stroke-width="1.5" stroke-linejoin="miter">
  <path d="M173 0L204 0L204 36L192 36L192 61L207 61L207 154L164 154L164 184L191 184L191 227L211 227L211 238L191 238L191 277L164 277L164 305L172 305L172 322L188 322L188 328L214 328L214 312L202 312L202 279L232 279L232 312L222 312L222 335L188 335L188 346L173 346L173 382L188 382L188 391L203 391L203 382L295 382L295 391L324 391L324 320L416 320L416 331L448 331L448 320L479 320L479 355L448 355L448 344L416 344L416 413L324 413L324 402L295 402L295 457L338 457L338 493L366 493L366 556L338 556L338 602L147 602L147 563L74 563L74 554L43 554L43 579L69 579L69 672L43 672L43 702L89 702L89 678L150 678L150 702L201 702L201 665L189 665L189 619L296 619L296 665L281 665L281 704L353 704L353 777L385 777L385 765L415 765L415 795L385 795L385 785L353 785L353 796L344 796L344 904L353 904L353 968L348 977L348 995L343 1006L343 1022L400 1022L400 1096L429 1096L429 1085L459 1085L459 1119L429 1119L429 1106L400 1106L400 1174L278 1174L278 1106L247 1106L247 1120L216 1120L216 1085L247 1085L247 1096L278 1096L278 1022L333 1022L333 1006L327 995L327 977L323 968L323 904L333 904L333 796L261 796L261 704L271 704L271 665L211 665L211 712L151 712L151 740L89 740L89 712L32 712L32 672L7 672L7 636L0 636L0 625L7 625L7 579L32 579L32 542L74 542L74 528L137 528L137 466L167 466L167 562L155 562L155 591L188 591L188 580L296 580L296 590L327 590L327 556L303 556L303 493L327 493L327 474L203 474L203 403L173 403L173 423L145 423L145 405L110 405L111 424L103 424L103 432L92 432L92 424L84 424L84 406L66 406L66 382L84 382L84 347L66 347L66 322L84 322L84 305L110 305L110 322L145 322L145 305L155 305L155 277L128 277L128 184L155 184L155 154L115 154L115 61L181 61L181 36L173 36Z M74 466L93 466L93 451L99 451L99 466L114 466L114 504L74 504Z"/>
  <path d="M324 320L416 320L416 413L324 413Z"/>
  <path d="M100 336L156 336L156 393L100 393Z M110 346L146 346L146 382L110 382Z"/>
</g>

  <path d="M188 17 L186 115 L160 146 L160 330 L167 330 L167 337 L217 337 L217 305 L225 305" fill="none" stroke="#071a31" stroke-opacity=".85" stroke-width="7.9068" stroke-linecap="round" stroke-linejoin="round"/><path data-role="main" d="M188 17 L186 115 L160 146 L160 330 L167 330 L167 337 L217 337 L217 305 L225 305" fill="none" stroke="#ffd23f" stroke-width="4.6123" stroke-linecap="round" stroke-linejoin="round"/><path d="M462 337 L373 337 L352 396 L277 396 L277 463 L333 463 L333 592 L153 592 L153 550 L38 550 L38 708 L207 708 L207 644 L274 644 L274 718 L338 781 L338 1100 L232 1100" fill="none" stroke="#071a31" stroke-opacity=".85" stroke-width="7.9068" stroke-linecap="round" stroke-linejoin="round"/><path data-role="main" d="M462 337 L373 337 L352 396 L277 396 L277 463 L333 463 L333 592 L153 592 L153 550 L38 550 L38 708 L207 708 L207 644 L274 644 L274 718 L338 781 L338 1100 L232 1100" fill="none" stroke="#ffd23f" stroke-width="4.6123" stroke-linecap="round" stroke-linejoin="round" marker-end="url(#arrow-main)"/><path d="M160 330 L92 330 L92 399 L168 399 L168 365" fill="none" stroke="#071a31" stroke-opacity=".85" stroke-width="6.589" stroke-linecap="round" stroke-linejoin="round"/><path data-role="split" d="M160 330 L92 330 L92 399 L168 399 L168 365" fill="none" stroke="#f5f7ff" stroke-width="3.2945" stroke-linecap="round" stroke-linejoin="round" marker-end="url(#arrow-split)"/><path d="M217 305 L217 331 L201 331" fill="none" stroke="#071a31" stroke-opacity=".85" stroke-width="5.9301" stroke-linecap="round" stroke-linejoin="round"/><path data-role="optional" d="M217 305 L217 331 L201 331" fill="none" stroke="#c9d6e8" stroke-width="2.6356" stroke-linecap="round" stroke-linejoin="round" stroke-dasharray="9.2246 6.589"/><path d="M115 376 L115 351 L140 351" fill="none" stroke="#071a31" stroke-opacity=".85" stroke-width="5.9301" stroke-linecap="round" stroke-linejoin="round"/><path data-role="optional" d="M115 376 L115 351 L140 351" fill="none" stroke="#c9d6e8" stroke-width="2.6356" stroke-linecap="round" stroke-linejoin="round" stroke-dasharray="9.2246 6.589"/><path d="M218 289 L218 305 L225 305" fill="none" stroke="#071a31" stroke-opacity=".85" stroke-width="5.9301" stroke-linecap="round" stroke-linejoin="round"/><path data-role="optional" d="M218 289 L218 305 L225 305" fill="none" stroke="#c9d6e8" stroke-width="2.6356" stroke-linecap="round" stroke-linejoin="round" stroke-dasharray="9.2246 6.589"/><path d="M338 781 L402 781" fill="none" stroke="#071a31" stroke-opacity=".85" stroke-width="5.9301" stroke-linecap="round" stroke-linejoin="round"/><path data-role="optional" d="M338 781 L402 781" fill="none" stroke="#c9d6e8" stroke-width="2.6356" stroke-linecap="round" stroke-linejoin="round" stroke-dasharray="9.2246 6.589"/><path d="M338 1100 L446 1100" fill="none" stroke="#071a31" stroke-opacity=".85" stroke-width="5.9301" stroke-linecap="round" stroke-linejoin="round"/><path data-role="optional" d="M338 1100 L446 1100" fill="none" stroke="#c9d6e8" stroke-width="2.6356" stroke-linecap="round" stroke-linejoin="round" stroke-dasharray="9.2246 6.589"/>
  <g transform="translate(225 305) scale(0.86256)" stroke="#061329" stroke-width="3" stroke-linejoin="round" filter="url(#shadow)"><path d="M-14-11H14L0 14Z" fill="#f281bc"/><text y="4" text-anchor="middle" font-family="system-ui,-apple-system,sans-serif" font-size="13" font-weight="950" fill="#061329" stroke="none">1</text></g><g transform="translate(462 337) scale(0.86256)" stroke="#061329" stroke-width="3" stroke-linejoin="round" filter="url(#shadow)"><path d="M-14-11H14L0 14Z" fill="#f281bc"/><text y="4" text-anchor="middle" font-family="system-ui,-apple-system,sans-serif" font-size="13" font-weight="950" fill="#061329" stroke="none">1′</text></g><g transform="translate(201 331) scale(0.86256)" stroke="#061329" stroke-width="3" stroke-linejoin="round" filter="url(#shadow)"><path d="M-14-11H14L0 14Z" fill="#f281bc"/><text y="4" text-anchor="middle" font-family="system-ui,-apple-system,sans-serif" font-size="13" font-weight="950" fill="#061329" stroke="none">2</text></g><g transform="translate(115 376) scale(0.86256)" stroke="#061329" stroke-width="3" stroke-linejoin="round" filter="url(#shadow)"><path d="M-14-11H14L0 14Z" fill="#f281bc"/><text y="4" text-anchor="middle" font-family="system-ui,-apple-system,sans-serif" font-size="13" font-weight="950" fill="#061329" stroke="none">2′</text></g><g transform="translate(218 289) scale(0.86256)" stroke="#061329" stroke-width="3" stroke-linejoin="round" filter="url(#shadow)"><path d="M-14-11H14L0 14Z" fill="#f281bc"/><text y="4" text-anchor="middle" font-family="system-ui,-apple-system,sans-serif" font-size="13" font-weight="950" fill="#061329" stroke="none">3′</text></g><g transform="translate(140 351) scale(0.86256)" stroke="#061329" stroke-width="3" stroke-linejoin="round" filter="url(#shadow)"><path d="M-14-11H14L0 14Z" fill="#f281bc"/><text y="4" text-anchor="middle" font-family="system-ui,-apple-system,sans-serif" font-size="13" font-weight="950" fill="#061329" stroke="none">3</text></g><g transform="translate(128 329) scale(0.86256)" stroke="#061329" stroke-width="3" stroke-linejoin="round" filter="url(#shadow)"><circle r="9" fill="none" stroke="#ffad42" stroke-width="3"/><circle r="3" fill="#ffad42"/></g><g transform="translate(97 366) scale(0.86256)" stroke="#061329" stroke-width="3" stroke-linejoin="round" filter="url(#shadow)"><circle r="9" fill="none" stroke="#ffad42" stroke-width="3"/><circle r="3" fill="#ffad42"/></g><g transform="translate(157 366) scale(0.86256)" stroke="#061329" stroke-width="3" stroke-linejoin="round" filter="url(#shadow)"><circle r="9" fill="none" stroke="#ffad42" stroke-width="3"/><circle r="3" fill="#ffad42"/></g><g transform="translate(128 393) scale(0.86256)" stroke="#061329" stroke-width="3" stroke-linejoin="round" filter="url(#shadow)"><circle r="9" fill="none" stroke="#ffad42" stroke-width="3"/><circle r="3" fill="#ffad42"/></g><g transform="translate(199 338) scale(0.86256)" stroke="#061329" stroke-width="3" stroke-linejoin="round" filter="url(#shadow)"><rect x="-4" y="-19" width="8" height="38" rx="3" fill="#ffad42"/></g><g transform="translate(372 341) scale(0.86256)" stroke="#061329" stroke-width="3" stroke-linejoin="round" filter="url(#shadow)"><rect x="-13" y="-9" width="26" height="18" rx="4" fill="#ffe769"/><text y="4" text-anchor="middle" font-family="system-ui,-apple-system,sans-serif" font-size="11" font-weight="900" stroke="none" fill="#061329">MAG</text></g><g transform="translate(113 348) scale(0.86256)" stroke="#061329" stroke-width="3" stroke-linejoin="round" filter="url(#shadow)"><rect x="-10" y="-9" width="20" height="18" rx="4" fill="#3cdd96"/><path d="M-10-2H10" fill="none"/></g><g transform="translate(402 778) scale(0.86256)" stroke="#061329" stroke-width="3" stroke-linejoin="round" filter="url(#shadow)"><rect x="-10" y="-9" width="20" height="18" rx="4" fill="#3cdd96"/><path d="M-10-2H10" fill="none"/></g><g transform="translate(446 1100) scale(0.86256)" stroke="#061329" stroke-width="3" stroke-linejoin="round" filter="url(#shadow)"><rect x="-10" y="-9" width="20" height="18" rx="4" fill="#3cdd96"/><path d="M-10-2H10" fill="none"/></g><g transform="translate(316 526) scale(0.86256)" stroke="#061329" stroke-width="3" stroke-linejoin="round" filter="url(#shadow)"><circle r="10" fill="#39cdeb"/></g><g transform="translate(353 526) scale(0.86256)" stroke="#061329" stroke-width="3" stroke-linejoin="round" filter="url(#shadow)"><circle r="10" fill="#39cdeb"/></g><g transform="translate(334 565) scale(0.86256) rotate(90)" stroke="#061329" stroke-width="3" stroke-linejoin="round" filter="url(#shadow)"><rect x="-4" y="-19" width="8" height="38" rx="3" fill="#39cdeb"/></g><g transform="translate(238 595) scale(0.86256)" stroke="#061329" stroke-width="3" stroke-linejoin="round" filter="url(#shadow)"><path d="M0-13 13 11H-13Z" fill="#ffe769"/><path d="M0-4V3M0 7v1" stroke-linecap="round"/></g><g transform="translate(343 484) scale(0.86256)" stroke="#061329" stroke-width="3" stroke-linejoin="round" filter="url(#shadow)"><circle r="9" fill="#ffad42"/><path d="M0 0 14-8" stroke-width="5" stroke-linecap="round" stroke="#ffad42"/></g>
</g>
<g transform="translate(508.347 293.723)" filter="url(#shadow)"><rect x="-15" y="-15" width="30" height="30" rx="7" fill="#ff9f43" stroke="#061329" stroke-width="3"/><text x="0" y="6" text-anchor="middle" fill="#061329" font-family="system-ui,-apple-system,sans-serif" font-size="18" font-weight="950">1</text></g><g transform="translate(617.696 377.195)" filter="url(#shadow)"><rect x="-15" y="-15" width="30" height="30" rx="7" fill="#ff9f43" stroke="#061329" stroke-width="3"/><text x="0" y="6" text-anchor="middle" fill="#061329" font-family="system-ui,-apple-system,sans-serif" font-size="18" font-weight="950">2</text></g><g transform="translate(605.175 517.429)" filter="url(#shadow)"><rect x="-15" y="-15" width="30" height="30" rx="7" fill="#ff9f43" stroke="#061329" stroke-width="3"/><text x="0" y="6" text-anchor="middle" fill="#061329" font-family="system-ui,-apple-system,sans-serif" font-size="18" font-weight="950">3</text></g>
<g transform="translate(448.247 74.1903)" filter="url(#shadow)"><circle r="12" fill="#39d6ff" stroke="#061329" stroke-width="4"/><rect x="-27" y="-46" width="54" height="26" rx="13" fill="#061329" fill-opacity=".9" stroke="#39d6ff" stroke-width="2"/><text x="0" y="-27.5" text-anchor="middle" fill="#39d6ff" font-family="system-ui,-apple-system,sans-serif" font-size="16" font-weight="900">起点</text></g><g transform="translate(484.975 978.197)" filter="url(#shadow)"><circle r="12" fill="#ff5ca8" stroke="#061329" stroke-width="4"/><rect x="-51" y="-46" width="102" height="26" rx="13" fill="#061329" fill-opacity=".9" stroke="#ff5ca8" stroke-width="2"/><text x="0" y="-27.5" text-anchor="middle" fill="#ff5ca8" font-family="system-ui,-apple-system,sans-serif" font-size="16" font-weight="900">前往下一区</text></g>
<path d="M569.282 464.007L694 464.007" fill="none" stroke="#ffbe99" stroke-opacity=".7" stroke-width="1" stroke-dasharray="2 3"/><circle cx="569.282" cy="464.007" r="2.5" fill="#ffbe99"/><path d="M601.836 344.641L715 344.641" fill="none" stroke="#a9d8ed" stroke-opacity=".7" stroke-width="1" stroke-dasharray="2 3"/><circle cx="601.836" cy="344.641" r="2.5" fill="#a9d8ed"/><path d="M663.606 978.197L713 961" fill="none" stroke="#a0e5b6" stroke-opacity=".7" stroke-width="1" stroke-dasharray="2 3"/><circle cx="663.606" cy="978.197" r="2.5" fill="#a0e5b6"/><g data-callout="shooting-traps"><title>PSO World: Shooting Traps; Sakura: blue turret icon (Area 41)</title><rect data-callout-box="" x="694" y="438" width="228" height="50" rx="5" fill="#10263a" stroke="#ffbe99" stroke-opacity=".35"/><text x="702" y="458" text-anchor="start" fill="#ffbe99" font-family="system-ui,-apple-system,sans-serif" font-size="13" font-weight="650">射击陷阱：先触发并处理，再踩双机</text><text x="702" y="476" text-anchor="start" fill="#ffbe99" font-family="system-ui,-apple-system,sans-serif" font-size="13" font-weight="650">关。</text></g><g data-callout="mag-light"><title>Sakura (Area 41)</title><rect data-callout-box="" x="715" y="320" width="228" height="32" rx="5" fill="#10263a" stroke="#a9d8ed" stroke-opacity=".35"/><text x="723" y="340" text-anchor="start" fill="#a9d8ed" font-family="system-ui,-apple-system,sans-serif" font-size="13" font-weight="650">FO 放下玛古可开灯；清场后取回。</text></g><g data-callout="safe-boxes"><title>Sakura (Area 41)</title><rect data-callout-box="" x="713" y="929" width="210" height="32" rx="5" fill="#10263a" stroke="#a0e5b6" stroke-opacity=".35"/><text x="721" y="949" text-anchor="start" fill="#a0e5b6" font-family="system-ui,-apple-system,sans-serif" font-size="13" font-weight="650">这处箱子没有陷阱。</text></g>
<path d="M30 1092h34" stroke="#ffd23f" stroke-width="7" stroke-linecap="round"/><text x="74" y="1098" text-anchor="start" fill="#dff8ff" font-family="system-ui,-apple-system,sans-serif" font-size="15" font-weight="800">主路线</text><path d="M155 1092h34" stroke="#f5f7ff" stroke-width="5" stroke-linecap="round"/><text x="199" y="1098" text-anchor="start" fill="#dff8ff" font-family="system-ui,-apple-system,sans-serif" font-size="15" font-weight="800">分队路线</text><path d="M295 1092h34" stroke="#c9d6e8" stroke-width="4" stroke-linecap="round" stroke-dasharray="14 10"/><text x="339" y="1098" text-anchor="start" fill="#dff8ff" font-family="system-ui,-apple-system,sans-serif" font-size="15" font-weight="800">可选路线</text>
<g transform="translate(34 1130) scale(0.769231)" stroke="#061329" stroke-width="3" stroke-linejoin="round" filter="url(#shadow)"><path d="M-14-11H14L0 14Z" fill="#a9d8ed"/><text y="4" text-anchor="middle" font-family="system-ui,-apple-system,sans-serif" font-size="13" font-weight="950" fill="#061329" stroke="none">1</text></g><text x="54" y="1135" text-anchor="start" fill="#a9d8ed" font-family="system-ui,-apple-system,sans-serif" font-size="13" font-weight="650">传送 1→1′</text><g transform="translate(160.3 1130) scale(0.769231)" stroke="#061329" stroke-width="3" stroke-linejoin="round" filter="url(#shadow)"><circle r="9" fill="none" stroke="#a9d8ed" stroke-width="3"/><circle r="3" fill="#a9d8ed"/></g><text x="180.3" y="1135" text-anchor="start" fill="#a9d8ed" font-family="system-ui,-apple-system,sans-serif" font-size="13" font-weight="650">射击机关</text><g transform="translate(272.3 1130) scale(0.769231)" stroke="#061329" stroke-width="3" stroke-linejoin="round" filter="url(#shadow)"><rect x="-4" y="-19" width="8" height="38" rx="3" fill="#a9d8ed"/></g><text x="292.3" y="1135" text-anchor="start" fill="#a9d8ed" font-family="system-ui,-apple-system,sans-serif" font-size="13" font-weight="650">门／屏障</text><g transform="translate(384.3 1130) scale(0.769231)" stroke="#061329" stroke-width="3" stroke-linejoin="round" filter="url(#shadow)"><rect x="-13" y="-9" width="26" height="18" rx="4" fill="#a9d8ed"/><text y="4" text-anchor="middle" font-family="system-ui,-apple-system,sans-serif" font-size="11" font-weight="900" stroke="none" fill="#061329">MAG</text></g><text x="404.3" y="1135" text-anchor="start" fill="#a9d8ed" font-family="system-ui,-apple-system,sans-serif" font-size="13" font-weight="650">玛古机关</text><g transform="translate(496.3 1130) scale(0.769231)" stroke="#061329" stroke-width="3" stroke-linejoin="round" filter="url(#shadow)"><rect x="-10" y="-9" width="20" height="18" rx="4" fill="#a9d8ed"/><path d="M-10-2H10" fill="none"/></g><text x="516.3" y="1135" text-anchor="start" fill="#a9d8ed" font-family="system-ui,-apple-system,sans-serif" font-size="13" font-weight="650">箱子</text><g transform="translate(582.3 1130) scale(0.769231)" stroke="#061329" stroke-width="3" stroke-linejoin="round" filter="url(#shadow)"><circle r="10" fill="#a9d8ed"/></g><text x="602.3" y="1135" text-anchor="start" fill="#a9d8ed" font-family="system-ui,-apple-system,sans-serif" font-size="13" font-weight="650">地板机关</text><g transform="translate(694.3 1130) scale(0.769231)" stroke="#061329" stroke-width="3" stroke-linejoin="round" filter="url(#shadow)"><path d="M0-13 13 11H-13Z" fill="#a9d8ed"/><path d="M0-4V3M0 7v1" stroke-linecap="round"/></g><text x="714.3" y="1135" text-anchor="start" fill="#a9d8ed" font-family="system-ui,-apple-system,sans-serif" font-size="13" font-weight="650">陷阱</text><g transform="translate(780.3 1130) scale(0.769231)" stroke="#061329" stroke-width="3" stroke-linejoin="round" filter="url(#shadow)"><circle r="9" fill="#a9d8ed"/><path d="M0 0 14-8" stroke-width="5" stroke-linecap="round" stroke="#a9d8ed"/></g><text x="800.3" y="1135" text-anchor="start" fill="#a9d8ed" font-family="system-ui,-apple-system,sans-serif" font-size="13" font-weight="650">射击陷阱</text>
<g transform="translate(18 1160)">
  <rect width="964" height="240" rx="14" fill="#0b2745" stroke="#2c648b" stroke-width="2"/>
  <text x="24" y="34" text-anchor="start" fill="#e7f9ff" font-family="system-ui,-apple-system,sans-serif" font-size="19" font-weight="900">关键提醒</text>
  <g transform="translate(40 61)" filter="url(#shadow)"><rect x="-14" y="-14" width="28" height="28" rx="7" fill="#ff9f43" stroke="#061329" stroke-width="3"/><text x="0" y="5.6" text-anchor="middle" fill="#061329" font-family="system-ui,-apple-system,sans-serif" font-size="16" font-weight="950">1</text></g><text x="68" y="66" fill="#bcd7ea" font-family="system-ui,-apple-system,sans-serif" font-size="15" font-weight="650"><tspan x="68" dy="0">攻击中央平台四侧的机关，打开橙色门。主队进入 1→1′；箱</tspan><tspan x="68" dy="24">子可经 2→2′ 回收。</tspan></text><g transform="translate(504 61)" filter="url(#shadow)"><rect x="-14" y="-14" width="28" height="28" rx="7" fill="#ff9f43" stroke="#061329" stroke-width="3"/><text x="0" y="5.6" text-anchor="middle" fill="#061329" font-family="system-ui,-apple-system,sans-serif" font-size="16" font-weight="950">2</text></g><text x="532" y="66" fill="#bcd7ea" font-family="system-ui,-apple-system,sans-serif" font-size="15" font-weight="650"><tspan x="532" dy="0">在玛古机关放下玛古，为这里的暗房开灯；清场后记得回收。</tspan></text><g transform="translate(40 131)" filter="url(#shadow)"><rect x="-14" y="-14" width="28" height="28" rx="7" fill="#ff9f43" stroke="#061329" stroke-width="3"/><text x="0" y="5.6" text-anchor="middle" fill="#061329" font-family="system-ui,-apple-system,sans-serif" font-size="16" font-weight="950">3</text></g><text x="68" y="136" fill="#bcd7ea" font-family="system-ui,-apple-system,sans-serif" font-size="15" font-weight="650"><tspan x="68" dy="0">先触发并处理双机关的陷阱，再同时踩机关开门；下方长廊也</tspan><tspan x="68" dy="24">有陷阱。</tspan></text>
  <text x="940" y="226" text-anchor="end" fill="#7698b1" font-family="system-ui,-apple-system,sans-serif" font-size="13" font-weight="650">提示依据：PSO World · Sakura 攻略</text>
</g>
</svg>
