<svg xmlns="http://www.w3.org/2000/svg" viewBox="0 0 966 952" role="img" aria-labelledby="title desc" shape-rendering="geometricPrecision">
<title id="title">区域 04</title>
<desc id="desc">主路线.</desc>
<defs><filter id="shadow" x="-20%" y="-20%" width="140%" height="140%"><feDropShadow dx="0" dy="3" stdDeviation="4" flood-color="#000" flood-opacity=".32"/></filter></defs>
<rect width="966" height="952" rx="18" fill="#071a31"/>
<g transform="translate(0 0)">
  <g filter="url(#shadow)"><g transform="translate(0.000000,664.000000) scale(0.100000,-0.100000)"
fill="#173d60" stroke="none">
<path d="M3896 6574 c-38 -39 -37 -105 3 -145 24 -23 38 -29 74 -29 38 0 49 5
71 31 18 21 26 42 26 69 0 27 -8 48 -26 69 -22 27 -32 31 -74 31 -38 0 -53 -5
-74 -26z M4025 6193 c-33 -2 -64 -8 -69 -14 -6 -5 -16 -9 -24 -9 -20 0 -135
-52 -144 -65 -16 -22 -7 -82 29 -188 l37 -110 -57 -53 c-32 -30 -70 -56 -85
-60 -15 -3 -43 -12 -62 -19 -34 -12 -35 -14 -38 -71 l-2 -59 47 -34 c76 -54
103 -95 103 -156 0 -51 -1 -52 -41 -70 -78 -36 -78 -85 1 -219 54 -93 65 -105
103 -120 50 -19 139 -21 201 -4 41 11 47 17 71 69 14 31 29 79 35 105 20 108
48 167 109 229 32 33 62 73 65 89 4 17 16 42 27 57 25 35 25 81 0 96 -10 7
-42 52 -71 102 -28 49 -58 92 -66 95 -22 8 -16 60 11 97 64 88 70 157 21 262
l-27 57 -57 -2 c-31 -1 -84 -3 -117 -5z M7700 5716 c-19 -8 -49 -20 -67 -27
-24 -10 -37 -10 -55 -2 -13 7 -59 15 -103 18 -44 3 -107 8 -141 11 -52 5 -73
1 -145 -26 -51 -19 -95 -43 -111 -61 -25 -26 -28 -37 -28 -102 0 -56 7 -93 32
-164 l32 -91 -13 -96 c-27 -195 13 -259 179 -287 65 -10 91 -10 187 5 96 15
127 16 235 5 l124 -12 42 28 c23 15 42 31 42 36 0 4 5 42 11 85 8 63 7 93 -6
169 -18 100 -16 181 5 232 12 27 12 43 1 94 -16 81 -68 186 -95 193 -35 10
-89 6 -126 -8z M2597 4952 c-61 -64 -17 -172 71 -172 90 0 134 100 76 169 -22
27 -33 31 -73 31 -39 0 -52 -5 -74 -28z M5560 4705 l-54 -55 -201 0 -201 0
-52 -53 -52 -53 0 -285 0 -285 38 -37 38 -37 230 0 230 0 74 -75 74 -75 96 0
96 0 54 55 54 55 242 0 241 0 42 45 41 45 0 303 0 303 -43 42 -43 42 -239 0
-238 0 -63 60 -62 60 -124 0 -124 0 -54 -55z M3695 4665 c-38 -15 -82 -31 -97
-36 -15 -6 -38 -26 -52 -44 -39 -50 -36 -123 10 -250 35 -97 35 -102 25 -167
-6 -37 -11 -99 -11 -139 l0 -72 46 -43 c62 -56 132 -71 283 -58 58 5 175 8
260 6 149 -3 154 -2 191 22 37 24 38 27 45 102 4 42 5 102 1 133 -3 31 -10 94
-15 140 -8 70 -7 89 6 115 26 50 13 157 -31 244 l-36 72 -61 0 c-45 0 -77 -7
-120 -26 -54 -24 -60 -25 -82 -11 -13 8 -58 17 -107 21 -47 3 -107 8 -135 11
-39 4 -66 -1 -120 -20z M2870 4624 c-8 -3 -36 -15 -62 -26 -45 -20 -50 -20
-85 -5 -25 10 -84 18 -169 22 -129 7 -131 6 -215 -25 -115 -44 -139 -71 -139
-161 0 -50 8 -90 31 -156 29 -82 31 -93 23 -163 -4 -41 -7 -109 -6 -150 2 -75
2 -75 44 -112 58 -50 156 -73 272 -63 44 3 96 11 114 17 24 7 73 6 168 -2
l134 -13 39 28 c34 23 41 35 48 74 11 69 9 164 -7 273 -13 91 -13 101 4 149
14 38 17 64 12 107 -8 65 -61 189 -87 203 -18 9 -92 11 -119 3z M7442 3588
c-19 -29 -45 -90 -58 -135 -13 -45 -46 -121 -73 -168 -27 -48 -61 -117 -76
-153 -33 -81 -38 -89 -76 -97 -25 -6 -29 -11 -29 -40 0 -28 4 -34 28 -40 20
-4 41 -27 85 -94 32 -49 61 -98 63 -108 3 -12 -9 -31 -35 -58 l-41 -39 0 -113
0 -112 37 -26 c32 -21 49 -25 113 -25 41 0 122 -5 179 -12 l103 -12 39 42 c35
37 39 46 39 95 0 44 -4 58 -24 76 -37 35 -56 83 -56 141 0 51 0 52 78 125 58
57 90 79 130 92 50 16 52 18 52 53 0 34 -3 37 -62 66 -82 39 -112 81 -104 146
5 49 44 135 70 157 10 8 16 29 16 53 0 67 -54 121 -180 181 -58 27 -123 52
-145 54 -39 3 -41 2 -73 -49z M973 3551 l-80 -59 -6 -84 c-4 -46 -7 -120 -7
-165 l0 -83 55 0 c49 0 57 3 64 24 8 19 19 25 63 30 29 4 54 4 56 -1 1 -4 17
-35 35 -67 l32 -59 90 -33 c50 -18 111 -44 138 -59 44 -25 47 -30 47 -66 0
-38 1 -39 35 -39 28 0 35 4 35 19 0 27 88 141 109 141 9 0 49 -20 89 -45 42
-26 84 -45 101 -45 38 0 153 54 217 102 51 38 51 39 57 106 4 37 7 103 7 147
l0 80 -41 23 c-32 18 -62 25 -134 29 -89 6 -94 5 -127 -21 -19 -14 -43 -26
-52 -26 -32 0 -105 60 -145 119 -37 54 -43 59 -87 65 -26 3 -64 6 -85 6 -33 0
-40 -4 -45 -25 -7 -29 -68 -75 -99 -75 -12 0 -52 27 -91 60 -60 51 -74 59
-110 60 -35 0 -54 -9 -121 -59z M3828 3591 c-70 -28 -112 -57 -162 -112 -63
-71 -90 -143 -90 -249 -1 -77 2 -92 32 -152 41 -83 119 -158 200 -189 86 -35
207 -33 285 3 80 38 158 115 193 191 26 54 29 73 29 157 0 82 -4 103 -27 152
-36 77 -107 151 -181 188 -53 27 -70 30 -146 30 -59 -1 -101 -7 -133 -19z
M1682 2715 c-60 -28 -132 -34 -132 -11 0 10 -31 15 -137 20 -138 7 -138 7
-218 -24 -44 -17 -92 -43 -107 -58 -26 -24 -28 -32 -28 -105 0 -63 6 -96 31
-165 l31 -87 -12 -96 c-17 -128 -10 -182 26 -221 40 -41 67 -53 152 -68 58
-11 87 -11 155 0 101 15 184 17 307 7 l95 -8 40 34 39 34 1 119 c0 65 -6 158
-13 206 -11 78 -11 91 4 120 27 52 15 167 -26 250 -21 42 -41 69 -54 72 -45
12 -103 5 -154 -19z M7403 1965 c-29 -12 -33 -19 -33 -51 0 -31 7 -43 39 -71
51 -43 89 -146 72 -195 -20 -57 -13 -118 22 -183 29 -53 36 -60 72 -67 80 -16
85 -18 99 -52 25 -59 137 -79 175 -30 19 24 21 40 21 162 0 114 -4 150 -26
232 -22 84 -32 103 -75 152 -27 31 -74 70 -104 87 -50 28 -62 31 -142 31 -53
-1 -101 -6 -120 -15z M6050 1929 c-8 -17 -28 -38 -49 -49 -20 -10 -64 -44 -99
-75 -74 -67 -85 -67 -160 0 -43 39 -56 45 -93 45 -137 0 -159 -36 -170 -275
-5 -88 -6 -167 -3 -175 2 -9 29 -28 59 -43 80 -39 137 -37 212 8 47 28 68 35
110 35 46 0 56 -4 87 -35 24 -23 41 -54 52 -93 21 -74 29 -82 77 -82 78 0 113
18 157 81 36 52 45 59 74 59 35 0 121 -27 171 -54 17 -9 44 -16 60 -16 43 1
125 49 153 90 21 32 23 43 19 130 -3 52 -8 110 -12 128 -7 29 -10 32 -47 32
-57 0 -419 182 -443 223 -38 63 -76 97 -110 97 -27 0 -35 -5 -45 -31z M1429
1701 c-40 -40 -41 -102 -2 -143 60 -62 173 -19 173 67 0 43 -15 75 -35 75 -8
0 -15 7 -15 15 0 11 -12 15 -46 15 -37 0 -51 -5 -75 -29z M7150 1444 c0 -61
34 -125 88 -170 51 -42 57 -44 118 -44 l64 0 0 33 c0 26 -10 43 -52 84 -29 28
-67 58 -83 66 -17 8 -39 24 -49 36 -12 13 -31 21 -53 21 -29 0 -33 -3 -33 -26z
M9449 531 c-65 -66 -20 -171 73 -171 62 0 98 38 98 102 0 39 -5 50 -31 72 -44
37 -101 36 -140 -3z"/>
</g></g>
  <g><g transform="translate(0.000000,664.000000) scale(0.100000,-0.100000)"
fill="#8edfff" stroke="none">
<path d="M3898 6625 c-89 -49 -88 -192 2 -243 29 -17 30 -19 30 -98 0 -81 0
-82 -27 -87 -16 -3 -54 -17 -85 -31 -43 -19 -59 -32 -64 -52 -11 -45 3 -146
32 -218 l27 -69 -54 -52 c-41 -39 -64 -53 -95 -58 -65 -11 -81 -31 -88 -114
l-6 -71 49 -36 c71 -52 111 -101 111 -136 0 -23 -8 -33 -41 -52 -30 -17 -46
-35 -61 -71 l-21 -47 70 -123 c67 -115 73 -123 124 -149 30 -15 71 -27 92 -27
l37 -1 0 -95 c0 -52 -3 -95 -7 -95 -5 0 -28 6 -52 13 -57 18 -134 7 -239 -33
-63 -25 -88 -40 -112 -70 -28 -35 -30 -44 -30 -118 0 -65 6 -96 34 -173 34
-94 34 -95 21 -169 -8 -48 -10 -102 -6 -149 7 -73 8 -75 55 -117 43 -37 58
-44 137 -59 59 -12 109 -15 144 -11 l55 6 0 -89 0 -88 -48 -5 c-143 -14 -302
-158 -331 -301 l-7 -32 -427 -3 -427 -2 0 240 0 240 23 0 c12 0 80 -7 151 -14
l129 -14 49 35 c26 19 48 38 48 41 1 4 7 49 14 101 11 75 11 105 1 155 -27
131 -28 162 -6 221 19 51 20 63 10 123 -7 38 -28 100 -50 144 -36 72 -42 78
-81 89 -52 14 -106 6 -168 -26 -42 -21 -50 -22 -66 -10 -11 8 -27 15 -36 15
-26 0 -27 110 -1 110 9 0 31 11 49 25 66 51 68 148 5 209 -42 40 -115 47 -164
17 -82 -51 -89 -169 -12 -229 22 -17 25 -28 25 -77 l0 -58 -37 9 c-118 26
-305 -21 -370 -93 -32 -35 -33 -39 -33 -125 0 -74 5 -104 31 -179 31 -87 31
-91 20 -165 -8 -46 -10 -104 -6 -150 7 -73 8 -75 55 -114 41 -34 63 -44 141
-61 76 -16 101 -18 141 -9 27 5 51 10 53 10 3 0 5 -103 5 -230 l0 -230 -180 0
c-113 0 -180 -4 -180 -10 0 -6 70 -10 190 -10 l190 0 0 250 0 250 -22 0 c-13
0 -41 -5 -63 -10 -64 -15 -206 21 -260 65 -40 33 -43 39 -49 100 -4 37 -1 101
6 149 12 84 11 85 -20 178 -25 73 -32 109 -32 168 0 68 3 79 28 107 18 21 55
42 111 63 88 33 151 39 249 25 l52 -8 0 76 c0 69 -2 76 -25 91 -63 41 -69 129
-14 182 41 39 114 42 153 5 74 -70 45 -173 -56 -205 -25 -8 -27 -146 -3 -146
9 0 29 -7 45 -15 27 -14 33 -14 67 3 69 34 125 45 171 32 38 -10 45 -17 73
-72 17 -33 36 -92 44 -131 12 -66 12 -74 -7 -126 -20 -52 -20 -60 -7 -146 15
-100 18 -216 6 -286 -7 -39 -14 -51 -48 -75 l-41 -28 -136 12 c-75 7 -147 9
-159 6 l-23 -6 0 -254 0 -254 444 0 445 0 16 58 c9 31 27 75 40 98 53 91 173
170 279 183 l51 6 3 113 c2 105 1 113 -15 108 -56 -16 -116 -16 -194 -1 -70
14 -92 23 -129 55 -43 36 -45 40 -50 106 -4 40 -1 101 7 146 l13 76 -35 99
c-27 76 -35 114 -35 166 0 96 22 123 138 168 91 36 164 42 260 24 l42 -8 0
123 0 122 -36 -6 c-26 -5 -50 -1 -90 15 -54 23 -57 26 -124 142 l-68 118 17
41 c12 30 27 45 59 61 39 20 42 24 42 62 0 51 -32 96 -107 150 l-51 37 5 57
c7 77 6 76 54 90 70 20 104 40 147 84 l41 42 -34 100 c-33 95 -44 177 -27 200
8 12 117 61 147 67 18 3 20 12 23 103 l3 100 -30 12 c-34 12 -71 66 -71 101 0
71 64 128 132 119 104 -14 139 -142 58 -211 -29 -24 -30 -27 -30 -115 l0 -90
99 6 98 6 28 -59 c48 -103 46 -194 -5 -260 -40 -49 -48 -83 -26 -100 10 -7 41
-52 69 -101 35 -58 62 -93 82 -103 58 -30 58 -28 11 -81 -24 -27 -48 -64 -51
-82 -4 -20 -29 -54 -66 -92 -61 -62 -89 -120 -109 -229 -6 -26 -22 -74 -36
-106 -23 -51 -30 -59 -60 -65 l-34 -6 0 -124 c0 -112 2 -125 18 -125 9 0 25
-7 36 -15 16 -12 23 -12 50 2 68 36 135 50 178 39 36 -10 44 -17 73 -76 18
-36 38 -97 45 -136 12 -65 11 -74 -9 -118 -11 -27 -18 -52 -15 -57 3 -5 140
-9 305 -9 l299 0 0 123 0 123 53 52 53 52 200 0 200 0 54 55 54 55 134 0 134
0 62 -60 63 -60 238 0 239 0 43 -42 43 -42 0 -128 0 -128 275 0 c212 0 277 3
279 13 3 6 12 38 22 70 43 144 153 235 327 272 l27 5 0 109 0 109 -70 -14
c-63 -12 -79 -11 -155 5 -81 18 -121 38 -157 78 -25 28 -33 120 -18 222 l13
89 -32 87 c-25 71 -31 101 -31 170 0 79 2 87 28 114 30 32 158 84 232 95 29 4
63 1 95 -9 28 -8 79 -15 115 -15 37 0 71 -5 78 -12 9 -9 23 -7 59 10 89 39
121 45 167 32 38 -10 46 -18 71 -68 53 -108 69 -212 40 -262 -19 -33 -19 -99
1 -201 10 -55 14 -105 9 -144 -14 -129 -15 -132 -59 -161 l-41 -27 -136 12
c-74 6 -143 9 -152 5 -15 -6 -17 -20 -15 -116 l3 -110 66 -17 c37 -9 86 -29
109 -45 34 -22 41 -24 38 -10 -4 21 -107 74 -159 81 l-39 6 0 94 c0 66 4 95
13 98 6 3 72 -1 146 -9 l134 -14 48 35 c44 32 48 38 56 91 12 86 9 187 -7 285
-12 77 -12 92 0 120 9 20 15 63 14 113 0 74 -4 89 -41 166 -39 82 -42 85 -86
98 -54 15 -101 8 -174 -25 -30 -13 -55 -20 -58 -14 -4 5 -36 9 -73 9 -37 0
-89 7 -117 16 -65 20 -136 12 -243 -29 -58 -22 -92 -41 -113 -64 -28 -32 -29
-38 -29 -128 0 -79 5 -107 31 -180 29 -84 30 -89 18 -161 -17 -105 -7 -209 23
-241 44 -47 80 -65 166 -85 81 -17 105 -18 185 -2 l28 6 -3 -88 -3 -88 -45 -8
c-145 -25 -288 -166 -315 -310 l-7 -38 -259 0 -259 0 0 123 0 123 -48 47 -48
47 -240 0 -240 0 -59 60 -59 60 -146 0 -146 0 -54 -55 -54 -55 -200 0 -200 0
-58 -57 -58 -57 0 -118 0 -118 -281 0 c-264 0 -281 1 -274 18 37 87 26 185
-33 296 -34 63 -41 71 -82 83 -50 15 -102 6 -173 -29 -33 -17 -42 -17 -68 -6
l-29 13 0 103 0 103 31 6 c38 7 71 69 99 182 34 134 47 163 109 226 39 39 62
72 66 94 5 22 25 52 57 84 48 48 49 50 31 69 -10 11 -32 26 -50 33 -23 10 -43
33 -76 92 -25 43 -54 88 -66 101 -27 29 -27 31 9 74 40 48 50 78 50 149 0 45
-8 78 -32 135 l-33 76 -97 -4 -98 -3 0 69 c0 64 2 71 34 106 64 71 54 166 -23
217 -39 27 -102 30 -143 8z M4390 4251 c0 -11 7 -52 15 -91 12 -59 13 -87 3
-166 l-11 -95 -43 -30 -43 -29 -134 12 c-73 6 -141 9 -150 5 -15 -5 -17 -22
-17 -122 0 -114 0 -115 23 -115 41 0 143 -58 190 -109 187 -200 127 -513 -120
-629 -79 -37 -218 -38 -305 -3 -116 45 -222 180 -235 296 l-6 45 -653 0 c-429
0 -654 -3 -654 -10 0 -7 221 -10 644 -10 l643 0 6 -45 c9 -61 49 -138 104
-196 87 -93 193 -134 327 -127 102 5 175 37 250 108 169 160 176 415 15 585
-51 54 -152 115 -191 115 -16 0 -18 10 -18 101 l0 102 83 -7 c45 -3 111 -8
147 -11 62 -6 67 -5 111 28 l46 35 12 103 c10 89 10 115 -3 177 -9 40 -16 75
-16 78 0 2 126 4 280 4 l280 0 0 -147 0 -147 42 -43 42 -43 226 0 226 0 74
-75 74 -75 121 0 121 0 54 55 54 55 241 0 241 0 47 48 47 48 0 162 0 162 259
0 258 0 6 -45 c16 -146 155 -290 318 -327 27 -6 49 -15 49 -20 0 -4 5 -8 10
-8 6 0 10 8 10 18 0 14 -13 21 -57 30 -162 34 -292 167 -310 320 l-6 52 -278
0 -279 0 0 -165 0 -165 -41 -45 -42 -45 -241 0 -242 0 -54 -55 -54 -55 -106 0
-106 0 -74 75 -74 75 -231 0 -231 0 -37 38 -37 38 0 152 0 152 -300 0 c-290 0
-300 -1 -300 -19z M7428 3753 c40 -4 42 -6 42 -38 0 -20 -6 -35 -15 -39 -8 -3
-15 -12 -15 -19 0 -8 -14 -33 -30 -56 -17 -23 -42 -80 -55 -126 -14 -46 -49
-127 -79 -180 -30 -53 -64 -123 -76 -156 -21 -56 -25 -60 -72 -77 -53 -18 -68
-39 -68 -91 0 -25 5 -29 53 -40 51 -11 53 -13 106 -97 l54 -86 -37 -37 -36
-37 0 -135 0 -134 55 -33 c53 -32 56 -32 135 -26 l80 7 0 -172 0 -171 -33 0
c-31 0 -77 -25 -146 -78 l-23 -19 76 -63 c65 -54 78 -70 92 -115 16 -49 16
-56 0 -100 -23 -68 -21 -75 28 -174 l45 -89 53 -6 c62 -8 68 -11 90 -51 11
-21 31 -35 65 -47 76 -27 110 -23 149 16 l34 34 0 101 0 101 260 0 c201 0 260
3 260 13 0 9 -59 11 -270 9 l-270 -3 0 -104 c0 -97 -2 -105 -26 -134 -29 -35
-48 -38 -123 -15 -44 13 -55 21 -67 49 -14 35 -19 37 -99 53 -38 7 -42 12 -83
90 l-43 83 20 60 20 59 -21 61 c-17 51 -29 68 -82 111 -33 28 -61 56 -61 61 0
21 84 69 129 74 l46 6 0 190 0 190 -89 -6 c-86 -5 -91 -5 -135 23 l-46 30 0
122 0 122 40 41 41 41 -63 97 c-60 92 -65 97 -110 108 -27 6 -48 16 -48 22 1
39 14 56 56 67 53 15 55 18 89 102 15 36 49 105 76 153 27 47 60 124 74 170
13 46 38 103 55 126 16 23 30 48 30 56 0 7 7 13 15 13 11 0 15 12 15 45 0 38
3 45 20 45 17 0 20 -7 20 -48 l0 -48 58 -24 c141 -57 185 -86 243 -157 l57
-69 -35 -39 c-44 -51 -81 -123 -89 -172 -10 -63 44 -119 158 -165 4 -2 11 -23
14 -48 l6 -46 -52 -13 c-43 -11 -68 -28 -136 -90 -79 -73 -83 -78 -84 -119 0
-50 20 -99 56 -133 20 -19 24 -32 24 -86 0 -59 -3 -66 -37 -104 l-38 -42 -72
6 -73 5 0 -184 0 -184 45 0 c61 0 141 -46 204 -118 44 -50 53 -68 77 -159 l27
-102 273 -3 c212 -2 275 0 279 10 3 9 -54 12 -265 12 l-269 0 -11 43 c-39 148
-42 156 -96 216 -66 72 -148 121 -204 121 l-40 0 0 163 0 162 70 -3 71 -4 39
44 c38 42 39 44 40 122 0 73 -2 80 -26 99 -31 24 -54 74 -54 117 0 25 13 43
70 98 56 53 84 71 133 88 68 23 73 30 62 101 -6 44 -8 46 -71 74 -76 34 -108
76 -98 124 10 45 42 104 85 156 22 25 39 49 39 53 0 4 -28 42 -62 84 -58 70
-70 79 -163 122 -55 26 -108 50 -117 53 -13 5 -18 17 -18 46 l0 40 68 4 c37 2
0 3 -83 3 -82 0 -131 -1 -107 -3z M1068 3645 c-26 -7 -81 -38 -126 -71 l-79
-59 -8 -107 -7 -108 -74 0 c-43 0 -74 -4 -74 -10 0 -6 35 -10 84 -10 l84 0 7
111 7 110 80 59 c57 43 91 61 123 66 43 6 46 5 121 -60 43 -36 82 -66 88 -66
27 0 85 51 91 81 7 30 8 31 49 25 22 -3 65 -9 94 -12 51 -6 55 -9 93 -65 34
-50 112 -119 135 -119 4 0 21 11 38 23 17 13 48 27 70 31 54 10 172 -12 225
-42 l43 -25 -6 -59 c-6 -47 -4 -58 7 -58 19 0 27 22 27 74 0 28 -6 48 -17 58
-59 51 -195 86 -280 73 -26 -4 -61 -17 -77 -30 l-30 -23 -41 28 c-23 16 -59
56 -80 88 l-39 59 -92 12 c-132 16 -129 16 -140 -25 -6 -22 -20 -42 -39 -54
l-31 -19 -82 69 c-45 39 -85 70 -89 69 -4 0 -29 -7 -55 -14z M450 3255 c0 -35
6 -51 31 -80 43 -49 95 -63 152 -41 24 9 54 28 67 41 20 21 32 25 86 25 l63 0
3 -32 c3 -33 4 -33 68 -40 79 -9 98 -4 106 28 5 19 13 24 38 24 30 0 35 -5 61
-60 28 -59 29 -59 104 -86 42 -14 100 -37 129 -51 44 -21 52 -29 52 -51 0 -15
9 -40 19 -55 10 -16 16 -38 13 -49 -3 -12 3 -24 17 -34 11 -8 21 -22 21 -31 0
-13 -7 -14 -47 -7 -93 16 -172 8 -265 -29 -53 -21 -97 -46 -112 -63 -23 -27
-25 -37 -26 -130 0 -87 4 -111 30 -181 29 -80 29 -83 16 -155 -8 -48 -10 -100
-5 -150 7 -72 10 -79 44 -110 51 -45 67 -52 165 -72 67 -14 95 -15 130 -7 70
16 70 16 70 -36 0 -45 -2 -49 -37 -68 -104 -56 -109 -185 -11 -245 107 -65
238 44 198 165 -7 20 -20 41 -31 48 -16 10 -19 24 -19 77 0 36 4 70 8 77 6 9
36 9 132 -1 l125 -14 51 35 51 34 13 99 c11 86 10 111 -5 194 -18 98 -16 140
6 213 18 59 -1 163 -45 252 -32 63 -38 69 -80 81 -55 15 -99 9 -170 -23 -67
-31 -82 -22 -89 53 -3 30 -8 66 -12 80 -5 20 2 37 32 78 21 28 42 52 47 52 5
0 42 -20 82 -45 39 -25 84 -45 99 -45 40 0 182 67 246 116 54 41 57 46 61 96
3 29 9 61 13 71 5 12 3 17 -8 17 -15 0 -27 -40 -27 -95 0 -28 -8 -39 -52 -72
-57 -43 -203 -113 -234 -113 -11 0 -55 23 -99 50 -44 28 -83 50 -86 50 -4 0
-28 -28 -54 -62 -42 -55 -46 -66 -40 -98 4 -19 9 -68 12 -107 2 -40 9 -73 14
-73 5 0 9 5 9 10 0 6 7 6 18 -1 14 -9 27 -7 58 9 69 35 122 45 169 32 37 -10
45 -18 73 -76 18 -36 38 -96 44 -134 11 -64 10 -74 -9 -120 -18 -43 -20 -59
-13 -118 5 -37 14 -89 20 -117 8 -36 8 -73 -1 -142 -11 -92 -12 -94 -52 -125
l-40 -32 -131 12 c-159 15 -156 16 -156 -104 0 -72 2 -82 19 -87 12 -3 24 -20
31 -44 35 -115 -107 -200 -192 -115 -61 61 -40 157 42 189 l40 16 0 67 c0 37
-2 69 -5 72 -3 3 -35 -1 -72 -8 -58 -11 -77 -10 -148 5 -94 21 -110 28 -149
70 -25 26 -30 41 -34 93 -3 34 1 98 7 142 12 79 12 83 -18 168 -26 72 -31 102
-31 175 0 84 2 91 28 116 15 14 64 40 110 57 88 34 140 39 250 25 l62 -8 0 36
c0 26 -6 39 -20 47 -11 6 -17 16 -14 25 3 8 -4 31 -17 51 -18 29 -20 40 -11
55 10 15 5 21 -36 44 -26 15 -87 41 -137 59 l-90 33 -32 59 c-18 32 -34 62
-35 66 -2 4 -22 4 -46 1 -33 -4 -45 -12 -55 -32 -7 -14 -20 -26 -30 -25 -9 0
-37 1 -62 2 -44 2 -45 2 -45 37 l0 35 -83 0 c-72 0 -84 -2 -95 -21 -7 -11 -33
-30 -58 -40 -37 -17 -50 -18 -78 -9 -49 16 -78 52 -83 104 -7 59 -23 60 -23 1z
M6079 2014 c-26 -11 -42 -27 -54 -53 -10 -23 -29 -44 -48 -54 -18 -8 -57 -38
-89 -66 -31 -28 -61 -51 -66 -51 -5 0 -32 20 -60 45 -48 43 -53 45 -112 45
-33 0 -81 -5 -105 -11 -41 -10 -45 -14 -72 -77 -20 -49 -28 -83 -28 -129 l0
-63 -77 0 c-43 0 -78 4 -78 9 0 15 -41 61 -50 56 -5 -3 3 -23 17 -45 l27 -40
91 0 92 0 0 68 c-1 50 5 83 24 127 28 70 53 83 155 84 55 1 63 -2 90 -30 16
-17 44 -39 62 -51 l32 -20 63 57 c34 32 77 64 95 73 20 10 42 32 53 55 11 21
31 43 45 49 24 11 29 9 60 -28 18 -21 46 -57 60 -80 24 -35 49 -52 220 -137
149 -75 202 -97 233 -97 34 0 41 -3 41 -19 0 -51 -2 -51 211 -51 l199 0 0 50
c0 44 3 52 25 62 14 6 28 8 33 4 4 -4 7 -40 7 -80 0 -71 1 -73 44 -124 24 -29
58 -60 75 -69 17 -8 63 -46 102 -84 40 -38 76 -69 81 -69 5 0 24 -11 43 -25
l34 -25 -136 0 -136 0 -54 44 c-49 41 -56 51 -92 150 l-38 106 -190 0 -189 0
7 -58 c10 -90 -24 -146 -113 -191 -50 -25 -107 -27 -148 -5 -44 24 -135 54
-161 54 -16 0 -34 -16 -64 -58 -35 -51 -48 -61 -94 -75 -106 -34 -132 -21
-160 75 -11 39 -28 70 -52 93 -48 49 -97 48 -179 -1 -85 -52 -126 -54 -214
-14 -80 37 -87 50 -78 131 l6 49 -99 0 c-76 0 -100 -3 -100 -13 0 -19 -39 -53
-75 -67 -41 -16 -104 9 -129 51 -15 25 -17 44 -13 93 6 55 5 59 -8 42 -9 -12
-15 -41 -15 -70 0 -69 26 -109 84 -131 60 -23 111 -10 155 40 29 34 33 35 103
35 l73 0 -3 -45 c-7 -81 1 -93 84 -132 97 -46 150 -44 239 10 36 22 73 37 92
37 45 0 89 -47 109 -118 30 -104 68 -123 177 -90 64 19 71 24 110 80 48 68 51
69 160 22 87 -38 153 -42 208 -13 66 33 91 55 112 102 19 41 23 91 12 129 -6
18 1 18 166 16 l172 -3 39 -105 c35 -93 44 -108 81 -135 l42 -30 -145 -5
c-111 -5 -75 -6 155 -8 165 -1 306 2 313 7 10 6 4 14 -20 33 -18 14 -44 31
-58 38 -14 7 -56 43 -95 80 -38 37 -79 71 -91 74 -11 3 -41 30 -67 60 -45 52
-46 55 -40 104 5 48 -10 122 -27 122 -4 0 -24 -7 -44 -15 -35 -15 -36 -17 -36
-65 l0 -50 -182 2 -183 3 -5 30 c-5 27 -9 30 -52 35 -31 3 -108 35 -231 94
-165 80 -187 94 -210 130 -15 23 -46 62 -69 88 l-43 47 -36 -15z M8460 1157
l0 -327 -126 0 c-163 0 -195 -9 -239 -72 -33 -45 -35 -52 -35 -131 0 -130 2
-127 -91 -127 -64 0 -80 3 -88 17 -12 23 -25 11 -16 -16 6 -19 14 -21 104 -21
l99 0 6 31 c3 17 6 67 6 110 0 72 3 83 31 122 17 23 40 46 52 51 12 6 87 12
167 15 l145 6 3 324 c1 210 -1 328 -8 335 -7 7 -10 -96 -10 -317z M8520 1145
l0 -325 144 0 c120 0 152 -3 189 -19 l45 -19 17 -96 c16 -86 16 -99 2 -128 -8
-18 -18 -43 -22 -55 l-6 -23 258 0 258 0 15 33 c22 47 80 73 129 58 58 -17 86
-53 86 -112 0 -42 -5 -53 -33 -81 -26 -27 -40 -33 -75 -33 -52 0 -95 26 -110
66 l-11 29 -265 0 -264 0 6 -54 c5 -55 27 -111 34 -89 2 6 -3 28 -12 49 -8 20
-13 45 -9 56 5 17 21 18 247 18 l242 0 17 -30 c46 -81 159 -93 223 -24 21 23
25 37 25 94 0 59 -3 69 -27 92 -16 14 -38 31 -50 37 -52 26 -129 2 -165 -53
l-23 -36 -233 0 -233 0 6 23 c4 12 11 26 16 32 13 13 10 58 -9 159 l-17 88
-50 19 c-40 15 -77 19 -187 19 l-138 0 0 315 c0 203 -4 315 -10 315 -6 0 -10
-115 -10 -325z M7650 530 c-46 -65 -35 -139 30 -194 62 -51 169 -26 204 49
l17 35 74 0 75 0 0 -91 c0 -57 4 -88 10 -84 6 3 10 48 10 101 l0 94 -93 0 -93
0 -17 -38 c-45 -103 -186 -91 -218 19 -10 32 -8 43 11 83 28 54 21 70 -10 26z"/>
</g></g>
  <g><g transform="translate(0.000000,664.000000) scale(0.100000,-0.100000)"
fill="#ff5c72" stroke="none">
<path d="M3970 4291 c0 -5 9 -7 20 -4 11 3 20 7 20 9 0 2 -9 4 -20 4 -11 0
-20 -4 -20 -9z M4073 4293 c9 -2 25 -2 35 0 9 3 1 5 -18 5 -19 0 -27 -2 -17
-5z M4183 4293 c9 -2 25 -2 35 0 9 3 1 5 -18 5 -19 0 -27 -2 -17 -5z M4293
4293 c9 -2 23 -2 30 0 6 3 -1 5 -18 5 -16 0 -22 -2 -12 -5z M4403 4293 c9 -2
23 -2 30 0 6 3 -1 5 -18 5 -16 0 -22 -2 -12 -5z M4513 4293 c9 -2 23 -2 30 0
6 3 -1 5 -18 5 -16 0 -22 -2 -12 -5z M4613 4293 c9 -2 25 -2 35 0 9 3 1 5 -18
5 -19 0 -27 -2 -17 -5z M4723 4293 c9 -2 25 -2 35 0 9 3 1 5 -18 5 -19 0 -27
-2 -17 -5z M4833 4293 c9 -2 23 -2 30 0 6 3 -1 5 -18 5 -16 0 -22 -2 -12 -5z
M4943 4293 c9 -2 23 -2 30 0 6 3 -1 5 -18 5 -16 0 -22 -2 -12 -5z M5055 4290
c27 -12 35 -12 35 0 0 6 -12 10 -27 9 -25 0 -26 -1 -8 -9z M5140 4290 c0 -5
14 -10 30 -10 17 0 30 5 30 10 0 6 -13 10 -30 10 -16 0 -30 -4 -30 -10z M5250
4290 c0 -5 14 -10 30 -10 17 0 30 5 30 10 0 6 -13 10 -30 10 -16 0 -30 -4 -30
-10z M5360 4290 c0 -5 11 -10 25 -10 14 0 25 5 25 10 0 6 -11 10 -25 10 -14 0
-25 -4 -25 -10z M5470 4290 c0 -5 11 -10 25 -10 14 0 25 5 25 10 0 6 -11 10
-25 10 -14 0 -25 -4 -25 -10z M5580 4290 c0 -5 11 -10 25 -10 14 0 25 5 25 10
0 6 -11 10 -25 10 -14 0 -25 -4 -25 -10z M5680 4290 c0 -5 14 -10 30 -10 17 0
30 5 30 10 0 6 -13 10 -30 10 -16 0 -30 -4 -30 -10z M5790 4290 c0 -5 14 -10
30 -10 17 0 30 5 30 10 0 6 -13 10 -30 10 -16 0 -30 -4 -30 -10z M5900 4290
c0 -5 11 -10 25 -10 14 0 25 5 25 10 0 6 -11 10 -25 10 -14 0 -25 -4 -25 -10z
M6010 4290 c0 -5 11 -10 25 -10 14 0 25 5 25 10 0 6 -11 10 -25 10 -14 0 -25
-4 -25 -10z M6120 4290 c0 -5 11 -10 25 -10 14 0 25 5 25 10 0 6 -11 10 -25
10 -14 0 -25 -4 -25 -10z M6220 4290 c0 -5 14 -10 30 -10 17 0 30 5 30 10 0 6
-13 10 -30 10 -16 0 -30 -4 -30 -10z M6330 4290 c0 -5 14 -10 30 -10 17 0 30
5 30 10 0 6 -13 10 -30 10 -16 0 -30 -4 -30 -10z M6440 4290 c0 -5 11 -10 25
-10 14 0 25 5 25 10 0 6 -11 10 -25 10 -14 0 -25 -4 -25 -10z M6563 4283 c9
-2 23 -2 30 0 6 3 -1 5 -18 5 -16 0 -22 -2 -12 -5z M6673 4283 c9 -2 23 -2 30
0 6 3 -1 5 -18 5 -16 0 -22 -2 -12 -5z M6773 4283 c9 -2 25 -2 35 0 9 3 1 5
-18 5 -19 0 -27 -2 -17 -5z M6883 4283 c9 -2 25 -2 35 0 9 3 1 5 -18 5 -19 0
-27 -2 -17 -5z M6993 4283 c9 -2 23 -2 30 0 6 3 -1 5 -18 5 -16 0 -22 -2 -12
-5z M7103 4283 c9 -2 23 -2 30 0 6 3 -1 5 -18 5 -16 0 -22 -2 -12 -5z M7213
4283 c9 -2 23 -2 30 0 6 3 -1 5 -18 5 -16 0 -22 -2 -12 -5z M7313 4283 c9 -2
25 -2 35 0 9 3 1 5 -18 5 -19 0 -27 -2 -17 -5z M7423 4283 c9 -2 25 -2 35 0 9
3 1 5 -18 5 -19 0 -27 -2 -17 -5z M7502 4240 c0 -19 2 -27 5 -17 2 9 2 25 0
35 -3 9 -5 1 -5 -18z M3972 4195 c0 -16 2 -22 5 -12 2 9 2 23 0 30 -3 6 -5 -1
-5 -18z M7502 4130 c0 -19 2 -27 5 -17 2 9 2 25 0 35 -3 9 -5 1 -5 -18z M3967
4113 c-11 -10 -8 -53 3 -53 6 0 10 14 10 30 0 31 -2 35 -13 23z M7502 4025 c0
-16 2 -22 5 -12 2 9 2 23 0 30 -3 6 -5 -1 -5 -18z M3960 3980 c0 -16 5 -30 10
-30 6 0 10 14 10 30 0 17 -4 30 -10 30 -5 0 -10 -13 -10 -30z M7502 3915 c0
-16 2 -22 5 -12 2 9 2 23 0 30 -3 6 -5 -1 -5 -18z M3960 3875 c0 -14 5 -25 10
-25 6 0 10 11 10 25 0 14 -4 25 -10 25 -5 0 -10 -11 -10 -25z M3960 3765 c0
-14 5 -25 10 -25 6 0 10 11 10 25 0 14 -4 25 -10 25 -5 0 -10 -11 -10 -25z
M7502 3700 c0 -19 2 -27 5 -17 2 9 2 25 0 35 -3 9 -5 1 -5 -18z M3960 3655 c0
-14 2 -25 4 -25 2 0 6 11 8 25 3 14 1 25 -3 25 -5 0 -9 -11 -9 -25z M7502
3590 c0 -19 2 -27 5 -17 2 9 2 25 0 35 -3 9 -5 1 -5 -18z M3962 3550 c0 -19 2
-27 5 -17 2 9 2 25 0 35 -3 9 -5 1 -5 -18z M7502 3485 c0 -16 2 -22 5 -12 2 9
2 23 0 30 -3 6 -5 -1 -5 -18z M3962 3440 c0 -19 2 -27 5 -17 2 9 2 25 0 35 -3
9 -5 1 -5 -18z M7502 3375 c0 -16 2 -22 5 -12 2 9 2 23 0 30 -3 6 -5 -1 -5
-18z M3962 3335 c0 -16 2 -22 5 -12 2 9 2 23 0 30 -3 6 -5 -1 -5 -18z M7502
3265 c0 -16 2 -22 5 -12 2 9 2 23 0 30 -3 6 -5 -1 -5 -18z M560 3250 c0 -5 11
-10 25 -10 14 0 25 5 25 10 0 6 -11 10 -25 10 -14 0 -25 -4 -25 -10z M670
3250 c0 -5 11 -10 25 -10 14 0 25 5 25 10 0 6 -11 10 -25 10 -14 0 -25 -4 -25
-10z M780 3250 c0 -5 11 -10 25 -10 14 0 25 5 25 10 0 6 -11 10 -25 10 -14 0
-25 -4 -25 -10z M880 3250 c0 -5 14 -10 30 -10 17 0 30 5 30 10 0 6 -13 10
-30 10 -16 0 -30 -4 -30 -10z M990 3250 c0 -5 14 -10 30 -10 17 0 30 5 30 10
0 6 -13 10 -30 10 -16 0 -30 -4 -30 -10z M1100 3250 c0 -5 11 -10 25 -10 14 0
25 5 25 10 0 6 -11 10 -25 10 -14 0 -25 -4 -25 -10z M1210 3250 c0 -5 11 -10
25 -10 14 0 25 5 25 10 0 6 -11 10 -25 10 -14 0 -25 -4 -25 -10z M1320 3250
c0 -5 11 -10 25 -10 14 0 25 5 25 10 0 6 -11 10 -25 10 -14 0 -25 -4 -25 -10z
M1420 3250 c0 -5 14 -10 30 -10 17 0 30 5 30 10 0 6 -13 10 -30 10 -16 0 -30
-4 -30 -10z M1530 3250 c0 -5 14 -10 30 -10 17 0 30 5 30 10 0 6 -13 10 -30
10 -16 0 -30 -4 -30 -10z M1640 3250 c0 -5 11 -10 25 -10 14 0 25 5 25 10 0 6
-11 10 -25 10 -14 0 -25 -4 -25 -10z M1750 3250 c0 -5 11 -10 25 -10 14 0 25
5 25 10 0 6 -11 10 -25 10 -14 0 -25 -4 -25 -10z M1860 3250 c0 -5 11 -10 25
-10 14 0 25 5 25 10 0 6 -11 10 -25 10 -14 0 -25 -4 -25 -10z M1960 3250 c0
-5 14 -10 30 -10 17 0 30 5 30 10 0 6 -13 10 -30 10 -16 0 -30 -4 -30 -10z
M2070 3250 c0 -5 14 -10 30 -10 17 0 30 5 30 10 0 6 -13 10 -30 10 -16 0 -30
-4 -30 -10z M2180 3250 c0 -5 11 -10 25 -10 14 0 25 5 25 10 0 6 -11 10 -25
10 -14 0 -25 -4 -25 -10z M2290 3250 c0 -5 11 -10 25 -10 14 0 25 5 25 10 0 6
-11 10 -25 10 -14 0 -25 -4 -25 -10z M2400 3250 c0 -5 11 -10 25 -10 14 0 25
5 25 10 0 6 -11 10 -25 10 -14 0 -25 -4 -25 -10z M2500 3250 c0 -5 14 -10 30
-10 17 0 30 5 30 10 0 6 -13 10 -30 10 -16 0 -30 -4 -30 -10z M2610 3250 c0
-5 14 -10 30 -10 17 0 30 5 30 10 0 6 -13 10 -30 10 -16 0 -30 -4 -30 -10z
M2720 3250 c0 -5 11 -10 25 -10 14 0 25 5 25 10 0 6 -11 10 -25 10 -14 0 -25
-4 -25 -10z M2830 3250 c0 -5 11 -10 25 -10 14 0 25 5 25 10 0 6 -11 10 -25
10 -14 0 -25 -4 -25 -10z M2940 3250 c0 -5 11 -10 25 -10 14 0 25 5 25 10 0 6
-11 10 -25 10 -14 0 -25 -4 -25 -10z M3040 3250 c0 -5 14 -10 30 -10 17 0 30
5 30 10 0 6 -13 10 -30 10 -16 0 -30 -4 -30 -10z M3150 3250 c0 -5 14 -10 30
-10 17 0 30 5 30 10 0 6 -13 10 -30 10 -16 0 -30 -4 -30 -10z M3260 3250 c0
-5 11 -10 25 -10 14 0 25 5 25 10 0 6 -11 10 -25 10 -14 0 -25 -4 -25 -10z
M3370 3250 c0 -5 11 -10 25 -10 14 0 25 5 25 10 0 6 -11 10 -25 10 -14 0 -25
-4 -25 -10z M3480 3250 c0 -5 11 -10 25 -10 14 0 25 5 25 10 0 6 -11 10 -25
10 -14 0 -25 -4 -25 -10z M3580 3250 c0 -5 14 -10 30 -10 17 0 30 5 30 10 0 6
-13 10 -30 10 -16 0 -30 -4 -30 -10z M3690 3250 c0 -5 14 -10 30 -10 17 0 30
5 30 10 0 6 -13 10 -30 10 -16 0 -30 -4 -30 -10z M3800 3250 c0 -5 11 -10 25
-10 14 0 25 5 25 10 0 6 -11 10 -25 10 -14 0 -25 -4 -25 -10z M3910 3250 c0
-5 11 -10 25 -10 14 0 25 5 25 10 0 6 -11 10 -25 10 -14 0 -25 -4 -25 -10z
M7502 3160 c0 -19 2 -27 5 -17 2 9 2 25 0 35 -3 9 -5 1 -5 -18z M7502 3050 c0
-19 2 -27 5 -17 2 9 2 25 0 35 -3 9 -5 1 -5 -18z M7502 2945 c0 -16 2 -22 5
-12 2 9 2 23 0 30 -3 6 -5 -1 -5 -18z M7502 2835 c0 -16 2 -22 5 -12 2 9 2 23
0 30 -3 6 -5 -1 -5 -18z M7502 2725 c0 -16 2 -22 5 -12 2 9 2 23 0 30 -3 6 -5
-1 -5 -18z M7502 2620 c0 -19 2 -27 5 -17 2 9 2 25 0 35 -3 9 -5 1 -5 -18z
M7502 2510 c0 -19 2 -27 5 -17 2 9 2 25 0 35 -3 9 -5 1 -5 -18z M7502 2405 c0
-16 2 -22 5 -12 2 9 2 23 0 30 -3 6 -5 -1 -5 -18z M7502 2295 c0 -16 2 -22 5
-12 2 9 2 23 0 30 -3 6 -5 -1 -5 -18z M7502 2185 c0 -16 2 -22 5 -12 2 9 2 23
0 30 -3 6 -5 -1 -5 -18z M7502 2080 c0 -19 2 -27 5 -17 2 9 2 25 0 35 -3 9 -5
1 -5 -18z M7502 1970 c0 -19 2 -27 5 -17 2 9 2 25 0 35 -3 9 -5 1 -5 -18z
M7502 1865 c0 -16 2 -22 5 -12 2 9 2 23 0 30 -3 6 -5 -1 -5 -18z M5123 1833
c-51 -2 -93 -5 -93 -8 0 -2 9 -24 20 -50 11 -26 20 -49 20 -51 0 -2 -9 -4 -20
-4 -11 0 -20 -3 -20 -7 0 -5 26 -61 58 -127 l57 -118 50 117 c28 65 52 122 53
127 2 4 -6 8 -17 8 -25 0 -26 11 -7 48 26 52 29 72 9 70 -10 -1 -60 -4 -110
-5z m107 -13 c0 -22 -84 -210 -91 -202 -4 4 -27 51 -52 104 l-45 97 86 4 c48
1 90 4 95 5 4 1 7 -3 7 -8z m-117 -175 l32 -65 25 61 c22 57 42 80 57 66 3 -4
-14 -52 -37 -107 -24 -55 -47 -97 -50 -93 -4 4 -28 52 -53 106 -41 87 -44 97
-27 97 14 0 29 -19 53 -65z M7510 1782 c0 -14 36 -43 43 -35 4 3 0 15 -10 25
-17 19 -33 24 -33 10z M7595 1690 c10 -11 23 -20 28 -20 6 0 2 9 -8 20 -10 11
-23 20 -28 20 -6 0 -2 -9 8 -20z M7660 1622 c0 -5 9 -17 20 -27 16 -14 20 -15
20 -4 0 16 -19 39 -32 39 -4 0 -8 -4 -8 -8z M7740 1560 c0 -5 11 -10 25 -10
14 0 25 5 25 10 0 6 -11 10 -25 10 -14 0 -25 -4 -25 -10z M7850 1560 c0 -5 11
-10 25 -10 14 0 25 5 25 10 0 6 -11 10 -25 10 -14 0 -25 -4 -25 -10z M7960
1560 c0 -5 11 -10 25 -10 14 0 25 5 25 10 0 6 -11 10 -25 10 -14 0 -25 -4 -25
-10z M8060 1560 c0 -5 14 -10 30 -10 17 0 30 5 30 10 0 6 -13 10 -30 10 -16 0
-30 -4 -30 -10z M8170 1560 c0 -5 14 -10 30 -10 17 0 30 5 30 10 0 6 -13 10
-30 10 -16 0 -30 -4 -30 -10z M8280 1560 c0 -5 11 -10 25 -10 14 0 25 5 25 10
0 6 -11 10 -25 10 -14 0 -25 -4 -25 -10z M8390 1560 c0 -5 5 -10 10 -10 6 0
10 5 10 10 0 6 -4 10 -10 10 -5 0 -10 -4 -10 -10z M5220 1550 c0 -5 11 -10 25
-10 14 0 25 5 25 10 0 6 -11 10 -25 10 -14 0 -25 -4 -25 -10z M5320 1550 c0
-5 14 -10 30 -10 17 0 30 5 30 10 0 6 -13 10 -30 10 -16 0 -30 -4 -30 -10z
M5430 1550 c0 -5 14 -10 30 -10 17 0 30 5 30 10 0 6 -13 10 -30 10 -16 0 -30
-4 -30 -10z M5540 1550 c0 -5 11 -10 25 -10 14 0 25 5 25 10 0 6 -11 10 -25
10 -14 0 -25 -4 -25 -10z M5650 1550 c0 -5 11 -10 25 -10 14 0 25 5 25 10 0 6
-11 10 -25 10 -14 0 -25 -4 -25 -10z M5760 1550 c0 -5 11 -10 25 -10 14 0 25
5 25 10 0 6 -11 10 -25 10 -14 0 -25 -4 -25 -10z M5860 1550 c0 -5 14 -10 30
-10 17 0 30 5 30 10 0 6 -13 10 -30 10 -16 0 -30 -4 -30 -10z M5970 1550 c0
-5 14 -10 30 -10 17 0 30 5 30 10 0 6 -13 10 -30 10 -16 0 -30 -4 -30 -10z
M6080 1550 c0 -5 11 -10 25 -10 14 0 25 5 25 10 0 6 -11 10 -25 10 -14 0 -25
-4 -25 -10z M6190 1550 c0 -5 11 -10 25 -10 14 0 25 5 25 10 0 6 -11 10 -25
10 -14 0 -25 -4 -25 -10z M6300 1550 c0 -5 11 -10 25 -10 14 0 25 5 25 10 0 6
-11 10 -25 10 -14 0 -25 -4 -25 -10z M6400 1550 c0 -5 14 -10 30 -10 17 0 30
5 30 10 0 6 -13 10 -30 10 -16 0 -30 -4 -30 -10z M6510 1550 c0 -5 14 -10 30
-10 17 0 30 5 30 10 0 6 -13 10 -30 10 -16 0 -30 -4 -30 -10z M6620 1550 c0
-5 11 -10 25 -10 14 0 25 5 25 10 0 6 -11 10 -25 10 -14 0 -25 -4 -25 -10z
M6730 1550 c0 -5 11 -10 25 -10 14 0 25 5 25 10 0 6 -11 10 -25 10 -14 0 -25
-4 -25 -10z M6840 1550 c0 -5 11 -10 25 -10 14 0 25 5 25 10 0 6 -11 10 -25
10 -14 0 -25 -4 -25 -10z M6940 1550 c0 -5 14 -10 30 -10 17 0 30 5 30 10 0 6
-13 10 -30 10 -16 0 -30 -4 -30 -10z M7050 1550 c0 -5 14 -10 30 -10 17 0 30
5 30 10 0 6 -13 10 -30 10 -16 0 -30 -4 -30 -10z M7146 1512 c-7 -11 31 -48
41 -38 4 3 -2 16 -14 27 -11 12 -23 17 -27 11z M8502 1435 c0 -16 2 -22 5 -12
2 9 2 23 0 30 -3 6 -5 -1 -5 -18z M7220 1432 c0 -13 23 -32 39 -32 11 0 10 4
-4 20 -19 21 -35 26 -35 12z M7300 1358 c0 -18 27 -44 37 -34 4 4 -3 16 -15
29 -18 17 -22 18 -22 5z M8502 1325 c0 -16 2 -22 5 -12 2 9 2 23 0 30 -3 6 -5
-1 -5 -18z M7370 1280 c0 -5 5 -10 10 -10 6 0 10 5 10 10 0 6 -4 10 -10 10 -5
0 -10 -4 -10 -10z M8502 1215 c0 -16 2 -22 5 -12 2 9 2 23 0 30 -3 6 -5 -1 -5
-18z M8502 1110 c0 -19 2 -27 5 -17 2 9 2 25 0 35 -3 9 -5 1 -5 -18z M8502
1000 c0 -19 2 -27 5 -17 2 9 2 25 0 35 -3 9 -5 1 -5 -18z M8502 895 c0 -16 2
-22 5 -12 2 9 2 23 0 30 -3 6 -5 -1 -5 -18z M8502 785 c0 -16 2 -22 5 -12 2 9
2 23 0 30 -3 6 -5 -1 -5 -18z M7685 668 l25 -53 -24 -5 c-24 -5 -24 -5 36
-130 l60 -125 24 53 c19 43 28 52 49 52 14 0 25 5 25 10 0 6 -9 10 -20 10 -25
0 -25 -2 5 66 14 31 25 58 25 60 0 2 -10 4 -21 4 -23 0 -23 8 5 73 l16 37
-114 0 -115 0 24 -52z m185 36 c0 -14 -83 -204 -89 -204 -6 0 -76 142 -99 202
-2 4 39 8 92 8 53 0 96 -3 96 -6z m-121 -171 l34 -68 19 45 c11 25 24 55 29
68 8 21 39 32 39 13 0 -16 -82 -201 -89 -201 -5 0 -78 148 -99 202 -2 4 5 8
15 8 13 0 29 -20 52 -67z M8502 675 c0 -16 2 -22 5 -12 2 9 2 23 0 30 -3 6 -5
-1 -5 -18z M8502 570 c0 -19 2 -27 5 -17 2 9 2 25 0 35 -3 9 -5 1 -5 -18z
M8488 483 c-24 -6 -23 -23 2 -23 11 0 20 7 20 15 0 8 -1 14 -2 14 -2 -1 -11
-3 -20 -6z M7930 470 c0 -5 11 -10 25 -10 14 0 25 5 25 10 0 6 -11 10 -25 10
-14 0 -25 -4 -25 -10z M8040 470 c0 -5 11 -10 25 -10 14 0 25 5 25 10 0 6 -11
10 -25 10 -14 0 -25 -4 -25 -10z M8150 470 c0 -5 11 -10 25 -10 14 0 25 5 25
10 0 6 -11 10 -25 10 -14 0 -25 -4 -25 -10z M8250 470 c0 -5 14 -10 30 -10 17
0 30 5 30 10 0 6 -13 10 -30 10 -16 0 -30 -4 -30 -10z M8360 470 c0 -5 14 -10
30 -10 17 0 30 5 30 10 0 6 -13 10 -30 10 -16 0 -30 -4 -30 -10z"/>
</g></g>
  <g transform="translate(131 409)" filter="url(#shadow)">
  <rect x="-15" y="-19" width="30" height="30" rx="7" fill="#ffe45c" stroke="#061329" stroke-width="3"/>
  <text y="4" text-anchor="middle" fill="#08162b" font-family="system-ui,-apple-system,sans-serif" font-size="18" font-weight="950">1</text>
</g><g transform="translate(775 234)" filter="url(#shadow)">
  <rect x="-15" y="-19" width="30" height="30" rx="7" fill="#ffe45c" stroke="#061329" stroke-width="3"/>
  <text y="4" text-anchor="middle" fill="#08162b" font-family="system-ui,-apple-system,sans-serif" font-size="18" font-weight="950">2</text>
</g><g transform="translate(849 489)" filter="url(#shadow)">
  <rect x="-15" y="-19" width="30" height="30" rx="7" fill="#ffe45c" stroke="#061329" stroke-width="3"/>
  <text y="4" text-anchor="middle" fill="#08162b" font-family="system-ui,-apple-system,sans-serif" font-size="18" font-weight="950">3</text>
</g><g transform="translate(847 634)" filter="url(#shadow)">
  <rect x="-15" y="-19" width="30" height="30" rx="7" fill="#ffe45c" stroke="#061329" stroke-width="3"/>
  <text y="4" text-anchor="middle" fill="#08162b" font-family="system-ui,-apple-system,sans-serif" font-size="18" font-weight="950">4</text>
</g>
  <g transform="translate(219 338)" stroke="#061329" stroke-width="4" stroke-linejoin="round" filter="url(#shadow)"><rect x="-24" y="-7" width="48" height="14" rx="7" fill="#61e89f"/></g><g transform="translate(794 238)" stroke="#061329" stroke-width="4" stroke-linejoin="round" filter="url(#shadow)"><rect x="-24" y="-7" width="48" height="14" rx="7" fill="#ffe45c"/></g><g transform="translate(879 509)" stroke="#061329" stroke-width="4" stroke-linejoin="round" filter="url(#shadow)"><rect x="-24" y="-7" width="48" height="14" rx="7" fill="#ff4d4d"/></g><g transform="translate(149 500)" stroke="#061329" stroke-width="4" stroke-linejoin="round" filter="url(#shadow)"><circle r="17" fill="#78f05f"/><path d="M-8 0h16M0-8v16" stroke="#08162b" stroke-width="5"/></g><g transform="translate(847 638)" stroke="#061329" stroke-width="4" stroke-linejoin="round" filter="url(#shadow)"><path d="M-30 10-22-12-8-5 2-20 14-5 29-13 34 10 16 18 1 10-12 20Z" fill="#ffb04a"/></g>
  <g transform="translate(60 324)" filter="url(#shadow)">
  <circle r="14" fill="#39d6ff" stroke="#061329" stroke-width="4"/><path d="M0-18-14-42h28Z" fill="#39d6ff" stroke="#061329" stroke-width="4"/>
  <text y="-48" text-anchor="middle" fill="#39d6ff" font-family="system-ui,-apple-system,sans-serif" font-size="17" font-weight="900">起点</text>
</g><g transform="translate(748 550)" filter="url(#shadow)">
  <circle r="14" fill="#ff5ca8" stroke="#061329" stroke-width="4"/><path d="M0 18-14 42h28Z" fill="#ff5ca8" stroke="#061329" stroke-width="4"/>
  <text y="61" text-anchor="middle" fill="#ff5ca8" font-family="system-ui,-apple-system,sans-serif" font-size="17" font-weight="900">前往下一区</text>
</g>
</g>
<g transform="translate(18 682)">
  <rect width="930" height="252" rx="14" fill="#0b2745" stroke="#2c648b" stroke-width="2"/>
  <text x="24" y="34" fill="#e7f9ff" font-family="system-ui,-apple-system,sans-serif" font-size="19" font-weight="900">关键提醒</text>
  <g transform="translate(40 70)" filter="url(#shadow)">
  <rect x="-15" y="-19" width="30" height="30" rx="7" fill="#ffe45c" stroke="#061329" stroke-width="3"/>
  <text y="4" text-anchor="middle" fill="#08162b" font-family="system-ui,-apple-system,sans-serif" font-size="18" font-weight="950">1</text>
</g><text x="68" y="66" fill="#bcd7ea" font-family="system-ui,-apple-system,sans-serif" font-size="15" font-weight="650"><tspan x="68" dy="0">分队：一人向南踩限时机关，其余队员向东推进。</tspan></text><g transform="translate(487 70)" filter="url(#shadow)">
  <rect x="-15" y="-19" width="30" height="30" rx="7" fill="#ffe45c" stroke="#061329" stroke-width="3"/>
  <text y="4" text-anchor="middle" fill="#08162b" font-family="system-ui,-apple-system,sans-serif" font-size="18" font-weight="950">2</text>
</g><text x="515" y="66" fill="#bcd7ea" font-family="system-ui,-apple-system,sans-serif" font-size="15" font-weight="650"><tspan x="515" dy="0">射击门上方目标，取得固定手枪；先行者放置武器，后续队</tspan><tspan x="515" dy="24">员回收。</tspan></text><g transform="translate(40 138)" filter="url(#shadow)">
  <rect x="-15" y="-19" width="30" height="30" rx="7" fill="#ffe45c" stroke="#061329" stroke-width="3"/>
  <text y="4" text-anchor="middle" fill="#08162b" font-family="system-ui,-apple-system,sans-serif" font-size="18" font-weight="950">3</text>
</g><text x="68" y="134" fill="#bcd7ea" font-family="system-ui,-apple-system,sans-serif" font-size="15" font-weight="650"><tspan x="68" dy="0">在红色机关放置一把武器，解除红色屏障并取得箱子。</tspan></text><g transform="translate(487 146)" filter="url(#shadow)">
  <rect x="-15" y="-19" width="30" height="30" rx="7" fill="#ffe45c" stroke="#061329" stroke-width="3"/>
  <text y="4" text-anchor="middle" fill="#08162b" font-family="system-ui,-apple-system,sans-serif" font-size="18" font-weight="950">4</text>
</g><text x="515" y="142" fill="#bcd7ea" font-family="system-ui,-apple-system,sans-serif" font-size="15" font-weight="650"><tspan x="515" dy="0">击碎左侧岩石进入治疗环。</tspan></text>
  <text x="906" y="236" text-anchor="end" fill="#7698b1" font-family="system-ui,-apple-system,sans-serif" font-size="13" font-weight="650">提示依据：PSO World · Sakura 攻略</text>
</g>
</svg>