<svg xmlns="http://www.w3.org/2000/svg" viewBox="0 0 1000 593" role="img" aria-labelledby="title desc" shape-rendering="geometricPrecision">
<title id="title">AREA 27</title>
<desc id="desc"> Ignore the third small room’s pad and side fences; keep going. The Force lights the room and collects boxes; if Garanz is present, the party can wait outside until lit. Sakura marks the pre-warp side boxes as trap-free; the Force can collect them. Send the Garanz runner through first; signal the party after checking and dealing with it. Assign by duty, not class alone.</desc>
<defs><filter id="shadow" x="-30%" y="-30%" width="160%" height="160%"><feDropShadow dx="0" dy="2" stdDeviation="2.5" flood-color="#000" flood-opacity=".35"/></filter><pattern id="dark-hatch" width="16.5082" height="16.5082" patternUnits="userSpaceOnUse" patternTransform="rotate(45)"><rect width="16.5082" height="16.5082" fill="#000" fill-opacity=".25"/><path d="M0 0V16.5082" stroke="#4fe3ff" stroke-opacity=".25" stroke-width="4.95246"/></pattern><marker id="arrow-main" viewBox="0 0 10 10" refX="6" refY="5" markerWidth="3.2" markerHeight="3.2" orient="auto-start-reverse"><path d="M0 0 10 5 0 10Z" fill="#ffd23f" stroke="#061329" stroke-width="1"/></marker><marker id="arrow-split" viewBox="0 0 10 10" refX="6" refY="5" markerWidth="3.2" markerHeight="3.2" orient="auto-start-reverse"><path d="M0 0 10 5 0 10Z" fill="#f5f7ff" stroke="#061329" stroke-width="1"/></marker><marker id="arrow-solo" viewBox="0 0 10 10" refX="6" refY="5" markerWidth="3.2" markerHeight="3.2" orient="auto-start-reverse"><path d="M0 0 10 5 0 10Z" fill="#b48cff" stroke="#061329" stroke-width="1"/></marker></defs>
<rect width="1000" height="593" rx="18" fill="#071a31"/>
<text x="26" y="30" text-anchor="start" fill="#a9d8ed" font-family="system-ui,-apple-system,sans-serif" font-size="16" font-weight="900">C6 · AREA 27</text>
<g transform="translate(55 75) scale(0.60576)">
  <g filter="url(#shadow)"><g id="c6-floor" data-source="PSO World area_27.png">
  <defs>
    <clipPath id="c6-floor-clip"><path d="M20 20L20 38L34 38L36 40L35 78L2 78L2 147L71 147L71 116L146 116L146 124L140 124L140 177L146 177L146 205L140 205L140 222L162 222L162 217L168 217L168 239L154 239L149 242L148 267L135 267L135 275L148 275L148 296L154 300L168 300L168 323L151 323L151 318L86 318L86 323L54 323L54 318L33 318L33 339L38 339L38 345L24 345L24 353L38 353L38 361L33 361L33 382L54 382L54 376L63 376L63 407L52 407L41 418L40 451L68 451L68 526L39 526L39 554L52 569L85 569L85 548L156 548L156 569L186 569L202 552L202 546L248 546L248 575L317 575L317 546L374 546L377 550L377 555L371 555L371 577L396 576L397 572L414 572L414 576L440 576L440 555L435 555L435 549L438 546L446 546L446 538L438 538L435 535L435 531L440 531L440 474L435 474L435 472L478 471L477 483L489 496L606 496L620 482L620 417L517 417L518 398L620 397L620 388L663 389L663 405L667 411L687 411L687 429L673 429L673 465L709 465L709 429L696 428L696 411L707 410L708 413L710 410L722 410L723 389L728 389L728 391L761 391L761 397L758 397L758 401L755 401L755 419L777 419L777 413L808 413L808 419L873 419L873 413L906 413L906 419L928 419L928 397L922 397L922 389L926 389L926 387L932 387L932 389L937 389L937 387L944 388L946 406L983 406L982 368L945 368L945 382L922 382L922 376L928 376L928 354L906 354L906 360L873 360L873 354L808 354L808 360L794 360L794 341L785 341L785 360L777 360L777 354L755 354L755 365L758 366L755 367L755 373L758 373L758 383L723 382L723 372L718 372L718 374L696 374L696 372L663 372L663 382L620 382L620 371L608 358L601 358L601 331L593 331L593 358L489 358L479 368L478 431L575 431L575 451L478 451L478 463L438 463L435 460L435 452L440 452L440 430L414 430L414 435L412 435L412 438L408 438L408 407L425 407L425 371L388 371L388 378L383 379L383 397L388 398L388 407L401 407L401 435L403 435L403 438L399 438L396 430L372 430L371 452L377 452L377 474L371 474L371 531L377 533L377 535L372 538L372 540L366 540L366 538L362 538L362 540L355 540L355 538L351 538L351 540L344 540L344 538L340 538L340 540L334 540L334 538L323 540L323 538L318 538L317 540L317 506L248 506L248 540L247 538L243 538L243 540L236 540L236 538L232 538L232 540L226 540L226 538L221 538L221 540L210 538L210 540L205 540L202 537L202 526L177 526L177 451L202 451L202 438L217 438L217 427L202 427L202 423L188 407L156 407L156 429L86 429L85 432L85 407L73 407L73 376L86 376L86 382L151 382L151 376L184 376L184 382L206 382L206 361L200 361L200 339L206 339L206 318L184 318L184 323L177 323L177 300L188 300L188 239L177 239L177 217L184 218L184 222L205 222L205 205L199 205L199 177L205 177L205 124L199 124L199 98L205 98L205 80L184 80L184 85L162 85L162 80L140 80L140 98L146 98L146 109L71 110L71 78L43 78L43 38L58 38L58 2L20 2Z" clip-rule="evenodd"/></clipPath>
    <pattern id="c6-dark-hatch" width="8" height="8" patternUnits="userSpaceOnUse">
      <path d="M-2 2L2-2M0 8L8 0M6 10L10 6" fill="none" stroke="#4fe3ff" stroke-opacity=".18" stroke-width="1"/>
    </pattern>
  </defs>
  <path d="M20 20L20 38L34 38L36 40L35 78L2 78L2 147L71 147L71 116L146 116L146 124L140 124L140 177L146 177L146 205L140 205L140 222L162 222L162 217L168 217L168 239L154 239L149 242L148 267L135 267L135 275L148 275L148 296L154 300L168 300L168 323L151 323L151 318L86 318L86 323L54 323L54 318L33 318L33 339L38 339L38 345L24 345L24 353L38 353L38 361L33 361L33 382L54 382L54 376L63 376L63 407L52 407L41 418L40 451L68 451L68 526L39 526L39 554L52 569L85 569L85 548L156 548L156 569L186 569L202 552L202 546L248 546L248 575L317 575L317 546L374 546L377 550L377 555L371 555L371 577L396 576L397 572L414 572L414 576L440 576L440 555L435 555L435 549L438 546L446 546L446 538L438 538L435 535L435 531L440 531L440 474L435 474L435 472L478 471L477 483L489 496L606 496L620 482L620 417L517 417L518 398L620 397L620 388L663 389L663 405L667 411L687 411L687 429L673 429L673 465L709 465L709 429L696 428L696 411L707 410L708 413L710 410L722 410L723 389L728 389L728 391L761 391L761 397L758 397L758 401L755 401L755 419L777 419L777 413L808 413L808 419L873 419L873 413L906 413L906 419L928 419L928 397L922 397L922 389L926 389L926 387L932 387L932 389L937 389L937 387L944 388L946 406L983 406L982 368L945 368L945 382L922 382L922 376L928 376L928 354L906 354L906 360L873 360L873 354L808 354L808 360L794 360L794 341L785 341L785 360L777 360L777 354L755 354L755 365L758 366L755 367L755 373L758 373L758 383L723 382L723 372L718 372L718 374L696 374L696 372L663 372L663 382L620 382L620 371L608 358L601 358L601 331L593 331L593 358L489 358L479 368L478 431L575 431L575 451L478 451L478 463L438 463L435 460L435 452L440 452L440 430L414 430L414 435L412 435L412 438L408 438L408 407L425 407L425 371L388 371L388 378L383 379L383 397L388 398L388 407L401 407L401 435L403 435L403 438L399 438L396 430L372 430L371 452L377 452L377 474L371 474L371 531L377 533L377 535L372 538L372 540L366 540L366 538L362 538L362 540L355 540L355 538L351 538L351 540L344 540L344 538L340 538L340 540L334 540L334 538L323 540L323 538L318 538L317 540L317 506L248 506L248 540L247 538L243 538L243 540L236 540L236 538L232 538L232 540L226 540L226 538L221 538L221 540L210 538L210 540L205 540L202 537L202 526L177 526L177 451L202 451L202 438L217 438L217 427L202 427L202 423L188 407L156 407L156 429L86 429L85 432L85 407L73 407L73 376L86 376L86 382L151 382L151 376L184 376L184 382L206 382L206 361L200 361L200 339L206 339L206 318L184 318L184 323L177 323L177 300L188 300L188 239L177 239L177 217L184 218L184 222L205 222L205 205L199 205L199 177L205 177L205 124L199 124L199 98L205 98L205 80L184 80L184 85L162 85L162 80L140 80L140 98L146 98L146 109L71 110L71 78L43 78L43 38L58 38L58 2L20 2Z" fill="#173d60" fill-rule="evenodd"/>
  <g id="c6-dark-rooms" clip-path="url(#c6-floor-clip)">
    <path d="M371 431L439 431L439 577L371 577Z" fill="#102b42"/>
    <path d="M371 431L439 431L439 577L371 577Z" fill="url(#c6-dark-hatch)"/>
  </g>
</g></g>
  <g id="c6-walls" fill="none" stroke="#8edfff" stroke-width="1.5" stroke-linejoin="miter">
  <path d="M20 20L20 38L34 38L36 40L35 78L2 78L2 147L71 147L71 116L146 116L146 124L140 124L140 177L146 177L146 205L140 205L140 222L162 222L162 217L168 217L168 239L154 239L149 242L148 267L135 267L135 275L148 275L148 296L154 300L168 300L168 323L151 323L151 318L86 318L86 323L54 323L54 318L33 318L33 339L38 339L38 345L24 345L24 353L38 353L38 361L33 361L33 382L54 382L54 376L63 376L63 407L52 407L41 418L40 451L68 451L68 526L39 526L39 554L52 569L85 569L85 548L156 548L156 569L186 569L202 552L202 546L248 546L248 575L317 575L317 546L374 546L377 550L377 555L371 555L371 577L396 576L397 572L414 572L414 576L440 576L440 555L435 555L435 549L438 546L446 546L446 538L438 538L435 535L435 531L440 531L440 474L435 474L435 472L478 471L477 483L489 496L606 496L620 482L620 417L517 417L518 398L620 397L620 388L663 389L663 405L667 411L687 411L687 429L673 429L673 465L709 465L709 429L696 428L696 411L707 410L708 413L710 410L722 410L723 389L728 389L728 391L761 391L761 397L758 397L758 401L755 401L755 419L777 419L777 413L808 413L808 419L873 419L873 413L906 413L906 419L928 419L928 397L922 397L922 389L926 389L926 387L932 387L932 389L937 389L937 387L944 388L946 406L983 406L982 368L945 368L945 382L922 382L922 376L928 376L928 354L906 354L906 360L873 360L873 354L808 354L808 360L794 360L794 341L785 341L785 360L777 360L777 354L755 354L755 365L758 366L755 367L755 373L758 373L758 383L723 382L723 372L718 372L718 374L696 374L696 372L663 372L663 382L620 382L620 371L608 358L601 358L601 331L593 331L593 358L489 358L479 368L478 431L575 431L575 451L478 451L478 463L438 463L435 460L435 452L440 452L440 430L414 430L414 435L412 435L412 438L408 438L408 407L425 407L425 371L388 371L388 378L383 379L383 397L388 398L388 407L401 407L401 435L403 435L403 438L399 438L396 430L372 430L371 452L377 452L377 474L371 474L371 531L377 533L377 535L372 538L372 540L366 540L366 538L362 538L362 540L355 540L355 538L351 538L351 540L344 540L344 538L340 538L340 540L334 540L334 538L323 540L323 538L318 538L317 540L317 506L248 506L248 540L247 538L243 538L243 540L236 540L236 538L232 538L232 540L226 540L226 538L221 538L221 540L210 538L210 540L205 540L202 537L202 526L177 526L177 451L202 451L202 438L217 438L217 427L202 427L202 423L188 407L156 407L156 429L86 429L85 432L85 407L73 407L73 376L86 376L86 382L151 382L151 376L184 376L184 382L206 382L206 361L200 361L200 339L206 339L206 318L184 318L184 323L177 323L177 300L188 300L188 239L177 239L177 217L184 218L184 222L205 222L205 205L199 205L199 177L205 177L205 124L199 124L199 98L205 98L205 80L184 80L184 85L162 85L162 80L140 80L140 98L146 98L146 109L71 110L71 78L43 78L43 38L58 38L58 2L20 2Z"/>
  <path d="M371 431L439 431L439 577L371 577Z"/>
  <path d=""/>
</g>

  <path d="M39 16 L39 112 L172 112 L172 347 L70 347 L70 416 L175 542 L406 542 L406 468 L598 468 L598 422 L507 422 L507 386 L707 386" fill="none" stroke="#071a31" stroke-opacity=".85" stroke-width="10.8954" stroke-linecap="round" stroke-linejoin="round"/><path data-role="main" d="M39 16 L39 112 L172 112 L172 347 L70 347 L70 416 L175 542 L406 542 L406 468 L598 468 L598 422 L507 422 L507 386 L707 386" fill="none" stroke="#ffd23f" stroke-width="6.35566" stroke-linecap="round" stroke-linejoin="round"/><path d="M770 386 L963 386" fill="none" stroke="#071a31" stroke-opacity=".85" stroke-width="10.8954" stroke-linecap="round" stroke-linejoin="round"/><path data-role="main" d="M770 386 L963 386" fill="none" stroke="#ffd23f" stroke-width="6.35566" stroke-linecap="round" stroke-linejoin="round" marker-end="url(#arrow-main)"/><path d="M406 468 L406 389 L414 389 L406 389 L406 468" fill="none" stroke="#071a31" stroke-opacity=".85" stroke-width="9.07951" stroke-linecap="round" stroke-linejoin="round"/><path data-role="solo" d="M406 468 L406 389 L414 389 L406 389 L406 468" fill="none" stroke="#b48cff" stroke-width="4.53975" stroke-linecap="round" stroke-linejoin="round" marker-end="url(#arrow-solo)"/><path d="M690 386 L691 449 L690 386" fill="none" stroke="#071a31" stroke-opacity=".85" stroke-width="8.17156" stroke-linecap="round" stroke-linejoin="round"/><path data-role="optional" d="M690 386 L691 449 L690 386" fill="none" stroke="#c9d6e8" stroke-width="3.6318" stroke-linecap="round" stroke-linejoin="round" stroke-dasharray="12.7113 9.07951"/>
  <g transform="translate(152 272) scale(1.18859)" stroke="#061329" stroke-width="3" stroke-linejoin="round" filter="url(#shadow)"><rect x="-10" y="-10" width="20" height="20" rx="3" fill="#061329" stroke="#e64c55"/><path d="M-5-5 5 5M-5 5 5-5" stroke="#e64c55" stroke-width="3"/></g><g transform="translate(414 389) scale(1.18859)" stroke="#061329" stroke-width="3" stroke-linejoin="round" filter="url(#shadow)"><circle cy="-3" r="8" fill="#ffa540"/><path d="M-4 6H4M-3 10H3" stroke="#ffa540" stroke-width="3"/></g><g transform="translate(392 389) scale(1.18859)" stroke="#061329" stroke-width="3" stroke-linejoin="round" filter="url(#shadow)"><rect x="-10" y="-9" width="20" height="18" rx="4" fill="#8ee26b"/><path d="M-10-2H10" fill="none"/></g><g transform="translate(691 449) scale(1.18859)" stroke="#061329" stroke-width="3" stroke-linejoin="round" filter="url(#shadow)"><rect x="-10" y="-9" width="20" height="18" rx="4" fill="#8ee26b"/><path d="M-10-2H10" fill="none"/></g><g transform="translate(707 386) scale(1.18859)" stroke="#061329" stroke-width="3" stroke-linejoin="round" filter="url(#shadow)"><path d="M-14-11H14L0 14Z" fill="#ed64b2"/><text y="4" text-anchor="middle" font-family="system-ui,-apple-system,sans-serif" font-size="13" font-weight="950" fill="#061329" stroke="none">1</text></g><g transform="translate(770 386) scale(1.18859)" stroke="#061329" stroke-width="3" stroke-linejoin="round" filter="url(#shadow)"><path d="M-14-11H14L0 14Z" fill="#ed64b2"/><text y="4" text-anchor="middle" font-family="system-ui,-apple-system,sans-serif" font-size="13" font-weight="950" fill="#061329" stroke="none">1′</text></g><g transform="translate(744 386) scale(1.18859)" stroke="#061329" stroke-width="3" stroke-linejoin="round" filter="url(#shadow)"><rect x="-4" y="-19" width="8" height="38" rx="3" fill="#ffa540"/></g><g transform="translate(100 112) scale(1.18859)" stroke="#061329" stroke-width="3" stroke-linejoin="round" filter="url(#shadow)"><path d="M0-13 13 11H-13Z" fill="#ffe45c"/><path d="M0-4V3M0 7v1" stroke-linecap="round"/></g><g transform="translate(535 432) scale(1.18859)" stroke="#061329" stroke-width="3" stroke-linejoin="round" filter="url(#shadow)"><path d="M0-13 13 11H-13Z" fill="#ffe45c"/><path d="M0-4V3M0 7v1" stroke-linecap="round"/></g><g transform="translate(842 386) scale(1.18859)" stroke="#061329" stroke-width="3" stroke-linejoin="round" filter="url(#shadow)"><path d="M0-13 13 11H-13Z" fill="#ffe45c"/><path d="M0-4V3M0 7v1" stroke-linecap="round"/></g>
</g>

<g transform="translate(78.6246 84.6922)" filter="url(#shadow)"><circle r="12" fill="#39d6ff" stroke="#061329" stroke-width="4"/><rect x="-35.8" y="-46" width="71.6" height="26" rx="13" fill="#061329" fill-opacity=".9" stroke="#39d6ff" stroke-width="2"/><text x="0" y="-27.5" text-anchor="middle" fill="#39d6ff" font-family="system-ui,-apple-system,sans-serif" font-size="16" font-weight="900">START</text></g><g transform="translate(638.347 308.823)" filter="url(#shadow)"><circle r="12" fill="#ff5ca8" stroke="#061329" stroke-width="4"/><rect x="-55.64" y="-46" width="111.28" height="26" rx="13" fill="#061329" fill-opacity=".9" stroke="#ff5ca8" stroke-width="2"/><text x="0" y="-27.5" text-anchor="middle" fill="#ff5ca8" font-family="system-ui,-apple-system,sans-serif" font-size="16" font-weight="900">NEXT AREA</text></g>
<path d="M147.075 239.767L705 120" fill="none" stroke="#ffbe99" stroke-opacity=".7" stroke-width="1" stroke-dasharray="2 3"/><circle cx="147.075" cy="239.767" r="2.5" fill="#ffbe99"/><path d="M305.785 310.641L705 228" fill="none" stroke="#a9d8ed" stroke-opacity=".7" stroke-width="1" stroke-dasharray="2 3"/><circle cx="305.785" cy="310.641" r="2.5" fill="#a9d8ed"/><path d="M473.58 346.986L705 318" fill="none" stroke="#a0e5b6" stroke-opacity=".7" stroke-width="1" stroke-dasharray="2 3"/><circle cx="473.58" cy="346.986" r="2.5" fill="#a0e5b6"/><path d="M483.272 308.823L705 340" fill="none" stroke="#ffbe99" stroke-opacity=".7" stroke-width="1" stroke-dasharray="2 3"/><circle cx="483.272" cy="308.823" r="2.5" fill="#ffbe99"/><g data-callout="ignore-third-room-pad"><title>PSO World source map; Sakura; PSO Palace C6</title><rect data-callout-box="" x="705" y="70" width="275" height="50" rx="5" fill="#10263a" stroke="#ffbe99" stroke-opacity=".35"/><text x="713" y="90" text-anchor="start" fill="#ffbe99" font-family="system-ui,-apple-system,sans-serif" font-size="13" font-weight="650">Ignore the third small room’s pad</text><text x="713" y="108" text-anchor="start" fill="#ffbe99" font-family="system-ui,-apple-system,sans-serif" font-size="13" font-weight="650">and side fences; keep going.</text></g><g data-callout="light-before-party-enters"><title>PSO World source map; Sakura; PSO Palace C6</title><rect data-callout-box="" x="705" y="142" width="275" height="86" rx="5" fill="#10263a" stroke="#a9d8ed" stroke-opacity=".35"/><text x="713" y="162" text-anchor="start" fill="#a9d8ed" font-family="system-ui,-apple-system,sans-serif" font-size="13" font-weight="650">The Force lights the room and</text><text x="713" y="180" text-anchor="start" fill="#a9d8ed" font-family="system-ui,-apple-system,sans-serif" font-size="13" font-weight="650">collects boxes; if Garanz is</text><text x="713" y="198" text-anchor="start" fill="#a9d8ed" font-family="system-ui,-apple-system,sans-serif" font-size="13" font-weight="650">present, the party can wait</text><text x="713" y="216" text-anchor="start" fill="#a9d8ed" font-family="system-ui,-apple-system,sans-serif" font-size="13" font-weight="650">outside until lit.</text></g><g data-callout="safe-prewarp-boxes"><title>PSO World source map; Sakura; PSO Palace C6</title><rect data-callout-box="" x="705" y="250" width="275" height="68" rx="5" fill="#10263a" stroke="#a0e5b6" stroke-opacity=".35"/><text x="713" y="270" text-anchor="start" fill="#a0e5b6" font-family="system-ui,-apple-system,sans-serif" font-size="13" font-weight="650">Sakura marks the pre-warp side</text><text x="713" y="288" text-anchor="start" fill="#a0e5b6" font-family="system-ui,-apple-system,sans-serif" font-size="13" font-weight="650">boxes as trap-free; the Force can</text><text x="713" y="306" text-anchor="start" fill="#a0e5b6" font-family="system-ui,-apple-system,sans-serif" font-size="13" font-weight="650">collect them.</text></g><g data-callout="garanz-scout-first"><title>PSO Palace C6 explicitly differs from the map’s Hunter-first advice</title><rect data-callout-box="" x="705" y="340" width="275" height="86" rx="5" fill="#10263a" stroke="#ffbe99" stroke-opacity=".35"/><text x="713" y="360" text-anchor="start" fill="#ffbe99" font-family="system-ui,-apple-system,sans-serif" font-size="13" font-weight="650">Send the Garanz runner through</text><text x="713" y="378" text-anchor="start" fill="#ffbe99" font-family="system-ui,-apple-system,sans-serif" font-size="13" font-weight="650">first; signal the party after</text><text x="713" y="396" text-anchor="start" fill="#ffbe99" font-family="system-ui,-apple-system,sans-serif" font-size="13" font-weight="650">checking and dealing with it.</text><text x="713" y="414" text-anchor="start" fill="#ffbe99" font-family="system-ui,-apple-system,sans-serif" font-size="13" font-weight="650">Assign by duty, not class alone.</text></g>
<path d="M30 465h34" stroke="#ffd23f" stroke-width="7" stroke-linecap="round"/><text x="74" y="471" text-anchor="start" fill="#dff8ff" font-family="system-ui,-apple-system,sans-serif" font-size="15" font-weight="800">Main route</text><path d="M203.0 465h34" stroke="#b48cff" stroke-width="5" stroke-linecap="round"/><text x="247" y="471" text-anchor="start" fill="#dff8ff" font-family="system-ui,-apple-system,sans-serif" font-size="15" font-weight="800">Solo route</text><path d="M376.0 465h34" stroke="#c9d6e8" stroke-width="4" stroke-linecap="round" stroke-dasharray="14 10"/><text x="420" y="471" text-anchor="start" fill="#dff8ff" font-family="system-ui,-apple-system,sans-serif" font-size="15" font-weight="800">Optional route</text>
<g transform="translate(34 503) scale(0.769231)" stroke="#061329" stroke-width="3" stroke-linejoin="round" filter="url(#shadow)"><rect x="-10" y="-10" width="20" height="20" rx="3" fill="#061329" stroke="#a9d8ed"/><path d="M-5-5 5 5M-5 5 5-5" stroke="#a9d8ed" stroke-width="3"/></g><text x="54" y="508" text-anchor="start" fill="#a9d8ed" font-family="system-ui,-apple-system,sans-serif" font-size="13" font-weight="650">Do not step</text><g transform="translate(182.66 503) scale(0.769231)" stroke="#061329" stroke-width="3" stroke-linejoin="round" filter="url(#shadow)"><circle cy="-3" r="8" fill="#a9d8ed"/><path d="M-4 6H4M-3 10H3" stroke="#a9d8ed" stroke-width="3"/></g><text x="202.66" y="508" text-anchor="start" fill="#a9d8ed" font-family="system-ui,-apple-system,sans-serif" font-size="13" font-weight="650">Light switch</text><g transform="translate(339.38 503) scale(0.769231)" stroke="#061329" stroke-width="3" stroke-linejoin="round" filter="url(#shadow)"><rect x="-10" y="-9" width="20" height="18" rx="4" fill="#a9d8ed"/><path d="M-10-2H10" fill="none"/></g><text x="359.38" y="508" text-anchor="start" fill="#a9d8ed" font-family="system-ui,-apple-system,sans-serif" font-size="13" font-weight="650">Boxes</text><g transform="translate(439.68 503) scale(0.769231)" stroke="#061329" stroke-width="3" stroke-linejoin="round" filter="url(#shadow)"><path d="M-14-11H14L0 14Z" fill="#a9d8ed"/><text y="4" text-anchor="middle" font-family="system-ui,-apple-system,sans-serif" font-size="13" font-weight="950" fill="#061329" stroke="none">1</text></g><text x="459.68" y="508" text-anchor="start" fill="#a9d8ed" font-family="system-ui,-apple-system,sans-serif" font-size="13" font-weight="650">Warp 1→1′</text><g transform="translate(572.22 503) scale(0.769231)" stroke="#061329" stroke-width="3" stroke-linejoin="round" filter="url(#shadow)"><rect x="-4" y="-19" width="8" height="38" rx="3" fill="#a9d8ed"/></g><text x="592.22" y="508" text-anchor="start" fill="#a9d8ed" font-family="system-ui,-apple-system,sans-serif" font-size="13" font-weight="650">Gate</text><g transform="translate(664.46 503) scale(0.769231)" stroke="#061329" stroke-width="3" stroke-linejoin="round" filter="url(#shadow)"><path d="M0-13 13 11H-13Z" fill="#a9d8ed"/><path d="M0-4V3M0 7v1" stroke-linecap="round"/></g><text x="684.46" y="508" text-anchor="start" fill="#a9d8ed" font-family="system-ui,-apple-system,sans-serif" font-size="13" font-weight="650">Trap</text>
<text x="958" y="557" text-anchor="end" fill="#8aabba" font-family="system-ui,-apple-system,sans-serif" font-size="12" font-weight="900">Notes: PSO World · Sakura guide</text>
</svg>
