<svg xmlns="http://www.w3.org/2000/svg" viewBox="0 0 1000 1122" role="img" aria-labelledby="title desc" shape-rendering="geometricPrecision">
<title id="title">エリア 01</title>
<desc id="desc">最初の箱は任意回収。1人が緑の床、もう1人が回収を担当し、他は先行。 強い2人はバリア前で待機し、残り2人がスイッチへ。 敵を無視してスイッチを踏む。最弱役を残し、もう1人は1→1′で援護へ。 殲滅後、1人が南へ走り敵を無視して桃色スイッチ。他は扉前待機。 待機役が黄色スイッチで開門し、そのまま敵を無視して次エリア用スイッチへ。 任意の箱回収。1人が緑の床を踏み、もう1人が回収。 箱の下の青い床を1人が踏み、もう1人が柵の中の赤スイッチへ。 紫の扉前に1人が待機。他は1→1′で先行。 この通路の敵は無視してスイッチへ。 黄スイッチで開門し、敵を無視して東端の出口スイッチへ。 1人が敵を無視して桃スイッチを押し、扉前へ戻る。</desc>
<defs><filter id="shadow" x="-30%" y="-30%" width="160%" height="160%"><feDropShadow dx="0" dy="2" stdDeviation="2.5" flood-color="#000" flood-opacity=".35"/></filter><pattern id="dark-hatch" width="10.5846" height="10.5846" patternUnits="userSpaceOnUse" patternTransform="rotate(45)"><rect width="10.5846" height="10.5846" fill="#000" fill-opacity=".25"/><path d="M0 0V10.5846" stroke="#4fe3ff" stroke-opacity=".25" stroke-width="3.17538"/></pattern><marker id="arrow-main" viewBox="0 0 10 10" refX="6" refY="5" markerWidth="3.2" markerHeight="3.2" orient="auto-start-reverse"><path d="M0 0 10 5 0 10Z" fill="#ffd23f" stroke="#061329" stroke-width="1"/></marker><marker id="arrow-split" viewBox="0 0 10 10" refX="6" refY="5" markerWidth="3.2" markerHeight="3.2" orient="auto-start-reverse"><path d="M0 0 10 5 0 10Z" fill="#f5f7ff" stroke="#061329" stroke-width="1"/></marker><marker id="arrow-solo" viewBox="0 0 10 10" refX="6" refY="5" markerWidth="3.2" markerHeight="3.2" orient="auto-start-reverse"><path d="M0 0 10 5 0 10Z" fill="#b48cff" stroke="#061329" stroke-width="1"/></marker></defs>
<rect width="1000" height="1122" rx="18" fill="#071a31"/>
<text x="26" y="30" text-anchor="start" fill="#a9d8ed" font-family="system-ui,-apple-system,sans-serif" font-size="16" font-weight="900">C1 · エリア 01</text>
<g transform="translate(25 60) scale(0.944767)">
  <g filter="url(#shadow)"><g id="c1-floor" data-source="PSO World area_01.png">
  <defs>
    <clipPath id="c1-floor-clip"><path d="M62 28L62 56L50 56L50 53L43 53L40 56L41 61L36 66L38 78L47 88L79 92L84 100L72 111L59 150L19 180L6 258L2 273L11 298L15 317L13 392L46 453L46 472L70 485L106 496L125 506L138 518L140 524L142 531L143 610L121 610L114 618L114 630L118 635L122 639L144 639L148 662L151 669L164 669L174 663L174 588L180 591L200 587L219 578L222 550L225 487L232 442L239 420L255 416L268 425L281 425L278 440L284 454L281 475L287 500L297 516L289 556L299 570L306 567L318 576L335 579L356 561L364 539L382 529L392 528L405 566L420 579L444 587L454 594L455 620L470 630L477 633L486 634L486 637L498 642L549 639L574 644L605 654L632 654L654 625L660 596L650 570L630 534L605 534L588 543L574 558L562 585L538 608L512 621L487 602L477 585L486 566L540 559L564 541L572 513L574 472L555 438L532 426L489 430L487 405L485 400L461 400L459 422L458 432L438 443L414 448L393 466L387 494L366 503L350 513L343 536L329 546L320 535L316 508L311 490L310 475L324 469L348 471L369 462L382 430L385 367L395 356L380 332L342 343L318 344L300 352L285 372L285 386L248 393L212 397L198 406L205 441L204 463L194 542L187 546L180 547L176 536L176 528L173 528L167 512L164 481L112 463L88 451L82 436L101 420L105 392L104 339L121 313L128 299L133 280L125 270L115 262L120 261L123 258L146 255L146 225L131 225L122 218L121 212L114 212L94 170L102 140L115 138L132 167L151 187L186 189L204 193L210 180L224 174L253 183L277 212L287 242L297 248L317 266L332 273L382 314L424 379L456 384L461 400L485 400L488 380L517 329L512 275L483 248L458 236L444 211L451 204L474 196L475 175L454 144L457 122L479 118L497 141L518 180L546 183L564 190L587 217L576 222L568 234L574 246L591 249L590 254L562 299L566 316L571 355L579 385L612 400L644 400L656 385L666 332L650 272L626 206L607 189L607 165L625 126L621 90L579 74L558 71L517 78L460 94L428 96L417 135L408 147L394 150L385 154L358 159L354 162L349 166L345 196L331 206L313 199L287 162L246 144L251 127L248 78L238 52L212 36L177 32L116 52L116 54L94 53L94 56L85 56L85 0L62 0Z" clip-rule="evenodd"/></clipPath>
    <pattern id="c1-dark-hatch" width="8" height="8" patternUnits="userSpaceOnUse">
      <path d="M-2 2L2-2M0 8L8 0M6 10L10 6" fill="none" stroke="#4fe3ff" stroke-opacity=".18" stroke-width="1"/>
    </pattern>
  </defs>
  <path d="M62 28L62 56L50 56L50 53L43 53L40 56L41 61L36 66L38 78L47 88L79 92L84 100L72 111L59 150L19 180L6 258L2 273L11 298L15 317L13 392L46 453L46 472L70 485L106 496L125 506L138 518L140 524L142 531L143 610L121 610L114 618L114 630L118 635L122 639L144 639L148 662L151 669L164 669L174 663L174 588L180 591L200 587L219 578L222 550L225 487L232 442L239 420L255 416L268 425L281 425L278 440L284 454L281 475L287 500L297 516L289 556L299 570L306 567L318 576L335 579L356 561L364 539L382 529L392 528L405 566L420 579L444 587L454 594L455 620L470 630L477 633L486 634L486 637L498 642L549 639L574 644L605 654L632 654L654 625L660 596L650 570L630 534L605 534L588 543L574 558L562 585L538 608L512 621L487 602L477 585L486 566L540 559L564 541L572 513L574 472L555 438L532 426L489 430L487 405L485 400L461 400L459 422L458 432L438 443L414 448L393 466L387 494L366 503L350 513L343 536L329 546L320 535L316 508L311 490L310 475L324 469L348 471L369 462L382 430L385 367L395 356L380 332L342 343L318 344L300 352L285 372L285 386L248 393L212 397L198 406L205 441L204 463L194 542L187 546L180 547L176 536L176 528L173 528L167 512L164 481L112 463L88 451L82 436L101 420L105 392L104 339L121 313L128 299L133 280L125 270L115 262L120 261L123 258L146 255L146 225L131 225L122 218L121 212L114 212L94 170L102 140L115 138L132 167L151 187L186 189L204 193L210 180L224 174L253 183L277 212L287 242L297 248L317 266L332 273L382 314L424 379L456 384L461 400L485 400L488 380L517 329L512 275L483 248L458 236L444 211L451 204L474 196L475 175L454 144L457 122L479 118L497 141L518 180L546 183L564 190L587 217L576 222L568 234L574 246L591 249L590 254L562 299L566 316L571 355L579 385L612 400L644 400L656 385L666 332L650 272L626 206L607 189L607 165L625 126L621 90L579 74L558 71L517 78L460 94L428 96L417 135L408 147L394 150L385 154L358 159L354 162L349 166L345 196L331 206L313 199L287 162L246 144L251 127L248 78L238 52L212 36L177 32L116 52L116 54L94 53L94 56L85 56L85 0L62 0Z" fill="#173d60" fill-rule="evenodd"/>
  <g id="c1-dark-rooms" clip-path="url(#c1-floor-clip)">
    <path d="" fill="#102b42"/>
    <path d="" fill="url(#c1-dark-hatch)"/>
  </g>
</g></g>
  <g id="c1-walls" fill="none" stroke="#8edfff" stroke-width="1.5" stroke-linejoin="miter">
  <path d="M62 28L62 56L50 56L50 53L43 53L40 56L41 61L36 66L38 78L47 88L79 92L84 100L72 111L59 150L19 180L6 258L2 273L11 298L15 317L13 392L46 453L46 472L70 485L106 496L125 506L138 518L140 524L142 531L143 610L121 610L114 618L114 630L118 635L122 639L144 639L148 662L151 669L164 669L174 663L174 588L180 591L200 587L219 578L222 550L225 487L232 442L239 420L255 416L268 425L281 425L278 440L284 454L281 475L287 500L297 516L289 556L299 570L306 567L318 576L335 579L356 561L364 539L382 529L392 528L405 566L420 579L444 587L454 594L455 620L470 630L477 633L486 634L486 637L498 642L549 639L574 644L605 654L632 654L654 625L660 596L650 570L630 534L605 534L588 543L574 558L562 585L538 608L512 621L487 602L477 585L486 566L540 559L564 541L572 513L574 472L555 438L532 426L489 430L487 405L485 400L461 400L459 422L458 432L438 443L414 448L393 466L387 494L366 503L350 513L343 536L329 546L320 535L316 508L311 490L310 475L324 469L348 471L369 462L382 430L385 367L395 356L380 332L342 343L318 344L300 352L285 372L285 386L248 393L212 397L198 406L205 441L204 463L194 542L187 546L180 547L176 536L176 528L173 528L167 512L164 481L112 463L88 451L82 436L101 420L105 392L104 339L121 313L128 299L133 280L125 270L115 262L120 261L123 258L146 255L146 225L131 225L122 218L121 212L114 212L94 170L102 140L115 138L132 167L151 187L186 189L204 193L210 180L224 174L253 183L277 212L287 242L297 248L317 266L332 273L382 314L424 379L456 384L461 400L485 400L488 380L517 329L512 275L483 248L458 236L444 211L451 204L474 196L475 175L454 144L457 122L479 118L497 141L518 180L546 183L564 190L587 217L576 222L568 234L574 246L591 249L590 254L562 299L566 316L571 355L579 385L612 400L644 400L656 385L666 332L650 272L626 206L607 189L607 165L625 126L621 90L579 74L558 71L517 78L460 94L428 96L417 135L408 147L394 150L385 154L358 159L354 162L349 166L345 196L331 206L313 199L287 162L246 144L251 127L248 78L238 52L212 36L177 32L116 52L116 54L94 53L94 56L85 56L85 0L62 0Z"/>
  <path d=""/>
  <path d=""/>
</g>

  <path d="M157 545 L157 505 L58 458 L60 158 L105 112 L135 112 L198 145 L262 172 L302 218 L345 218 L362 190 L380 172 L400 172 L420 140 L443 104 L570 104" fill="none" stroke="#071a31" stroke-opacity=".85" stroke-width="6.98585" stroke-linecap="round" stroke-linejoin="round"/><path data-role="main" d="M157 545 L157 505 L58 458 L60 158 L105 112 L135 112 L198 145 L262 172 L302 218 L345 218 L362 190 L380 172 L400 172 L420 140 L443 104 L570 104" fill="none" stroke="#ffd23f" stroke-width="4.07508" stroke-linecap="round" stroke-linejoin="round" marker-end="url(#arrow-main)"/><path d="M400 172 L396 218 L474 372 L472 398" fill="none" stroke="#071a31" stroke-opacity=".85" stroke-width="6.98585" stroke-linecap="round" stroke-linejoin="round"/><path data-role="main" d="M400 172 L396 218 L474 372 L472 398" fill="none" stroke="#ffd23f" stroke-width="4.07508" stroke-linecap="round" stroke-linejoin="round" marker-end="url(#arrow-main)"/><path d="M360 196 L345 210 L307 210 L275 172 L200 132 L135 100 L133 72 L85 72 L76 48" fill="none" stroke="#071a31" stroke-opacity=".85" stroke-width="5.82154" stroke-linecap="round" stroke-linejoin="round"/><path data-role="split" d="M360 196 L345 210 L307 210 L275 172 L200 132 L135 100 L133 72 L85 72 L76 48" fill="none" stroke="#f5f7ff" stroke-width="2.91077" stroke-linecap="round" stroke-linejoin="round"/><path d="M492 470 L463 500 L462 560 L478 625 L540 623 L562 590 L622 590" fill="none" stroke="#071a31" stroke-opacity=".85" stroke-width="5.82154" stroke-linecap="round" stroke-linejoin="round"/><path data-role="split" d="M492 470 L463 500 L462 560 L478 625 L540 623 L562 590 L622 590" fill="none" stroke="#f5f7ff" stroke-width="2.91077" stroke-linecap="round" stroke-linejoin="round" marker-end="url(#arrow-split)"/><path d="M635 590 L562 590 L540 623 L478 625 L462 560 L463 500 L472 420" fill="none" stroke="#071a31" stroke-opacity=".85" stroke-width="5.82154" stroke-linecap="round" stroke-linejoin="round"/><path data-role="split" d="M635 590 L562 590 L540 623 L478 625 L462 560 L463 500 L472 420" fill="none" stroke="#f5f7ff" stroke-width="2.91077" stroke-linecap="round" stroke-linejoin="round" marker-end="url(#arrow-split)"/><path d="M622 372 L647 290 L560 147 L520 140 L487 110 L458 106" fill="none" stroke="#071a31" stroke-opacity=".85" stroke-width="5.82154" stroke-linecap="round" stroke-linejoin="round"/><path data-role="solo" d="M622 372 L647 290 L560 147 L520 140 L487 110 L458 106" fill="none" stroke="#b48cff" stroke-width="2.91077" stroke-linecap="round" stroke-linejoin="round" marker-end="url(#arrow-solo)"/>
  <g transform="translate(78 57) scale(0.762092) rotate(90)" stroke="#061329" stroke-width="3" stroke-linejoin="round" filter="url(#shadow)"><rect x="-4" y="-19" width="8" height="38" rx="3" fill="#e0254b"/></g><g transform="translate(72 38) scale(0.762092)" stroke="#061329" stroke-width="3" stroke-linejoin="round" filter="url(#shadow)"><path d="M-14-11H14L0 14Z" fill="#f7a1b5"/><text y="4" text-anchor="middle" font-family="system-ui,-apple-system,sans-serif" font-size="13" font-weight="950" fill="#061329" stroke="none">1</text></g><g transform="translate(492 475) scale(0.762092)" stroke="#061329" stroke-width="3" stroke-linejoin="round" filter="url(#shadow)"><path d="M-14-11H14L0 14Z" fill="#f7a1b5"/><text y="4" text-anchor="middle" font-family="system-ui,-apple-system,sans-serif" font-size="13" font-weight="950" fill="#061329" stroke="none">1′</text></g><g transform="translate(28 200) scale(0.762092)" stroke="#061329" stroke-width="3" stroke-linejoin="round" filter="url(#shadow)"><circle r="10" fill="#8ee26b"/></g><g transform="translate(117 236) scale(0.762092)" stroke="#061329" stroke-width="3" stroke-linejoin="round" filter="url(#shadow)"><rect x="-4" y="-19" width="8" height="38" rx="3" fill="#8ee26b"/></g><g transform="translate(136 241) scale(0.762092)" stroke="#061329" stroke-width="3" stroke-linejoin="round" filter="url(#shadow)"><rect x="-10" y="-9" width="20" height="18" rx="4" fill="#2e9e4a"/><path d="M-10-2H10" fill="none"/></g><g transform="translate(368 172) scale(0.762092)" stroke="#061329" stroke-width="3" stroke-linejoin="round" filter="url(#shadow)"><circle r="10" fill="#2440ff"/></g><g transform="translate(439 134) scale(0.762092) rotate(110)" stroke="#061329" stroke-width="3" stroke-linejoin="round" filter="url(#shadow)"><rect x="-4" y="-19" width="8" height="38" rx="3" fill="#a45fbf"/></g><g transform="translate(441 164) scale(0.762092) rotate(40)" stroke="#061329" stroke-width="3" stroke-linejoin="round" filter="url(#shadow)"><rect x="-4" y="-19" width="8" height="38" rx="3" fill="#2440ff"/></g><g transform="translate(461 176) scale(0.762092)" stroke="#061329" stroke-width="3" stroke-linejoin="round" filter="url(#shadow)"><circle r="10" fill="#e0254b"/></g><g transform="translate(475 405) scale(0.762092) rotate(90)" stroke="#061329" stroke-width="3" stroke-linejoin="round" filter="url(#shadow)"><rect x="-4" y="-19" width="8" height="38" rx="3" fill="#f5b841"/></g><g transform="translate(529 148) scale(0.762092)" stroke="#061329" stroke-width="3" stroke-linejoin="round" filter="url(#shadow)"><circle r="10" fill="#f5b841"/></g><g transform="translate(586 108) scale(0.762092) rotate(135)" stroke="#061329" stroke-width="3" stroke-linejoin="round" filter="url(#shadow)"><rect x="-4" y="-19" width="8" height="38" rx="3" fill="#fff59d"/></g><g transform="translate(625 380) scale(0.762092)" stroke="#061329" stroke-width="3" stroke-linejoin="round" filter="url(#shadow)"><circle r="10" fill="#fff59d"/></g><g transform="translate(635 590) scale(0.762092)" stroke="#061329" stroke-width="3" stroke-linejoin="round" filter="url(#shadow)"><circle r="10" fill="#a45fbf"/></g><g transform="translate(445 185) scale(0.762092) rotate(-50)" stroke="#061329" stroke-width="3" stroke-linejoin="round" filter="url(#shadow)"><rect x="-4" y="-19" width="8" height="38" rx="3" fill="#2440ff"/></g>
</g>
<g transform="translate(177.108 281.076)" filter="url(#shadow)"><rect x="-15" y="-15" width="30" height="30" rx="7" fill="#ff9f43" stroke="#061329" stroke-width="3"/><text x="0" y="6" text-anchor="middle" fill="#061329" font-family="system-ui,-apple-system,sans-serif" font-size="18" font-weight="950">1</text></g><g transform="translate(118.532 76.061)" filter="url(#shadow)"><rect x="-15" y="-15" width="30" height="30" rx="7" fill="#ff9f43" stroke="#061329" stroke-width="3"/><text x="0" y="6" text-anchor="middle" fill="#061329" font-family="system-ui,-apple-system,sans-serif" font-size="18" font-weight="950">2</text></g><g transform="translate(414.244 209.273)" filter="url(#shadow)"><rect x="-15" y="-15" width="30" height="30" rx="7" fill="#ff9f43" stroke="#061329" stroke-width="3"/><text x="0" y="6" text-anchor="middle" fill="#061329" font-family="system-ui,-apple-system,sans-serif" font-size="18" font-weight="950">3</text></g><g transform="translate(488.881 463.416)" filter="url(#shadow)"><rect x="-15" y="-15" width="30" height="30" rx="7" fill="#ff9f43" stroke="#061329" stroke-width="3"/><text x="0" y="6" text-anchor="middle" fill="#061329" font-family="system-ui,-apple-system,sans-serif" font-size="18" font-weight="950">4</text></g><g transform="translate(552.18 180.93)" filter="url(#shadow)"><rect x="-15" y="-15" width="30" height="30" rx="7" fill="#ff9f43" stroke="#061329" stroke-width="3"/><text x="0" y="6" text-anchor="middle" fill="#061329" font-family="system-ui,-apple-system,sans-serif" font-size="18" font-weight="950">5</text></g>
<g transform="translate(173.328 593.794)" filter="url(#shadow)"><circle r="12" fill="#39d6ff" stroke="#061329" stroke-width="4"/><rect x="-43" y="-46" width="86" height="26" rx="13" fill="#061329" fill-opacity=".9" stroke="#39d6ff" stroke-width="2"/><text x="0" y="-27.5" text-anchor="middle" fill="#39d6ff" font-family="system-ui,-apple-system,sans-serif" font-size="16" font-weight="900">スタート</text></g><g transform="translate(584.302 150.698)" filter="url(#shadow)"><circle r="12" fill="#ff5ca8" stroke="#061329" stroke-width="4"/><rect x="-59" y="-46" width="118" height="26" rx="13" fill="#061329" fill-opacity=".9" stroke="#ff5ca8" stroke-width="2"/><text x="0" y="-27.5" text-anchor="middle" fill="#ff5ca8" font-family="system-ui,-apple-system,sans-serif" font-size="16" font-weight="900">次のエリアへ</text></g>
<path d="M153.488 287.689L705 287.689" fill="none" stroke="#a0e5b6" stroke-opacity=".7" stroke-width="1" stroke-dasharray="2 3"/><circle cx="153.488" cy="287.689" r="2.5" fill="#a0e5b6"/><path d="M372.674 222.5L705 195" fill="none" stroke="#a9d8ed" stroke-opacity=".7" stroke-width="1" stroke-dasharray="2 3"/><circle cx="372.674" cy="222.5" r="2.5" fill="#a9d8ed"/><path d="M439.753 186.599L705 92" fill="none" stroke="#a9d8ed" stroke-opacity=".7" stroke-width="1" stroke-dasharray="2 3"/><circle cx="439.753" cy="186.599" r="2.5" fill="#a9d8ed"/><path d="M453.924 345.32L705 395" fill="none" stroke="#a9d8ed" stroke-opacity=".7" stroke-width="1" stroke-dasharray="2 3"/><circle cx="453.924" cy="345.32" r="2.5" fill="#a9d8ed"/><path d="M610.756 364.215L705 490" fill="none" stroke="#a9d8ed" stroke-opacity=".7" stroke-width="1" stroke-dasharray="2 3"/><circle cx="610.756" cy="364.215" r="2.5" fill="#a9d8ed"/><path d="M624.927 617.413L705 617.413" fill="none" stroke="#a9d8ed" stroke-opacity=".7" stroke-width="1" stroke-dasharray="2 3"/><circle cx="624.927" cy="617.413" r="2.5" fill="#a9d8ed"/><g data-callout="two-player-boxes"><title>Ephinea C1 Guide: Area 01 room 1 optional two-player boxes</title><rect data-callout-box="" x="705" y="285" width="275" height="50" rx="5" fill="#10263a" stroke="#a0e5b6" stroke-opacity=".35"/><text x="713" y="305" text-anchor="start" fill="#a0e5b6" font-family="system-ui,-apple-system,sans-serif" font-size="13" font-weight="650">任意の箱回収。1人が緑の床を踏み、もう1</text><text x="713" y="323" text-anchor="start" fill="#a0e5b6" font-family="system-ui,-apple-system,sans-serif" font-size="13" font-weight="650">人が回収。</text></g><g data-callout="blue-pad-red-switch"><title>PSO Palace C1 Area 01; Ephinea C1 room 3</title><rect data-callout-box="" x="705" y="145" width="275" height="50" rx="5" fill="#10263a" stroke="#a9d8ed" stroke-opacity=".35"/><text x="713" y="165" text-anchor="start" fill="#a9d8ed" font-family="system-ui,-apple-system,sans-serif" font-size="13" font-weight="650">箱の下の青い床を1人が踏み、もう1人が柵</text><text x="713" y="183" text-anchor="start" fill="#a9d8ed" font-family="system-ui,-apple-system,sans-serif" font-size="13" font-weight="650">の中の赤スイッチへ。</text></g><g data-callout="wait-at-purple-door"><title>Sakura Area 1: 一人は扉が開くまで待機; PSO Palace</title><rect data-callout-box="" x="705" y="60" width="275" height="32" rx="5" fill="#10263a" stroke="#a9d8ed" stroke-opacity=".35"/><text x="713" y="80" text-anchor="start" fill="#a9d8ed" font-family="system-ui,-apple-system,sans-serif" font-size="13" font-weight="650">紫の扉前に1人が待機。他は1→1′で先行。</text></g><g data-callout="skip-central-enemies"><title>PSO World Area 01: Ignore enemies; Sakura Area 1</title><rect data-callout-box="" x="705" y="395" width="275" height="32" rx="5" fill="#10263a" stroke="#a9d8ed" stroke-opacity=".35"/><text x="713" y="415" text-anchor="start" fill="#a9d8ed" font-family="system-ui,-apple-system,sans-serif" font-size="13" font-weight="650">この通路の敵は無視してスイッチへ。</text></g><g data-callout="skip-east-enemies"><title>PSO World Area 01: Ignore enemies; PSO Palace C1</title><rect data-callout-box="" x="705" y="490" width="275" height="50" rx="5" fill="#10263a" stroke="#a9d8ed" stroke-opacity=".35"/><text x="713" y="510" text-anchor="start" fill="#a9d8ed" font-family="system-ui,-apple-system,sans-serif" font-size="13" font-weight="650">黄スイッチで開門し、敵を無視して東端の</text><text x="713" y="528" text-anchor="start" fill="#a9d8ed" font-family="system-ui,-apple-system,sans-serif" font-size="13" font-weight="650">出口スイッチへ。</text></g><g data-callout="pink-switch-return"><title>Sakura Area 1: 敵は無視; PSO Palace C1</title><rect data-callout-box="" x="705" y="590" width="275" height="50" rx="5" fill="#10263a" stroke="#a9d8ed" stroke-opacity=".35"/><text x="713" y="610" text-anchor="start" fill="#a9d8ed" font-family="system-ui,-apple-system,sans-serif" font-size="13" font-weight="650">1人が敵を無視して桃スイッチを押し、扉前</text><text x="713" y="628" text-anchor="start" fill="#a9d8ed" font-family="system-ui,-apple-system,sans-serif" font-size="13" font-weight="650">へ戻る。</text></g>
<path d="M30 726h34" stroke="#ffd23f" stroke-width="7" stroke-linecap="round"/><text x="74" y="732" text-anchor="start" fill="#dff8ff" font-family="system-ui,-apple-system,sans-serif" font-size="15" font-weight="800">メインルート</text><path d="M200 726h34" stroke="#f5f7ff" stroke-width="5" stroke-linecap="round"/><text x="244" y="732" text-anchor="start" fill="#dff8ff" font-family="system-ui,-apple-system,sans-serif" font-size="15" font-weight="800">分担ルート</text><path d="M355 726h34" stroke="#b48cff" stroke-width="5" stroke-linecap="round"/><text x="399" y="732" text-anchor="start" fill="#dff8ff" font-family="system-ui,-apple-system,sans-serif" font-size="15" font-weight="800">単独ルート</text>
<g transform="translate(34 764) scale(0.769231) rotate(90)" stroke="#061329" stroke-width="3" stroke-linejoin="round" filter="url(#shadow)"><rect x="-4" y="-19" width="8" height="38" rx="3" fill="#a9d8ed"/></g><text x="54" y="769" text-anchor="start" fill="#a9d8ed" font-family="system-ui,-apple-system,sans-serif" font-size="13" font-weight="650">ゲート</text><g transform="translate(133 764) scale(0.769231)" stroke="#061329" stroke-width="3" stroke-linejoin="round" filter="url(#shadow)"><path d="M-14-11H14L0 14Z" fill="#a9d8ed"/><text y="4" text-anchor="middle" font-family="system-ui,-apple-system,sans-serif" font-size="13" font-weight="950" fill="#061329" stroke="none">1</text></g><text x="153" y="769" text-anchor="start" fill="#a9d8ed" font-family="system-ui,-apple-system,sans-serif" font-size="13" font-weight="650">ワープ 1→1′</text><g transform="translate(272.3 764) scale(0.769231)" stroke="#061329" stroke-width="3" stroke-linejoin="round" filter="url(#shadow)"><circle r="10" fill="#a9d8ed"/></g><text x="292.3" y="769" text-anchor="start" fill="#a9d8ed" font-family="system-ui,-apple-system,sans-serif" font-size="13" font-weight="650">床スイッチ</text><g transform="translate(397.3 764) scale(0.769231)" stroke="#061329" stroke-width="3" stroke-linejoin="round" filter="url(#shadow)"><rect x="-10" y="-9" width="20" height="18" rx="4" fill="#a9d8ed"/><path d="M-10-2H10" fill="none"/></g><text x="417.3" y="769" text-anchor="start" fill="#a9d8ed" font-family="system-ui,-apple-system,sans-serif" font-size="13" font-weight="650">箱</text>
<g transform="translate(18 794)">
  <rect width="964" height="310" rx="14" fill="#0b2745" stroke="#2c648b" stroke-width="2"/>
  <text x="24" y="34" text-anchor="start" fill="#e7f9ff" font-family="system-ui,-apple-system,sans-serif" font-size="19" font-weight="900">重要ポイント</text>
  <g transform="translate(40 61)" filter="url(#shadow)"><rect x="-14" y="-14" width="28" height="28" rx="7" fill="#ff9f43" stroke="#061329" stroke-width="3"/><text x="0" y="5.6" text-anchor="middle" fill="#061329" font-family="system-ui,-apple-system,sans-serif" font-size="16" font-weight="950">1</text></g><text x="68" y="66" fill="#bcd7ea" font-family="system-ui,-apple-system,sans-serif" font-size="15" font-weight="650"><tspan x="68" dy="0">最初の箱は任意回収。1人が緑の床、もう1人が回収を担当し、</tspan><tspan x="68" dy="24">他は先行。</tspan></text><g transform="translate(504 61)" filter="url(#shadow)"><rect x="-14" y="-14" width="28" height="28" rx="7" fill="#ff9f43" stroke="#061329" stroke-width="3"/><text x="0" y="5.6" text-anchor="middle" fill="#061329" font-family="system-ui,-apple-system,sans-serif" font-size="16" font-weight="950">2</text></g><text x="532" y="66" fill="#bcd7ea" font-family="system-ui,-apple-system,sans-serif" font-size="15" font-weight="650"><tspan x="532" dy="0">強い2人はバリア前で待機し、残り2人がスイッチへ。</tspan></text><g transform="translate(40 131)" filter="url(#shadow)"><rect x="-14" y="-14" width="28" height="28" rx="7" fill="#ff9f43" stroke="#061329" stroke-width="3"/><text x="0" y="5.6" text-anchor="middle" fill="#061329" font-family="system-ui,-apple-system,sans-serif" font-size="16" font-weight="950">3</text></g><text x="68" y="136" fill="#bcd7ea" font-family="system-ui,-apple-system,sans-serif" font-size="15" font-weight="650"><tspan x="68" dy="0">敵を無視してスイッチを踏む。最弱役を残し、もう1人は</tspan><tspan x="68" dy="24">1→1′で援護へ。</tspan></text><g transform="translate(504 117)" filter="url(#shadow)"><rect x="-14" y="-14" width="28" height="28" rx="7" fill="#ff9f43" stroke="#061329" stroke-width="3"/><text x="0" y="5.6" text-anchor="middle" fill="#061329" font-family="system-ui,-apple-system,sans-serif" font-size="16" font-weight="950">4</text></g><text x="532" y="122" fill="#bcd7ea" font-family="system-ui,-apple-system,sans-serif" font-size="15" font-weight="650"><tspan x="532" dy="0">殲滅後、1人が南へ走り敵を無視して桃色スイッチ。他は扉</tspan><tspan x="532" dy="24">前待機。</tspan></text><g transform="translate(40 201)" filter="url(#shadow)"><rect x="-14" y="-14" width="28" height="28" rx="7" fill="#ff9f43" stroke="#061329" stroke-width="3"/><text x="0" y="5.6" text-anchor="middle" fill="#061329" font-family="system-ui,-apple-system,sans-serif" font-size="16" font-weight="950">5</text></g><text x="68" y="206" fill="#bcd7ea" font-family="system-ui,-apple-system,sans-serif" font-size="15" font-weight="650"><tspan x="68" dy="0">待機役が黄色スイッチで開門し、そのまま敵を無視して次エ</tspan><tspan x="68" dy="24">リア用スイッチへ。</tspan></text>
  <text x="940" y="296" text-anchor="end" fill="#7698b1" font-family="system-ui,-apple-system,sans-serif" font-size="13" font-weight="650">攻略情報：PSO World · Sakura</text>
</g>
</svg>
