<svg xmlns="http://www.w3.org/2000/svg" viewBox="0 0 688 1155" role="img" aria-labelledby="title desc" shape-rendering="geometricPrecision">
<title id="title">エリア 01</title>
<desc id="desc">メインルート.</desc>
<defs><filter id="shadow" x="-20%" y="-20%" width="140%" height="140%"><feDropShadow dx="0" dy="3" stdDeviation="4" flood-color="#000" flood-opacity=".32"/></filter></defs>
<rect width="688" height="1155" rx="18" fill="#071a31"/>
<g transform="translate(0 0)">
  <g filter="url(#shadow)"><g transform="translate(0.000000,671.000000) scale(0.100000,-0.100000)"
fill="#173d60" stroke="none">
<path d=""/>
</g></g>
  <g><g transform="translate(0.000000,671.000000) scale(0.100000,-0.100000)"
fill="#8edfff" stroke="none">
<path d="M1443 6302 c-281 -96 -344 -122 -299 -122 8 0 152 47 320 104 l306
105 178 -22 177 -22 126 -77 126 -78 51 -132 51 -133 13 -244 c13 -240 13
-244 -9 -324 -12 -45 -19 -84 -15 -88 4 -3 48 -23 97 -44 50 -21 138 -62 197
-91 l107 -54 98 -136 c166 -232 159 -225 255 -263 56 -22 90 -30 100 -25 39
24 128 98 128 106 0 5 9 69 20 141 18 115 25 136 48 160 47 49 83 64 202 82
89 13 142 29 235 67 109 45 167 78 138 78 -6 0 -65 -23 -130 -51 -94 -41 -144
-55 -249 -73 -133 -23 -144 -27 -207 -82 -35 -31 -36 -34 -57 -175 -12 -79
-23 -145 -24 -146 0 0 -27 -22 -60 -47 l-58 -45 -47 19 c-122 49 -113 40 -248
229 l-128 179 -145 70 c-80 38 -167 78 -194 88 -26 11 -50 24 -53 30 -2 6 5
42 15 80 18 66 18 80 4 324 l-14 255 -52 130 -51 130 -132 81 -132 81 -148 17
c-81 9 -166 19 -188 22 -32 3 -104 -18 -352 -104z M369 6090 c-25 -19 -25 -21
-17 -97 8 -76 10 -79 59 -129 l50 -51 142 -18 c168 -22 184 -26 199 -61 11
-25 9 -29 -41 -72 -65 -56 -89 -105 -145 -297 l-41 -140 -187 -140 c-103 -77
-194 -147 -202 -155 -10 -10 -36 -140 -75 -380 -34 -201 -72 -411 -87 -468
l-26 -103 51 -137 c77 -211 82 -252 73 -687 l-7 -370 165 -310 165 -310 5 -98
5 -98 61 -27 c33 -15 88 -44 121 -64 38 -24 126 -58 244 -96 221 -71 321 -120
414 -201 67 -59 71 -66 92 -139 14 -50 22 -107 22 -164 l1 -88 -282 -3 c-180
-1 -135 -2 122 -3 223 0 354 2 293 3 l-113 4 0 85 c0 53 -8 116 -21 168 -20
82 -21 83 -96 150 -98 87 -202 139 -428 211 -117 37 -201 70 -240 94 -33 20
-86 48 -117 62 l-58 24 0 90 0 90 -168 313 -167 313 8 372 c9 438 4 480 -73
685 l-50 134 20 71 c11 40 50 247 86 461 35 214 67 392 69 397 3 4 94 73 203
153 l198 147 33 122 c53 194 81 252 153 318 l61 56 -23 40 c-26 46 -15 43
-215 69 l-130 17 -47 46 c-46 44 -48 49 -54 117 l-7 71 31 14 c21 9 27 16 19
21 -16 11 -18 10 -48 -12z M5360 5984 c-128 -23 -292 -62 -476 -114 -261 -73
-292 -80 -448 -94 -93 -8 -170 -17 -171 -18 -1 -2 -17 -63 -35 -135 -18 -73
-37 -133 -44 -134 -6 0 -2 -4 9 -9 27 -12 37 -12 30 -1 -3 6 9 66 26 135 l31
125 42 6 c22 3 97 10 166 16 107 9 166 22 405 89 334 95 655 155 743 141 39
-6 52 -5 52 4 0 12 -68 26 -114 24 -12 0 -109 -16 -216 -35z M4660 5508 c-47
-10 -88 -22 -91 -26 -11 -12 -20 -122 -10 -122 11 0 21 35 21 77 0 30 2 32 58
43 31 6 74 16 96 21 21 6 39 9 40 7 2 -2 44 -53 94 -115 65 -79 107 -144 148
-225 31 -62 79 -150 107 -194 l50 -81 141 -15 c124 -14 151 -20 228 -54 84
-38 91 -43 192 -158 l105 -119 -47 -22 c-38 -17 -57 -36 -91 -88 l-42 -66 29
-68 30 -68 54 -12 c29 -6 66 -12 82 -12 27 -1 28 -3 22 -33 -3 -18 -29 -64
-56 -103 -28 -38 -88 -133 -134 -211 l-85 -140 19 -85 c11 -46 31 -174 45
-284 19 -149 36 -240 68 -350 l42 -150 165 -82 165 -82 169 2 170 2 65 79 65
78 48 252 c26 138 48 266 48 284 0 18 -31 157 -70 310 -61 242 -86 320 -199
621 l-130 345 -96 89 -95 89 0 96 0 97 71 145 c89 183 101 210 88 210 -6 0
-48 -78 -95 -174 l-84 -174 0 -110 c0 -83 3 -113 14 -119 7 -4 50 -43 95 -85
l83 -77 128 -340 c113 -302 135 -373 200 -631 l73 -291 -49 -262 -49 -261 -64
-78 -63 -78 -153 0 -153 0 -164 78 -163 79 -43 149 c-31 111 -48 202 -67 350
-14 109 -32 226 -40 259 -8 33 -14 70 -15 82 0 27 109 214 192 330 50 70 88
145 88 174 0 10 -18 15 -105 29 l-70 11 -23 52 c-12 29 -22 58 -22 65 0 7 17
39 39 70 32 48 47 60 90 76 29 10 50 23 49 28 -2 6 -55 68 -118 139 -112 126
-116 130 -200 165 -68 29 -110 39 -205 50 -66 7 -128 14 -138 14 -22 0 -88
103 -167 261 -71 141 -239 360 -275 358 -11 -1 -58 -10 -105 -21z M1065 5321
l-40 -6 -37 -110 c-65 -193 -67 -179 55 -414 58 -112 108 -198 112 -192 3 6
-40 100 -96 208 l-102 196 12 56 c7 31 26 97 42 147 l30 91 47 6 c30 3 51 1
58 -6 6 -7 48 -73 92 -147 61 -101 105 -160 174 -232 l93 -98 155 -6 c132 -5
228 -18 366 -49 17 -4 27 7 58 63 33 60 42 69 92 91 31 13 62 24 69 24 7 0 73
-17 146 -39 l133 -39 115 -145 116 -145 49 -151 49 -151 46 -24 c25 -13 94
-68 153 -122 83 -76 125 -106 187 -135 65 -30 129 -77 323 -237 l243 -199 178
-281 c98 -154 193 -300 211 -325 l33 -46 104 -16 c57 -10 127 -22 155 -28 l52
-11 24 -67 25 -67 -91 -6 c-63 -3 -25 -6 125 -7 160 -2 219 1 231 11 9 7 19
44 26 99 l11 87 147 252 c81 139 149 262 151 273 2 12 -10 140 -25 285 l-28
263 -145 138 -144 138 -130 57 -130 57 -62 119 -62 119 32 24 c18 13 81 43
142 66 60 22 113 44 117 48 4 4 10 57 14 117 l7 111 -99 138 c-55 76 -98 143
-97 147 2 5 -7 9 -18 9 -21 0 -21 -1 -3 -27 10 -16 46 -67 81 -115 35 -49 60
-88 56 -88 -5 0 1 -7 11 -15 11 -8 16 -15 11 -15 -5 0 1 -7 13 -16 24 -17 27
-45 16 -166 l-7 -67 -114 -42 c-69 -26 -128 -55 -150 -74 l-37 -32 66 -128 66
-128 135 -61 135 -61 138 -132 138 -132 28 -268 28 -269 -150 -257 c-145 -248
-151 -261 -161 -335 -18 -136 -3 -122 -133 -122 l-114 0 -28 79 -28 80 -111
20 c-60 12 -132 24 -159 28 l-49 6 -111 171 c-62 94 -156 241 -210 326 l-98
155 -244 200 c-196 161 -260 207 -324 237 -63 29 -103 58 -181 130 -55 51
-122 105 -149 121 l-49 28 -51 152 -51 152 -117 145 -117 144 -146 44 -146 44
-69 -30 c-64 -28 -71 -35 -102 -91 -19 -34 -40 -61 -48 -61 -8 0 -54 9 -102
19 -52 11 -151 21 -247 25 l-160 6 -88 93 c-65 69 -111 131 -180 245 -100 166
-89 157 -182 143z M1221 4342 c-1 -203 0 -222 15 -208 9 10 33 16 62 16 79 0
120 10 125 31 5 20 -18 28 -25 8 -2 -6 -41 -14 -86 -18 l-82 -7 0 160 0 159
34 -39 c29 -33 31 -40 17 -46 -9 -4 29 -6 84 -5 76 1 84 2 33 4 l-68 4 -47 55
c-27 30 -51 67 -54 82 -4 15 -7 -73 -8 -196z M1207 4041 c34 -31 73 -73 89
-94 l27 -38 -22 -96 c-27 -116 -57 -177 -174 -352 l-90 -135 7 -261 c6 -234 5
-275 -14 -400 l-20 -140 -57 -50 c-32 -27 -75 -66 -96 -85 l-39 -35 30 -75 30
-75 108 -59 c73 -39 161 -75 264 -108 261 -83 381 -131 390 -153 4 -11 12 -83
19 -161 11 -135 14 -147 75 -310 71 -187 67 -183 151 -161 l50 13 42 275 c26
175 47 362 58 517 l17 243 -32 152 c-17 84 -34 159 -36 169 -3 11 16 30 68 65
l73 49 155 18 c134 15 343 50 528 87 l52 10 0 75 0 75 68 89 c66 87 68 89 167
134 93 42 107 45 210 51 94 5 138 14 298 62 103 30 189 54 191 52 2 -2 36 -57
76 -122 l72 -117 -38 -46 c-22 -25 -44 -53 -51 -62 -7 -11 -16 -124 -24 -322
l-13 -304 -65 -165 -66 -164 -100 -40 -100 -39 -127 6 c-125 6 -127 6 -194
-24 l-67 -30 7 -78 c3 -43 16 -111 27 -152 12 -41 31 -141 43 -221 23 -148 27
-158 84 -223 36 -41 32 -42 117 25 60 47 61 48 95 154 l35 108 71 48 c40 26
120 68 180 91 l108 44 36 141 c39 157 37 154 172 274 l66 59 119 21 c108 19
127 26 224 81 l106 60 27 105 c15 58 24 108 21 111 -10 11 -19 -13 -44 -110
l-24 -94 -101 -56 c-91 -50 -113 -58 -219 -77 -132 -23 -125 -19 -262 -151
l-71 -68 -34 -140 -34 -140 -105 -42 c-63 -24 -137 -63 -181 -94 l-75 -53 -35
-107 c-33 -104 -35 -107 -91 -151 -32 -25 -60 -45 -62 -45 -3 0 -22 20 -43 45
-36 44 -38 52 -59 193 -13 81 -32 181 -43 222 -12 41 -24 104 -28 140 l-6 66
63 27 c61 25 70 26 187 20 l122 -6 108 42 108 42 66 172 66 172 12 295 c7 182
16 303 23 317 7 12 31 44 54 71 l42 49 -75 124 c-42 68 -81 129 -87 136 -9 9
-58 -2 -207 -47 -168 -51 -210 -60 -305 -65 -102 -6 -117 -9 -210 -51 -100
-45 -101 -45 -173 -139 l-72 -94 0 -70 c0 -65 -2 -71 -22 -76 -88 -21 -420
-76 -548 -91 l-155 -18 -73 -49 c-41 -27 -76 -55 -78 -61 -3 -7 11 -89 31
-182 l35 -169 -16 -235 c-10 -152 -30 -330 -57 -505 l-42 -269 -45 -13 c-24
-7 -47 -10 -51 -5 -4 4 -35 79 -67 168 -54 144 -61 172 -71 280 -6 65 -14 138
-17 160 l-5 42 -122 45 c-67 26 -192 68 -277 95 -98 31 -193 70 -259 105 -103
55 -104 56 -128 113 -12 32 -23 63 -23 69 0 7 40 46 89 88 l88 75 19 114 c16
96 19 156 16 405 l-3 292 78 118 c121 181 159 258 187 373 l23 101 -42 57
c-23 32 -57 70 -76 86 -19 16 -33 32 -32 36 1 4 -10 8 -24 8 -24 0 -22 -5 34
-57z M2515 2545 c-5 -2 -36 -11 -67 -20 l-57 -16 -35 -107 c-61 -182 -104
-486 -121 -852 -13 -277 -26 -451 -42 -568 -5 -43 -6 -43 -95 -88 -54 -27
-129 -54 -194 -70 -97 -23 -107 -24 -129 -10 -14 9 -27 16 -30 16 -3 0 -5
-168 -5 -373 l0 -372 -54 -33 c-45 -26 -64 -32 -113 -32 l-59 0 -22 53 c-11
28 -26 96 -33 150 l-12 97 -111 0 -110 0 -43 42 c-42 41 -43 44 -43 108 0 62
2 68 33 98 l33 32 112 0 112 0 0 195 c0 123 -4 195 -10 195 -6 0 -10 -68 -10
-185 l0 -185 -108 0 -108 0 -37 -38 c-36 -37 -37 -40 -37 -113 l0 -75 48 -47
48 -47 106 0 105 0 13 -97 c7 -54 24 -121 36 -150 l24 -53 71 0 c64 0 77 4
130 36 l59 35 0 359 0 359 28 -5 c44 -9 226 43 326 93 50 25 92 46 93 47 8 6
36 366 48 611 16 356 62 681 118 851 l33 99 68 23 68 23 62 -41 c56 -36 69
-40 124 -40 34 0 62 -3 62 -7 -1 -5 -7 -35 -14 -69 -13 -59 -12 -63 16 -135
l30 -74 -14 -109 c-15 -108 -15 -108 14 -230 24 -102 36 -133 78 -199 l50 -79
-35 -157 c-19 -86 -38 -178 -41 -204 -7 -50 -13 -38 97 -179 15 -19 17 -19 53
-4 l38 16 57 -44 c52 -40 64 -45 148 -57 l91 -13 108 87 109 86 45 117 45 117
75 42 c45 26 93 45 121 49 l47 5 62 -184 62 -185 76 -68 c71 -63 86 -72 197
-111 66 -23 141 -56 166 -73 53 -35 59 -53 59 -169 0 -115 5 -125 79 -175 36
-24 134 -73 218 -108 l152 -64 248 14 c243 15 250 15 363 -6 63 -12 185 -43
271 -71 l155 -49 156 0 156 0 115 144 115 143 30 149 30 149 -49 135 c-47 127
-233 483 -263 502 -6 4 -67 8 -136 7 l-125 0 -92 -47 c-135 -69 -199 -144
-284 -333 l-64 -142 -123 -116 c-113 -107 -131 -120 -235 -168 -62 -29 -116
-53 -122 -53 -5 1 -62 38 -125 83 -107 76 -118 88 -162 163 l-48 82 41 90 41
89 52 7 c28 3 151 19 273 35 l222 29 123 95 124 96 37 138 c34 130 36 150 43
349 l7 212 -94 175 -94 175 -120 59 -120 60 -150 -14 c-82 -8 -152 -16 -154
-19 -13 -13 21 -14 155 -3 l149 12 111 -56 112 -56 92 -168 92 -168 -6 -200
c-6 -186 -9 -210 -43 -342 l-36 -142 -119 -92 -120 -91 -221 -29 c-122 -16
-246 -32 -276 -35 l-54 -7 -43 -94 c-24 -52 -44 -99 -44 -104 0 -5 23 -49 51
-97 48 -81 58 -92 152 -157 169 -118 133 -113 276 -46 116 55 132 66 246 172
l123 114 67 148 c88 193 145 260 279 329 l91 47 121 0 120 1 102 -183 c96
-173 192 -399 192 -452 0 -12 -12 -79 -26 -150 l-26 -128 -111 -138 -111 -139
-144 0 -144 0 -156 50 c-87 27 -209 59 -272 71 -113 21 -119 21 -365 6 l-250
-15 -149 64 c-82 35 -177 82 -211 104 -70 46 -75 56 -75 169 0 120 -6 135 -66
176 -30 21 -106 55 -172 79 -110 38 -124 46 -189 106 l-71 65 -50 150 c-28 83
-58 167 -67 188 l-16 38 -61 -7 c-47 -5 -79 -17 -138 -53 l-76 -45 -43 -116
-42 -116 -105 -83 -105 -83 -80 12 c-70 11 -89 19 -142 58 -57 42 -63 44 -92
33 -17 -6 -34 -11 -37 -11 -4 0 -30 29 -58 65 l-52 65 38 178 c20 97 39 188
41 202 3 19 -10 49 -46 105 -43 68 -54 98 -77 197 -27 114 -27 120 -15 230
l13 113 -27 68 c-27 68 -27 69 -13 142 8 41 13 77 10 80 -3 3 -35 5 -71 5 -60
0 -71 4 -126 40 -56 37 -75 44 -100 35z"/>
</g></g>
  <g><g transform="translate(0.000000,671.000000) scale(0.100000,-0.100000)"
fill="#ff5c72" stroke="none">
<path d="M623 6703 c-35 -2 -63 -6 -63 -9 0 -3 9 -22 20 -44 25 -49 25 -60 0
-60 -19 0 -19 -2 -6 -32 28 -67 99 -208 105 -208 3 0 25 46 48 103 61 147 58
137 34 137 -26 0 -26 -2 3 65 l25 55 -52 -2 c-29 -1 -80 -3 -114 -5z m137 -17
c0 -17 -68 -177 -80 -190 -5 -5 -28 33 -54 89 -25 54 -46 99 -46 101 0 2 24 5
53 7 117 8 127 7 127 -7z m-115 -172 c15 -36 31 -62 35 -57 4 4 17 34 30 66
16 41 28 57 41 57 16 0 15 -8 -17 -82 -20 -46 -40 -94 -46 -108 -9 -23 -13
-17 -59 79 -27 57 -49 105 -49 107 0 2 8 4 18 4 14 0 27 -18 47 -66z M424
6145 c-3 -8 -3 -19 1 -25 10 -17 686 -14 710 3 45 33 10 37 -351 37 -301 0
-355 -2 -360 -15z M4490 5680 c0 -5 14 -10 30 -10 17 0 30 5 30 10 0 6 -13 10
-30 10 -16 0 -30 -4 -30 -10z M4600 5680 c0 -5 14 -10 31 -10 17 0 28 4 24 10
-3 6 -17 10 -31 10 -13 0 -24 -4 -24 -10z M4723 5673 c9 -2 23 -2 30 0 6 3 -1
5 -18 5 -16 0 -22 -2 -12 -5z M4833 5673 c9 -2 23 -2 30 0 6 3 -1 5 -18 5 -16
0 -22 -2 -12 -5z M4943 5673 c9 -2 23 -2 30 0 6 3 -1 5 -18 5 -16 0 -22 -2
-12 -5z M5043 5673 c9 -2 25 -2 35 0 9 3 1 5 -18 5 -19 0 -27 -2 -17 -5z
M5140 5670 c0 -5 14 -10 30 -10 17 0 30 5 30 10 0 6 -13 10 -30 10 -16 0 -30
-4 -30 -10z M5250 5670 c0 -5 11 -10 25 -10 14 0 25 5 25 10 0 6 -11 10 -25
10 -14 0 -25 -4 -25 -10z M5360 5670 c0 -5 11 -10 25 -10 14 0 25 5 25 10 0 6
-11 10 -25 10 -14 0 -25 -4 -25 -10z M5470 5670 c0 -5 11 -10 25 -10 14 0 25
5 25 10 0 6 -11 10 -25 10 -14 0 -25 -4 -25 -10z M5570 5670 c0 -5 14 -10 30
-10 17 0 30 5 30 10 0 6 -13 10 -30 10 -16 0 -30 -4 -30 -10z M4424 5655 c-11
-27 2 -37 14 -11 7 16 8 26 1 26 -5 0 -12 -7 -15 -15z M5803 5663 c9 -2 23 -2
30 0 6 3 -1 5 -18 5 -16 0 -22 -2 -12 -5z M4472 5605 c-7 -15 -8 -25 -2 -25
13 0 32 38 21 44 -4 3 -13 -6 -19 -19z M4550 5619 c0 -5 11 -9 25 -9 14 0 25
2 25 4 0 2 -11 6 -25 8 -14 3 -25 1 -25 -3z M4650 5610 c0 -5 14 -10 31 -10
17 0 28 4 24 10 -3 6 -17 10 -31 10 -13 0 -24 -4 -24 -10z M4760 5600 c0 -5
14 -10 30 -10 17 0 30 5 30 10 0 6 -13 10 -30 10 -16 0 -30 -4 -30 -10z M1095
5590 c3 -5 17 -10 31 -10 13 0 24 5 24 10 0 6 -14 10 -31 10 -17 0 -28 -4 -24
-10z M4888 5584 c13 -9 26 -13 30 -9 8 8 -17 25 -38 25 -9 0 -6 -6 8 -16z
M1213 5583 c9 -2 25 -2 35 0 9 3 1 5 -18 5 -19 0 -27 -2 -17 -5z M1310 5581
c0 -10 42 -23 49 -15 7 6 -20 24 -36 24 -7 0 -13 -4 -13 -9z M4380 5559 c-13
-24 -4 -41 10 -19 10 16 13 40 5 40 -2 0 -9 -9 -15 -21z M1025 5540 c-10 -11
-14 -20 -8 -20 5 0 18 9 28 20 10 11 14 20 8 20 -5 0 -18 -9 -28 -20z M1410
5540 c0 -9 31 -30 44 -30 16 0 3 18 -19 28 -14 7 -25 8 -25 2z M4950 5530 c0
-9 32 -30 46 -30 4 0 -1 9 -11 20 -19 21 -35 26 -35 10z M4422 5505 c-14 -29
2 -34 18 -6 12 24 13 31 2 31 -5 0 -14 -11 -20 -25z M1500 5492 c0 -13 48 -33
54 -23 3 4 -6 13 -20 20 -30 13 -34 14 -34 3z M955 5470 c-10 -11 -16 -22 -13
-25 3 -3 13 4 23 15 10 11 16 22 13 25 -3 3 -13 -4 -23 -15z M4330 5460 c-7
-13 -7 -20 -1 -20 6 0 15 9 21 20 7 13 7 20 1 20 -6 0 -15 -9 -21 -20z M5030
5462 c0 -14 39 -46 47 -39 3 4 -2 16 -12 27 -19 21 -35 26 -35 12z M1600 5442
c0 -5 11 -14 25 -20 29 -14 34 2 6 18 -24 12 -31 13 -31 2z M875 5390 c-10
-11 -16 -22 -13 -25 3 -3 13 4 23 15 10 11 16 22 13 25 -3 3 -13 -4 -23 -15z
M1700 5391 c0 -10 24 -21 43 -21 7 0 3 7 -7 15 -22 17 -36 19 -36 6z M5125
5370 c10 -11 23 -20 28 -20 6 0 2 9 -8 20 -10 11 -23 20 -28 20 -6 0 -2 -9 8
-20z M1804 5335 c11 -8 27 -15 35 -15 13 1 12 4 -3 15 -11 8 -27 15 -35 15
-13 -1 -12 -4 3 -15z M4178 5329 c-28 -16 -21 -30 7 -17 14 6 25 15 25 20 0
11 -11 10 -32 -3z M795 5310 c-10 -11 -14 -20 -8 -20 5 0 18 9 28 20 10 11 14
20 8 20 -5 0 -18 -9 -28 -20z M4326 5314 c-11 -28 -6 -39 9 -20 8 11 15 23 15
28 0 14 -18 9 -24 -8z M5192 5309 c2 -7 10 -15 17 -17 8 -3 12 1 9 9 -2 7 -10
15 -17 17 -8 3 -12 -1 -9 -9z M1890 5300 c0 -9 31 -30 44 -30 16 0 3 18 -19
28 -14 7 -25 8 -25 2z M4096 5264 c-9 -23 -7 -36 3 -30 12 8 21 46 11 46 -4 0
-11 -7 -14 -16z M725 5240 c-10 -11 -16 -22 -13 -25 3 -3 13 4 23 15 10 11 16
22 13 25 -3 3 -13 -4 -23 -15z M1990 5250 c0 -9 31 -30 44 -30 16 0 3 18 -19
28 -14 7 -25 8 -25 2z M5405 5240 c3 -5 13 -10 21 -10 8 0 14 5 14 10 0 6 -9
10 -21 10 -11 0 -17 -4 -14 -10z M5490 5240 c0 -5 12 -10 28 -9 24 0 25 1 7 9
-27 12 -35 12 -35 0z M4280 5219 c-13 -24 -4 -41 10 -19 10 16 13 40 5 40 -2
0 -9 -9 -15 -21z M5597 5233 c-7 -10 21 -49 29 -40 3 3 -1 15 -9 27 -8 12 -17
18 -20 13z M2080 5202 c0 -13 48 -33 54 -23 3 4 -6 13 -20 20 -30 13 -34 14
-34 3z M645 5160 c-10 -11 -14 -20 -8 -20 5 0 18 9 28 20 10 11 14 20 8 20 -5
0 -18 -9 -28 -20z M2180 5152 c0 -5 11 -14 25 -20 29 -14 34 2 6 18 -24 12
-31 13 -31 2z M5662 5115 c6 -13 15 -22 19 -19 11 6 -8 44 -21 44 -6 0 -5 -10
2 -25z M2280 5101 c0 -10 24 -21 43 -21 7 0 3 7 -7 15 -22 17 -36 19 -36 6z
M590 5070 c0 -16 5 -30 10 -30 6 0 10 14 10 30 0 17 -4 30 -10 30 -5 0 -10
-13 -10 -30z M4015 5059 c-6 -19 0 -38 9 -28 10 12 16 49 7 49 -5 0 -13 -9
-16 -21z M2384 5045 c22 -17 36 -19 36 -6 0 10 -24 21 -43 21 -7 0 -3 -7 7
-15z M5710 5042 c0 -5 7 -17 15 -28 15 -19 20 -8 9 20 -6 17 -24 22 -24 8z
M4555 4998 c-32 -38 -29 -81 11 -115 54 -48 135 -12 137 61 2 81 -95 117 -148
54z M2470 5010 c0 -9 31 -30 44 -30 16 0 3 18 -19 28 -14 7 -25 8 -25 2z
M3810 4990 c0 -5 14 -10 30 -10 17 0 30 5 30 10 0 6 -13 10 -30 10 -16 0 -30
-4 -30 -10z M3920 4990 c0 -5 11 -10 25 -10 14 0 25 5 25 10 0 6 -11 10 -25
10 -14 0 -25 -4 -25 -10z M4030 4990 c0 -5 11 -10 25 -10 14 0 25 5 25 10 0 6
-11 10 -25 10 -14 0 -25 -4 -25 -10z M4140 4990 c0 -5 11 -10 25 -10 14 0 25
5 25 10 0 6 -11 10 -25 10 -14 0 -25 -4 -25 -10z M4240 4990 c0 -5 5 -10 10
-10 6 0 10 5 10 10 0 6 -4 10 -10 10 -5 0 -10 -4 -10 -10z M590 4965 c0 -14 5
-25 10 -25 6 0 10 11 10 25 0 14 -4 25 -10 25 -5 0 -10 -11 -10 -25z M3979
4964 c-11 -30 -3 -46 11 -24 10 16 13 50 5 50 -3 0 -10 -12 -16 -26z M2570
4960 c0 -9 31 -30 44 -30 16 0 3 18 -19 28 -14 7 -25 8 -25 2z M5770 4941 c10
-21 30 -37 30 -26 0 14 -21 45 -31 45 -6 0 -6 -7 1 -19z M2660 4912 c0 -13 48
-33 54 -23 3 4 -6 13 -20 20 -30 13 -34 14 -34 3z M590 4855 c0 -14 5 -25 10
-25 6 0 10 11 10 25 0 14 -4 25 -10 25 -5 0 -10 -11 -10 -25z M3960 4855 c0
-14 5 -25 10 -25 6 0 10 11 10 25 0 14 -4 25 -10 25 -5 0 -10 -11 -10 -25z
M5820 4863 c1 -14 30 -47 36 -41 6 7 -17 48 -28 48 -5 0 -8 -3 -8 -7z M2750
4848 c0 -18 27 -44 37 -34 4 4 -3 16 -15 29 -18 17 -22 18 -22 5z M3647 4795
c-9 -20 -17 -40 -17 -45 0 -9 69 -35 75 -28 5 4 -27 93 -36 102 -3 3 -13 -10
-22 -29z M2820 4768 c0 -18 27 -44 37 -34 4 4 -3 16 -15 29 -18 17 -22 18 -22
5z M5881 4770 c0 -21 26 -53 33 -42 3 6 -3 21 -14 33 -13 17 -19 19 -19 9z
M592 4745 c0 -16 2 -22 5 -12 2 9 2 23 0 30 -3 6 -5 -1 -5 -18z M3962 4745 c0
-16 2 -22 5 -12 2 9 2 23 0 30 -3 6 -5 -1 -5 -18z M3642 4690 c-12 -10 -18
-21 -14 -24 10 -6 48 31 41 38 -2 2 -14 -4 -27 -14z M2890 4681 c0 -13 29 -35
37 -28 7 8 -15 37 -28 37 -5 0 -9 -4 -9 -9z M5937 4683 c-3 -5 3 -20 14 -33
12 -17 19 -20 18 -10 0 20 -26 54 -32 43z M592 4640 c0 -19 2 -27 5 -17 2 9 2
25 0 35 -3 9 -5 1 -5 -18z M3950 4635 c0 -14 5 -25 10 -25 6 0 10 11 10 25 0
14 -4 25 -10 25 -5 0 -10 -11 -10 -25z M3554 4616 c-10 -8 -15 -18 -11 -22 4
-4 17 2 30 14 24 25 12 30 -19 8z M2960 4602 c0 -14 36 -43 43 -35 4 3 0 15
-10 25 -17 19 -33 24 -33 10z M6002 4565 c6 -14 15 -25 20 -25 11 0 10 7 -2
31 -16 28 -32 23 -18 -6z M592 4530 c0 -19 2 -27 5 -17 2 9 2 25 0 35 -3 9 -5
1 -5 -18z M3470 4545 c-21 -25 -1 -31 23 -7 17 18 18 22 5 22 -8 0 -21 -7 -28
-15z M3951 4538 c-1 -15 4 -30 9 -33 12 -7 12 12 0 40 -8 18 -9 17 -9 -7z
M3035 4520 c3 -5 16 -10 28 -9 21 0 21 1 2 9 -28 12 -37 12 -30 0z M3145 4520
c-4 -6 5 -10 19 -10 14 0 26 5 26 10 0 6 -9 10 -19 10 -11 0 -23 -4 -26 -10z
M3250 4520 c0 -5 11 -10 25 -10 14 0 25 5 25 10 0 6 -11 10 -25 10 -14 0 -25
-4 -25 -10z M3363 4523 c9 -2 25 -2 35 0 9 3 1 5 -18 5 -19 0 -27 -2 -17 -5z
M6050 4494 c0 -3 5 -14 10 -25 16 -28 32 -23 18 6 -10 22 -28 35 -28 19z
M3990 4453 c0 -19 11 -43 21 -43 13 0 11 14 -6 36 -8 10 -15 14 -15 7z M592
4425 c0 -16 2 -22 5 -12 2 9 2 23 0 30 -3 6 -5 -1 -5 -18z M6110 4399 c0 -9 7
-22 15 -29 19 -16 19 0 0 26 -12 16 -14 16 -15 3z M4040 4354 c0 -5 7 -19 15
-30 8 -10 15 -14 15 -8 0 5 -7 19 -15 30 -8 10 -15 14 -15 8z M586 4322 c-4
-13 -5 -26 -2 -29 10 -11 18 4 14 29 l-4 23 -8 -23z M6160 4313 c1 -14 30 -47
36 -41 6 7 -17 48 -28 48 -5 0 -8 -3 -8 -7z M4090 4263 c0 -19 11 -43 21 -43
13 0 11 14 -6 36 -8 10 -15 14 -15 7z M580 4205 c0 -14 5 -25 10 -25 6 0 10
11 10 25 0 14 -4 25 -10 25 -5 0 -10 -11 -10 -25z M6220 4219 c0 -17 27 -45
35 -37 3 3 -3 16 -14 29 -16 19 -20 20 -21 8z M4142 4145 c6 -14 15 -25 20
-25 11 0 10 7 -2 31 -16 28 -32 23 -18 -6z M6277 4134 c-3 -5 3 -21 14 -34 13
-18 19 -20 19 -9 0 21 -25 54 -33 43z M580 4100 c0 -16 5 -30 10 -30 6 0 10
14 10 30 0 17 -4 30 -10 30 -5 0 -10 -13 -10 -30z M4188 4074 c-8 -8 12 -54
24 -54 11 0 10 11 -5 38 -7 12 -16 20 -19 16z M6342 4015 c6 -14 15 -25 20
-25 11 0 10 7 -2 31 -16 28 -32 23 -18 -6z M580 3996 c0 -14 5 -28 10 -31 6
-4 10 7 10 24 0 17 -4 31 -10 31 -5 0 -10 -11 -10 -24z M4230 3974 c0 -3 5
-14 10 -25 16 -28 32 -23 18 6 -10 22 -28 35 -28 19z M6390 3942 c0 -5 6 -17
14 -28 19 -25 31 -12 14 15 -13 21 -28 28 -28 13z M580 3885 c0 -14 5 -25 10
-25 6 0 10 11 10 25 0 14 -4 25 -10 25 -5 0 -10 -11 -10 -25z M4280 3873 c1
-11 26 -43 33 -43 4 0 1 11 -5 25 -10 23 -28 35 -28 18z M6450 3849 c0 -16 27
-46 35 -38 2 2 -5 15 -15 29 -15 19 -20 21 -20 9z M580 3775 c0 -14 2 -25 4
-25 2 0 6 11 8 25 3 14 1 25 -3 25 -5 0 -9 -11 -9 -25z M4342 3755 c6 -13 15
-22 19 -19 11 6 -8 44 -21 44 -6 0 -5 -10 2 -25z M6467 3738 c-6 -21 -2 -36 7
-27 10 11 16 49 8 49 -5 0 -12 -10 -15 -22z M582 3670 c0 -19 2 -27 5 -17 2 9
2 25 0 35 -3 9 -5 1 -5 -18z M4380 3684 c0 -3 5 -14 10 -25 16 -28 32 -23 18
6 -10 22 -28 35 -28 19z M6437 3638 c-8 -28 4 -47 14 -22 11 27 11 44 0 44 -5
0 -11 -10 -14 -22z M582 3560 c0 -19 2 -27 5 -17 2 9 2 25 0 35 -3 9 -5 1 -5
-18z M4430 3582 c0 -5 7 -17 15 -28 15 -19 20 -8 9 20 -6 17 -24 22 -24 8z
M6410 3536 c-12 -33 -12 -36 -1 -36 10 0 25 50 17 58 -3 2 -10 -7 -16 -22z
M4480 3489 c0 -8 7 -24 15 -35 11 -15 14 -16 15 -3 0 8 -7 24 -15 35 -11 15
-14 16 -15 3z M582 3455 c0 -16 2 -22 5 -12 2 9 2 23 0 30 -3 6 -5 -1 -5 -18z
M6377 3428 c-6 -21 -2 -36 7 -27 10 11 16 49 8 49 -5 0 -12 -10 -15 -22z
M4530 3393 c0 -19 11 -43 21 -43 13 0 11 14 -6 36 -8 10 -15 14 -15 7z M582
3345 c0 -16 2 -22 5 -12 2 9 2 23 0 30 -3 6 -5 -1 -5 -18z M6346 3324 c-6 -24
-2 -43 8 -33 11 10 17 59 8 59 -5 0 -13 -12 -16 -26z M4580 3299 c0 -8 7 -24
15 -35 11 -14 14 -15 14 -4 0 8 -6 24 -14 34 -11 15 -15 16 -15 5z M570 3235
c0 -14 5 -25 10 -25 6 0 10 11 10 25 0 14 -4 25 -10 25 -5 0 -10 -11 -10 -25z
M6315 3219 c-6 -19 0 -38 9 -28 10 12 16 49 7 49 -5 0 -13 -9 -16 -21z M4630
3203 c0 -19 11 -43 21 -43 13 0 11 14 -6 36 -8 10 -15 14 -15 7z M570 3130 c0
-16 5 -30 10 -30 6 0 10 14 10 30 0 17 -4 30 -10 30 -5 0 -10 -13 -10 -30z
M6287 3118 c-6 -21 -2 -36 7 -27 10 11 16 49 8 49 -5 0 -12 -10 -15 -22z
M4682 3085 c6 -14 15 -25 20 -25 11 0 10 7 -2 31 -16 28 -32 23 -18 -6z M570
3020 c0 -16 5 -30 10 -30 6 0 10 14 10 30 0 17 -4 30 -10 30 -5 0 -10 -13 -10
-30z M6260 3024 c0 -8 5 -12 10 -9 6 3 10 10 10 16 0 5 -4 9 -10 9 -5 0 -10
-7 -10 -16z M4726 3012 c-3 -5 3 -21 14 -33 22 -27 26 -16 6 20 -7 13 -16 19
-20 13z M570 2915 c0 -14 5 -25 10 -25 6 0 10 11 10 25 0 14 -4 25 -10 25 -5
0 -10 -11 -10 -25z M4730 2885 c0 -14 5 -25 10 -25 6 0 10 11 10 25 0 14 -4
25 -10 25 -5 0 -10 -11 -10 -25z M570 2805 c0 -14 5 -25 10 -25 6 0 10 11 10
25 0 14 -4 25 -10 25 -5 0 -10 -11 -10 -25z M4720 2775 c0 -14 5 -25 10 -25 6
0 10 11 10 25 0 14 -4 25 -10 25 -5 0 -10 -11 -10 -25z M572 2695 c0 -16 2
-22 5 -12 2 9 2 23 0 30 -3 6 -5 -1 -5 -18z M572 2590 c0 -19 2 -27 5 -17 2 9
2 25 0 35 -3 9 -5 1 -5 -18z M572 2480 c0 -19 2 -27 5 -17 2 9 2 25 0 35 -3 9
-5 1 -5 -18z M572 2375 c0 -16 2 -22 5 -12 2 9 2 23 0 30 -3 6 -5 -1 -5 -18z
M572 2265 c0 -16 2 -22 5 -12 2 9 2 23 0 30 -3 6 -5 -1 -5 -18z M560 2155 c0
-14 5 -25 10 -25 6 0 10 11 10 25 0 14 -4 25 -10 25 -5 0 -10 -11 -10 -25z
M4800 2125 c0 -3 11 -28 25 -55 l25 -50 -25 0 c-14 0 -25 -2 -25 -4 0 -2 27
-59 59 -127 l60 -124 24 55 c14 30 38 88 55 128 l31 72 -24 0 -25 0 25 55 24
55 -115 0 c-62 0 -114 -2 -114 -5z m197 -37 c-8 -18 -27 -62 -42 -98 -15 -36
-30 -69 -34 -73 -6 -6 -68 114 -98 191 -4 9 18 12 91 12 l96 0 -13 -32z m-111
-146 l32 -67 30 68 c19 40 37 67 47 67 8 0 15 -1 15 -3 0 -9 -82 -193 -89
-200 -4 -4 -27 34 -51 85 -57 124 -55 118 -34 118 13 -1 28 -21 50 -68z M600
2092 c0 -10 41 -24 49 -17 6 7 0 11 -26 19 -13 4 -23 3 -23 -2z M700 2050 c0
-9 31 -30 44 -30 16 0 3 18 -19 28 -14 7 -25 8 -25 2z M800 2001 c0 -10 24
-21 43 -21 7 0 3 7 -7 15 -22 17 -36 19 -36 6z M904 1945 c11 -8 27 -15 35
-15 13 1 12 4 -3 15 -11 8 -27 15 -35 15 -13 -1 -12 -4 3 -15z M990 1912 c0
-13 48 -33 54 -23 3 4 -6 13 -20 20 -30 13 -34 14 -34 3z M1090 1861 c0 -10
24 -21 43 -21 7 0 3 7 -7 15 -22 17 -36 19 -36 6z M1190 1820 c0 -9 31 -30 44
-30 16 0 3 18 -19 28 -14 7 -25 8 -25 2z M1290 1770 c0 -9 39 -25 46 -18 2 3
-7 10 -21 16 -14 6 -25 7 -25 2z M1394 1715 c22 -17 36 -19 36 -6 0 10 -24 21
-43 21 -7 0 -3 -7 7 -15z M1480 1681 c0 -4 12 -13 26 -20 20 -9 25 -9 22 0 -5
14 -48 32 -48 20z M1570 1610 c0 -16 5 -30 10 -30 6 0 10 14 10 30 0 17 -4 30
-10 30 -5 0 -10 -13 -10 -30z M1572 1500 c0 -19 2 -27 5 -17 2 9 2 25 0 35 -3
9 -5 1 -5 -18z M1560 1395 c0 -14 5 -25 10 -25 6 0 10 11 10 25 0 14 -4 25
-10 25 -5 0 -10 -11 -10 -25z M1560 1285 c0 -14 2 -25 4 -25 2 0 6 11 8 25 3
14 1 25 -3 25 -5 0 -9 -11 -9 -25z"/>
</g></g>
  <g transform="translate(159 235)" filter="url(#shadow)">
  <rect x="-15" y="-19" width="30" height="30" rx="7" fill="#ffe45c" stroke="#061329" stroke-width="3"/>
  <text y="4" text-anchor="middle" fill="#08162b" font-family="system-ui,-apple-system,sans-serif" font-size="18" font-weight="950">1</text>
</g><g transform="translate(95 27)" filter="url(#shadow)">
  <rect x="-15" y="-19" width="30" height="30" rx="7" fill="#ffe45c" stroke="#061329" stroke-width="3"/>
  <text y="4" text-anchor="middle" fill="#08162b" font-family="system-ui,-apple-system,sans-serif" font-size="18" font-weight="950">2</text>
</g><g transform="translate(414 160)" filter="url(#shadow)">
  <rect x="-15" y="-19" width="30" height="30" rx="7" fill="#ffe45c" stroke="#061329" stroke-width="3"/>
  <text y="4" text-anchor="middle" fill="#08162b" font-family="system-ui,-apple-system,sans-serif" font-size="18" font-weight="950">3</text>
</g><g transform="translate(492 426)" filter="url(#shadow)">
  <rect x="-15" y="-19" width="30" height="30" rx="7" fill="#ffe45c" stroke="#061329" stroke-width="3"/>
  <text y="4" text-anchor="middle" fill="#08162b" font-family="system-ui,-apple-system,sans-serif" font-size="18" font-weight="950">4</text>
</g><g transform="translate(558 130)" filter="url(#shadow)">
  <rect x="-15" y="-19" width="30" height="30" rx="7" fill="#ffe45c" stroke="#061329" stroke-width="3"/>
  <text y="4" text-anchor="middle" fill="#08162b" font-family="system-ui,-apple-system,sans-serif" font-size="18" font-weight="950">5</text>
</g>
  <g transform="translate(118 238)" stroke="#061329" stroke-width="4" stroke-linejoin="round" filter="url(#shadow)"><rect x="-24" y="-7" width="48" height="14" rx="7" fill="#61e89f"/></g><g transform="translate(405 146)" stroke="#061329" stroke-width="4" stroke-linejoin="round" filter="url(#shadow)"><rect x="-24" y="-7" width="48" height="14" rx="7" fill="#ac65c6"/></g><g transform="translate(465 405)" stroke="#061329" stroke-width="4" stroke-linejoin="round" filter="url(#shadow)"><rect x="-24" y="-7" width="48" height="14" rx="7" fill="#ffe45c"/></g><g transform="translate(575 94)" stroke="#061329" stroke-width="4" stroke-linejoin="round" filter="url(#shadow)"><rect x="-24" y="-7" width="48" height="14" rx="7" fill="#ffe45c"/></g><g transform="translate(636 588)" stroke="#061329" stroke-width="4" stroke-linejoin="round" filter="url(#shadow)"><rect x="-24" y="-7" width="48" height="14" rx="7" fill="#ac65c6"/></g>
  <g transform="translate(123 561)" filter="url(#shadow)">
  <circle r="14" fill="#39d6ff" stroke="#061329" stroke-width="4"/><path d="M0-18-14-42h28Z" fill="#39d6ff" stroke="#061329" stroke-width="4"/>
  <text y="-48" text-anchor="middle" fill="#39d6ff" font-family="system-ui,-apple-system,sans-serif" font-size="17" font-weight="900">スタート</text>
</g><g transform="translate(620 95)" filter="url(#shadow)">
  <circle r="14" fill="#ff5ca8" stroke="#061329" stroke-width="4"/><path d="M0 18-14 42h28Z" fill="#ff5ca8" stroke="#061329" stroke-width="4"/>
  <text y="61" text-anchor="middle" fill="#ff5ca8" font-family="system-ui,-apple-system,sans-serif" font-size="17" font-weight="900">次のエリアへ</text>
</g>
</g>
<g transform="translate(18 689)">
  <rect width="652" height="448" rx="14" fill="#0b2745" stroke="#2c648b" stroke-width="2"/>
  <text x="24" y="34" fill="#e7f9ff" font-family="system-ui,-apple-system,sans-serif" font-size="19" font-weight="900">重要ポイント</text>
  <g transform="translate(40 70)" filter="url(#shadow)">
  <rect x="-15" y="-19" width="30" height="30" rx="7" fill="#ffe45c" stroke="#061329" stroke-width="3"/>
  <text y="4" text-anchor="middle" fill="#08162b" font-family="system-ui,-apple-system,sans-serif" font-size="18" font-weight="950">1</text>
</g><text x="68" y="66" fill="#bcd7ea" font-family="system-ui,-apple-system,sans-serif" font-size="15" font-weight="650"><tspan x="68" dy="0">最初の箱はフォースかレンジャーが回収し、他は先行。</tspan></text><g transform="translate(40 138)" filter="url(#shadow)">
  <rect x="-15" y="-19" width="30" height="30" rx="7" fill="#ffe45c" stroke="#061329" stroke-width="3"/>
  <text y="4" text-anchor="middle" fill="#08162b" font-family="system-ui,-apple-system,sans-serif" font-size="18" font-weight="950">2</text>
</g><text x="68" y="134" fill="#bcd7ea" font-family="system-ui,-apple-system,sans-serif" font-size="15" font-weight="650"><tspan x="68" dy="0">強い2人はバリア前で待機し、残り2人がスイッチへ。</tspan></text><g transform="translate(40 206)" filter="url(#shadow)">
  <rect x="-15" y="-19" width="30" height="30" rx="7" fill="#ffe45c" stroke="#061329" stroke-width="3"/>
  <text y="4" text-anchor="middle" fill="#08162b" font-family="system-ui,-apple-system,sans-serif" font-size="18" font-weight="950">3</text>
</g><text x="68" y="202" fill="#bcd7ea" font-family="system-ui,-apple-system,sans-serif" font-size="15" font-weight="650"><tspan x="68" dy="0">敵を無視してスイッチを踏む。最弱役を残し、もう1人は1→1′で援護へ。</tspan></text><g transform="translate(40 274)" filter="url(#shadow)">
  <rect x="-15" y="-19" width="30" height="30" rx="7" fill="#ffe45c" stroke="#061329" stroke-width="3"/>
  <text y="4" text-anchor="middle" fill="#08162b" font-family="system-ui,-apple-system,sans-serif" font-size="18" font-weight="950">4</text>
</g><text x="68" y="270" fill="#bcd7ea" font-family="system-ui,-apple-system,sans-serif" font-size="15" font-weight="650"><tspan x="68" dy="0">殲滅後、1人が南へ走り敵を無視して桃色スイッチ。他は扉前待機。</tspan></text><g transform="translate(40 342)" filter="url(#shadow)">
  <rect x="-15" y="-19" width="30" height="30" rx="7" fill="#ffe45c" stroke="#061329" stroke-width="3"/>
  <text y="4" text-anchor="middle" fill="#08162b" font-family="system-ui,-apple-system,sans-serif" font-size="18" font-weight="950">5</text>
</g><text x="68" y="338" fill="#bcd7ea" font-family="system-ui,-apple-system,sans-serif" font-size="15" font-weight="650"><tspan x="68" dy="0">待機役が黄色スイッチで開門し、そのまま敵を無視して次エリア用スイッチへ。</tspan></text>
  <text x="628" y="432" text-anchor="end" fill="#7698b1" font-family="system-ui,-apple-system,sans-serif" font-size="13" font-weight="650">攻略情報：PSO World · Sakura</text>
</g>
</svg>